<svg width="263" height="263" viewBox="0 0 263 263" fill="none" xmlns="http://www.w3.org/2000/svg">
<path d="M67.3457 216.363C68.037 215.41 69.372 215.196 70.327 215.886C71.2819 216.576 71.495 217.909 70.8038 218.862L57.2571 237.548C56.5659 238.501 55.2317 238.714 54.2768 238.024C53.3218 237.334 53.1078 236.002 53.799 235.048L67.3457 216.363Z" fill="url(#paint0_radial_878_10319)"/>
<path d="M57.2227 207.692C58.0279 206.832 59.3792 206.787 60.2403 207.591C61.1012 208.395 61.1465 209.743 60.3414 210.603L44.5619 227.451C43.7567 228.311 42.4054 228.356 41.5443 227.552C40.6832 226.748 40.6381 225.399 41.4433 224.54L57.2227 207.692Z" fill="url(#paint1_radial_878_10319)"/>
<path d="M48.2662 197.827C49.1727 197.074 50.5192 197.198 51.2729 198.103C52.0265 199.008 51.9027 200.351 50.9963 201.104L33.2313 215.851C32.3248 216.603 30.9783 216.48 30.2245 215.575C29.4711 214.67 29.5949 213.326 30.5012 212.574L48.2662 197.827Z" fill="url(#paint2_radial_878_10319)"/>
<path d="M40.6153 186.922C41.6089 186.289 42.9287 186.579 43.5632 187.571C44.1975 188.563 43.9063 189.881 42.9128 190.514L23.4409 202.929C22.4473 203.563 21.1275 203.272 20.4929 202.28C19.8584 201.288 20.1489 199.971 21.1424 199.337L40.6153 186.922Z" fill="url(#paint3_radial_878_10319)"/>
<path d="M34.3899 175.146C35.4549 174.641 36.7284 175.094 37.2338 176.158C37.7391 177.221 37.2853 178.492 36.2204 178.997L15.3466 188.885C14.2816 189.39 13.0082 188.937 12.5027 187.874C11.9972 186.81 12.4509 185.539 13.516 185.035L34.3899 175.146Z" fill="url(#paint4_radial_878_10319)"/>
<path d="M29.6859 162.688C30.8058 162.32 32.0124 162.928 32.3808 164.046C32.7491 165.164 32.1398 166.368 31.0201 166.736L9.07208 173.942C7.95215 174.31 6.7456 173.702 6.37726 172.584C6.00902 171.466 6.61804 170.261 7.73791 169.894L29.6859 162.688Z" fill="url(#paint5_radial_878_10319)"/>
<path d="M26.5781 149.74C27.7351 149.515 28.8562 150.269 29.0816 151.424C29.307 152.579 28.5514 153.698 27.3943 153.923L4.71642 158.334C3.55932 158.559 2.43849 157.806 2.2129 156.651C1.98743 155.496 2.74228 154.377 3.89924 154.152L26.5781 149.74Z" fill="url(#paint6_radial_878_10319)"/>
<path d="M25.1164 136.505C26.2926 136.427 27.3103 137.314 27.3894 138.489C27.4685 139.663 26.579 140.679 25.4029 140.758L2.35024 142.305C1.17395 142.384 0.156347 141.496 0.0772477 140.322C-0.00176357 139.148 0.887547 138.132 2.06378 138.053L25.1164 136.505Z" fill="url(#paint7_radial_878_10319)"/>
<path d="M2.259 121.852L25.3244 123.193C26.5012 123.262 27.3998 124.269 27.3315 125.444C27.263 126.619 26.2531 127.516 25.0762 127.447L2.01081 126.107C0.833907 126.038 -0.0648552 125.03 0.00367234 123.855C0.0724381 122.68 1.08222 121.784 2.259 121.852Z" fill="url(#paint8_radial_878_10319)"/>
<path d="M1.99021 107.508C2.20544 106.351 3.31898 105.587 4.47804 105.802L27.1952 110.01C28.3541 110.225 29.1191 111.337 28.9041 112.494C28.689 113.651 27.5753 114.414 26.4162 114.2L3.69912 109.992C2.53996 109.778 1.77512 108.665 1.99021 107.508Z" fill="url(#paint9_radial_878_10319)"/>
<path d="M6.0084 91.5364C6.36667 90.4151 7.56826 89.7959 8.69145 90.1536L30.7032 97.1628C31.8263 97.5205 32.4465 98.7192 32.0884 99.8404C31.7302 100.962 30.5286 101.581 29.4054 101.223L7.39358 94.214C6.27072 93.8563 5.6505 92.6575 6.0084 91.5364Z" fill="url(#paint10_radial_878_10319)"/>
<path d="M11.9945 76.1919C12.4903 75.1241 13.759 74.6598 14.8286 75.1547L35.7907 84.8553C36.8602 85.3503 37.3253 86.6169 36.8296 87.6846C36.3338 88.7523 35.065 89.2166 33.9955 88.7218L13.0334 79.0212C11.9639 78.5263 11.4989 77.2596 11.9945 76.1919Z" fill="url(#paint11_radial_878_10319)"/>
<path d="M19.8533 61.7141C20.479 60.7166 21.7961 60.4148 22.7954 61.0393L42.3782 73.2793C43.3774 73.9038 43.6807 75.2188 43.0551 76.2164C42.4294 77.2138 41.1122 77.5157 40.113 76.8911L20.5302 64.6512C19.531 64.0266 19.2277 62.7116 19.8533 61.7141Z" fill="url(#paint12_radial_878_10319)"/>
<path d="M29.4642 48.3302C30.2098 47.4185 31.5548 47.2832 32.4681 48.0276L50.3655 62.6141C51.2787 63.3584 51.4142 64.7012 50.6686 65.6129C49.9232 66.5244 48.579 66.6604 47.6658 65.9165L29.7683 51.329C28.8552 50.5847 28.7188 49.2419 29.4642 48.3302Z" fill="url(#paint13_radial_878_10319)"/>
<path d="M40.6771 36.2518C41.5308 35.4404 42.8817 35.4733 43.6947 36.3253L59.6262 53.0321C60.4388 53.8846 60.4054 55.2332 59.5516 56.0446C58.6978 56.8561 57.3469 56.8226 56.5341 55.9702L40.6026 39.2643C39.79 38.4119 39.8235 37.0633 40.6771 36.2518Z" fill="url(#paint14_radial_878_10319)"/>
<path d="M53.3125 25.666C54.2612 24.9674 55.5978 25.1684 56.2976 26.1155L70.0121 44.6782C70.7119 45.6254 70.5096 46.9597 69.5608 47.6584C68.6122 48.3567 67.2765 48.1556 66.5766 47.2088L52.8612 28.6461C52.1614 27.699 52.3638 26.3646 53.3125 25.666Z" fill="url(#paint15_radial_878_10319)"/>
<path d="M67.175 16.7401C68.2038 16.1653 69.505 16.5318 70.0808 17.5589L81.3643 37.6866C81.94 38.7136 81.572 40.0126 80.5432 40.5874C79.5145 41.1619 78.2142 40.7954 77.6384 39.7687L66.3549 19.64C65.7794 18.6131 66.1467 17.315 67.175 16.7401Z" fill="url(#paint16_radial_878_10319)"/>
<path d="M82.0441 9.61335C83.1367 9.17163 84.3817 9.69781 84.8243 10.7886L93.4993 32.1669C93.9418 33.2577 93.4146 34.5005 92.3221 34.9424C91.2294 35.3843 89.9846 34.858 89.5419 33.7672L80.8669 12.3888C80.4244 11.298 80.9515 10.0552 82.0441 9.61335Z" fill="url(#paint17_radial_878_10319)"/>
<path d="M97.6892 4.39731C98.8285 4.09536 99.997 4.77297 100.3 5.91041L106.231 28.2025C106.533 29.34 105.855 30.5074 104.715 30.8095C103.576 31.1114 102.407 30.4346 102.105 29.2974L96.1735 7.00435C95.8709 5.86682 96.5497 4.69942 97.6892 4.39731Z" fill="url(#paint18_radial_878_10319)"/>
<path d="M113.863 1.17523C115.031 1.01765 116.107 1.83536 116.265 3.00172L119.358 25.8599C119.515 27.0261 118.696 28.0988 117.528 28.2564C116.36 28.4139 115.284 27.5962 115.127 26.4299L112.033 3.57171C111.876 2.40556 112.695 1.33289 113.863 1.17523Z" fill="url(#paint19_radial_878_10319)"/>
<path d="M131.51 0C132.689 0.000132311 133.645 0.954197 133.645 2.13108V25.1969C133.645 26.3737 132.689 27.3278 131.51 27.3279C130.331 27.3279 129.376 26.3738 129.376 25.1969V2.13108C129.376 0.954116 130.331 -5.14467e-08 131.51 0Z" fill="url(#paint20_radial_878_10319)"/>
<defs>
<radialGradient id="paint0_radial_878_10319" cx="0" cy="0" r="1" gradientUnits="userSpaceOnUse" gradientTransform="translate(-22.5 72) rotate(18.1701) scale(410.468 410.468)">
<stop stop-color="#FFD6C7"/>
<stop offset="0.400088" stop-color="#FDD4C6"/>
<stop offset="0.480292" stop-color="#E3DDD9" stop-opacity="0.48"/>
</radialGradient>
<radialGradient id="paint1_radial_878_10319" cx="0" cy="0" r="1" gradientUnits="userSpaceOnUse" gradientTransform="translate(-22.5 72) rotate(18.1701) scale(410.468 410.468)">
<stop stop-color="#FFD6C7"/>
<stop offset="0.400088" stop-color="#FDD4C6"/>
<stop offset="0.480292" stop-color="#E3DDD9" stop-opacity="0.48"/>
</radialGradient>
<radialGradient id="paint2_radial_878_10319" cx="0" cy="0" r="1" gradientUnits="userSpaceOnUse" gradientTransform="translate(-22.5 72) rotate(18.1701) scale(410.468 410.468)">
<stop stop-color="#FFD6C7"/>
<stop offset="0.400088" stop-color="#FDD4C6"/>
<stop offset="0.480292" stop-color="#E3DDD9" stop-opacity="0.48"/>
</radialGradient>
<radialGradient id="paint3_radial_878_10319" cx="0" cy="0" r="1" gradientUnits="userSpaceOnUse" gradientTransform="translate(-22.5 72) rotate(18.1701) scale(410.468 410.468)">
<stop stop-color="#FFD6C7"/>
<stop offset="0.400088" stop-color="#FDD4C6"/>
<stop offset="0.480292" stop-color="#E3DDD9" stop-opacity="0.48"/>
</radialGradient>
<radialGradient id="paint4_radial_878_10319" cx="0" cy="0" r="1" gradientUnits="userSpaceOnUse" gradientTransform="translate(-22.5 72) rotate(18.1701) scale(410.468 410.468)">
<stop stop-color="#FFD6C7"/>
<stop offset="0.400088" stop-color="#FDD4C6"/>
<stop offset="0.480292" stop-color="#E3DDD9" stop-opacity="0.48"/>
</radialGradient>
<radialGradient id="paint5_radial_878_10319" cx="0" cy="0" r="1" gradientUnits="userSpaceOnUse" gradientTransform="translate(-22.5 72) rotate(18.1701) scale(410.468 410.468)">
<stop stop-color="#FFD6C7"/>
<stop offset="0.400088" stop-color="#FDD4C6"/>
<stop offset="0.480292" stop-color="#E3DDD9" stop-opacity="0.48"/>
</radialGradient>
<radialGradient id="paint6_radial_878_10319" cx="0" cy="0" r="1" gradientUnits="userSpaceOnUse" gradientTransform="translate(-22.5 72) rotate(18.1701) scale(410.468 410.468)">
<stop stop-color="#FFD6C7"/>
<stop offset="0.400088" stop-color="#FDD4C6"/>
<stop offset="0.480292" stop-color="#E3DDD9" stop-opacity="0.48"/>
</radialGradient>
<radialGradient id="paint7_radial_878_10319" cx="0" cy="0" r="1" gradientUnits="userSpaceOnUse" gradientTransform="translate(-22.5 72) rotate(18.1701) scale(410.468 410.468)">
<stop stop-color="#FFD6C7"/>
<stop offset="0.400088" stop-color="#FDD4C6"/>
<stop offset="0.480292" stop-color="#E3DDD9" stop-opacity="0.48"/>
</radialGradient>
<radialGradient id="paint8_radial_878_10319" cx="0" cy="0" r="1" gradientUnits="userSpaceOnUse" gradientTransform="translate(-22.5 72) rotate(18.1701) scale(410.468 410.468)">
<stop stop-color="#FFD6C7"/>
<stop offset="0.400088" stop-color="#FDD4C6"/>
<stop offset="0.480292" stop-color="#E3DDD9" stop-opacity="0.48"/>
</radialGradient>
<radialGradient id="paint9_radial_878_10319" cx="0" cy="0" r="1" gradientUnits="userSpaceOnUse" gradientTransform="translate(-22.5 72) rotate(18.1701) scale(410.468 410.468)">
<stop stop-color="#FFD6C7"/>
<stop offset="0.400088" stop-color="#FDD4C6"/>
<stop offset="0.480292" stop-color="#E3DDD9" stop-opacity="0.48"/>
</radialGradient>
<radialGradient id="paint10_radial_878_10319" cx="0" cy="0" r="1" gradientUnits="userSpaceOnUse" gradientTransform="translate(-22.5 72) rotate(18.1701) scale(410.468 410.468)">
<stop stop-color="#FFD6C7"/>
<stop offset="0.400088" stop-color="#FDD4C6"/>
<stop offset="0.480292" stop-color="#E3DDD9" stop-opacity="0.48"/>
</radialGradient>
<radialGradient id="paint11_radial_878_10319" cx="0" cy="0" r="1" gradientUnits="userSpaceOnUse" gradientTransform="translate(-22.5 72) rotate(18.1701) scale(410.468 410.468)">
<stop stop-color="#FFD6C7"/>
<stop offset="0.400088" stop-color="#FDD4C6"/>
<stop offset="0.480292" stop-color="#E3DDD9" stop-opacity="0.48"/>
</radialGradient>
<radialGradient id="paint12_radial_878_10319" cx="0" cy="0" r="1" gradientUnits="userSpaceOnUse" gradientTransform="translate(-22.5 72) rotate(18.1701) scale(410.468 410.468)">
<stop stop-color="#FFD6C7"/>
<stop offset="0.400088" stop-color="#FDD4C6"/>
<stop offset="0.480292" stop-color="#E3DDD9" stop-opacity="0.48"/>
</radialGradient>
<radialGradient id="paint13_radial_878_10319" cx="0" cy="0" r="1" gradientUnits="userSpaceOnUse" gradientTransform="translate(-22.5 72) rotate(18.1701) scale(410.468 410.468)">
<stop stop-color="#FFD6C7"/>
<stop offset="0.400088" stop-color="#FDD4C6"/>
<stop offset="0.480292" stop-color="#E3DDD9" stop-opacity="0.48"/>
</radialGradient>
<radialGradient id="paint14_radial_878_10319" cx="0" cy="0" r="1" gradientUnits="userSpaceOnUse" gradientTransform="translate(-22.5 72) rotate(18.1701) scale(410.468 410.468)">
<stop stop-color="#FFD6C7"/>
<stop offset="0.400088" stop-color="#FDD4C6"/>
<stop offset="0.480292" stop-color="#E3DDD9" stop-opacity="0.48"/>
</radialGradient>
<radialGradient id="paint15_radial_878_10319" cx="0" cy="0" r="1" gradientUnits="userSpaceOnUse" gradientTransform="translate(-22.5 72) rotate(18.1701) scale(410.468 410.468)">
<stop stop-color="#FFD6C7"/>
<stop offset="0.400088" stop-color="#FDD4C6"/>
<stop offset="0.480292" stop-color="#E3DDD9" stop-opacity="0.48"/>
</radialGradient>
<radialGradient id="paint16_radial_878_10319" cx="0" cy="0" r="1" gradientUnits="userSpaceOnUse" gradientTransform="translate(-22.5 72) rotate(18.1701) scale(410.468 410.468)">
<stop stop-color="#FFD6C7"/>
<stop offset="0.400088" stop-color="#FDD4C6"/>
<stop offset="0.480292" stop-color="#E3DDD9" stop-opacity="0.48"/>
</radialGradient>
<radialGradient id="paint17_radial_878_10319" cx="0" cy="0" r="1" gradientUnits="userSpaceOnUse" gradientTransform="translate(-22.5 72) rotate(18.1701) scale(410.468 410.468)">
<stop stop-color="#FFD6C7"/>
<stop offset="0.400088" stop-color="#FDD4C6"/>
<stop offset="0.480292" stop-color="#E3DDD9" stop-opacity="0.48"/>
</radialGradient>
<radialGradient id="paint18_radial_878_10319" cx="0" cy="0" r="1" gradientUnits="userSpaceOnUse" gradientTransform="translate(-22.5 72) rotate(18.1701) scale(410.468 410.468)">
<stop stop-color="#FFD6C7"/>
<stop offset="0.400088" stop-color="#FDD4C6"/>
<stop offset="0.480292" stop-color="#E3DDD9" stop-opacity="0.48"/>
</radialGradient>
<radialGradient id="paint19_radial_878_10319" cx="0" cy="0" r="1" gradientUnits="userSpaceOnUse" gradientTransform="translate(-22.5 72) rotate(18.1701) scale(410.468 410.468)">
<stop stop-color="#FFD6C7"/>
<stop offset="0.400088" stop-color="#FDD4C6"/>
<stop offset="0.480292" stop-color="#E3DDD9" stop-opacity="0.48"/>
</radialGradient>
<radialGradient id="paint20_radial_878_10319" cx="0" cy="0" r="1" gradientUnits="userSpaceOnUse" gradientTransform="translate(-22.5 72) rotate(18.1701) scale(410.468 410.468)">
<stop stop-color="#FFD6C7"/>
<stop offset="0.400088" stop-color="#FDD4C6"/>
<stop offset="0.480292" stop-color="#E3DDD9" stop-opacity="0.48"/>
</radialGradient>
</defs>
</svg>
