<svg width="263" height="263" viewBox="0 0 263 263" fill="none" xmlns="http://www.w3.org/2000/svg">
<path d="M67.3457 216.363C68.037 215.41 69.372 215.196 70.327 215.886C71.2819 216.576 71.495 217.909 70.8038 218.862L57.2571 237.548C56.5659 238.501 55.2317 238.714 54.2768 238.024C53.3218 237.334 53.1078 236.002 53.799 235.048L67.3457 216.363Z" fill="url(#paint0_radial_878_10323)"/>
<path d="M57.2227 207.692C58.0279 206.832 59.3792 206.787 60.2403 207.591C61.1012 208.395 61.1465 209.743 60.3414 210.603L44.5619 227.451C43.7567 228.311 42.4054 228.356 41.5443 227.552C40.6832 226.748 40.6381 225.399 41.4433 224.54L57.2227 207.692Z" fill="url(#paint1_radial_878_10323)"/>
<path d="M48.2662 197.827C49.1727 197.074 50.5192 197.198 51.2729 198.103C52.0265 199.008 51.9027 200.351 50.9963 201.104L33.2313 215.851C32.3248 216.603 30.9783 216.48 30.2245 215.575C29.4711 214.67 29.5949 213.326 30.5012 212.574L48.2662 197.827Z" fill="url(#paint2_radial_878_10323)"/>
<path d="M40.6153 186.922C41.6089 186.289 42.9287 186.579 43.5632 187.571C44.1975 188.563 43.9063 189.881 42.9128 190.514L23.4409 202.929C22.4473 203.563 21.1275 203.272 20.4929 202.28C19.8584 201.288 20.1489 199.971 21.1424 199.337L40.6153 186.922Z" fill="url(#paint3_radial_878_10323)"/>
<path d="M34.3899 175.146C35.4549 174.641 36.7284 175.094 37.2338 176.158C37.7391 177.221 37.2853 178.492 36.2204 178.997L15.3466 188.885C14.2816 189.39 13.0082 188.937 12.5027 187.874C11.9972 186.81 12.4509 185.539 13.516 185.035L34.3899 175.146Z" fill="url(#paint4_radial_878_10323)"/>
<path d="M29.6859 162.688C30.8058 162.32 32.0124 162.928 32.3808 164.046C32.7491 165.164 32.1398 166.368 31.0201 166.736L9.07208 173.942C7.95215 174.31 6.7456 173.702 6.37726 172.584C6.00902 171.466 6.61804 170.261 7.73791 169.894L29.6859 162.688Z" fill="url(#paint5_radial_878_10323)"/>
<path d="M26.5781 149.74C27.7351 149.515 28.8562 150.269 29.0816 151.424C29.307 152.579 28.5514 153.698 27.3943 153.923L4.71642 158.334C3.55932 158.559 2.43849 157.806 2.2129 156.651C1.98743 155.496 2.74228 154.377 3.89924 154.152L26.5781 149.74Z" fill="url(#paint6_radial_878_10323)"/>
<path d="M25.1164 136.505C26.2926 136.427 27.3103 137.314 27.3894 138.489C27.4685 139.663 26.579 140.679 25.4029 140.758L2.35024 142.305C1.17395 142.384 0.156347 141.496 0.0772477 140.322C-0.00176357 139.148 0.887547 138.132 2.06378 138.053L25.1164 136.505Z" fill="url(#paint7_radial_878_10323)"/>
<path d="M2.259 121.852L25.3244 123.193C26.5012 123.262 27.3998 124.269 27.3315 125.444C27.263 126.619 26.2531 127.516 25.0762 127.447L2.01081 126.107C0.833907 126.038 -0.0648552 125.03 0.00367234 123.855C0.0724381 122.68 1.08222 121.784 2.259 121.852Z" fill="url(#paint8_radial_878_10323)"/>
<path d="M1.99021 107.508C2.20544 106.351 3.31898 105.587 4.47804 105.802L27.1952 110.01C28.3541 110.225 29.1191 111.337 28.9041 112.494C28.689 113.651 27.5753 114.414 26.4162 114.2L3.69912 109.992C2.53996 109.778 1.77512 108.665 1.99021 107.508Z" fill="url(#paint9_radial_878_10323)"/>
<path d="M6.0084 91.5364C6.36667 90.4151 7.56826 89.7959 8.69145 90.1536L30.7032 97.1628C31.8263 97.5205 32.4465 98.7192 32.0884 99.8404C31.7302 100.962 30.5286 101.581 29.4054 101.223L7.39358 94.214C6.27072 93.8563 5.6505 92.6575 6.0084 91.5364Z" fill="url(#paint10_radial_878_10323)"/>
<path d="M11.9945 76.1919C12.4903 75.1241 13.759 74.6598 14.8286 75.1547L35.7907 84.8553C36.8602 85.3503 37.3253 86.6169 36.8296 87.6846C36.3338 88.7523 35.065 89.2166 33.9955 88.7218L13.0334 79.0212C11.9639 78.5263 11.4989 77.2596 11.9945 76.1919Z" fill="url(#paint11_radial_878_10323)"/>
<path d="M19.8533 61.7141C20.479 60.7166 21.7961 60.4148 22.7954 61.0393L42.3782 73.2793C43.3774 73.9038 43.6807 75.2188 43.0551 76.2164C42.4294 77.2138 41.1122 77.5157 40.113 76.8911L20.5302 64.6512C19.531 64.0266 19.2277 62.7116 19.8533 61.7141Z" fill="url(#paint12_radial_878_10323)"/>
<path d="M29.4642 48.3302C30.2098 47.4185 31.5548 47.2832 32.4681 48.0276L50.3655 62.6141C51.2787 63.3584 51.4142 64.7012 50.6686 65.6129C49.9232 66.5244 48.579 66.6604 47.6658 65.9165L29.7683 51.329C28.8552 50.5847 28.7188 49.2419 29.4642 48.3302Z" fill="url(#paint13_radial_878_10323)"/>
<path d="M40.6771 36.2518C41.5308 35.4404 42.8817 35.4733 43.6947 36.3253L59.6262 53.0321C60.4388 53.8846 60.4054 55.2332 59.5516 56.0446C58.6978 56.8561 57.3469 56.8226 56.5341 55.9702L40.6026 39.2643C39.79 38.4119 39.8235 37.0633 40.6771 36.2518Z" fill="url(#paint14_radial_878_10323)"/>
<path d="M53.3125 25.666C54.2612 24.9674 55.5978 25.1684 56.2976 26.1155L70.0121 44.6782C70.7119 45.6254 70.5096 46.9597 69.5608 47.6584C68.6122 48.3567 67.2765 48.1556 66.5766 47.2088L52.8612 28.6461C52.1614 27.699 52.3638 26.3646 53.3125 25.666Z" fill="url(#paint15_radial_878_10323)"/>
<path d="M67.175 16.7401C68.2038 16.1653 69.505 16.5318 70.0808 17.5589L81.3643 37.6866C81.94 38.7136 81.572 40.0126 80.5432 40.5874C79.5145 41.1619 78.2142 40.7954 77.6384 39.7687L66.3549 19.64C65.7794 18.6131 66.1467 17.315 67.175 16.7401Z" fill="url(#paint16_radial_878_10323)"/>
<path d="M82.0441 9.61335C83.1367 9.17163 84.3817 9.69781 84.8243 10.7886L93.4993 32.1669C93.9418 33.2577 93.4146 34.5005 92.3221 34.9424C91.2294 35.3843 89.9846 34.858 89.5419 33.7672L80.8669 12.3888C80.4244 11.298 80.9515 10.0552 82.0441 9.61335Z" fill="url(#paint17_radial_878_10323)"/>
<path d="M97.6892 4.39731C98.8285 4.09536 99.997 4.77297 100.3 5.91041L106.231 28.2025C106.533 29.34 105.855 30.5074 104.715 30.8095C103.576 31.1114 102.407 30.4346 102.105 29.2974L96.1735 7.00435C95.8709 5.86682 96.5497 4.69942 97.6892 4.39731Z" fill="url(#paint18_radial_878_10323)"/>
<path d="M113.863 1.17523C115.031 1.01765 116.107 1.83536 116.265 3.00172L119.358 25.8599C119.515 27.0261 118.696 28.0988 117.528 28.2564C116.36 28.4139 115.284 27.5962 115.127 26.4299L112.033 3.57171C111.876 2.40556 112.695 1.33289 113.863 1.17523Z" fill="url(#paint19_radial_878_10323)"/>
<path d="M131.51 0C132.689 0.000132311 133.645 0.954197 133.645 2.13108V25.1969C133.645 26.3737 132.689 27.3278 131.51 27.3279C130.331 27.3279 129.376 26.3738 129.376 25.1969V2.13108C129.376 0.954116 130.331 -5.14467e-08 131.51 0Z" fill="url(#paint20_radial_878_10323)"/>
<path d="M131.51 235.672C132.689 235.672 133.645 236.626 133.645 237.803V260.869C133.645 262.046 132.689 263 131.51 263C130.331 263 129.376 262.046 129.376 260.869V237.803C129.376 236.626 130.331 235.672 131.51 235.672Z" fill="url(#paint21_radial_878_10323)"/>
<path d="M118.471 234.854C119.64 235.002 120.469 236.067 120.322 237.235L117.434 260.12C117.287 261.287 116.219 262.115 115.049 261.968C113.88 261.82 113.051 260.755 113.198 259.587L116.086 236.702C116.233 235.535 117.301 234.707 118.471 234.854Z" fill="url(#paint22_radial_878_10323)"/>
<path d="M145.467 234.716C146.635 234.559 147.711 235.376 147.869 236.543L150.962 259.401C151.119 260.567 150.3 261.64 149.132 261.797C147.964 261.955 146.888 261.137 146.731 259.971L143.637 237.113C143.48 235.947 144.299 234.874 145.467 234.716Z" fill="url(#paint23_radial_878_10323)"/>
<path d="M103.038 233.952C103.33 232.812 104.492 232.125 105.634 232.417C106.776 232.709 107.466 233.87 107.174 235.01L101.443 257.355C101.151 258.495 99.9879 259.182 98.8458 258.891C97.704 258.599 97.0155 257.438 97.3076 256.298L103.038 233.952Z" fill="url(#paint24_radial_878_10323)"/>
<path d="M158.28 232.164C159.419 231.862 160.588 232.54 160.89 233.677L166.822 255.969C167.124 257.107 166.445 258.274 165.306 258.576C164.167 258.878 162.998 258.201 162.695 257.064L156.764 234.771C156.462 233.634 157.141 232.466 158.28 232.164Z" fill="url(#paint25_radial_878_10323)"/>
<path d="M90.4337 229.597C90.8666 228.502 92.1065 227.965 93.203 228.397C94.2994 228.83 94.8375 230.067 94.4048 231.162L85.922 252.617C85.4892 253.712 84.2493 254.249 83.1527 253.817C82.0565 253.384 81.5185 252.147 81.9509 251.053L90.4337 229.597Z" fill="url(#paint26_radial_878_10323)"/>
<path d="M170.672 228.035C171.765 227.593 173.01 228.12 173.452 229.21L182.127 250.589C182.57 251.679 182.043 252.922 180.95 253.364C179.857 253.806 178.612 253.28 178.17 252.189L169.495 230.811C169.052 229.72 169.579 228.477 170.672 228.035Z" fill="url(#paint27_radial_878_10323)"/>
<path d="M78.4723 223.702C79.0388 222.67 80.3363 222.293 81.3702 222.858C82.4041 223.424 82.7832 224.719 82.2168 225.751L71.1157 245.98C70.5493 247.012 69.2517 247.389 68.2178 246.824C67.184 246.259 66.805 244.964 67.3712 243.932L78.4723 223.702Z" fill="url(#paint28_radial_878_10323)"/>
<path d="M182.451 222.393C183.48 221.818 184.781 222.185 185.357 223.212L196.64 243.339C197.216 244.367 196.848 245.666 195.819 246.24C194.79 246.815 193.49 246.448 192.914 245.422L181.631 225.293C181.055 224.266 181.423 222.968 182.451 222.393Z" fill="url(#paint29_radial_878_10323)"/>
<path d="M67.3457 216.363C68.037 215.41 69.372 215.196 70.327 215.886C71.2819 216.576 71.495 217.909 70.8038 218.862L57.2571 237.548C56.5659 238.501 55.2317 238.714 54.2768 238.024C53.3218 237.334 53.1078 236.002 53.799 235.048L67.3457 216.363Z" fill="url(#paint30_radial_878_10323)"/>
<path d="M193.431 215.324C194.38 214.625 195.717 214.826 196.417 215.774L210.131 234.336C210.831 235.283 210.628 236.618 209.68 237.316C208.731 238.015 207.395 237.814 206.695 236.867L192.98 218.304C192.28 217.357 192.483 216.023 193.431 215.324Z" fill="url(#paint31_radial_878_10323)"/>
<path d="M57.2227 207.692C58.0279 206.832 59.3792 206.787 60.2403 207.591C61.1012 208.395 61.1465 209.743 60.3414 210.603L44.5619 227.451C43.7567 228.311 42.4054 228.356 41.5443 227.552C40.6832 226.748 40.6381 225.399 41.4433 224.54L57.2227 207.692Z" fill="url(#paint32_radial_878_10323)"/>
<path d="M203.442 206.94C204.295 206.128 205.646 206.161 206.459 207.013L222.391 223.72C223.203 224.572 223.17 225.921 222.316 226.732C221.462 227.544 220.111 227.511 219.298 226.658L203.367 209.952C202.554 209.1 202.588 207.751 203.442 206.94Z" fill="url(#paint33_radial_878_10323)"/>
<path d="M48.2662 197.827C49.1727 197.074 50.5192 197.198 51.2729 198.103C52.0265 199.008 51.9027 200.351 50.9963 201.104L33.2313 215.851C32.3248 216.603 30.9783 216.48 30.2245 215.575C29.4711 214.67 29.5949 213.326 30.5012 212.574L48.2662 197.827Z" fill="url(#paint34_radial_878_10323)"/>
<path d="M212.324 197.372C213.069 196.461 214.414 196.325 215.327 197.07L233.225 211.656C234.138 212.401 234.274 213.743 233.528 214.655C232.782 215.567 231.438 215.703 230.525 214.959L212.628 200.371C211.714 199.627 211.578 198.284 212.324 197.372Z" fill="url(#paint35_radial_878_10323)"/>
<path d="M40.6153 186.922C41.6089 186.289 42.9287 186.579 43.5632 187.571C44.1975 188.563 43.9063 189.881 42.9128 190.514L23.4409 202.929C22.4473 203.563 21.1275 203.272 20.4929 202.28C19.8584 201.288 20.1489 199.971 21.1424 199.337L40.6153 186.922Z" fill="url(#paint36_radial_878_10323)"/>
<path d="M219.939 186.772C220.565 185.774 221.882 185.473 222.881 186.097L242.464 198.337C243.463 198.962 243.766 200.277 243.141 201.274C242.515 202.272 241.198 202.573 240.199 201.949L220.616 189.709C219.617 189.084 219.313 187.769 219.939 186.772Z" fill="url(#paint37_radial_878_10323)"/>
<path d="M34.3899 175.146C35.4549 174.641 36.7284 175.094 37.2338 176.158C37.7391 177.221 37.2853 178.492 36.2204 178.997L15.3466 188.885C14.2816 189.39 13.0082 188.937 12.5027 187.874C11.9972 186.81 12.4509 185.539 13.516 185.035L34.3899 175.146Z" fill="url(#paint38_radial_878_10323)"/>
<path d="M226.167 175.305C226.663 174.237 227.932 173.772 229.002 174.267L249.964 183.968C251.033 184.463 251.498 185.73 251.003 186.797C250.507 187.865 249.238 188.329 248.168 187.834L227.206 178.134C226.137 177.639 225.672 176.372 226.167 175.305Z" fill="url(#paint39_radial_878_10323)"/>
<path d="M29.6859 162.688C30.8058 162.32 32.0124 162.928 32.3808 164.046C32.7491 165.164 32.1398 166.368 31.0201 166.736L9.07208 173.942C7.95215 174.31 6.7456 173.702 6.37726 172.584C6.00902 171.466 6.61804 170.261 7.73791 169.894L29.6859 162.688Z" fill="url(#paint40_radial_878_10323)"/>
<path d="M230.91 163.151C231.268 162.03 232.47 161.41 233.593 161.768L255.604 168.777C256.728 169.135 257.348 170.334 256.99 171.455C256.631 172.576 255.43 173.195 254.307 172.838L232.295 165.828C231.172 165.471 230.552 164.272 230.91 163.151Z" fill="url(#paint41_radial_878_10323)"/>
<path d="M26.5781 149.74C27.7351 149.515 28.8562 150.269 29.0816 151.424C29.307 152.579 28.5514 153.698 27.3943 153.923L4.71642 158.334C3.55932 158.559 2.43849 157.806 2.2129 156.651C1.98743 155.496 2.74228 154.377 3.89924 154.152L26.5781 149.74Z" fill="url(#paint42_radial_878_10323)"/>
<path d="M234.096 150.499C234.311 149.342 235.425 148.579 236.584 148.793L259.301 153.002C260.46 153.217 261.225 154.328 261.01 155.485C260.795 156.643 259.681 157.406 258.522 157.191L235.805 152.984C234.646 152.769 233.881 151.657 234.096 150.499Z" fill="url(#paint43_radial_878_10323)"/>
<path d="M25.1164 136.505C26.2926 136.427 27.3103 137.314 27.3894 138.489C27.4685 139.663 26.579 140.679 25.4029 140.758L2.35024 142.305C1.17395 142.384 0.156347 141.496 0.0772477 140.322C-0.00176357 139.148 0.887547 138.132 2.06378 138.053L25.1164 136.505Z" fill="url(#paint44_radial_878_10323)"/>
<path d="M2.259 121.852L25.3244 123.193C26.5012 123.262 27.3998 124.269 27.3315 125.444C27.263 126.619 26.2531 127.516 25.0762 127.447L2.01081 126.107C0.833907 126.038 -0.0648552 125.03 0.00367234 123.855C0.0724381 122.68 1.08222 121.784 2.259 121.852Z" fill="url(#paint45_radial_878_10323)"/>
<path d="M1.99021 107.508C2.20544 106.351 3.31898 105.587 4.47804 105.802L27.1952 110.01C28.3541 110.225 29.1191 111.337 28.9041 112.494C28.689 113.651 27.5753 114.414 26.4162 114.2L3.69912 109.992C2.53996 109.778 1.77512 108.665 1.99021 107.508Z" fill="url(#paint46_radial_878_10323)"/>
<path d="M6.0084 91.5364C6.36667 90.4151 7.56826 89.7959 8.69145 90.1536L30.7032 97.1628C31.8263 97.5205 32.4465 98.7192 32.0884 99.8404C31.7302 100.962 30.5286 101.581 29.4054 101.223L7.39358 94.214C6.27072 93.8563 5.6505 92.6575 6.0084 91.5364Z" fill="url(#paint47_radial_878_10323)"/>
<path d="M11.9945 76.1919C12.4903 75.1241 13.759 74.6598 14.8286 75.1547L35.7907 84.8553C36.8602 85.3503 37.3253 86.6169 36.8296 87.6846C36.3338 88.7523 35.065 89.2166 33.9955 88.7218L13.0334 79.0212C11.9639 78.5263 11.4989 77.2596 11.9945 76.1919Z" fill="url(#paint48_radial_878_10323)"/>
<path d="M19.8533 61.7141C20.479 60.7166 21.7961 60.4148 22.7954 61.0393L42.3782 73.2793C43.3774 73.9038 43.6807 75.2188 43.0551 76.2164C42.4294 77.2138 41.1122 77.5157 40.113 76.8911L20.5302 64.6512C19.531 64.0266 19.2277 62.7116 19.8533 61.7141Z" fill="url(#paint49_radial_878_10323)"/>
<path d="M29.4642 48.3302C30.2098 47.4185 31.5548 47.2832 32.4681 48.0276L50.3655 62.6141C51.2787 63.3584 51.4142 64.7012 50.6686 65.6129C49.9232 66.5244 48.579 66.6604 47.6658 65.9165L29.7683 51.329C28.8552 50.5847 28.7188 49.2419 29.4642 48.3302Z" fill="url(#paint50_radial_878_10323)"/>
<path d="M40.6771 36.2518C41.5308 35.4404 42.8817 35.4733 43.6947 36.3253L59.6262 53.0321C60.4388 53.8846 60.4054 55.2332 59.5516 56.0446C58.6978 56.8561 57.3469 56.8226 56.5341 55.9702L40.6026 39.2643C39.79 38.4119 39.8235 37.0633 40.6771 36.2518Z" fill="url(#paint51_radial_878_10323)"/>
<path d="M53.3125 25.666C54.2612 24.9674 55.5978 25.1684 56.2976 26.1155L70.0121 44.6782C70.7119 45.6254 70.5096 46.9597 69.5608 47.6584C68.6122 48.3567 67.2765 48.1556 66.5766 47.2088L52.8612 28.6461C52.1614 27.699 52.3638 26.3646 53.3125 25.666Z" fill="url(#paint52_radial_878_10323)"/>
<path d="M67.175 16.7401C68.2038 16.1653 69.505 16.5318 70.0808 17.5589L81.3643 37.6866C81.94 38.7136 81.572 40.0126 80.5432 40.5874C79.5145 41.1619 78.2142 40.7954 77.6384 39.7687L66.3549 19.64C65.7794 18.6131 66.1467 17.315 67.175 16.7401Z" fill="url(#paint53_radial_878_10323)"/>
<path d="M82.0441 9.61335C83.1367 9.17163 84.3817 9.69781 84.8243 10.7886L93.4993 32.1669C93.9418 33.2577 93.4146 34.5005 92.3221 34.9424C91.2294 35.3843 89.9846 34.858 89.5419 33.7672L80.8669 12.3888C80.4244 11.298 80.9515 10.0552 82.0441 9.61335Z" fill="url(#paint54_radial_878_10323)"/>
<path d="M97.6892 4.39731C98.8285 4.09536 99.997 4.77297 100.3 5.91041L106.231 28.2025C106.533 29.34 105.855 30.5074 104.715 30.8095C103.576 31.1114 102.407 30.4346 102.105 29.2974L96.1735 7.00435C95.8709 5.86682 96.5497 4.69942 97.6892 4.39731Z" fill="url(#paint55_radial_878_10323)"/>
<path d="M113.863 1.17523C115.031 1.01765 116.107 1.83536 116.265 3.00172L119.358 25.8599C119.515 27.0261 118.696 28.0988 117.528 28.2564C116.36 28.4139 115.284 27.5962 115.127 26.4299L112.033 3.57171C111.876 2.40556 112.695 1.33289 113.863 1.17523Z" fill="url(#paint56_radial_878_10323)"/>
<path d="M131.51 0C132.689 0.000132311 133.645 0.954197 133.645 2.13108V25.1969C133.645 26.3737 132.689 27.3278 131.51 27.3279C130.331 27.3279 129.376 26.3738 129.376 25.1969V2.13108C129.376 0.954116 130.331 -5.14467e-08 131.51 0Z" fill="url(#paint57_radial_878_10323)"/>
<defs>
<radialGradient id="paint0_radial_878_10323" cx="0" cy="0" r="1" gradientUnits="userSpaceOnUse" gradientTransform="translate(-22.5 72) rotate(18.1701) scale(410.468 410.468)">
<stop stop-color="#FFD6C7"/>
<stop offset="0.400088" stop-color="#FDD4C6"/>
<stop offset="0.480292" stop-color="#E3DDD9" stop-opacity="0.48"/>
</radialGradient>
<radialGradient id="paint1_radial_878_10323" cx="0" cy="0" r="1" gradientUnits="userSpaceOnUse" gradientTransform="translate(-22.5 72) rotate(18.1701) scale(410.468 410.468)">
<stop stop-color="#FFD6C7"/>
<stop offset="0.400088" stop-color="#FDD4C6"/>
<stop offset="0.480292" stop-color="#E3DDD9" stop-opacity="0.48"/>
</radialGradient>
<radialGradient id="paint2_radial_878_10323" cx="0" cy="0" r="1" gradientUnits="userSpaceOnUse" gradientTransform="translate(-22.5 72) rotate(18.1701) scale(410.468 410.468)">
<stop stop-color="#FFD6C7"/>
<stop offset="0.400088" stop-color="#FDD4C6"/>
<stop offset="0.480292" stop-color="#E3DDD9" stop-opacity="0.48"/>
</radialGradient>
<radialGradient id="paint3_radial_878_10323" cx="0" cy="0" r="1" gradientUnits="userSpaceOnUse" gradientTransform="translate(-22.5 72) rotate(18.1701) scale(410.468 410.468)">
<stop stop-color="#FFD6C7"/>
<stop offset="0.400088" stop-color="#FDD4C6"/>
<stop offset="0.480292" stop-color="#E3DDD9" stop-opacity="0.48"/>
</radialGradient>
<radialGradient id="paint4_radial_878_10323" cx="0" cy="0" r="1" gradientUnits="userSpaceOnUse" gradientTransform="translate(-22.5 72) rotate(18.1701) scale(410.468 410.468)">
<stop stop-color="#FFD6C7"/>
<stop offset="0.400088" stop-color="#FDD4C6"/>
<stop offset="0.480292" stop-color="#E3DDD9" stop-opacity="0.48"/>
</radialGradient>
<radialGradient id="paint5_radial_878_10323" cx="0" cy="0" r="1" gradientUnits="userSpaceOnUse" gradientTransform="translate(-22.5 72) rotate(18.1701) scale(410.468 410.468)">
<stop stop-color="#FFD6C7"/>
<stop offset="0.400088" stop-color="#FDD4C6"/>
<stop offset="0.480292" stop-color="#E3DDD9" stop-opacity="0.48"/>
</radialGradient>
<radialGradient id="paint6_radial_878_10323" cx="0" cy="0" r="1" gradientUnits="userSpaceOnUse" gradientTransform="translate(-22.5 72) rotate(18.1701) scale(410.468 410.468)">
<stop stop-color="#FFD6C7"/>
<stop offset="0.400088" stop-color="#FDD4C6"/>
<stop offset="0.480292" stop-color="#E3DDD9" stop-opacity="0.48"/>
</radialGradient>
<radialGradient id="paint7_radial_878_10323" cx="0" cy="0" r="1" gradientUnits="userSpaceOnUse" gradientTransform="translate(-22.5 72) rotate(18.1701) scale(410.468 410.468)">
<stop stop-color="#FFD6C7"/>
<stop offset="0.400088" stop-color="#FDD4C6"/>
<stop offset="0.480292" stop-color="#E3DDD9" stop-opacity="0.48"/>
</radialGradient>
<radialGradient id="paint8_radial_878_10323" cx="0" cy="0" r="1" gradientUnits="userSpaceOnUse" gradientTransform="translate(-22.5 72) rotate(18.1701) scale(410.468 410.468)">
<stop stop-color="#FFD6C7"/>
<stop offset="0.400088" stop-color="#FDD4C6"/>
<stop offset="0.480292" stop-color="#E3DDD9" stop-opacity="0.48"/>
</radialGradient>
<radialGradient id="paint9_radial_878_10323" cx="0" cy="0" r="1" gradientUnits="userSpaceOnUse" gradientTransform="translate(-22.5 72) rotate(18.1701) scale(410.468 410.468)">
<stop stop-color="#FFD6C7"/>
<stop offset="0.400088" stop-color="#FDD4C6"/>
<stop offset="0.480292" stop-color="#E3DDD9" stop-opacity="0.48"/>
</radialGradient>
<radialGradient id="paint10_radial_878_10323" cx="0" cy="0" r="1" gradientUnits="userSpaceOnUse" gradientTransform="translate(-22.5 72) rotate(18.1701) scale(410.468 410.468)">
<stop stop-color="#FFD6C7"/>
<stop offset="0.400088" stop-color="#FDD4C6"/>
<stop offset="0.480292" stop-color="#E3DDD9" stop-opacity="0.48"/>
</radialGradient>
<radialGradient id="paint11_radial_878_10323" cx="0" cy="0" r="1" gradientUnits="userSpaceOnUse" gradientTransform="translate(-22.5 72) rotate(18.1701) scale(410.468 410.468)">
<stop stop-color="#FFD6C7"/>
<stop offset="0.400088" stop-color="#FDD4C6"/>
<stop offset="0.480292" stop-color="#E3DDD9" stop-opacity="0.48"/>
</radialGradient>
<radialGradient id="paint12_radial_878_10323" cx="0" cy="0" r="1" gradientUnits="userSpaceOnUse" gradientTransform="translate(-22.5 72) rotate(18.1701) scale(410.468 410.468)">
<stop stop-color="#FFD6C7"/>
<stop offset="0.400088" stop-color="#FDD4C6"/>
<stop offset="0.480292" stop-color="#E3DDD9" stop-opacity="0.48"/>
</radialGradient>
<radialGradient id="paint13_radial_878_10323" cx="0" cy="0" r="1" gradientUnits="userSpaceOnUse" gradientTransform="translate(-22.5 72) rotate(18.1701) scale(410.468 410.468)">
<stop stop-color="#FFD6C7"/>
<stop offset="0.400088" stop-color="#FDD4C6"/>
<stop offset="0.480292" stop-color="#E3DDD9" stop-opacity="0.48"/>
</radialGradient>
<radialGradient id="paint14_radial_878_10323" cx="0" cy="0" r="1" gradientUnits="userSpaceOnUse" gradientTransform="translate(-22.5 72) rotate(18.1701) scale(410.468 410.468)">
<stop stop-color="#FFD6C7"/>
<stop offset="0.400088" stop-color="#FDD4C6"/>
<stop offset="0.480292" stop-color="#E3DDD9" stop-opacity="0.48"/>
</radialGradient>
<radialGradient id="paint15_radial_878_10323" cx="0" cy="0" r="1" gradientUnits="userSpaceOnUse" gradientTransform="translate(-22.5 72) rotate(18.1701) scale(410.468 410.468)">
<stop stop-color="#FFD6C7"/>
<stop offset="0.400088" stop-color="#FDD4C6"/>
<stop offset="0.480292" stop-color="#E3DDD9" stop-opacity="0.48"/>
</radialGradient>
<radialGradient id="paint16_radial_878_10323" cx="0" cy="0" r="1" gradientUnits="userSpaceOnUse" gradientTransform="translate(-22.5 72) rotate(18.1701) scale(410.468 410.468)">
<stop stop-color="#FFD6C7"/>
<stop offset="0.400088" stop-color="#FDD4C6"/>
<stop offset="0.480292" stop-color="#E3DDD9" stop-opacity="0.48"/>
</radialGradient>
<radialGradient id="paint17_radial_878_10323" cx="0" cy="0" r="1" gradientUnits="userSpaceOnUse" gradientTransform="translate(-22.5 72) rotate(18.1701) scale(410.468 410.468)">
<stop stop-color="#FFD6C7"/>
<stop offset="0.400088" stop-color="#FDD4C6"/>
<stop offset="0.480292" stop-color="#E3DDD9" stop-opacity="0.48"/>
</radialGradient>
<radialGradient id="paint18_radial_878_10323" cx="0" cy="0" r="1" gradientUnits="userSpaceOnUse" gradientTransform="translate(-22.5 72) rotate(18.1701) scale(410.468 410.468)">
<stop stop-color="#FFD6C7"/>
<stop offset="0.400088" stop-color="#FDD4C6"/>
<stop offset="0.480292" stop-color="#E3DDD9" stop-opacity="0.48"/>
</radialGradient>
<radialGradient id="paint19_radial_878_10323" cx="0" cy="0" r="1" gradientUnits="userSpaceOnUse" gradientTransform="translate(-22.5 72) rotate(18.1701) scale(410.468 410.468)">
<stop stop-color="#FFD6C7"/>
<stop offset="0.400088" stop-color="#FDD4C6"/>
<stop offset="0.480292" stop-color="#E3DDD9" stop-opacity="0.48"/>
</radialGradient>
<radialGradient id="paint20_radial_878_10323" cx="0" cy="0" r="1" gradientUnits="userSpaceOnUse" gradientTransform="translate(-22.5 72) rotate(18.1701) scale(410.468 410.468)">
<stop stop-color="#FFD6C7"/>
<stop offset="0.400088" stop-color="#FDD4C6"/>
<stop offset="0.480292" stop-color="#E3DDD9" stop-opacity="0.48"/>
</radialGradient>
<radialGradient id="paint21_radial_878_10323" cx="0" cy="0" r="1" gradientUnits="userSpaceOnUse" gradientTransform="translate(-22.5 72) rotate(10.3908) scale(476.82 476.82)">
<stop stop-color="#FFD6C7"/>
<stop offset="0.400088" stop-color="#FDD4C6"/>
<stop offset="0.480292" stop-color="#E3DDD9" stop-opacity="0.48"/>
</radialGradient>
<radialGradient id="paint22_radial_878_10323" cx="0" cy="0" r="1" gradientUnits="userSpaceOnUse" gradientTransform="translate(-22.5 72) rotate(10.3908) scale(476.82 476.82)">
<stop stop-color="#FFD6C7"/>
<stop offset="0.400088" stop-color="#FDD4C6"/>
<stop offset="0.480292" stop-color="#E3DDD9" stop-opacity="0.48"/>
</radialGradient>
<radialGradient id="paint23_radial_878_10323" cx="0" cy="0" r="1" gradientUnits="userSpaceOnUse" gradientTransform="translate(-22.5 72) rotate(10.3908) scale(476.82 476.82)">
<stop stop-color="#FFD6C7"/>
<stop offset="0.400088" stop-color="#FDD4C6"/>
<stop offset="0.480292" stop-color="#E3DDD9" stop-opacity="0.48"/>
</radialGradient>
<radialGradient id="paint24_radial_878_10323" cx="0" cy="0" r="1" gradientUnits="userSpaceOnUse" gradientTransform="translate(-22.5 72) rotate(10.3908) scale(476.82 476.82)">
<stop stop-color="#FFD6C7"/>
<stop offset="0.400088" stop-color="#FDD4C6"/>
<stop offset="0.480292" stop-color="#E3DDD9" stop-opacity="0.48"/>
</radialGradient>
<radialGradient id="paint25_radial_878_10323" cx="0" cy="0" r="1" gradientUnits="userSpaceOnUse" gradientTransform="translate(-22.5 72) rotate(10.3908) scale(476.82 476.82)">
<stop stop-color="#FFD6C7"/>
<stop offset="0.400088" stop-color="#FDD4C6"/>
<stop offset="0.480292" stop-color="#E3DDD9" stop-opacity="0.48"/>
</radialGradient>
<radialGradient id="paint26_radial_878_10323" cx="0" cy="0" r="1" gradientUnits="userSpaceOnUse" gradientTransform="translate(-22.5 72) rotate(10.3908) scale(476.82 476.82)">
<stop stop-color="#FFD6C7"/>
<stop offset="0.400088" stop-color="#FDD4C6"/>
<stop offset="0.480292" stop-color="#E3DDD9" stop-opacity="0.48"/>
</radialGradient>
<radialGradient id="paint27_radial_878_10323" cx="0" cy="0" r="1" gradientUnits="userSpaceOnUse" gradientTransform="translate(-22.5 72) rotate(10.3908) scale(476.82 476.82)">
<stop stop-color="#FFD6C7"/>
<stop offset="0.400088" stop-color="#FDD4C6"/>
<stop offset="0.480292" stop-color="#E3DDD9" stop-opacity="0.48"/>
</radialGradient>
<radialGradient id="paint28_radial_878_10323" cx="0" cy="0" r="1" gradientUnits="userSpaceOnUse" gradientTransform="translate(-22.5 72) rotate(10.3908) scale(476.82 476.82)">
<stop stop-color="#FFD6C7"/>
<stop offset="0.400088" stop-color="#FDD4C6"/>
<stop offset="0.480292" stop-color="#E3DDD9" stop-opacity="0.48"/>
</radialGradient>
<radialGradient id="paint29_radial_878_10323" cx="0" cy="0" r="1" gradientUnits="userSpaceOnUse" gradientTransform="translate(-22.5 72) rotate(10.3908) scale(476.82 476.82)">
<stop stop-color="#FFD6C7"/>
<stop offset="0.400088" stop-color="#FDD4C6"/>
<stop offset="0.480292" stop-color="#E3DDD9" stop-opacity="0.48"/>
</radialGradient>
<radialGradient id="paint30_radial_878_10323" cx="0" cy="0" r="1" gradientUnits="userSpaceOnUse" gradientTransform="translate(-22.5 72) rotate(10.3908) scale(476.82 476.82)">
<stop stop-color="#FFD6C7"/>
<stop offset="0.400088" stop-color="#FDD4C6"/>
<stop offset="0.480292" stop-color="#E3DDD9" stop-opacity="0.48"/>
</radialGradient>
<radialGradient id="paint31_radial_878_10323" cx="0" cy="0" r="1" gradientUnits="userSpaceOnUse" gradientTransform="translate(-22.5 72) rotate(10.3908) scale(476.82 476.82)">
<stop stop-color="#FFD6C7"/>
<stop offset="0.400088" stop-color="#FDD4C6"/>
<stop offset="0.480292" stop-color="#E3DDD9" stop-opacity="0.48"/>
</radialGradient>
<radialGradient id="paint32_radial_878_10323" cx="0" cy="0" r="1" gradientUnits="userSpaceOnUse" gradientTransform="translate(-22.5 72) rotate(10.3908) scale(476.82 476.82)">
<stop stop-color="#FFD6C7"/>
<stop offset="0.400088" stop-color="#FDD4C6"/>
<stop offset="0.480292" stop-color="#E3DDD9" stop-opacity="0.48"/>
</radialGradient>
<radialGradient id="paint33_radial_878_10323" cx="0" cy="0" r="1" gradientUnits="userSpaceOnUse" gradientTransform="translate(-22.5 72) rotate(10.3908) scale(476.82 476.82)">
<stop stop-color="#FFD6C7"/>
<stop offset="0.400088" stop-color="#FDD4C6"/>
<stop offset="0.480292" stop-color="#E3DDD9" stop-opacity="0.48"/>
</radialGradient>
<radialGradient id="paint34_radial_878_10323" cx="0" cy="0" r="1" gradientUnits="userSpaceOnUse" gradientTransform="translate(-22.5 72) rotate(10.3908) scale(476.82 476.82)">
<stop stop-color="#FFD6C7"/>
<stop offset="0.400088" stop-color="#FDD4C6"/>
<stop offset="0.480292" stop-color="#E3DDD9" stop-opacity="0.48"/>
</radialGradient>
<radialGradient id="paint35_radial_878_10323" cx="0" cy="0" r="1" gradientUnits="userSpaceOnUse" gradientTransform="translate(-22.5 72) rotate(10.3908) scale(476.82 476.82)">
<stop stop-color="#FFD6C7"/>
<stop offset="0.400088" stop-color="#FDD4C6"/>
<stop offset="0.480292" stop-color="#E3DDD9" stop-opacity="0.48"/>
</radialGradient>
<radialGradient id="paint36_radial_878_10323" cx="0" cy="0" r="1" gradientUnits="userSpaceOnUse" gradientTransform="translate(-22.5 72) rotate(10.3908) scale(476.82 476.82)">
<stop stop-color="#FFD6C7"/>
<stop offset="0.400088" stop-color="#FDD4C6"/>
<stop offset="0.480292" stop-color="#E3DDD9" stop-opacity="0.48"/>
</radialGradient>
<radialGradient id="paint37_radial_878_10323" cx="0" cy="0" r="1" gradientUnits="userSpaceOnUse" gradientTransform="translate(-22.5 72) rotate(10.3908) scale(476.82 476.82)">
<stop stop-color="#FFD6C7"/>
<stop offset="0.400088" stop-color="#FDD4C6"/>
<stop offset="0.480292" stop-color="#E3DDD9" stop-opacity="0.48"/>
</radialGradient>
<radialGradient id="paint38_radial_878_10323" cx="0" cy="0" r="1" gradientUnits="userSpaceOnUse" gradientTransform="translate(-22.5 72) rotate(10.3908) scale(476.82 476.82)">
<stop stop-color="#FFD6C7"/>
<stop offset="0.400088" stop-color="#FDD4C6"/>
<stop offset="0.480292" stop-color="#E3DDD9" stop-opacity="0.48"/>
</radialGradient>
<radialGradient id="paint39_radial_878_10323" cx="0" cy="0" r="1" gradientUnits="userSpaceOnUse" gradientTransform="translate(-22.5 72) rotate(10.3908) scale(476.82 476.82)">
<stop stop-color="#FFD6C7"/>
<stop offset="0.400088" stop-color="#FDD4C6"/>
<stop offset="0.480292" stop-color="#E3DDD9" stop-opacity="0.48"/>
</radialGradient>
<radialGradient id="paint40_radial_878_10323" cx="0" cy="0" r="1" gradientUnits="userSpaceOnUse" gradientTransform="translate(-22.5 72) rotate(10.3908) scale(476.82 476.82)">
<stop stop-color="#FFD6C7"/>
<stop offset="0.400088" stop-color="#FDD4C6"/>
<stop offset="0.480292" stop-color="#E3DDD9" stop-opacity="0.48"/>
</radialGradient>
<radialGradient id="paint41_radial_878_10323" cx="0" cy="0" r="1" gradientUnits="userSpaceOnUse" gradientTransform="translate(-22.5 72) rotate(10.3908) scale(476.82 476.82)">
<stop stop-color="#FFD6C7"/>
<stop offset="0.400088" stop-color="#FDD4C6"/>
<stop offset="0.480292" stop-color="#E3DDD9" stop-opacity="0.48"/>
</radialGradient>
<radialGradient id="paint42_radial_878_10323" cx="0" cy="0" r="1" gradientUnits="userSpaceOnUse" gradientTransform="translate(-22.5 72) rotate(10.3908) scale(476.82 476.82)">
<stop stop-color="#FFD6C7"/>
<stop offset="0.400088" stop-color="#FDD4C6"/>
<stop offset="0.480292" stop-color="#E3DDD9" stop-opacity="0.48"/>
</radialGradient>
<radialGradient id="paint43_radial_878_10323" cx="0" cy="0" r="1" gradientUnits="userSpaceOnUse" gradientTransform="translate(-22.5 72) rotate(10.3908) scale(476.82 476.82)">
<stop stop-color="#FFD6C7"/>
<stop offset="0.400088" stop-color="#FDD4C6"/>
<stop offset="0.480292" stop-color="#E3DDD9" stop-opacity="0.48"/>
</radialGradient>
<radialGradient id="paint44_radial_878_10323" cx="0" cy="0" r="1" gradientUnits="userSpaceOnUse" gradientTransform="translate(-22.5 72) rotate(10.3908) scale(476.82 476.82)">
<stop stop-color="#FFD6C7"/>
<stop offset="0.400088" stop-color="#FDD4C6"/>
<stop offset="0.480292" stop-color="#E3DDD9" stop-opacity="0.48"/>
</radialGradient>
<radialGradient id="paint45_radial_878_10323" cx="0" cy="0" r="1" gradientUnits="userSpaceOnUse" gradientTransform="translate(-22.5 72) rotate(10.3908) scale(476.82 476.82)">
<stop stop-color="#FFD6C7"/>
<stop offset="0.400088" stop-color="#FDD4C6"/>
<stop offset="0.480292" stop-color="#E3DDD9" stop-opacity="0.48"/>
</radialGradient>
<radialGradient id="paint46_radial_878_10323" cx="0" cy="0" r="1" gradientUnits="userSpaceOnUse" gradientTransform="translate(-22.5 72) rotate(10.3908) scale(476.82 476.82)">
<stop stop-color="#FFD6C7"/>
<stop offset="0.400088" stop-color="#FDD4C6"/>
<stop offset="0.480292" stop-color="#E3DDD9" stop-opacity="0.48"/>
</radialGradient>
<radialGradient id="paint47_radial_878_10323" cx="0" cy="0" r="1" gradientUnits="userSpaceOnUse" gradientTransform="translate(-22.5 72) rotate(10.3908) scale(476.82 476.82)">
<stop stop-color="#FFD6C7"/>
<stop offset="0.400088" stop-color="#FDD4C6"/>
<stop offset="0.480292" stop-color="#E3DDD9" stop-opacity="0.48"/>
</radialGradient>
<radialGradient id="paint48_radial_878_10323" cx="0" cy="0" r="1" gradientUnits="userSpaceOnUse" gradientTransform="translate(-22.5 72) rotate(10.3908) scale(476.82 476.82)">
<stop stop-color="#FFD6C7"/>
<stop offset="0.400088" stop-color="#FDD4C6"/>
<stop offset="0.480292" stop-color="#E3DDD9" stop-opacity="0.48"/>
</radialGradient>
<radialGradient id="paint49_radial_878_10323" cx="0" cy="0" r="1" gradientUnits="userSpaceOnUse" gradientTransform="translate(-22.5 72) rotate(10.3908) scale(476.82 476.82)">
<stop stop-color="#FFD6C7"/>
<stop offset="0.400088" stop-color="#FDD4C6"/>
<stop offset="0.480292" stop-color="#E3DDD9" stop-opacity="0.48"/>
</radialGradient>
<radialGradient id="paint50_radial_878_10323" cx="0" cy="0" r="1" gradientUnits="userSpaceOnUse" gradientTransform="translate(-22.5 72) rotate(10.3908) scale(476.82 476.82)">
<stop stop-color="#FFD6C7"/>
<stop offset="0.400088" stop-color="#FDD4C6"/>
<stop offset="0.480292" stop-color="#E3DDD9" stop-opacity="0.48"/>
</radialGradient>
<radialGradient id="paint51_radial_878_10323" cx="0" cy="0" r="1" gradientUnits="userSpaceOnUse" gradientTransform="translate(-22.5 72) rotate(10.3908) scale(476.82 476.82)">
<stop stop-color="#FFD6C7"/>
<stop offset="0.400088" stop-color="#FDD4C6"/>
<stop offset="0.480292" stop-color="#E3DDD9" stop-opacity="0.48"/>
</radialGradient>
<radialGradient id="paint52_radial_878_10323" cx="0" cy="0" r="1" gradientUnits="userSpaceOnUse" gradientTransform="translate(-22.5 72) rotate(10.3908) scale(476.82 476.82)">
<stop stop-color="#FFD6C7"/>
<stop offset="0.400088" stop-color="#FDD4C6"/>
<stop offset="0.480292" stop-color="#E3DDD9" stop-opacity="0.48"/>
</radialGradient>
<radialGradient id="paint53_radial_878_10323" cx="0" cy="0" r="1" gradientUnits="userSpaceOnUse" gradientTransform="translate(-22.5 72) rotate(10.3908) scale(476.82 476.82)">
<stop stop-color="#FFD6C7"/>
<stop offset="0.400088" stop-color="#FDD4C6"/>
<stop offset="0.480292" stop-color="#E3DDD9" stop-opacity="0.48"/>
</radialGradient>
<radialGradient id="paint54_radial_878_10323" cx="0" cy="0" r="1" gradientUnits="userSpaceOnUse" gradientTransform="translate(-22.5 72) rotate(10.3908) scale(476.82 476.82)">
<stop stop-color="#FFD6C7"/>
<stop offset="0.400088" stop-color="#FDD4C6"/>
<stop offset="0.480292" stop-color="#E3DDD9" stop-opacity="0.48"/>
</radialGradient>
<radialGradient id="paint55_radial_878_10323" cx="0" cy="0" r="1" gradientUnits="userSpaceOnUse" gradientTransform="translate(-22.5 72) rotate(10.3908) scale(476.82 476.82)">
<stop stop-color="#FFD6C7"/>
<stop offset="0.400088" stop-color="#FDD4C6"/>
<stop offset="0.480292" stop-color="#E3DDD9" stop-opacity="0.48"/>
</radialGradient>
<radialGradient id="paint56_radial_878_10323" cx="0" cy="0" r="1" gradientUnits="userSpaceOnUse" gradientTransform="translate(-22.5 72) rotate(10.3908) scale(476.82 476.82)">
<stop stop-color="#FFD6C7"/>
<stop offset="0.400088" stop-color="#FDD4C6"/>
<stop offset="0.480292" stop-color="#E3DDD9" stop-opacity="0.48"/>
</radialGradient>
<radialGradient id="paint57_radial_878_10323" cx="0" cy="0" r="1" gradientUnits="userSpaceOnUse" gradientTransform="translate(-22.5 72) rotate(10.3908) scale(476.82 476.82)">
<stop stop-color="#FFD6C7"/>
<stop offset="0.400088" stop-color="#FDD4C6"/>
<stop offset="0.480292" stop-color="#E3DDD9" stop-opacity="0.48"/>
</radialGradient>
</defs>
</svg>
