<svg width="203" height="42" viewBox="0 0 203 42" fill="none" xmlns="http://www.w3.org/2000/svg">
<path d="M42.127 41.0423L21.1875 31.8714L0.24707 41.0423L21.1875 0.957367L42.127 41.0423ZM10.2471 32.3246L21.1865 22.7093L32.127 32.3246L21.1865 11.3851L10.2471 32.3246Z" fill="url(#paint0_linear_388_580)"/>
<path d="M21.1871 22.6669L42.1272 41.0428L21.1871 32.1078L0.24707 41.0428L21.1871 22.6669Z" fill="url(#paint1_linear_388_580)"/>
<path d="M21.1875 11.3847L21.1865 11.3837L10.2471 32.3242L21.1865 22.7089H21.1875V31.871L0.24707 41.0419L21.1875 0.95697V11.3847Z" fill="url(#paint2_linear_388_580)"/>
<path d="M21.1875 32.1073L0.24707 41.0428L21.1875 22.6669V32.1073Z" fill="#12120F"/>
<path d="M21.1871 27.0258L32.2982 32.4103L42.1272 41.0428L21.1871 32.1077L0.24707 41.0428L10.0761 32.4103L21.1871 27.0258Z" fill="url(#paint3_linear_388_580)"/>
<path d="M21.1865 14.8871L15.1396 26.4555L11.9551 29.0629L21.1865 11.3842V14.8871Z" fill="url(#paint4_linear_388_580)"/>
<path d="M21.187 14.8893L27.2329 26.4557L30.4175 29.0631L21.187 11.3854V14.8893Z" fill="url(#paint5_linear_388_580)"/>
<path d="M21.2094 11.3966C21.1945 11.3888 21.1797 11.3811 21.1649 11.3733C20.8777 11.9169 20.5907 12.4605 20.3037 13.0042C17.7214 17.8974 15.149 22.7958 12.5866 27.6995C11.8013 29.2025 11.0168 30.706 10.2333 32.21L10.2478 32.1916C7.36564 34.7245 4.4871 37.2614 1.61214 39.8024C1.15151 40.2095 0.690978 40.6167 0.230533 41.024C0.241558 41.0366 0.252583 41.0492 0.263608 41.0618C0.727728 40.6586 1.19175 40.2554 1.65569 39.8521C4.55129 37.3346 7.44331 34.8131 10.3318 32.2875L10.3462 32.2691C11.1335 30.767 11.9198 29.2645 12.7052 27.7614C15.2676 22.8578 17.8199 17.9489 20.3623 13.0348C20.6448 12.4888 20.9271 11.9427 21.2094 11.3966Z" fill="url(#paint6_linear_388_580)"/>
<path d="M66.257 9.14449C66.8247 8.84374 67.5289 9.06024 67.8297 9.62785L79.6285 31.8959L77.5724 32.9852L66.7947 12.6432L55.8615 32.9911L53.8125 31.89L65.7772 9.622C65.8825 9.42542 66.0452 9.25675 66.257 9.14449Z" fill="white"/>
<path d="M93.2855 31.1895L82.1722 10.5735H85.125L95.0035 29.3641L104.882 10.5735H107.795L96.7215 31.1895H93.2855Z" fill="white"/>
<path d="M124.811 31.1895V22.5995L113.214 10.5735H116.65L126.099 20.6667L135.548 10.5735H138.984L127.388 22.5995V31.1895H124.811Z" fill="white"/>
<path d="M146.082 10.5735H159.879C161.893 10.5735 163.512 10.663 164.738 10.8419C165.973 11.0209 166.908 11.3296 167.543 11.768C168.179 12.2065 168.608 12.806 168.832 13.5666C169.055 14.3271 169.167 15.289 169.167 16.4523V16.9892C169.167 18.0629 169.038 18.989 168.778 19.7675C168.528 20.537 168.04 21.1633 167.315 21.6465C166.59 22.1208 165.517 22.4563 164.094 22.6532L168.577 31.1895H166L161.611 22.8411C161.432 22.85 161.244 22.8545 161.047 22.8545C160.859 22.8545 160.662 22.8545 160.457 22.8545H148.659V31.1895H146.082V10.5735ZM148.659 20.6265H160.054C161.584 20.6265 162.787 20.5773 163.664 20.4788C164.55 20.3715 165.199 20.188 165.611 19.9285C166.031 19.669 166.3 19.3022 166.416 18.8279C166.532 18.3537 166.59 17.7408 166.59 16.9892V16.4523C166.59 15.6022 166.51 14.9311 166.349 14.439C166.188 13.9469 165.866 13.5845 165.382 13.3518C164.899 13.1192 164.179 12.9715 163.221 12.9089C162.264 12.8373 160.984 12.8015 159.383 12.8015H148.659V20.6265Z" fill="white"/>
<path d="M175.084 31.1895L187.11 10.5735H190.546L202.572 31.1895H199.565L196.988 26.465H180.667L178.09 31.1895H175.084ZM181.956 24.3175H195.7L188.828 12.2915L181.956 24.3175Z" fill="white"/>
<defs>
<linearGradient id="paint0_linear_388_580" x1="21.187" y1="0.957366" x2="41.0585" y2="41.0424" gradientUnits="userSpaceOnUse">
<stop stop-color="#FFFEEC"/>
<stop offset="0.0896143" stop-color="#FCFBD9"/>
<stop offset="0.270135" stop-color="#F5C6A2"/>
<stop offset="0.618143" stop-color="#251E15"/>
<stop offset="0.698935" stop-color="#080707"/>
</linearGradient>
<linearGradient id="paint1_linear_388_580" x1="21.9991" y1="24.2053" x2="25.7598" y2="30.6155" gradientUnits="userSpaceOnUse">
<stop stop-color="#F1C5AA"/>
<stop offset="1" stop-color="#FFE4C1"/>
</linearGradient>
<linearGradient id="paint2_linear_388_580" x1="21.1875" y1="0.95697" x2="21.1875" y2="41.0419" gradientUnits="userSpaceOnUse">
<stop stop-color="#87745E"/>
<stop offset="0.273092" stop-color="#6E5E4E"/>
<stop offset="0.676932" stop-color="#413C37"/>
<stop offset="1" stop-color="#444545"/>
</linearGradient>
<linearGradient id="paint3_linear_388_580" x1="40.6742" y1="40.2736" x2="1.0163" y2="40.4872" gradientUnits="userSpaceOnUse">
<stop stop-color="#016B72"/>
<stop offset="1" stop-color="#000409"/>
</linearGradient>
<linearGradient id="paint4_linear_388_580" x1="16.5708" y1="11.3842" x2="16.5708" y2="29.0629" gradientUnits="userSpaceOnUse">
<stop stop-color="#524130"/>
<stop offset="1"/>
</linearGradient>
<linearGradient id="paint5_linear_388_580" x1="21.6143" y1="11.8982" x2="30.4178" y2="29.0774" gradientUnits="userSpaceOnUse">
<stop stop-color="#001A21"/>
<stop offset="0.498866" stop-color="#01474D"/>
<stop offset="1" stop-color="#009EAF"/>
</linearGradient>
<linearGradient id="paint6_linear_388_580" x1="21.1871" y1="11.3849" x2="0.588948" y2="41.0429" gradientUnits="userSpaceOnUse">
<stop stop-color="#FEFDE6"/>
<stop offset="0.618975" stop-color="#888888"/>
<stop offset="1" stop-color="#FEFDE6"/>
</linearGradient>
</defs>
</svg>
