<svg width="43" height="40" viewBox="0 0 43 40" fill="none" xmlns="http://www.w3.org/2000/svg">
<path d="M42.127 39.3643L21.5635 30.3574L1 39.3643L21.5635 0L42.127 39.3643ZM10.8213 30.8027L21.5645 21.3604L32.3076 30.8027L21.5645 10.2393L10.8213 30.8027Z" fill="url(#paint0_linear_1077_11151)"/>
<path d="M21.5635 21.3203L42.127 39.3658L21.5635 30.5914L1 39.3658L21.5635 21.3203Z" fill="url(#paint1_linear_1077_11151)"/>
<path d="M21.5645 0.000976562V10.2393L10.8213 30.8027L21.5645 21.3604V30.3574H21.5635L1 39.3643L21.5635 0L21.5645 0.000976562Z" fill="url(#paint2_linear_1077_11151)"/>
<path d="M21.5645 21.3242V30.5947H21.5635L1 39.3691L21.5635 21.3242H21.5645Z" fill="#12120F"/>
<path d="M21.5635 25.6016L32.4747 30.8893L42.127 39.3665L21.5635 30.5921L1 39.3665L10.6522 30.8893L21.5635 25.6016Z" fill="url(#paint3_linear_1077_11151)"/>
<path d="M21.5645 13.6836L15.627 25.041L12.5 27.6006L21.5645 10.2422V13.6836Z" fill="url(#paint4_linear_1077_11151)"/>
<path d="M21.5645 13.6836L27.502 25.041L30.6289 27.6006L21.5645 10.2422V13.6836Z" fill="url(#paint5_linear_1077_11151)"/>
<path d="M21.5853 10.2536C21.5708 10.246 21.5562 10.2384 21.5417 10.2308C21.2596 10.7646 20.9777 11.2984 20.696 11.8323C18.16 16.6375 15.6339 21.4478 13.1177 26.2633C12.3464 27.7393 11.576 29.2158 10.8066 30.6928L10.8208 30.6747C7.99055 33.162 5.16378 35.6533 2.34052 38.1486C1.88818 38.5484 1.43592 38.9483 0.98376 39.3483C0.994587 39.3606 1.00541 39.373 1.01624 39.3853C1.47201 38.9894 1.9277 38.5934 2.38329 38.1974C5.22681 35.7252 8.06683 33.249 10.9033 30.7688L10.9175 30.7507C11.6907 29.2757 12.4628 27.8002 13.2341 26.3242C15.7504 21.5087 18.2569 16.6881 20.7535 11.8624C21.0309 11.3262 21.3082 10.7899 21.5853 10.2536Z" fill="url(#paint6_linear_1077_11151)"/>
<defs>
<linearGradient id="paint0_linear_1077_11151" x1="21.5635" y1="-6.07611e-07" x2="41.0777" y2="39.3643" gradientUnits="userSpaceOnUse">
<stop stop-color="#F2F2F2"/>
<stop offset="0.0896143" stop-color="#EAEAE9"/>
<stop offset="0.270135" stop-color="#DEDEDE"/>
<stop offset="0.618143" stop-color="#363636"/>
<stop offset="0.698935" stop-color="#080707"/>
</linearGradient>
<linearGradient id="paint1_linear_1077_11151" x1="22.3608" y1="22.8311" x2="26.0539" y2="29.126" gradientUnits="userSpaceOnUse">
<stop stop-color="#E9E9E9"/>
<stop offset="1" stop-color="#DDDDDD"/>
</linearGradient>
<linearGradient id="paint2_linear_1077_11151" x1="21.5645" y1="0" x2="21.5645" y2="39.3643" gradientUnits="userSpaceOnUse">
<stop stop-color="#848484"/>
<stop offset="0.273092" stop-color="#6D6D6D"/>
<stop offset="0.676932" stop-color="#404040"/>
<stop offset="1" stop-color="#434343"/>
</linearGradient>
<linearGradient id="paint3_linear_1077_11151" x1="40.7001" y1="38.6111" x2="1.75539" y2="38.8209" gradientUnits="userSpaceOnUse">
<stop stop-color="#016B72"/>
<stop offset="1" stop-color="#000409"/>
</linearGradient>
<linearGradient id="paint4_linear_1077_11151" x1="17.0322" y1="10.2422" x2="17.0322" y2="27.6006" gradientUnits="userSpaceOnUse">
<stop stop-color="#4F4F4F"/>
<stop offset="1"/>
</linearGradient>
<linearGradient id="paint5_linear_1077_11151" x1="21.9841" y1="10.7457" x2="30.6282" y2="27.6152" gradientUnits="userSpaceOnUse">
<stop stop-color="#001A21"/>
<stop offset="0.498866" stop-color="#01474D"/>
<stop offset="1" stop-color="#009EAF"/>
</linearGradient>
<linearGradient id="paint6_linear_1077_11151" x1="21.5635" y1="10.2422" x2="1.33573" y2="39.3668" gradientUnits="userSpaceOnUse">
<stop stop-color="#ECECEC"/>
<stop offset="0.618975" stop-color="#888888"/>
<stop offset="1" stop-color="#FEFDE6"/>
</linearGradient>
</defs>
</svg>
