<svg width="204" height="40" viewBox="0 0 204 40" fill="none" xmlns="http://www.w3.org/2000/svg">
<path d="M42.127 39.6807L21.5635 30.6738L1 39.6807L21.5635 0.316406L42.127 39.6807ZM10.8213 31.1191L21.5645 21.6768L32.3076 31.1191L21.5645 10.5557L10.8213 31.1191Z" fill="url(#paint0_linear_1077_11096)"/>
<path d="M21.5635 21.6367L42.127 39.6822L21.5635 30.9078L1 39.6822L21.5635 21.6367Z" fill="url(#paint1_linear_1077_11096)"/>
<path d="M21.5645 0.316406V10.5547L10.8213 31.1182L21.5645 21.6758V30.6729H21.5635L1 39.6797L21.5635 0.31543L21.5645 0.316406Z" fill="url(#paint2_linear_1077_11096)"/>
<path d="M21.5645 21.6406V30.9111H21.5635L1 39.6855L21.5635 21.6406H21.5645Z" fill="#12120F"/>
<path d="M21.5635 25.917L32.4747 31.2047L42.127 39.6819L21.5635 30.9076L1 39.6819L10.6522 31.2047L21.5635 25.917Z" fill="url(#paint3_linear_1077_11096)"/>
<path d="M21.5645 13.998L15.627 25.3555L12.5 27.915L21.5645 10.5566V13.998Z" fill="url(#paint4_linear_1077_11096)"/>
<path d="M21.5645 13.998L27.502 25.3555L30.6289 27.915L21.5645 10.5566V13.998Z" fill="url(#paint5_linear_1077_11096)"/>
<path d="M21.5853 10.5681C21.5708 10.5604 21.5562 10.5528 21.5417 10.5452C21.2596 11.079 20.9777 11.6129 20.696 12.1468C18.16 16.952 15.6339 21.7623 13.1177 26.5778C12.3464 28.0538 11.576 29.5302 10.8066 31.0072L10.8208 30.9891C7.99055 33.4764 5.16378 35.9677 2.34052 38.463C1.88818 38.8628 1.43592 39.2627 0.98376 39.6627C0.994587 39.6751 1.00541 39.6874 1.01624 39.6998C1.47201 39.3039 1.9277 38.9079 2.38329 38.5118C5.22681 36.0396 8.06683 33.5634 10.9033 31.0832L10.9175 31.0652C11.6907 29.5901 12.4628 28.1146 13.2341 26.6386C15.7504 21.8232 18.2569 17.0026 20.7535 12.1768C21.0309 11.6406 21.3082 11.1044 21.5853 10.5681Z" fill="url(#paint6_linear_1077_11096)"/>
<path d="M66.257 8.14433C66.8247 7.84359 67.5289 8.06009 67.8297 8.6277L79.6285 30.8957L77.5724 31.9851L66.7947 11.6431L55.8615 31.9909L53.8125 30.8899L65.7772 8.62184C65.8825 8.42527 66.0452 8.25659 66.257 8.14433Z" fill="white"/>
<path d="M93.2855 30.1893L82.1722 9.57335H85.125L95.0035 28.364L104.882 9.57335H107.795L96.7215 30.1893H93.2855Z" fill="white"/>
<path d="M124.811 30.1893V21.5993L113.214 9.57335H116.65L126.099 19.6666L135.548 9.57335H138.984L127.388 21.5993V30.1893H124.811Z" fill="white"/>
<path d="M146.082 9.57335H159.879C161.893 9.57335 163.512 9.66283 164.738 9.84179C165.973 10.0207 166.908 10.3294 167.543 10.7679C168.179 11.2063 168.608 11.8059 168.832 12.5664C169.055 13.327 169.167 14.2889 169.167 15.4521V15.989C169.167 17.0627 169.038 17.9889 168.778 18.7673C168.528 19.5368 168.04 20.1632 167.315 20.6464C166.59 21.1206 165.517 21.4562 164.094 21.653L168.577 30.1893H166L161.611 21.8409C161.432 21.8499 161.244 21.8544 161.047 21.8544C160.859 21.8544 160.662 21.8544 160.457 21.8544H148.659V30.1893H146.082V9.57335ZM148.659 19.6263H160.054C161.584 19.6263 162.787 19.5771 163.664 19.4787C164.55 19.3713 165.199 19.1879 165.611 18.9284C166.031 18.6689 166.3 18.302 166.416 17.8278C166.532 17.3536 166.59 16.7406 166.59 15.989V15.4521C166.59 14.6021 166.51 13.931 166.349 13.4388C166.188 12.9467 165.866 12.5843 165.382 12.3517C164.899 12.119 164.179 11.9714 163.221 11.9088C162.264 11.8372 160.984 11.8014 159.383 11.8014H148.659V19.6263Z" fill="white"/>
<path d="M175.084 30.1893L187.11 9.57335H190.546L202.572 30.1893H199.565L196.988 25.4648H180.667L178.09 30.1893H175.084ZM181.956 23.3173H195.7L188.828 11.2913L181.956 23.3173Z" fill="white"/>
<defs>
<linearGradient id="paint0_linear_1077_11096" x1="21.5635" y1="0.316406" x2="41.0777" y2="39.6807" gradientUnits="userSpaceOnUse">
<stop stop-color="#F2F2F2"/>
<stop offset="0.0896143" stop-color="#EAEAE9"/>
<stop offset="0.270135" stop-color="#DEDEDE"/>
<stop offset="0.618143" stop-color="#363636"/>
<stop offset="0.698935" stop-color="#080707"/>
</linearGradient>
<linearGradient id="paint1_linear_1077_11096" x1="22.3608" y1="23.1475" x2="26.0539" y2="29.4425" gradientUnits="userSpaceOnUse">
<stop stop-color="#E9E9E9"/>
<stop offset="1" stop-color="#DDDDDD"/>
</linearGradient>
<linearGradient id="paint2_linear_1077_11096" x1="21.5645" y1="0.31543" x2="21.5645" y2="39.6797" gradientUnits="userSpaceOnUse">
<stop stop-color="#848484"/>
<stop offset="0.273092" stop-color="#6D6D6D"/>
<stop offset="0.676932" stop-color="#404040"/>
<stop offset="1" stop-color="#434343"/>
</linearGradient>
<linearGradient id="paint3_linear_1077_11096" x1="40.7001" y1="38.9265" x2="1.75539" y2="39.1364" gradientUnits="userSpaceOnUse">
<stop stop-color="#016B72"/>
<stop offset="1" stop-color="#000409"/>
</linearGradient>
<linearGradient id="paint4_linear_1077_11096" x1="17.0322" y1="10.5566" x2="17.0322" y2="27.915" gradientUnits="userSpaceOnUse">
<stop stop-color="#4F4F4F"/>
<stop offset="1"/>
</linearGradient>
<linearGradient id="paint5_linear_1077_11096" x1="21.9841" y1="11.0602" x2="30.6282" y2="27.9296" gradientUnits="userSpaceOnUse">
<stop stop-color="#001A21"/>
<stop offset="0.498866" stop-color="#01474D"/>
<stop offset="1" stop-color="#009EAF"/>
</linearGradient>
<linearGradient id="paint6_linear_1077_11096" x1="21.5635" y1="10.5566" x2="1.33573" y2="39.6812" gradientUnits="userSpaceOnUse">
<stop stop-color="#ECECEC"/>
<stop offset="0.618975" stop-color="#888888"/>
<stop offset="1" stop-color="#FEFDE6"/>
</linearGradient>
</defs>
</svg>
