<svg width="3097" height="500" viewBox="0 0 3097 500" fill="none" xmlns="http://www.w3.org/2000/svg">
<path d="M259.081 2.82597C270.899 -3.44418 285.561 1.0695 291.823 12.9036L537.46 477.167L494.655 499.878L270.274 75.7708L42.6586 500L0 477.044L249.091 12.7815C251.284 8.68309 254.671 5.16645 259.081 2.82597Z" fill="url(#paint0_linear_746_1106)" fill-opacity="0.1"/>
<path d="M821.784 462.439L590.417 32.6193H651.892L857.551 424.382L1063.21 32.6193H1123.85L893.318 462.439H821.784Z" fill="url(#paint1_linear_746_1106)" fill-opacity="0.1"/>
<path d="M1478.1 462.439V283.347L1236.68 32.6193H1308.21L1504.93 243.052L1701.65 32.6193H1773.18L1531.76 283.347V462.439H1478.1Z" fill="url(#paint2_linear_746_1106)" fill-opacity="0.1"/>
<path d="M1920.94 32.6193H2208.19C2250.11 32.6193 2283.83 34.4848 2309.35 38.2159C2335.06 41.947 2354.52 48.3831 2367.75 57.5242C2380.97 66.6653 2389.92 79.1644 2394.57 95.0215C2399.23 110.879 2401.56 130.933 2401.56 155.185V166.378C2401.56 188.765 2398.86 208.073 2393.46 224.303C2388.24 240.347 2378.09 253.405 2363 263.479C2347.91 273.367 2325.55 280.362 2295.94 284.467L2389.26 462.439H2335.61L2244.24 288.384C2240.52 288.571 2236.6 288.664 2232.51 288.664C2228.59 288.664 2224.49 288.664 2220.21 288.664H1974.59V462.439H1920.94V32.6193ZM1974.59 242.212H2211.83C2243.68 242.212 2268.74 241.186 2286.99 239.134C2305.44 236.895 2318.94 233.071 2327.51 227.661C2336.27 222.251 2341.85 214.602 2344.28 204.715C2346.7 194.828 2347.91 182.049 2347.91 166.378V155.185C2347.91 137.462 2346.23 123.471 2342.88 113.21C2339.53 102.95 2332.82 95.3946 2322.76 90.5442C2312.7 85.6938 2297.71 82.6156 2277.77 81.3098C2257.84 79.8173 2231.2 79.0711 2197.86 79.0711H1974.59V242.212Z" fill="url(#paint3_linear_746_1106)" fill-opacity="0.1"/>
<path d="M2524.73 462.439L2775.1 32.6193H2846.63L3097 462.439H3034.41L2980.76 363.938H2640.97L2587.32 462.439H2524.73ZM2667.8 319.166H2953.93L2810.87 68.4376L2667.8 319.166Z" fill="url(#paint4_linear_746_1106)" fill-opacity="0.1"/>
<defs>
<linearGradient id="paint0_linear_746_1106" x1="1548.26" y1="30.1378" x2="1548.39" y2="500" gradientUnits="userSpaceOnUse">
<stop/>
<stop offset="1" stop-color="#989796"/>
</linearGradient>
<linearGradient id="paint1_linear_746_1106" x1="1548.26" y1="30.1378" x2="1548.39" y2="500" gradientUnits="userSpaceOnUse">
<stop/>
<stop offset="1" stop-color="#989796"/>
</linearGradient>
<linearGradient id="paint2_linear_746_1106" x1="1548.26" y1="30.1378" x2="1548.39" y2="500" gradientUnits="userSpaceOnUse">
<stop/>
<stop offset="1" stop-color="#989796"/>
</linearGradient>
<linearGradient id="paint3_linear_746_1106" x1="1548.26" y1="30.1378" x2="1548.39" y2="500" gradientUnits="userSpaceOnUse">
<stop/>
<stop offset="1" stop-color="#989796"/>
</linearGradient>
<linearGradient id="paint4_linear_746_1106" x1="1548.26" y1="30.1378" x2="1548.39" y2="500" gradientUnits="userSpaceOnUse">
<stop/>
<stop offset="1" stop-color="#989796"/>
</linearGradient>
</defs>
</svg>
