<svg width="203" height="378" viewBox="0 0 203 378" fill="none" xmlns="http://www.w3.org/2000/svg">
<path d="M201.54 0.121094L201.54 27.3821C201.54 39.2117 191.95 48.8015 180.121 48.8015L23.3698 48.8015C11.5402 48.8015 1.95037 39.2117 1.95037 27.3821L1.95037 0.121085" stroke="white" stroke-opacity="0.07" stroke-width="2.92082" stroke-dasharray="5.84 5.84"/>
<g clip-path="url(#clip0_578_961)">
<rect x="1.95026" y="68.8018" width="197.642" height="197.642" rx="98.8212" fill="#080808"/>
</g>
<g filter="url(#filter0_i_578_961)">
<g clip-path="url(#clip1_578_961)">
<rect x="1.95026" y="68.8018" width="197.642" height="197.642" rx="98.8212" fill="#04070D" fill-opacity="0.2"/>
<g opacity="0.1">
<rect width="197.642" height="197.642" transform="translate(1.94952 68.8018)" fill="url(#paint0_radial_578_961)" fill-opacity="0.5"/>
</g>
<rect x="1.94958" y="68.8018" width="197.642" height="197.642" rx="98.8212" fill="url(#paint1_radial_578_961)" fill-opacity="0.5"/>
<rect x="2.97897" y="69.8311" width="195.584" height="195.584" rx="97.7918" stroke="#D8E7F2" stroke-opacity="0.07" stroke-width="2.05877"/>
<path d="M154.531 219.001L103.859 196.808L53.1881 219.001L103.859 122.001L154.531 219.001ZM77.3864 197.905L103.859 174.638L130.333 197.905L103.859 147.233L77.3864 197.905Z" fill="url(#paint2_linear_578_961)"/>
<path d="M103.859 174.533L154.531 219L103.859 197.379L53.1881 219L103.859 174.533Z" fill="url(#paint3_linear_578_961)"/>
<path d="M103.859 147.233L77.3864 197.905L103.859 174.638V196.808L53.1881 219.001L103.859 122.001V147.233Z" fill="url(#paint4_linear_578_961)"/>
<path d="M103.859 197.378L53.1881 219L103.859 174.533V197.378Z" fill="#12120F"/>
<path d="M103.859 185.082L130.746 198.112L154.531 219.001L103.859 197.379L53.1881 219.001L76.9726 198.112L103.859 185.082Z" fill="url(#paint5_linear_578_961)"/>
<path d="M103.859 155.712L89.2277 183.702L81.5226 190.01L103.859 147.232V155.712Z" fill="url(#paint6_linear_578_961)"/>
<path d="M103.859 155.712L118.491 183.702L126.196 190.01L103.859 147.232V155.712Z" fill="url(#paint7_linear_578_961)"/>
<path d="M103.894 147.251C103.871 147.239 103.848 147.227 103.825 147.215C103.132 148.532 102.44 149.848 101.747 151.165C95.516 163.015 89.3 174.873 83.0996 186.739C81.199 190.376 79.3 194.014 77.4024 197.652L77.4247 197.624C70.4478 203.75 63.4763 209.882 56.5104 216.02C55.3943 217.004 54.2783 217.988 53.1625 218.971C53.1796 218.991 53.1966 219.01 53.2137 219.03C54.3352 218.052 55.4565 217.075 56.5777 216.097C63.5755 209.995 70.5678 203.887 77.5546 197.772L77.577 197.744C79.4804 194.108 81.3824 190.472 83.2829 186.835C89.4833 174.969 95.6683 163.095 101.838 151.212C102.523 149.892 103.209 148.572 103.894 147.251Z" fill="url(#paint8_linear_578_961)"/>
</g>
</g>
<path d="M10.9201 300.778V294.234H12.2221V300.778H10.9201ZM8.30142 298.155V296.858H14.8456V298.155H8.30142ZM22.9598 302.579C22.5177 302.572 22.0821 302.492 21.6529 302.337C21.227 302.182 20.8397 301.924 20.4912 301.562C20.1427 301.201 19.8636 300.715 19.6538 300.105C19.4473 299.496 19.3441 298.734 19.3441 297.821C19.3441 296.956 19.4296 296.188 19.6006 295.517C19.7748 294.846 20.0249 294.279 20.3509 293.818C20.6768 293.353 21.0705 293 21.5319 292.758C21.9934 292.516 22.5113 292.395 23.0857 292.395C23.6762 292.395 24.2006 292.511 24.6588 292.743C25.117 292.976 25.4881 293.297 25.7721 293.706C26.0593 294.116 26.2416 294.583 26.319 295.105H24.8427C24.7427 294.692 24.5442 294.355 24.2474 294.094C23.9505 293.832 23.5633 293.702 23.0857 293.702C22.3596 293.702 21.7933 294.018 21.3867 294.65C20.9833 295.283 20.78 296.162 20.7768 297.288H20.8494C21.0204 297.008 21.2302 296.769 21.4787 296.572C21.7304 296.372 22.0111 296.219 22.3209 296.112C22.6339 296.002 22.963 295.948 23.3083 295.948C23.8827 295.948 24.4022 296.088 24.8669 296.369C25.3348 296.646 25.7075 297.03 25.9851 297.521C26.2626 298.011 26.4013 298.573 26.4013 299.205C26.4013 299.838 26.2577 300.41 25.9705 300.923C25.6866 301.437 25.2864 301.843 24.7701 302.143C24.2538 302.44 23.6504 302.585 22.9598 302.579ZM22.955 301.32C23.3358 301.32 23.6762 301.227 23.9763 301.04C24.2764 300.852 24.5136 300.601 24.6878 300.285C24.8621 299.968 24.9492 299.615 24.9492 299.225C24.9492 298.844 24.8637 298.497 24.6927 298.184C24.5249 297.871 24.2925 297.622 23.9957 297.438C23.702 297.254 23.3664 297.163 22.9889 297.163C22.7017 297.163 22.4354 297.217 22.1902 297.327C21.9482 297.437 21.7352 297.588 21.5513 297.782C21.3673 297.976 21.2221 298.198 21.1156 298.45C21.0124 298.699 20.9607 298.962 20.9607 299.239C20.9607 299.61 21.0463 299.954 21.2173 300.27C21.3915 300.586 21.6287 300.841 21.9288 301.035C22.2321 301.225 22.5742 301.32 22.955 301.32ZM34.0496 302.608C33.2849 302.605 32.6314 302.403 32.0893 302.003C31.5472 301.603 31.1325 301.02 30.8453 300.256C30.5581 299.491 30.4145 298.569 30.4145 297.492C30.4145 296.417 30.5581 295.499 30.8453 294.737C31.1357 293.976 31.552 293.395 32.0941 292.995C32.6395 292.595 33.2913 292.395 34.0496 292.395C34.808 292.395 35.4582 292.596 36.0003 293C36.5424 293.4 36.9571 293.981 37.2443 294.742C37.5347 295.501 37.6799 296.417 37.6799 297.492C37.6799 298.573 37.5363 299.496 37.2491 300.26C36.9619 301.022 36.5473 301.604 36.0052 302.008C35.463 302.408 34.8112 302.608 34.0496 302.608ZM34.0496 301.316C34.7208 301.316 35.2452 300.988 35.6228 300.333C36.0035 299.678 36.1939 298.731 36.1939 297.492C36.1939 296.669 36.1068 295.973 35.9325 295.405C35.7615 294.834 35.5147 294.402 35.192 294.108C34.8725 293.811 34.4917 293.663 34.0496 293.663C33.3817 293.663 32.8573 293.992 32.4765 294.65C32.0957 295.309 31.9037 296.256 31.9005 297.492C31.9005 298.318 31.986 299.016 32.1571 299.588C32.3313 300.155 32.5782 300.586 32.8976 300.88C33.2171 301.17 33.6011 301.316 34.0496 301.316ZM45.2823 302.608C44.5175 302.605 43.864 302.403 43.3219 302.003C42.7798 301.603 42.3651 301.02 42.0779 300.256C41.7907 299.491 41.6471 298.569 41.6471 297.492C41.6471 296.417 41.7907 295.499 42.0779 294.737C42.3684 293.976 42.7846 293.395 43.3267 292.995C43.8721 292.595 44.5239 292.395 45.2823 292.395C46.0406 292.395 46.6908 292.596 47.2329 293C47.7751 293.4 48.1897 293.981 48.4769 294.742C48.7673 295.501 48.9125 296.417 48.9125 297.492C48.9125 298.573 48.7689 299.496 48.4817 300.26C48.1946 301.022 47.7799 301.604 47.2378 302.008C46.6956 302.408 46.0438 302.608 45.2823 302.608ZM45.2823 301.316C45.9535 301.316 46.4778 300.988 46.8554 300.333C47.2362 299.678 47.4265 298.731 47.4265 297.492C47.4265 296.669 47.3394 295.973 47.1652 295.405C46.9941 294.834 46.7473 294.402 46.4246 294.108C46.1051 293.811 45.7243 293.663 45.2823 293.663C44.6143 293.663 44.0899 293.992 43.7091 294.65C43.3284 295.309 43.1364 296.256 43.1331 297.492C43.1331 298.318 43.2186 299.016 43.3897 299.588C43.5639 300.155 43.8108 300.586 44.1302 300.88C44.4497 301.17 44.8337 301.316 45.2823 301.316ZM56.5149 302.608C55.7501 302.605 55.0966 302.403 54.5545 302.003C54.0124 301.603 53.5977 301.02 53.3105 300.256C53.0233 299.491 52.8798 298.569 52.8798 297.492C52.8798 296.417 53.0233 295.499 53.3105 294.737C53.601 293.976 54.0172 293.395 54.5594 292.995C55.1047 292.595 55.7565 292.395 56.5149 292.395C57.2732 292.395 57.9234 292.596 58.4655 293C59.0077 293.4 59.4223 293.981 59.7095 294.742C59.9999 295.501 60.1452 296.417 60.1452 297.492C60.1452 298.573 60.0016 299.496 59.7144 300.26C59.4272 301.022 59.0125 301.604 58.4704 302.008C57.9283 302.408 57.2764 302.608 56.5149 302.608ZM56.5149 301.316C57.1861 301.316 57.7104 300.988 58.088 300.333C58.4688 299.678 58.6592 298.731 58.6592 297.492C58.6592 296.669 58.572 295.973 58.3978 295.405C58.2268 294.834 57.9799 294.402 57.6572 294.108C57.3377 293.811 56.957 293.663 56.5149 293.663C55.8469 293.663 55.3225 293.992 54.9418 294.65C54.561 295.309 54.369 296.256 54.3657 297.492C54.3657 298.318 54.4513 299.016 54.6223 299.588C54.7965 300.155 55.0434 300.586 55.3629 300.88C55.6823 301.17 56.0663 301.316 56.5149 301.316ZM71.9688 292.53V302.443H70.4731V292.53H71.9688ZM84.5822 292.53V302.443H83.2075L78.1686 295.173H78.0767V302.443H76.581V292.53H77.9654L83.009 299.81H83.101V292.53H84.5822ZM88.7091 293.818V292.53H96.3811V293.818H93.2881V302.443H91.7973V293.818H88.7091ZM100.51 302.443V292.53H106.726V293.818H102.006V296.838H106.401V298.121H102.006V301.156H106.784V302.443H100.51ZM117.866 295.662C117.773 295.368 117.647 295.105 117.489 294.873C117.334 294.637 117.148 294.437 116.932 294.273C116.716 294.105 116.469 293.978 116.191 293.89C115.917 293.803 115.615 293.76 115.286 293.76C114.728 293.76 114.225 293.903 113.776 294.191C113.327 294.478 112.973 294.899 112.711 295.454C112.453 296.006 112.324 296.682 112.324 297.482C112.324 298.285 112.455 298.965 112.716 299.52C112.977 300.075 113.336 300.496 113.791 300.783C114.246 301.07 114.763 301.214 115.344 301.214C115.883 301.214 116.353 301.104 116.753 300.885C117.156 300.665 117.468 300.356 117.687 299.955C117.91 299.552 118.021 299.078 118.021 298.532L118.408 298.605H115.572V297.371H119.468V298.498C119.468 299.331 119.291 300.054 118.936 300.667C118.584 301.277 118.097 301.748 117.474 302.08C116.855 302.413 116.145 302.579 115.344 302.579C114.447 302.579 113.66 302.372 112.982 301.959C112.308 301.546 111.782 300.961 111.404 300.202C111.027 299.441 110.838 298.537 110.838 297.492C110.838 296.701 110.948 295.991 111.167 295.362C111.387 294.733 111.695 294.199 112.092 293.76C112.492 293.318 112.961 292.98 113.5 292.748C114.042 292.513 114.634 292.395 115.277 292.395C115.812 292.395 116.311 292.474 116.772 292.632C117.237 292.79 117.65 293.014 118.011 293.305C118.376 293.595 118.678 293.94 118.917 294.341C119.155 294.737 119.317 295.178 119.401 295.662H117.866ZM123.801 302.443V292.53H127.334C128.102 292.53 128.74 292.663 129.246 292.927C129.756 293.192 130.137 293.558 130.389 294.026C130.64 294.491 130.766 295.028 130.766 295.638C130.766 296.244 130.639 296.779 130.384 297.24C130.132 297.698 129.751 298.055 129.242 298.31C128.735 298.565 128.098 298.692 127.33 298.692H124.653V297.405H127.194C127.678 297.405 128.072 297.335 128.375 297.196C128.682 297.058 128.906 296.856 129.048 296.591C129.19 296.327 129.261 296.009 129.261 295.638C129.261 295.263 129.188 294.939 129.043 294.665C128.901 294.391 128.677 294.181 128.37 294.036C128.067 293.887 127.668 293.813 127.175 293.813H125.297V302.443H123.801ZM128.695 297.971L131.144 302.443H129.44L127.039 297.971H128.695ZM135.858 302.443H134.27L137.837 292.53H139.565L143.133 302.443H141.545L138.743 294.331H138.665L135.858 302.443ZM136.124 298.561H141.274V299.82H136.124V298.561ZM145.338 293.818V292.53H153.01V293.818H149.917V302.443H148.426V293.818H145.338ZM158.635 292.53V302.443H157.139V292.53H158.635ZM171.858 297.487C171.858 298.545 171.665 299.455 171.277 300.217C170.89 300.975 170.359 301.559 169.685 301.969C169.014 302.376 168.251 302.579 167.395 302.579C166.537 302.579 165.771 302.376 165.096 301.969C164.425 301.559 163.896 300.973 163.509 300.212C163.121 299.45 162.928 298.542 162.928 297.487C162.928 296.428 163.121 295.52 163.509 294.762C163.896 294 164.425 293.416 165.096 293.009C165.771 292.6 166.537 292.395 167.395 292.395C168.251 292.395 169.014 292.6 169.685 293.009C170.359 293.416 170.89 294 171.277 294.762C171.665 295.52 171.858 296.428 171.858 297.487ZM170.377 297.487C170.377 296.68 170.246 296.001 169.985 295.449C169.727 294.894 169.372 294.474 168.92 294.191C168.472 293.903 167.963 293.76 167.395 293.76C166.824 293.76 166.314 293.903 165.866 294.191C165.417 294.474 165.062 294.894 164.801 295.449C164.543 296.001 164.414 296.68 164.414 297.487C164.414 298.294 164.543 298.974 164.801 299.529C165.062 300.081 165.417 300.501 165.866 300.788C166.314 301.072 166.824 301.214 167.395 301.214C167.963 301.214 168.472 301.072 168.92 300.788C169.372 300.501 169.727 300.081 169.985 299.529C170.246 298.974 170.377 298.294 170.377 297.487ZM184.158 292.53V302.443H182.784L177.745 295.173H177.653V302.443H176.157V292.53H177.541L182.585 299.81H182.677V292.53H184.158ZM194.181 295.134C194.129 294.676 193.916 294.321 193.542 294.07C193.168 293.815 192.696 293.687 192.128 293.687C191.722 293.687 191.37 293.752 191.073 293.881C190.776 294.007 190.546 294.181 190.381 294.403C190.22 294.623 190.139 294.873 190.139 295.154C190.139 295.389 190.194 295.593 190.304 295.764C190.417 295.935 190.563 296.078 190.744 296.194C190.928 296.307 191.125 296.403 191.335 296.48C191.544 296.554 191.746 296.616 191.94 296.664L192.908 296.916C193.224 296.993 193.548 297.098 193.881 297.23C194.213 297.363 194.521 297.537 194.805 297.753C195.089 297.969 195.318 298.237 195.492 298.557C195.67 298.876 195.759 299.258 195.759 299.704C195.759 300.265 195.614 300.764 195.323 301.199C195.036 301.635 194.618 301.979 194.069 302.23C193.524 302.482 192.864 302.608 192.09 302.608C191.348 302.608 190.705 302.49 190.163 302.255C189.621 302.019 189.197 301.685 188.89 301.253C188.584 300.817 188.414 300.301 188.382 299.704H189.882C189.912 300.062 190.028 300.36 190.231 300.599C190.438 300.835 190.701 301.011 191.02 301.127C191.343 301.24 191.696 301.296 192.08 301.296C192.503 301.296 192.879 301.23 193.208 301.098C193.54 300.962 193.802 300.775 193.992 300.536C194.182 300.294 194.278 300.012 194.278 299.689C194.278 299.396 194.194 299.155 194.026 298.968C193.861 298.781 193.637 298.626 193.353 298.503C193.072 298.381 192.754 298.273 192.399 298.179L191.228 297.86C190.434 297.643 189.805 297.325 189.34 296.906C188.879 296.486 188.648 295.931 188.648 295.241C188.648 294.67 188.803 294.171 189.113 293.745C189.423 293.319 189.842 292.988 190.371 292.753C190.901 292.514 191.498 292.395 192.162 292.395C192.834 292.395 193.426 292.513 193.939 292.748C194.455 292.984 194.862 293.308 195.159 293.721C195.455 294.131 195.61 294.602 195.623 295.134H194.181Z" fill="url(#paint9_linear_578_961)"/>
<path d="M201.54 377.124L201.54 349.863C201.54 338.033 191.95 328.444 180.12 328.444L23.3697 328.444C11.5401 328.444 1.95031 338.033 1.95031 349.863L1.95031 377.124" stroke="white" stroke-opacity="0.07" stroke-width="2.92082" stroke-dasharray="5.84 5.84"/>
<defs>
<filter id="filter0_i_578_961" x="1.95026" y="68.8018" width="197.642" height="199.701" filterUnits="userSpaceOnUse" color-interpolation-filters="sRGB">
<feFlood flood-opacity="0" result="BackgroundImageFix"/>
<feBlend mode="normal" in="SourceGraphic" in2="BackgroundImageFix" result="shape"/>
<feColorMatrix in="SourceAlpha" type="matrix" values="0 0 0 0 0 0 0 0 0 0 0 0 0 0 0 0 0 0 127 0" result="hardAlpha"/>
<feOffset dy="4.11755"/>
<feGaussianBlur stdDeviation="1.02939"/>
<feComposite in2="hardAlpha" operator="arithmetic" k2="-1" k3="1"/>
<feColorMatrix type="matrix" values="0 0 0 0 0.811765 0 0 0 0 0.905882 0 0 0 0 1 0 0 0 0.2 0"/>
<feBlend mode="normal" in2="shape" result="effect1_innerShadow_578_961"/>
</filter>
<radialGradient id="paint0_radial_578_961" cx="0" cy="0" r="1" gradientUnits="userSpaceOnUse" gradientTransform="translate(98.8212 57.496) rotate(90) scale(165.301 305.401)">
<stop offset="0.237292" stop-color="#6D91B8" stop-opacity="0"/>
<stop offset="0.860009" stop-color="#6D91B8"/>
</radialGradient>
<radialGradient id="paint1_radial_578_961" cx="0" cy="0" r="1" gradientUnits="userSpaceOnUse" gradientTransform="translate(100.771 131.599) rotate(90.1142) scale(243.889 256.48)">
<stop offset="0.338606" stop-color="#FFCB9C" stop-opacity="0"/>
<stop offset="0.75746" stop-color="#705C4A"/>
</radialGradient>
<linearGradient id="paint2_linear_578_961" x1="103.86" y1="122.001" x2="151.946" y2="219.001" gradientUnits="userSpaceOnUse">
<stop stop-color="#FFFEEC"/>
<stop offset="0.0896143" stop-color="#FCFBD9"/>
<stop offset="0.270135" stop-color="#F5C6A2"/>
<stop offset="0.618143" stop-color="#251E15"/>
<stop offset="0.698935" stop-color="#080707"/>
</linearGradient>
<linearGradient id="paint3_linear_578_961" x1="105.824" y1="178.256" x2="114.924" y2="193.768" gradientUnits="userSpaceOnUse">
<stop stop-color="#F1C5AA"/>
<stop offset="1" stop-color="#FFE4C1"/>
</linearGradient>
<linearGradient id="paint4_linear_578_961" x1="103.859" y1="122.001" x2="103.859" y2="219.001" gradientUnits="userSpaceOnUse">
<stop stop-color="#87745E"/>
<stop offset="0.273092" stop-color="#6E5E4E"/>
<stop offset="0.676932" stop-color="#413C37"/>
<stop offset="1" stop-color="#444545"/>
</linearGradient>
<linearGradient id="paint5_linear_578_961" x1="151.015" y1="217.139" x2="55.0495" y2="217.656" gradientUnits="userSpaceOnUse">
<stop stop-color="#016B72"/>
<stop offset="1" stop-color="#000409"/>
</linearGradient>
<linearGradient id="paint6_linear_578_961" x1="92.691" y1="147.232" x2="92.691" y2="190.01" gradientUnits="userSpaceOnUse">
<stop stop-color="#524130"/>
<stop offset="1"/>
</linearGradient>
<linearGradient id="paint7_linear_578_961" x1="104.893" y1="148.473" x2="126.196" y2="190.045" gradientUnits="userSpaceOnUse">
<stop stop-color="#001A21"/>
<stop offset="0.498866" stop-color="#01474D"/>
<stop offset="1" stop-color="#009EAF"/>
</linearGradient>
<linearGradient id="paint8_linear_578_961" x1="103.859" y1="147.233" x2="54.0154" y2="219.001" gradientUnits="userSpaceOnUse">
<stop stop-color="#FEFDE6"/>
<stop offset="0.618975" stop-color="#888888"/>
<stop offset="1" stop-color="#FEFDE6"/>
</linearGradient>
<linearGradient id="paint9_linear_578_961" x1="101.745" y1="273.243" x2="101.745" y2="321.643" gradientUnits="userSpaceOnUse">
<stop offset="0.283874" stop-color="#D5DBE6"/>
<stop offset="1" stop-color="#04070D"/>
</linearGradient>
<clipPath id="clip0_578_961">
<rect x="1.95026" y="68.8018" width="197.642" height="197.642" rx="98.8212" fill="white"/>
</clipPath>
<clipPath id="clip1_578_961">
<rect x="1.95026" y="68.8018" width="197.642" height="197.642" rx="98.8212" fill="white"/>
</clipPath>
</defs>
</svg>
