<svg width="173" height="267" viewBox="0 0 173 267" fill="none" xmlns="http://www.w3.org/2000/svg">
<g filter="url(#filter0_d_872_9619)">
<mask id="path-1-inside-1_872_9619" fill="white">
<path d="M157.486 233.032C157.181 231.892 157.858 230.72 158.998 230.414C160.138 230.109 161.31 230.786 161.615 231.926L167.424 253.604C167.729 254.745 167.053 255.916 165.913 256.222C164.773 256.527 163.601 255.851 163.295 254.711L157.486 233.032ZM158.997 32.2129C157.857 31.9073 157.18 30.7357 157.485 29.5957L163.295 7.91699C163.6 6.77688 164.772 6.09991 165.912 6.40527C167.052 6.71079 167.729 7.88319 167.424 9.02343L161.615 30.7021C161.31 31.8422 160.137 32.5184 158.997 32.2129ZM143.994 235.431C143.84 234.26 144.665 233.187 145.835 233.033C147.005 232.879 148.078 233.703 148.232 234.873L151.162 257.124C151.316 258.294 150.493 259.368 149.322 259.522C148.152 259.677 147.078 258.852 146.924 257.682L143.994 235.431ZM143.995 27.1973L146.924 4.94628C147.078 3.77596 148.152 2.95147 149.322 3.10546C150.493 3.25955 151.316 4.33355 151.162 5.5039L148.233 27.7549C148.079 28.9253 147.005 29.7488 145.835 29.5947C144.665 29.4406 143.841 28.3675 143.995 27.1973ZM130.307 236.049C130.307 234.868 131.263 233.911 132.443 233.911C133.624 233.911 134.581 234.868 134.581 236.049L134.581 258.491C134.581 259.672 133.624 260.629 132.443 260.629C131.263 260.629 130.307 259.672 130.307 258.491L130.307 236.049ZM130.306 4.13671C130.306 2.95623 131.263 1.99902 132.443 1.99902C133.624 1.99917 134.58 2.95632 134.58 4.13671L134.58 26.5791C134.58 27.7595 133.624 28.7167 132.443 28.7168C131.263 28.7168 130.306 27.7596 130.306 26.5791L130.306 4.13671ZM113.725 257.124L116.654 234.873C116.808 233.703 117.882 232.879 119.052 233.033C120.222 233.187 121.047 234.261 120.893 235.432L117.963 257.683C117.809 258.853 116.735 259.677 115.564 259.522C114.394 259.368 113.571 258.294 113.725 257.124ZM113.725 5.5039C113.571 4.33361 114.395 3.26052 115.565 3.10644C116.736 2.9526 117.809 3.77606 117.963 4.94628L120.893 27.1973C121.047 28.3675 120.223 29.4415 119.053 29.5957C117.882 29.7498 116.808 28.9253 116.654 27.7549L113.725 5.5039ZM98.9746 256.222C97.8345 255.916 97.1576 254.745 97.4629 253.604L103.271 231.926C103.577 230.786 104.749 230.109 105.89 230.414C107.03 230.72 107.707 231.892 107.401 233.032L101.592 254.711C101.286 255.851 100.115 256.527 98.9746 256.222ZM97.4629 9.02343C97.1574 7.88319 97.8344 6.7108 98.9746 6.40527C100.115 6.10006 101.286 6.77697 101.592 7.91699L107.4 29.5957C107.706 30.7358 107.03 31.9072 105.89 32.2129C104.749 32.5184 103.577 31.8422 103.271 30.7021L97.4629 9.02343ZM82.957 250.785C81.8667 250.333 81.3491 249.083 81.8008 247.992L90.3896 227.258C90.8414 226.167 92.0911 225.65 93.1816 226.102C94.2722 226.553 94.7904 227.803 94.3389 228.894L85.75 249.629C85.2981 250.719 84.0475 251.237 82.957 250.785ZM81.7998 14.6357C81.3482 13.5452 81.8665 12.2945 82.957 11.8428C84.0475 11.3914 85.2973 11.9096 85.749 13L94.3379 33.7344C94.7896 34.8249 94.272 36.0755 93.1816 36.5273C92.0912 36.979 90.8406 36.4614 90.3887 35.3711L81.7998 14.6357ZM67.7861 243.304C66.7642 242.713 66.4138 241.406 67.0039 240.384L78.2256 220.948C78.8158 219.926 80.1232 219.576 81.1455 220.166C82.1676 220.756 82.5178 222.063 81.9277 223.085L70.7061 242.521C70.1158 243.544 68.8084 243.894 67.7861 243.304ZM67.0039 22.2441C66.4139 21.2219 66.764 19.9145 67.7861 19.3242C68.8083 18.7341 70.1157 19.0844 70.706 20.1064L81.9277 39.543C82.518 40.5653 82.1678 41.8726 81.1455 42.4629C80.1232 43.0531 78.8158 42.7029 78.2256 41.6807L67.0039 22.2441ZM53.7217 233.906C52.7857 233.188 52.609 231.847 53.3271 230.91L66.9902 213.104C67.7089 212.168 69.0508 211.991 69.9873 212.71C70.9235 213.429 71.1003 214.771 70.3818 215.707L56.7187 233.512C56.0001 234.448 54.6582 234.625 53.7217 233.906ZM53.3281 31.7187C52.6095 30.7822 52.7861 29.4403 53.7226 28.7217C54.6592 28.0032 56.0011 28.1797 56.7197 29.1162L70.3818 46.9219C71.1003 47.8584 70.9238 49.2004 69.9873 49.9189C69.0508 50.6374 67.7088 50.4599 66.9902 49.5234L53.3281 31.7187ZM41.0049 222.754C40.1702 221.919 40.1702 220.565 41.0049 219.73L56.874 203.861C57.7087 203.027 59.0627 203.027 59.8975 203.861C60.7319 204.696 60.7318 206.049 59.8975 206.884L44.0273 222.754C43.1927 223.588 41.8396 223.588 41.0049 222.754ZM41.0049 42.8975C40.1702 42.0627 40.1702 40.7087 41.0049 39.874C41.8396 39.0394 43.1936 39.0393 44.0283 39.874L59.8975 55.7441C60.7321 56.5788 60.7321 57.9319 59.8975 58.7666C59.0627 59.6013 57.7097 59.6013 56.875 58.7666L41.0049 42.8975ZM29.8506 210.035C29.1325 209.099 29.3092 207.758 30.2451 207.039L48.0508 193.376C48.9873 192.657 50.3292 192.834 51.0478 193.771C51.7664 194.707 51.5897 196.049 50.6533 196.768L32.8477 210.43C31.9111 211.148 30.5692 210.972 29.8506 210.035ZM30.2451 55.5889C29.3087 54.8703 29.1321 53.5293 29.8506 52.5928C30.5692 51.6562 31.9111 51.4796 32.8476 52.1982L50.6523 65.8603C51.5889 66.579 51.7655 67.9209 51.0469 68.8574C50.3282 69.7937 48.9862 69.9705 48.0498 69.252L30.2451 55.5889ZM21.2373 69.5762C20.215 68.9859 19.8648 67.6786 20.4551 66.6562C21.0454 65.6341 22.3527 65.2838 23.375 65.874L42.8105 77.0957C43.8329 77.6859 44.183 78.9933 43.5928 80.0156C43.0025 81.0375 41.6959 81.3877 40.6738 80.7978L21.2373 69.5762ZM20.4531 195.972C19.8629 194.949 20.214 193.642 21.2363 193.052L40.6719 181.83C41.6941 181.24 43.0015 181.59 43.5918 182.612C44.182 183.635 43.8319 184.942 42.8096 185.532L23.373 196.754C22.3508 197.344 21.0433 196.994 20.4531 195.972ZM14.1289 84.6201C13.0385 84.1682 12.5209 82.9176 12.9726 81.8271C13.4246 80.7369 14.6752 80.2192 15.7656 80.6709L36.5 89.2598C37.5904 89.7116 38.1078 90.9613 37.6562 92.0518C37.2045 93.1423 35.9548 93.6605 34.8643 93.209L14.1289 84.6201ZM12.9717 180.801C12.52 179.71 13.0374 178.46 14.1279 178.008L34.8633 169.42C35.9537 168.968 37.2034 169.486 37.6553 170.576C38.107 171.667 37.5895 172.917 36.499 173.369L15.7637 181.958C14.6732 182.409 13.4233 181.891 12.9717 180.801ZM9.04687 100.463C7.90662 100.157 7.22962 98.985 7.53515 97.8447C7.84079 96.7046 9.01315 96.0285 10.1533 96.334L31.831 102.143C32.9712 102.448 33.6481 103.62 33.3428 104.76C33.0373 105.9 31.8657 106.577 30.7256 106.271L9.04687 100.463ZM7.53515 164.783C7.22983 163.643 7.90602 162.472 9.04589 162.166L30.7246 156.357C31.8648 156.052 33.0372 156.728 33.3428 157.868C33.6483 159.008 32.9713 160.181 31.8311 160.486L10.1523 166.295C9.01221 166.6 7.84065 165.923 7.53515 164.783ZM4.23632 114.436C4.3904 113.265 5.46439 112.442 6.63476 112.596L28.8857 115.524C30.0559 115.679 30.8796 116.753 30.7256 117.923C30.5715 119.093 29.4975 119.917 28.3271 119.763L6.07617 116.834C4.90587 116.68 4.08228 115.606 4.23632 114.436ZM4.23535 148.192C4.08129 147.022 4.90493 145.948 6.07519 145.794L28.3262 142.865C29.4965 142.711 30.5705 143.535 30.7246 144.705C30.8787 145.875 30.055 146.949 28.8848 147.104L6.63378 150.032C5.46341 150.186 4.38943 149.363 4.23535 148.192ZM3.1289 131.313C3.12905 130.133 4.08545 129.177 5.26562 129.177L27.709 129.177C28.8894 129.177 29.8465 130.133 29.8467 131.313C29.8467 132.494 28.8895 133.451 27.709 133.451L5.26562 133.451C4.08536 133.451 3.1289 132.494 3.1289 131.313Z"/>
</mask>
<path d="M157.486 233.032C157.181 231.892 157.858 230.72 158.998 230.414C160.138 230.109 161.31 230.786 161.615 231.926L167.424 253.604C167.729 254.745 167.053 255.916 165.913 256.222C164.773 256.527 163.601 255.851 163.295 254.711L157.486 233.032ZM158.997 32.2129C157.857 31.9073 157.18 30.7357 157.485 29.5957L163.295 7.91699C163.6 6.77688 164.772 6.09991 165.912 6.40527C167.052 6.71079 167.729 7.88319 167.424 9.02343L161.615 30.7021C161.31 31.8422 160.137 32.5184 158.997 32.2129ZM143.994 235.431C143.84 234.26 144.665 233.187 145.835 233.033C147.005 232.879 148.078 233.703 148.232 234.873L151.162 257.124C151.316 258.294 150.493 259.368 149.322 259.522C148.152 259.677 147.078 258.852 146.924 257.682L143.994 235.431ZM143.995 27.1973L146.924 4.94628C147.078 3.77596 148.152 2.95147 149.322 3.10546C150.493 3.25955 151.316 4.33355 151.162 5.5039L148.233 27.7549C148.079 28.9253 147.005 29.7488 145.835 29.5947C144.665 29.4406 143.841 28.3675 143.995 27.1973ZM130.307 236.049C130.307 234.868 131.263 233.911 132.443 233.911C133.624 233.911 134.581 234.868 134.581 236.049L134.581 258.491C134.581 259.672 133.624 260.629 132.443 260.629C131.263 260.629 130.307 259.672 130.307 258.491L130.307 236.049ZM130.306 4.13671C130.306 2.95623 131.263 1.99902 132.443 1.99902C133.624 1.99917 134.58 2.95632 134.58 4.13671L134.58 26.5791C134.58 27.7595 133.624 28.7167 132.443 28.7168C131.263 28.7168 130.306 27.7596 130.306 26.5791L130.306 4.13671ZM113.725 257.124L116.654 234.873C116.808 233.703 117.882 232.879 119.052 233.033C120.222 233.187 121.047 234.261 120.893 235.432L117.963 257.683C117.809 258.853 116.735 259.677 115.564 259.522C114.394 259.368 113.571 258.294 113.725 257.124ZM113.725 5.5039C113.571 4.33361 114.395 3.26052 115.565 3.10644C116.736 2.9526 117.809 3.77606 117.963 4.94628L120.893 27.1973C121.047 28.3675 120.223 29.4415 119.053 29.5957C117.882 29.7498 116.808 28.9253 116.654 27.7549L113.725 5.5039ZM98.9746 256.222C97.8345 255.916 97.1576 254.745 97.4629 253.604L103.271 231.926C103.577 230.786 104.749 230.109 105.89 230.414C107.03 230.72 107.707 231.892 107.401 233.032L101.592 254.711C101.286 255.851 100.115 256.527 98.9746 256.222ZM97.4629 9.02343C97.1574 7.88319 97.8344 6.7108 98.9746 6.40527C100.115 6.10006 101.286 6.77697 101.592 7.91699L107.4 29.5957C107.706 30.7358 107.03 31.9072 105.89 32.2129C104.749 32.5184 103.577 31.8422 103.271 30.7021L97.4629 9.02343ZM82.957 250.785C81.8667 250.333 81.3491 249.083 81.8008 247.992L90.3896 227.258C90.8414 226.167 92.0911 225.65 93.1816 226.102C94.2722 226.553 94.7904 227.803 94.3389 228.894L85.75 249.629C85.2981 250.719 84.0475 251.237 82.957 250.785ZM81.7998 14.6357C81.3482 13.5452 81.8665 12.2945 82.957 11.8428C84.0475 11.3914 85.2973 11.9096 85.749 13L94.3379 33.7344C94.7896 34.8249 94.272 36.0755 93.1816 36.5273C92.0912 36.979 90.8406 36.4614 90.3887 35.3711L81.7998 14.6357ZM67.7861 243.304C66.7642 242.713 66.4138 241.406 67.0039 240.384L78.2256 220.948C78.8158 219.926 80.1232 219.576 81.1455 220.166C82.1676 220.756 82.5178 222.063 81.9277 223.085L70.7061 242.521C70.1158 243.544 68.8084 243.894 67.7861 243.304ZM67.0039 22.2441C66.4139 21.2219 66.764 19.9145 67.7861 19.3242C68.8083 18.7341 70.1157 19.0844 70.706 20.1064L81.9277 39.543C82.518 40.5653 82.1678 41.8726 81.1455 42.4629C80.1232 43.0531 78.8158 42.7029 78.2256 41.6807L67.0039 22.2441ZM53.7217 233.906C52.7857 233.188 52.609 231.847 53.3271 230.91L66.9902 213.104C67.7089 212.168 69.0508 211.991 69.9873 212.71C70.9235 213.429 71.1003 214.771 70.3818 215.707L56.7187 233.512C56.0001 234.448 54.6582 234.625 53.7217 233.906ZM53.3281 31.7187C52.6095 30.7822 52.7861 29.4403 53.7226 28.7217C54.6592 28.0032 56.0011 28.1797 56.7197 29.1162L70.3818 46.9219C71.1003 47.8584 70.9238 49.2004 69.9873 49.9189C69.0508 50.6374 67.7088 50.4599 66.9902 49.5234L53.3281 31.7187ZM41.0049 222.754C40.1702 221.919 40.1702 220.565 41.0049 219.73L56.874 203.861C57.7087 203.027 59.0627 203.027 59.8975 203.861C60.7319 204.696 60.7318 206.049 59.8975 206.884L44.0273 222.754C43.1927 223.588 41.8396 223.588 41.0049 222.754ZM41.0049 42.8975C40.1702 42.0627 40.1702 40.7087 41.0049 39.874C41.8396 39.0394 43.1936 39.0393 44.0283 39.874L59.8975 55.7441C60.7321 56.5788 60.7321 57.9319 59.8975 58.7666C59.0627 59.6013 57.7097 59.6013 56.875 58.7666L41.0049 42.8975ZM29.8506 210.035C29.1325 209.099 29.3092 207.758 30.2451 207.039L48.0508 193.376C48.9873 192.657 50.3292 192.834 51.0478 193.771C51.7664 194.707 51.5897 196.049 50.6533 196.768L32.8477 210.43C31.9111 211.148 30.5692 210.972 29.8506 210.035ZM30.2451 55.5889C29.3087 54.8703 29.1321 53.5293 29.8506 52.5928C30.5692 51.6562 31.9111 51.4796 32.8476 52.1982L50.6523 65.8603C51.5889 66.579 51.7655 67.9209 51.0469 68.8574C50.3282 69.7937 48.9862 69.9705 48.0498 69.252L30.2451 55.5889ZM21.2373 69.5762C20.215 68.9859 19.8648 67.6786 20.4551 66.6562C21.0454 65.6341 22.3527 65.2838 23.375 65.874L42.8105 77.0957C43.8329 77.6859 44.183 78.9933 43.5928 80.0156C43.0025 81.0375 41.6959 81.3877 40.6738 80.7978L21.2373 69.5762ZM20.4531 195.972C19.8629 194.949 20.214 193.642 21.2363 193.052L40.6719 181.83C41.6941 181.24 43.0015 181.59 43.5918 182.612C44.182 183.635 43.8319 184.942 42.8096 185.532L23.373 196.754C22.3508 197.344 21.0433 196.994 20.4531 195.972ZM14.1289 84.6201C13.0385 84.1682 12.5209 82.9176 12.9726 81.8271C13.4246 80.7369 14.6752 80.2192 15.7656 80.6709L36.5 89.2598C37.5904 89.7116 38.1078 90.9613 37.6562 92.0518C37.2045 93.1423 35.9548 93.6605 34.8643 93.209L14.1289 84.6201ZM12.9717 180.801C12.52 179.71 13.0374 178.46 14.1279 178.008L34.8633 169.42C35.9537 168.968 37.2034 169.486 37.6553 170.576C38.107 171.667 37.5895 172.917 36.499 173.369L15.7637 181.958C14.6732 182.409 13.4233 181.891 12.9717 180.801ZM9.04687 100.463C7.90662 100.157 7.22962 98.985 7.53515 97.8447C7.84079 96.7046 9.01315 96.0285 10.1533 96.334L31.831 102.143C32.9712 102.448 33.6481 103.62 33.3428 104.76C33.0373 105.9 31.8657 106.577 30.7256 106.271L9.04687 100.463ZM7.53515 164.783C7.22983 163.643 7.90602 162.472 9.04589 162.166L30.7246 156.357C31.8648 156.052 33.0372 156.728 33.3428 157.868C33.6483 159.008 32.9713 160.181 31.8311 160.486L10.1523 166.295C9.01221 166.6 7.84065 165.923 7.53515 164.783ZM4.23632 114.436C4.3904 113.265 5.46439 112.442 6.63476 112.596L28.8857 115.524C30.0559 115.679 30.8796 116.753 30.7256 117.923C30.5715 119.093 29.4975 119.917 28.3271 119.763L6.07617 116.834C4.90587 116.68 4.08228 115.606 4.23632 114.436ZM4.23535 148.192C4.08129 147.022 4.90493 145.948 6.07519 145.794L28.3262 142.865C29.4965 142.711 30.5705 143.535 30.7246 144.705C30.8787 145.875 30.055 146.949 28.8848 147.104L6.63378 150.032C5.46341 150.186 4.38943 149.363 4.23535 148.192ZM3.1289 131.313C3.12905 130.133 4.08545 129.177 5.26562 129.177L27.709 129.177C28.8894 129.177 29.8465 130.133 29.8467 131.313C29.8467 132.494 28.8895 133.451 27.709 133.451L5.26562 133.451C4.08536 133.451 3.1289 132.494 3.1289 131.313Z" fill="url(#paint0_radial_872_9619)"/>
<path d="M157.486 233.032L158.452 232.773L158.452 232.773L157.486 233.032ZM158.998 230.414L158.739 229.448L158.739 229.448L158.998 230.414ZM161.615 231.926L162.581 231.667L162.581 231.667L161.615 231.926ZM167.424 253.604L168.39 253.346L168.39 253.346L167.424 253.604ZM165.913 256.222L166.172 257.188L166.172 257.188L165.913 256.222ZM163.295 254.711L162.329 254.97L162.329 254.97L163.295 254.711ZM158.997 32.2129L158.738 33.1788L158.738 33.1788L158.997 32.2129ZM157.485 29.5957L156.519 29.3368L156.519 29.3371L157.485 29.5957ZM163.295 7.91699L162.329 7.65812L162.329 7.65814L163.295 7.91699ZM165.912 6.40527L166.171 5.43934L166.171 5.43931L165.912 6.40527ZM167.424 9.02343L166.458 8.76461L166.458 8.76463L167.424 9.02343ZM161.615 30.7021L162.581 30.9611L162.581 30.9609L161.615 30.7021ZM143.994 235.431L143.003 235.561L143.003 235.561L143.994 235.431ZM145.835 233.033L145.705 232.042L145.704 232.042L145.835 233.033ZM148.232 234.873L149.224 234.743L149.224 234.742L148.232 234.873ZM151.162 257.124L152.154 256.993L152.154 256.993L151.162 257.124ZM149.322 259.522L149.453 260.514L149.453 260.514L149.322 259.522ZM146.924 257.682L147.915 257.551L147.915 257.551L146.924 257.682ZM143.995 27.1973L143.004 27.0668L143.004 27.0668L143.995 27.1973ZM146.924 4.94628L145.932 4.81576L145.932 4.81579L146.924 4.94628ZM149.322 3.10546L149.453 2.11401L149.453 2.11401L149.322 3.10546ZM151.162 5.5039L150.171 5.37339L150.171 5.37341L151.162 5.5039ZM148.233 27.7549L149.225 27.8854L149.225 27.8854L148.233 27.7549ZM145.835 29.5947L145.704 30.5862L145.704 30.5862L145.835 29.5947ZM130.307 236.049L129.307 236.049L130.307 236.049ZM132.443 233.911L132.443 232.911L132.443 232.911L132.443 233.911ZM134.581 236.049L133.581 236.049L134.581 236.049ZM134.581 258.491L135.581 258.491L134.581 258.491ZM132.443 260.629L132.443 261.629L132.443 261.629L132.443 260.629ZM130.307 258.491L131.307 258.491L130.307 258.491ZM130.306 4.13671L129.306 4.13671L130.306 4.13671ZM132.443 1.99902L132.443 0.999018L132.443 0.999018L132.443 1.99902ZM134.58 4.13671L133.58 4.13671L134.58 4.13671ZM134.58 26.5791L135.58 26.5791L134.58 26.5791ZM132.443 28.7168L132.443 29.7168L132.443 29.7168L132.443 28.7168ZM130.306 26.5791L131.306 26.5791L130.306 26.5791ZM113.725 257.124L112.733 256.993L112.733 256.993L113.725 257.124ZM116.654 234.873L115.663 234.742L115.663 234.743L116.654 234.873ZM119.052 233.033L119.182 232.042L119.182 232.042L119.052 233.033ZM120.893 235.432L121.884 235.562L121.884 235.562L120.893 235.432ZM117.963 257.683L118.954 257.813L118.954 257.813L117.963 257.683ZM115.564 259.522L115.434 260.514L115.434 260.514L115.564 259.522ZM113.725 5.5039L112.733 5.63433L112.733 5.63444L113.725 5.5039ZM115.565 3.10644L115.435 2.11499L115.435 2.11499L115.565 3.10644ZM117.963 4.94628L116.971 5.07681L116.971 5.07682L117.963 4.94628ZM120.893 27.1973L121.884 27.0668L121.884 27.0667L120.893 27.1973ZM119.053 29.5957L119.183 30.5871L119.183 30.5871L119.053 29.5957ZM116.654 27.7549L117.646 27.6244L117.646 27.6243L116.654 27.7549ZM98.9746 256.222L98.7158 257.188L98.7158 257.188L98.9746 256.222ZM97.4629 253.604L96.497 253.346L96.4969 253.346L97.4629 253.604ZM103.271 231.926L102.306 231.667L102.306 231.667L103.271 231.926ZM105.89 230.414L106.148 229.448L106.148 229.448L105.89 230.414ZM107.401 233.032L108.367 233.291L108.367 233.291L107.401 233.032ZM101.592 254.711L102.558 254.97L102.558 254.97L101.592 254.711ZM97.4629 9.02343L96.497 9.28224L97.4629 9.02343ZM98.9746 6.40527L98.716 5.43928L98.7158 5.43934L98.9746 6.40527ZM101.592 7.91699L102.558 7.65818L102.558 7.65811L101.592 7.91699ZM107.4 29.5957L108.366 29.337L108.366 29.3369L107.4 29.5957ZM105.89 32.2129L106.148 33.1788L106.149 33.1788L105.89 32.2129ZM103.271 30.7021L102.306 30.9609L102.306 30.9611L103.271 30.7021ZM82.957 250.785L82.5742 251.709L82.5743 251.709L82.957 250.785ZM81.8008 247.992L80.8769 247.609L80.8769 247.61L81.8008 247.992ZM90.3896 227.258L89.4658 226.875L89.4658 226.875L90.3896 227.258ZM93.1816 226.102L93.5643 225.178L93.5643 225.178L93.1816 226.102ZM94.3389 228.894L95.2627 229.276L95.2628 229.276L94.3389 228.894ZM85.75 249.629L86.6738 250.012L86.6739 250.012L85.75 249.629ZM81.7998 14.6357L80.8759 15.0183L80.8759 15.0184L81.7998 14.6357ZM82.957 11.8428L82.5745 10.9188L82.5743 10.9189L82.957 11.8428ZM85.749 13L86.6729 12.6173L86.6729 12.6172L85.749 13ZM94.3379 33.7344L95.2618 33.3517L95.2618 33.3517L94.3379 33.7344ZM93.1816 36.5273L93.5643 37.4512L93.5645 37.4512L93.1816 36.5273ZM90.3887 35.3711L89.4648 35.7538L89.4649 35.754L90.3887 35.3711ZM67.7861 243.304L67.2859 244.17L67.2861 244.17L67.7861 243.304ZM67.0039 240.384L66.1379 239.884L66.1379 239.884L67.0039 240.384ZM78.2256 220.948L79.0916 221.448L79.0916 221.448L78.2256 220.948ZM81.1455 220.166L81.6456 219.3L81.6455 219.3L81.1455 220.166ZM81.9277 223.085L82.7938 223.585L82.7938 223.585L81.9277 223.085ZM70.7061 242.521L71.5721 243.022L71.5721 243.021L70.7061 242.521ZM67.0039 22.2441L66.1378 22.744L66.1379 22.7441L67.0039 22.2441ZM67.7861 19.3242L67.2861 18.4582L67.286 18.4582L67.7861 19.3242ZM70.706 20.1064L71.5721 19.6064L71.572 19.6063L70.706 20.1064ZM81.9277 39.543L81.0617 40.043L81.9277 39.543ZM81.1455 42.4629L81.6455 43.3289L81.6455 43.3289L81.1455 42.4629ZM78.2256 41.6807L77.3595 42.1807L77.3596 42.1807L78.2256 41.6807ZM53.7217 233.906L53.1127 234.699L53.1129 234.7L53.7217 233.906ZM53.3271 230.91L52.5338 230.301L52.5336 230.302L53.3271 230.91ZM66.9902 213.104L66.1969 212.496L66.1969 212.496L66.9902 213.104ZM69.9873 212.71L70.5962 211.917L70.5961 211.917L69.9873 212.71ZM70.3818 215.707L71.1752 216.316L71.1752 216.316L70.3818 215.707ZM56.7187 233.512L55.9254 232.903L55.9254 232.903L56.7187 233.512ZM53.3281 31.7187L52.5348 32.3275L52.5348 32.3275L53.3281 31.7187ZM53.7226 28.7217L53.114 27.9283L53.1139 27.9283L53.7226 28.7217ZM56.7197 29.1162L57.5131 28.5075L57.5131 28.5074L56.7197 29.1162ZM70.3818 46.9219L71.1753 46.3132L71.1752 46.3131L70.3818 46.9219ZM69.9873 49.9189L70.596 50.7124L70.5961 50.7123L69.9873 49.9189ZM66.9902 49.5234L67.7836 48.9147L66.9902 49.5234ZM41.0049 222.754L40.2978 223.461L40.2979 223.461L41.0049 222.754ZM41.0049 219.73L41.712 220.438L41.0049 219.73ZM56.874 203.861L56.1669 203.154L56.874 203.861ZM59.8975 203.861L60.6047 203.154L60.6046 203.154L59.8975 203.861ZM59.8975 206.884L60.6046 207.591L60.6047 207.591L59.8975 206.884ZM44.0273 222.754L44.7344 223.461L44.7344 223.461L44.0273 222.754ZM41.0049 42.8975L40.2978 43.6046L40.2978 43.6046L41.0049 42.8975ZM41.0049 39.874L40.2978 39.1669L40.2978 39.1669L41.0049 39.874ZM44.0283 39.874L44.7354 39.1669L44.7354 39.1669L44.0283 39.874ZM59.8975 55.7441L59.1903 56.4512L59.1903 56.4512L59.8975 55.7441ZM59.8975 58.7666L60.6046 59.4737L60.6046 59.4737L59.8975 58.7666ZM56.875 58.7666L57.5821 58.0595L57.5821 58.0595L56.875 58.7666ZM29.8506 210.035L29.0571 210.644L29.0572 210.644L29.8506 210.035ZM30.2451 207.039L29.6363 206.246L29.6361 206.246L30.2451 207.039ZM48.0508 193.376L47.4421 192.583L47.442 192.583L48.0508 193.376ZM51.0478 193.771L51.8412 193.162L51.8412 193.162L51.0478 193.771ZM50.6533 196.768L51.2621 197.561L51.2621 197.561L50.6533 196.768ZM32.8477 210.43L32.2389 209.636L32.2389 209.636L32.8477 210.43ZM30.2451 55.5889L30.8539 54.7955L30.8539 54.7955L30.2451 55.5889ZM29.8506 52.5928L29.0572 51.984L29.0572 51.9841L29.8506 52.5928ZM32.8476 52.1982L33.4564 51.4049L33.4564 51.4049L32.8476 52.1982ZM50.6523 65.8603L50.0436 66.6537L50.0436 66.6537L50.6523 65.8603ZM51.0469 68.8574L51.8401 69.4663L51.8402 69.4662L51.0469 68.8574ZM48.0498 69.252L47.441 70.0453L47.441 70.0453L48.0498 69.252ZM21.2373 69.5762L20.7373 70.4422L21.2373 69.5762ZM20.4551 66.6562L19.5891 66.1562L19.589 66.1562L20.4551 66.6562ZM23.375 65.874L23.875 65.008L23.875 65.008L23.375 65.874ZM42.8105 77.0957L42.3105 77.9617L42.3105 77.9617L42.8105 77.0957ZM43.5928 80.0156L44.4587 80.5158L44.4588 80.5156L43.5928 80.0156ZM40.6738 80.7978L40.1738 81.6639L40.174 81.664L40.6738 80.7978ZM20.4531 195.972L19.5871 196.472L19.5871 196.472L20.4531 195.972ZM21.2363 193.052L21.7363 193.918L21.7363 193.918L21.2363 193.052ZM40.6719 181.83L40.1719 180.964L40.1719 180.964L40.6719 181.83ZM43.5918 182.612L44.4578 182.112L44.4578 182.112L43.5918 182.612ZM42.8096 185.532L43.3096 186.398L42.8096 185.532ZM23.373 196.754L23.8729 197.62L23.873 197.62L23.373 196.754ZM14.1289 84.6201L13.7461 85.5439L13.7462 85.544L14.1289 84.6201ZM12.9726 81.8271L12.0489 81.4442L12.0488 81.4445L12.9726 81.8271ZM15.7656 80.6709L16.1483 79.747L16.1483 79.747L15.7656 80.6709ZM36.5 89.2598L36.8828 88.3359L36.8827 88.3359L36.5 89.2598ZM37.6562 92.0518L38.5801 92.4344L38.5802 92.4344L37.6562 92.0518ZM34.8643 93.209L34.4816 94.1329L34.4817 94.1329L34.8643 93.209ZM12.9717 180.801L12.0478 181.183L12.0478 181.183L12.9717 180.801ZM14.1279 178.008L13.7453 177.084L13.7452 177.084L14.1279 178.008ZM34.8633 169.42L34.4807 168.496L34.4806 168.496L34.8633 169.42ZM37.6553 170.576L38.5791 170.193L38.5791 170.193L37.6553 170.576ZM36.499 173.369L36.8817 174.293L36.8818 174.293L36.499 173.369ZM15.7637 181.958L16.1461 182.882L16.1464 182.882L15.7637 181.958ZM9.04687 100.463L8.78805 101.429L8.78806 101.429L9.04687 100.463ZM7.53515 97.8447L6.56926 97.5858L6.56922 97.5859L7.53515 97.8447ZM10.1533 96.334L10.4121 95.3681L10.4121 95.3681L10.1533 96.334ZM31.831 102.143L31.5722 103.109L31.5722 103.109L31.831 102.143ZM33.3428 104.76L34.3087 105.019L34.3087 105.018L33.3428 104.76ZM30.7256 106.271L30.4668 107.237L30.467 107.237L30.7256 106.271ZM7.53515 164.783L6.5692 165.042L6.56923 165.042L7.53515 164.783ZM9.04589 162.166L8.78708 161.2L8.78685 161.2L9.04589 162.166ZM30.7246 156.357L30.9834 157.323L30.9834 157.323L30.7246 156.357ZM33.3428 157.868L34.3087 157.609L34.3087 157.609L33.3428 157.868ZM31.8311 160.486L32.0899 161.452L32.0899 161.452L31.8311 160.486ZM10.1523 166.295L10.411 167.261L10.4112 167.261L10.1523 166.295ZM4.23632 114.436L3.24488 114.305L3.24487 114.305L4.23632 114.436ZM6.63476 112.596L6.50423 113.587L6.50426 113.587L6.63476 112.596ZM28.8857 115.524L29.0164 114.533L29.0162 114.533L28.8857 115.524ZM30.7256 117.923L31.717 118.053L30.7256 117.923ZM28.3271 119.763L28.4577 118.771L28.4576 118.771L28.3271 119.763ZM6.07617 116.834L5.94559 117.825L5.94567 117.825L6.07617 116.834ZM4.23535 148.192L3.2439 148.323L3.2439 148.323L4.23535 148.192ZM6.07519 145.794L5.94469 144.802L5.94458 144.803L6.07519 145.794ZM28.3262 142.865L28.4567 143.857L28.4567 143.857L28.3262 142.865ZM30.7246 144.705L31.7161 144.575L31.716 144.575L30.7246 144.705ZM28.8848 147.104L29.0153 148.095L29.0154 148.095L28.8848 147.104ZM6.63378 150.032L6.50329 149.041L6.50326 149.041L6.63378 150.032ZM3.1289 131.313L2.1289 131.313L2.1289 131.313L3.1289 131.313ZM5.26562 129.177L5.26562 128.177L5.26541 128.177L5.26562 129.177ZM29.8467 131.313L30.8467 131.313L30.8467 131.313L29.8467 131.313ZM5.26562 133.451L5.26541 134.451L5.26562 134.451L5.26562 133.451ZM157.486 233.032L158.452 232.773C158.29 232.167 158.65 231.543 159.257 231.38L158.998 230.414L158.739 229.448C157.066 229.897 156.072 231.617 156.52 233.291L157.486 233.032ZM158.998 230.414L159.257 231.38C159.863 231.218 160.487 231.578 160.649 232.185L161.615 231.926L162.581 231.667C162.133 229.994 160.413 229 158.739 229.448L158.998 230.414ZM161.615 231.926L160.649 232.185L166.458 253.863L167.424 253.604L168.39 253.346L162.581 231.667L161.615 231.926ZM167.424 253.604L166.458 253.863C166.62 254.47 166.261 255.093 165.654 255.256L165.913 256.222L166.172 257.188C167.846 256.739 168.838 255.019 168.39 253.346L167.424 253.604ZM165.913 256.222L165.654 255.256C165.047 255.418 164.423 255.058 164.261 254.452L163.295 254.711L162.329 254.97C162.778 256.644 164.499 257.636 166.172 257.188L165.913 256.222ZM163.295 254.711L164.261 254.452L158.452 232.773L157.486 233.032L156.52 233.291L162.329 254.97L163.295 254.711ZM158.997 32.2129L159.256 31.247C158.649 31.0843 158.289 30.4607 158.451 29.8543L157.485 29.5957L156.519 29.3371C156.071 31.0108 157.065 32.7304 158.738 33.1788L158.997 32.2129ZM157.485 29.5957L158.451 29.8545L164.261 8.17584L163.295 7.91699L162.329 7.65814L156.519 29.3368L157.485 29.5957ZM163.295 7.91699L164.261 8.17585C164.424 7.56873 165.047 7.20884 165.653 7.37122L165.912 6.40527L166.171 5.43931C164.497 4.99098 162.777 5.98501 162.329 7.65812L163.295 7.91699ZM165.912 6.40527L165.653 7.37119C166.26 7.53381 166.62 8.15792 166.458 8.76461L167.424 9.02343L168.39 9.28225C168.838 7.60845 167.845 5.88779 166.171 5.43934L165.912 6.40527ZM167.424 9.02343L166.458 8.76463L160.649 30.4433L161.615 30.7021L162.581 30.9609L168.39 9.28223L167.424 9.02343ZM161.615 30.7021L160.649 30.4432C160.487 31.0494 159.863 31.4096 159.256 31.247L158.997 32.2129L158.738 33.1788C160.411 33.6271 162.132 32.6349 162.581 30.9611L161.615 30.7021ZM143.994 235.431L144.986 235.3C144.904 234.678 145.342 234.107 145.965 234.025L145.835 233.033L145.704 232.042C143.987 232.268 142.777 233.843 143.003 235.561L143.994 235.431ZM145.835 233.033L145.965 234.025C146.588 233.943 147.159 234.381 147.241 235.004L148.232 234.873L149.224 234.742C148.998 233.025 147.422 231.816 145.705 232.042L145.835 233.033ZM148.232 234.873L147.241 235.004L150.171 257.255L151.162 257.124L152.154 256.993L149.224 234.743L148.232 234.873ZM151.162 257.124L150.171 257.255C150.253 257.878 149.814 258.449 149.192 258.531L149.322 259.522L149.453 260.514C151.171 260.288 152.38 258.711 152.154 256.993L151.162 257.124ZM149.322 259.522L149.192 258.531C148.569 258.613 147.997 258.174 147.915 257.551L146.924 257.682L145.932 257.812C146.159 259.53 147.735 260.74 149.453 260.514L149.322 259.522ZM146.924 257.682L147.915 257.551L144.986 235.3L143.994 235.431L143.003 235.561L145.932 257.812L146.924 257.682ZM143.995 27.1973L144.987 27.3278L147.915 5.07678L146.924 4.94628L145.932 4.81579L143.004 27.0668L143.995 27.1973ZM146.924 4.94628L147.915 5.07681C147.997 4.45382 148.569 4.01498 149.192 4.09692L149.322 3.10546L149.453 2.11401C147.735 1.88793 146.159 3.09811 145.932 4.81576L146.924 4.94628ZM149.322 3.10546L149.192 4.09692C149.814 4.17886 150.253 4.75019 150.171 5.37339L151.162 5.5039L152.154 5.63441C152.38 3.91689 151.171 2.34023 149.453 2.11401L149.322 3.10546ZM151.162 5.5039L150.171 5.37341L147.242 27.6244L148.233 27.7549L149.225 27.8854L152.154 5.63439L151.162 5.5039ZM148.233 27.7549L147.242 27.6244C147.16 28.2468 146.589 28.6853 145.965 28.6033L145.835 29.5947L145.704 30.5862C147.422 30.8123 148.999 29.6037 149.225 27.8854L148.233 27.7549ZM145.835 29.5947L145.966 28.6033C145.343 28.5213 144.905 27.9504 144.987 27.3277L143.995 27.1973L143.004 27.0668C142.778 28.7847 143.987 30.36 145.704 30.5862L145.835 29.5947ZM130.307 236.049L131.307 236.049C131.307 235.42 131.816 234.911 132.444 234.911L132.443 233.911L132.443 232.911C130.71 232.911 129.307 234.317 129.307 236.049L130.307 236.049ZM132.443 233.911L132.443 234.911C133.072 234.911 133.581 235.421 133.581 236.049L134.581 236.049L135.581 236.049C135.581 234.316 134.176 232.911 132.443 232.911L132.443 233.911ZM134.581 236.049L133.581 236.049L133.581 258.491L134.581 258.491L135.581 258.491L135.581 236.049L134.581 236.049ZM134.581 258.491L133.581 258.491C133.581 259.119 133.072 259.629 132.443 259.629L132.443 260.629L132.443 261.629C134.176 261.629 135.581 260.224 135.581 258.491L134.581 258.491ZM132.443 260.629L132.444 259.629C131.816 259.629 131.307 259.12 131.307 258.491L130.307 258.491L129.307 258.491C129.307 260.223 130.71 261.629 132.443 261.629L132.443 260.629ZM130.307 258.491L131.307 258.491L131.307 236.049L130.307 236.049L129.307 236.049L129.307 258.491L130.307 258.491ZM130.306 4.13671L131.306 4.13671C131.306 3.50854 131.815 2.99902 132.443 2.99902L132.443 1.99902L132.443 0.999018C130.711 0.999018 129.306 2.40396 129.306 4.13671L130.306 4.13671ZM132.443 1.99902L132.443 2.99902C133.071 2.99908 133.58 3.50814 133.58 4.13671L134.58 4.13671L135.58 4.13671C135.58 2.4045 134.176 0.999231 132.443 0.999018L132.443 1.99902ZM134.58 4.13671L133.58 4.13671L133.58 26.5791L134.58 26.5791L135.58 26.5791L135.58 4.13671L134.58 4.13671ZM134.58 26.5791L133.58 26.5791C133.58 27.2077 133.071 27.7167 132.443 27.7168L132.443 28.7168L132.443 29.7168C134.176 29.7166 135.58 28.3113 135.58 26.5791L134.58 26.5791ZM132.443 28.7168L132.443 27.7168C131.815 27.7168 131.306 27.2073 131.306 26.5791L130.306 26.5791L129.306 26.5791C129.306 28.3119 130.711 29.7168 132.443 29.7168L132.443 28.7168ZM130.306 26.5791L131.306 26.5791L131.306 4.13671L130.306 4.13671L129.306 4.13671L129.306 26.5791L130.306 26.5791ZM113.725 257.124L114.716 257.255L117.646 235.004L116.654 234.873L115.663 234.743L112.733 256.993L113.725 257.124ZM116.654 234.873L117.646 235.004C117.728 234.381 118.299 233.943 118.921 234.025L119.052 233.033L119.182 232.042C117.464 231.816 115.889 233.025 115.663 234.742L116.654 234.873ZM119.052 233.033L118.921 234.025C119.544 234.107 119.983 234.679 119.901 235.301L120.893 235.432L121.884 235.562C122.11 233.844 120.9 232.268 119.182 232.042L119.052 233.033ZM120.893 235.432L119.901 235.301L116.971 257.552L117.963 257.683L118.954 257.813L121.884 235.562L120.893 235.432ZM117.963 257.683L116.971 257.552C116.889 258.174 116.318 258.613 115.695 258.531L115.564 259.522L115.434 260.514C117.152 260.74 118.728 259.531 118.954 257.813L117.963 257.683ZM115.564 259.522L115.695 258.531C115.073 258.449 114.634 257.877 114.716 257.255L113.725 257.124L112.733 256.993C112.507 258.711 113.716 260.287 115.434 260.514L115.564 259.522ZM113.725 5.5039L114.716 5.37347C114.634 4.75138 115.072 4.17996 115.696 4.0979L115.565 3.10644L115.435 2.11499C113.718 2.34106 112.507 3.91586 112.733 5.63433L113.725 5.5039ZM115.565 3.10644L115.696 4.0979C116.319 4.01605 116.889 4.45419 116.971 5.07681L117.963 4.94628L118.954 4.81576C118.728 3.09793 117.153 1.88919 115.435 2.11499L115.565 3.10644ZM117.963 4.94628L116.971 5.07682L119.901 27.3278L120.893 27.1973L121.884 27.0667L118.954 4.81575L117.963 4.94628ZM120.893 27.1973L119.901 27.3277C119.983 27.9507 119.544 28.5222 118.922 28.6043L119.053 29.5957L119.183 30.5871C120.901 30.3607 122.11 28.7843 121.884 27.0668L120.893 27.1973ZM119.053 29.5957L118.922 28.6043C118.3 28.6862 117.728 28.2475 117.646 27.6244L116.654 27.7549L115.663 27.8854C115.889 29.603 117.465 30.8133 119.183 30.5871L119.053 29.5957ZM116.654 27.7549L117.646 27.6243L114.716 5.37336L113.725 5.5039L112.733 5.63444L115.663 27.8854L116.654 27.7549ZM98.9746 256.222L99.2334 255.256C98.6264 255.093 98.2665 254.47 98.4289 253.863L97.4629 253.604L96.4969 253.346C96.0487 255.02 97.0425 256.739 98.7158 257.188L98.9746 256.222ZM97.4629 253.604L98.4288 253.863L104.237 232.185L103.271 231.926L102.306 231.667L96.497 253.346L97.4629 253.604ZM103.271 231.926L104.237 232.185C104.4 231.578 105.024 231.217 105.631 231.38L105.89 230.414L106.148 229.448C104.475 229 102.754 229.993 102.306 231.667L103.271 231.926ZM105.89 230.414L105.631 231.38C106.238 231.543 106.598 232.167 106.435 232.773L107.401 233.032L108.367 233.291C108.816 231.617 107.822 229.897 106.148 229.448L105.89 230.414ZM107.401 233.032L106.435 232.773L100.626 254.452L101.592 254.711L102.558 254.97L108.367 233.291L107.401 233.032ZM101.592 254.711L100.626 254.452C100.463 255.059 99.8401 255.418 99.2334 255.256L98.9746 256.222L98.7158 257.188C100.389 257.636 102.109 256.643 102.558 254.97L101.592 254.711ZM97.4629 9.02343L98.4288 8.76463C98.2662 8.15792 98.6266 7.53379 99.2334 7.3712L98.9746 6.40527L98.7158 5.43934C97.0421 5.8878 96.0485 7.60847 96.497 9.28224L97.4629 9.02343ZM98.9746 6.40527L99.2332 7.37126C99.8396 7.20892 100.463 7.56892 100.626 8.17587L101.592 7.91699L102.558 7.65811C102.109 5.98503 100.39 4.99121 98.716 5.43928L98.9746 6.40527ZM101.592 7.91699L100.626 8.17579L106.434 29.8545L107.4 29.5957L108.366 29.3369L102.558 7.65818L101.592 7.91699ZM107.4 29.5957L106.434 29.8544C106.597 30.4612 106.237 31.0844 105.631 31.247L105.89 32.2129L106.149 33.1788C107.822 32.7301 108.815 31.0103 108.366 29.337L107.4 29.5957ZM105.89 32.2129L105.631 31.247C105.024 31.4096 104.4 31.0494 104.237 30.4432L103.271 30.7021L102.306 30.9611C102.754 32.635 104.475 33.6271 106.148 33.1788L105.89 32.2129ZM103.271 30.7021L104.237 30.4433L98.4288 8.76463L97.4629 9.02343L96.497 9.28224L102.306 30.9609L103.271 30.7021ZM82.957 250.785L83.3399 249.861C82.7599 249.621 82.4842 248.955 82.7247 248.375L81.8008 247.992L80.8769 247.61C80.214 249.21 80.9735 251.046 82.5742 251.709L82.957 250.785ZM81.8008 247.992L82.7247 248.375L91.3135 227.641L90.3896 227.258L89.4658 226.875L80.8769 247.609L81.8008 247.992ZM90.3896 227.258L91.3135 227.641C91.5539 227.06 92.2185 226.785 92.799 227.025L93.1816 226.102L93.5643 225.178C91.9637 224.515 90.129 225.274 89.4658 226.875L90.3896 227.258ZM93.1816 226.102L92.799 227.025C93.3797 227.266 93.6551 227.931 93.4149 228.511L94.3389 228.894L95.2628 229.276C95.9258 227.675 95.1647 225.841 93.5643 225.178L93.1816 226.102ZM94.3389 228.894L93.415 228.511L84.8261 249.246L85.75 249.629L86.6739 250.012L95.2627 229.276L94.3389 228.894ZM85.75 249.629L84.8262 249.246C84.5858 249.826 83.9202 250.102 83.3397 249.861L82.957 250.785L82.5743 251.709C84.1748 252.372 86.0104 251.612 86.6738 250.012L85.75 249.629ZM81.7998 14.6357L82.7237 14.2532C82.4835 13.6729 82.7593 13.0071 83.3397 12.7666L82.957 11.8428L82.5743 10.9189C80.9737 11.5819 80.213 13.4174 80.8759 15.0183L81.7998 14.6357ZM82.957 11.8428L83.3395 12.7667C83.9194 12.5267 84.5846 12.8021 84.8252 13.3827L85.749 13L86.6729 12.6172C86.0099 11.0171 84.1755 10.2561 82.5745 10.9188L82.957 11.8428ZM85.749 13L84.8251 13.3827L93.414 34.1171L94.3379 33.7344L95.2618 33.3517L86.6729 12.6173L85.749 13ZM94.3379 33.7344L93.414 34.1171C93.6545 34.6976 93.3788 35.3632 92.7988 35.6035L93.1816 36.5273L93.5645 37.4512C95.1652 36.7878 95.9247 34.9521 95.2618 33.3517L94.3379 33.7344ZM93.1816 36.5273L92.7989 35.6035C92.2185 35.8439 91.5529 35.5682 91.3125 34.9882L90.3887 35.3711L89.4649 35.754C90.1283 37.3546 91.9639 38.1141 93.5643 37.4512L93.1816 36.5273ZM90.3887 35.3711L91.3125 34.9884L82.7237 14.253L81.7998 14.6357L80.8759 15.0184L89.4648 35.7538L90.3887 35.3711ZM67.7861 243.304L68.2863 242.438C67.7423 242.124 67.556 241.428 67.8699 240.884L67.0039 240.384L66.1379 239.884C65.2715 241.384 65.786 243.303 67.2859 244.17L67.7861 243.304ZM67.0039 240.384L67.8699 240.884L79.0916 221.448L78.2256 220.948L77.3596 220.448L66.1379 239.884L67.0039 240.384ZM78.2256 220.948L79.0916 221.448C79.4056 220.904 80.1014 220.718 80.6455 221.032L81.1455 220.166L81.6455 219.3C80.145 218.434 78.226 218.948 77.3596 220.448L78.2256 220.948ZM81.1455 220.166L80.6454 221.032C81.1894 221.346 81.3756 222.041 81.0616 222.585L81.9277 223.085L82.7938 223.585C83.6599 222.084 83.1459 220.166 81.6456 219.3L81.1455 220.166ZM81.9277 223.085L81.0617 222.585L69.84 242.021L70.7061 242.521L71.5721 243.021L82.7938 223.585L81.9277 223.085ZM70.7061 242.521L69.84 242.021C69.526 242.565 68.8302 242.752 68.2861 242.438L67.7861 243.304L67.2861 244.17C68.7866 245.036 70.7056 244.522 71.5721 243.022L70.7061 242.521ZM67.0039 22.2441L67.87 21.7442C67.5559 21.2001 67.7424 20.5042 68.2862 20.1902L67.7861 19.3242L67.286 18.4582C65.7856 19.3247 65.2718 21.2437 66.1378 22.744L67.0039 22.2441ZM67.7861 19.3242L68.2861 20.1902C68.8299 19.8763 69.5259 20.0626 69.8401 20.6066L70.706 20.1064L71.572 19.6063C70.7055 18.1062 68.7867 17.5919 67.2861 18.4582L67.7861 19.3242ZM70.706 20.1064L69.84 20.6064L81.0617 40.043L81.9277 39.543L82.7938 39.043L71.5721 19.6064L70.706 20.1064ZM81.9277 39.543L81.0617 40.043C81.3758 40.5871 81.1894 41.2828 80.6455 41.5969L81.1455 42.4629L81.6455 43.3289C83.1462 42.4625 83.6601 40.5435 82.7938 39.043L81.9277 39.543ZM81.1455 42.4629L80.6455 41.5969C80.1014 41.911 79.4056 41.7246 79.0916 41.1806L78.2256 41.6807L77.3596 42.1807C78.226 43.6813 80.145 44.1952 81.6455 43.3289L81.1455 42.4629ZM78.2256 41.6807L79.0916 41.1807L67.8699 21.7441L67.0039 22.2441L66.1379 22.7441L77.3595 42.1807L78.2256 41.6807ZM53.7217 233.906L54.3306 233.113C53.8325 232.731 53.7385 232.017 54.1207 231.519L53.3271 230.91L52.5336 230.302C51.4795 231.676 51.7388 233.645 53.1127 234.699L53.7217 233.906ZM53.3271 230.91L54.1205 231.519L67.7836 213.713L66.9902 213.104L66.1969 212.496L52.5338 230.301L53.3271 230.91ZM66.9902 213.104L67.7835 213.713C68.166 213.215 68.8802 213.121 69.3785 213.503L69.9873 212.71L70.5961 211.917C69.2214 210.862 67.2518 211.121 66.1969 212.496L66.9902 213.104ZM69.9873 212.71L69.3784 213.503C69.8767 213.886 69.9707 214.6 69.5885 215.098L70.3818 215.707L71.1752 216.316C72.2299 214.941 71.9704 212.972 70.5962 211.917L69.9873 212.71ZM70.3818 215.707L69.5885 215.098L55.9254 232.903L56.7187 233.512L57.5121 234.121L71.1752 216.316L70.3818 215.707ZM56.7187 233.512L55.9254 232.903C55.543 233.401 54.8288 233.495 54.3304 233.113L53.7217 233.906L53.1129 234.7C54.4876 235.754 56.4572 235.495 57.5121 234.12L56.7187 233.512ZM53.3281 31.7187L54.1215 31.11C53.739 30.6116 53.8331 29.8974 54.3314 29.515L53.7226 28.7217L53.1139 27.9283C51.7392 28.9832 51.4799 30.9528 52.5348 32.3275L53.3281 31.7187ZM53.7226 28.7217L54.3313 29.5151C54.8298 29.1327 55.5441 29.2268 55.9264 29.725L56.7197 29.1162L57.5131 28.5074C56.4582 27.1327 54.4885 26.8737 53.114 27.9283L53.7226 28.7217ZM56.7197 29.1162L55.9263 29.725L69.5885 47.5306L70.3818 46.9219L71.1752 46.3131L57.5131 28.5075L56.7197 29.1162ZM70.3818 46.9219L69.5884 47.5305C69.9708 48.0291 69.8767 48.7433 69.3785 49.1256L69.9873 49.9189L70.5961 50.7123C71.9708 49.6574 72.2297 47.6877 71.1753 46.3132L70.3818 46.9219ZM69.9873 49.9189L69.3786 49.1255C68.8808 49.5074 68.1664 49.4135 67.7836 48.9147L66.9902 49.5234L66.1969 50.1322C67.2512 51.5063 69.2208 51.7673 70.596 50.7124L69.9873 49.9189ZM66.9902 49.5234L67.7836 48.9147L54.1215 31.11L53.3281 31.7187L52.5348 32.3275L66.1969 50.1322L66.9902 49.5234ZM41.0049 222.754L41.712 222.047C41.2678 221.603 41.2678 220.882 41.712 220.438L41.0049 219.73L40.2978 219.023C39.0725 220.249 39.0725 222.236 40.2978 223.461L41.0049 222.754ZM41.0049 219.73L41.712 220.438L57.5811 204.568L56.874 203.861L56.1669 203.154L40.2978 219.023L41.0049 219.73ZM56.874 203.861L57.5811 204.568C58.0253 204.124 58.7462 204.124 59.1904 204.568L59.8975 203.861L60.6046 203.154C59.3793 201.929 57.3922 201.929 56.1669 203.154L56.874 203.861ZM59.8975 203.861L59.1903 204.568C59.6342 205.012 59.6342 205.733 59.1902 206.177L59.8975 206.884L60.6047 207.591C61.8293 206.366 61.8295 204.38 60.6047 203.154L59.8975 203.861ZM59.8975 206.884L59.1904 206.177L43.3202 222.047L44.0273 222.754L44.7344 223.461L60.6046 207.591L59.8975 206.884ZM44.0273 222.754L43.3203 222.047C42.8762 222.491 42.1561 222.491 41.7119 222.047L41.0049 222.754L40.2979 223.461C41.523 224.686 43.5092 224.686 44.7344 223.461L44.0273 222.754ZM41.0049 42.8975L41.712 42.1904C41.2678 41.7462 41.2678 41.0253 41.712 40.5811L41.0049 39.874L40.2978 39.1669C39.0725 40.3922 39.0725 42.3793 40.2978 43.6046L41.0049 42.8975ZM41.0049 39.874L41.712 40.5812C42.1562 40.137 42.8771 40.137 43.3212 40.5811L44.0283 39.874L44.7354 39.1669C43.5102 37.9417 41.523 37.9418 40.2978 39.1669L41.0049 39.874ZM44.0283 39.874L43.3212 40.5811L59.1903 56.4512L59.8975 55.7441L60.6046 55.037L44.7354 39.1669L44.0283 39.874ZM59.8975 55.7441L59.1903 56.4512C59.6345 56.8954 59.6345 57.6153 59.1903 58.0595L59.8975 58.7666L60.6046 59.4737C61.8297 58.2485 61.8298 56.2623 60.6046 55.037L59.8975 55.7441ZM59.8975 58.7666L59.1903 58.0595C58.7462 58.5037 58.0263 58.5037 57.5821 58.0595L56.875 58.7666L56.1679 59.4737C57.3931 60.6989 59.3793 60.699 60.6046 59.4737L59.8975 58.7666ZM56.875 58.7666L57.5821 58.0595L41.712 42.1903L41.0049 42.8975L40.2978 43.6046L56.1679 59.4737L56.875 58.7666ZM29.8506 210.035L30.6441 209.427C30.262 208.928 30.356 208.215 30.8541 207.832L30.2451 207.039L29.6361 206.246C28.2623 207.301 28.003 209.269 29.0571 210.644L29.8506 210.035ZM30.2451 207.039L30.8539 207.832L48.6596 194.169L48.0508 193.376L47.442 192.583L29.6363 206.246L30.2451 207.039ZM48.0508 193.376L48.6595 194.169C49.1578 193.787 49.8721 193.881 50.2545 194.379L51.0478 193.771L51.8412 193.162C50.7863 191.787 48.8167 191.528 47.4421 192.583L48.0508 193.376ZM51.0478 193.771L50.2545 194.379C50.6369 194.878 50.5429 195.592 50.0445 195.974L50.6533 196.768L51.2621 197.561C52.6366 196.506 52.896 194.536 51.8412 193.162L51.0478 193.771ZM50.6533 196.768L50.0446 195.974L32.2389 209.636L32.8477 210.43L33.4564 211.223L51.2621 197.561L50.6533 196.768ZM32.8477 210.43L32.2389 209.636C31.7405 210.019 31.0263 209.925 30.6439 209.426L29.8506 210.035L29.0572 210.644C30.1121 212.019 32.0818 212.278 33.4564 211.223L32.8477 210.43ZM30.2451 55.5889L30.8539 54.7955C30.3556 54.4131 30.2616 53.6998 30.644 53.2015L29.8506 52.5928L29.0572 51.9841C28.0026 53.3587 28.2617 55.3274 29.6363 56.3822L30.2451 55.5889ZM29.8506 52.5928L30.6439 53.2015C31.0263 52.7032 31.7405 52.6092 32.2389 52.9916L32.8476 52.1982L33.4564 51.4049C32.0817 50.3501 30.1121 50.6093 29.0572 51.984L29.8506 52.5928ZM32.8476 52.1982L32.2389 52.9916L50.0436 66.6537L50.6523 65.8603L51.2611 65.067L33.4564 51.4049L32.8476 52.1982ZM50.6523 65.8603L50.0436 66.6537C50.5419 67.0361 50.636 67.7503 50.2535 68.2487L51.0469 68.8574L51.8402 69.4662C52.895 68.0915 52.6358 66.1219 51.2611 65.067L50.6523 65.8603ZM51.0469 68.8574L50.2536 68.2485C49.8711 68.7469 49.1567 68.8409 48.6586 68.4586L48.0498 69.252L47.441 70.0453C48.8157 71.1001 50.7853 70.8405 51.8401 69.4663L51.0469 68.8574ZM48.0498 69.252L48.6586 68.4586L30.8539 54.7955L30.2451 55.5889L29.6363 56.3822L47.441 70.0453L48.0498 69.252ZM21.2373 69.5762L21.7373 68.7101C21.1934 68.3961 21.0069 67.7004 21.3211 67.1562L20.4551 66.6562L19.589 66.1562C18.7227 67.6567 19.2366 69.5757 20.7373 70.4422L21.2373 69.5762ZM20.4551 66.6562L21.321 67.1563C21.6352 66.6124 22.331 66.426 22.875 66.7401L23.375 65.874L23.875 65.008C22.3745 64.1417 20.4556 64.6558 19.5891 66.1562L20.4551 66.6562ZM23.375 65.874L22.875 66.74L42.3105 77.9617L42.8105 77.0957L43.3106 76.2297L23.875 65.008L23.375 65.874ZM42.8105 77.0957L42.3105 77.9617C42.8544 78.2758 43.0409 78.9715 42.7267 79.5156L43.5928 80.0156L44.4588 80.5156C45.3251 79.0151 44.8113 77.0961 43.3105 76.2297L42.8105 77.0957ZM43.5928 80.0156L42.7268 79.5154C42.4127 80.0593 41.7175 80.2456 41.1737 79.9317L40.6738 80.7978L40.174 81.664C41.6744 82.5299 43.5923 82.0157 44.4587 80.5158L43.5928 80.0156ZM40.6738 80.7978L41.1738 79.9318L21.7373 68.7101L21.2373 69.5762L20.7373 70.4422L40.1738 81.6639L40.6738 80.7978ZM20.4531 195.972L21.3191 195.472C21.0054 194.928 21.1917 194.232 21.7363 193.918L21.2363 193.052L20.7363 192.186C19.2363 193.052 18.7204 194.97 19.5871 196.472L20.4531 195.972ZM21.2363 193.052L21.7363 193.918L41.1719 182.696L40.6719 181.83L40.1719 180.964L20.7363 192.186L21.2363 193.052ZM40.6719 181.83L41.1719 182.696C41.7159 182.382 42.4117 182.568 42.7258 183.112L43.5918 182.612L44.4578 182.112C43.5913 180.612 41.6724 180.098 40.1719 180.964L40.6719 181.83ZM43.5918 182.612L42.7258 183.112C43.0399 183.656 42.8535 184.352 42.3096 184.666L42.8096 185.532L43.3096 186.398C44.8103 185.532 45.3241 183.613 44.4578 182.112L43.5918 182.612ZM42.8096 185.532L42.3096 184.666L22.873 195.888L23.373 196.754L23.873 197.62L43.3096 186.398L42.8096 185.532ZM23.373 196.754L22.8732 195.888C22.3289 196.202 21.633 196.015 21.3191 195.472L20.4531 195.972L19.5871 196.472C20.4536 197.972 22.3727 198.486 23.8729 197.62L23.373 196.754ZM14.1289 84.6201L14.5117 83.6963C13.9318 83.4559 13.656 82.7904 13.8965 82.2098L12.9726 81.8271L12.0488 81.4445C11.3858 83.0449 12.1453 84.8806 13.7461 85.5439L14.1289 84.6201ZM12.9726 81.8271L13.8964 82.2101C14.1368 81.63 14.8025 81.3543 15.3829 81.5948L15.7656 80.6709L16.1483 79.747C14.5479 79.0841 12.7123 79.8437 12.0489 81.4442L12.9726 81.8271ZM15.7656 80.6709L15.3829 81.5948L36.1173 90.1836L36.5 89.2598L36.8827 88.3359L16.1483 79.747L15.7656 80.6709ZM36.5 89.2598L36.1172 90.1836C36.6973 90.424 36.9727 91.0887 36.7323 91.6692L37.6562 92.0518L38.5802 92.4344C39.2429 90.8338 38.4834 88.9992 36.8828 88.3359L36.5 89.2598ZM37.6562 92.0518L36.7324 91.6691C36.4919 92.2497 35.8268 92.5252 35.2468 92.285L34.8643 93.209L34.4817 94.1329C36.0828 94.7958 37.9172 94.0348 38.5801 92.4344L37.6562 92.0518ZM34.8643 93.209L35.2469 92.2851L14.5116 83.6962L14.1289 84.6201L13.7462 85.544L34.4816 94.1329L34.8643 93.209ZM12.9717 180.801L13.8956 180.418C13.655 179.837 13.9307 179.172 14.5107 178.932L14.1279 178.008L13.7452 177.084C12.1441 177.747 11.3849 179.583 12.0478 181.183L12.9717 180.801ZM14.1279 178.008L14.5106 178.932L35.2459 170.344L34.8633 169.42L34.4806 168.496L13.7453 177.084L14.1279 178.008ZM34.8633 169.42L35.2459 170.344C35.8263 170.103 36.4911 170.379 36.7314 170.959L37.6553 170.576L38.5791 170.193C37.9158 168.593 36.0812 167.833 34.4807 168.496L34.8633 169.42ZM37.6553 170.576L36.7314 170.959C36.9719 171.54 36.6962 172.205 36.1163 172.445L36.499 173.369L36.8818 174.293C38.4829 173.63 39.2421 171.794 38.5791 170.193L37.6553 170.576ZM36.499 173.369L36.1163 172.445L15.381 181.034L15.7637 181.958L16.1464 182.882L36.8817 174.293L36.499 173.369ZM15.7637 181.958L15.3812 181.034C14.8012 181.274 14.136 180.999 13.8956 180.418L12.9717 180.801L12.0478 181.183C12.7107 182.784 14.5452 183.545 16.1461 182.882L15.7637 181.958ZM9.04687 100.463L9.30569 99.497C8.69882 99.3344 8.33851 98.7102 8.50107 98.1035L7.53515 97.8447L6.56922 97.5859C6.12073 99.2597 7.11442 100.98 8.78805 101.429L9.04687 100.463ZM7.53515 97.8447L8.50104 98.1037C8.66356 97.4974 9.2873 97.1372 9.89449 97.2999L10.1533 96.334L10.4121 95.3681C8.739 94.9197 7.01801 95.9118 6.56926 97.5858L7.53515 97.8447ZM10.1533 96.334L9.89449 97.2999L31.5722 103.109L31.831 102.143L32.0899 101.177L10.4121 95.3681L10.1533 96.334ZM31.831 102.143L31.5722 103.109C32.1792 103.271 32.5392 103.895 32.3768 104.501L33.3428 104.76L34.3087 105.018C34.7569 103.345 33.7631 101.625 32.0899 101.177L31.831 102.143ZM33.3428 104.76L32.3768 104.501C32.2142 105.108 31.5907 105.468 30.9842 105.306L30.7256 106.271L30.467 107.237C32.1407 107.686 33.8603 106.692 34.3087 105.019L33.3428 104.76ZM30.7256 106.271L30.9844 105.306L9.30568 99.497L9.04687 100.463L8.78806 101.429L30.4668 107.237L30.7256 106.271ZM7.53515 164.783L8.50111 164.524C8.33862 163.918 8.69842 163.295 9.30494 163.132L9.04589 162.166L8.78685 161.2C7.11362 161.649 6.12105 163.369 6.5692 165.042L7.53515 164.783ZM9.04589 162.166L9.3047 163.132L30.9834 157.323L30.7246 156.357L30.4658 155.391L8.78708 161.2L9.04589 162.166ZM30.7246 156.357L30.9834 157.323C31.5907 157.161 32.2144 157.521 32.3769 158.127L33.3428 157.868L34.3087 157.609C33.86 155.935 32.1389 154.943 30.4658 155.391L30.7246 156.357ZM33.3428 157.868L32.3768 158.127C32.5394 158.734 32.1791 159.358 31.5722 159.52L31.8311 160.486L32.0899 161.452C33.7635 161.004 34.7572 159.283 34.3087 157.609L33.3428 157.868ZM31.8311 160.486L31.5722 159.52L9.89353 165.329L10.1523 166.295L10.4112 167.261L32.0899 161.452L31.8311 160.486ZM10.1523 166.295L9.8937 165.329C9.28724 165.491 8.66371 165.131 8.50108 164.524L7.53515 164.783L6.56923 165.042C7.01758 166.715 8.73719 167.709 10.411 167.261L10.1523 166.295ZM4.23632 114.436L5.22777 114.566C5.30971 113.944 5.88105 113.505 6.50423 113.587L6.63476 112.596L6.76529 111.604C5.04772 111.378 3.4711 112.587 3.24488 114.305L4.23632 114.436ZM6.63476 112.596L6.50426 113.587L28.7552 116.516L28.8857 115.524L29.0162 114.533L6.76526 111.604L6.63476 112.596ZM28.8857 115.524L28.7551 116.516C29.3776 116.598 29.8161 117.169 29.7341 117.792L30.7256 117.923L31.717 118.053C31.9431 116.336 30.7342 114.759 29.0164 114.533L28.8857 115.524ZM30.7256 117.923L29.7341 117.792C29.6522 118.415 29.0808 118.853 28.4577 118.771L28.3271 119.763L28.1966 120.754C29.9142 120.98 31.4908 119.772 31.717 118.053L30.7256 117.923ZM28.3271 119.763L28.4576 118.771L6.20666 115.843L6.07617 116.834L5.94567 117.825L28.1966 120.754L28.3271 119.763ZM6.07617 116.834L6.20674 115.843C5.58431 115.761 5.14575 115.189 5.22777 114.566L4.23632 114.436L3.24487 114.305C3.01881 116.023 4.22743 117.599 5.94559 117.825L6.07617 116.834ZM4.23535 148.192L5.22679 148.062C5.14478 147.439 5.58333 146.867 6.2058 146.785L6.07519 145.794L5.94458 144.803C4.22654 145.029 3.01781 146.605 3.2439 148.323L4.23535 148.192ZM6.07519 145.794L6.20569 146.785L28.4567 143.857L28.3262 142.865L28.1957 141.874L5.94469 144.802L6.07519 145.794ZM28.3262 142.865L28.4567 143.857C29.0799 143.775 29.6512 144.213 29.7332 144.836L30.7246 144.705L31.716 144.575C31.4898 142.856 29.9132 141.648 28.1956 141.874L28.3262 142.865ZM30.7246 144.705L29.7332 144.836C29.8152 145.459 29.3766 146.03 28.7541 146.112L28.8848 147.104L29.0154 148.095C30.7334 147.869 31.9421 146.292 31.7161 144.575L30.7246 144.705ZM28.8848 147.104L28.7543 146.112L6.50329 149.041L6.63378 150.032L6.76428 151.024L29.0153 148.095L28.8848 147.104ZM6.63378 150.032L6.50326 149.041C5.88008 149.123 5.30874 148.684 5.22679 148.062L4.23535 148.192L3.2439 148.323C3.47012 150.041 5.04675 151.25 6.76431 151.024L6.63378 150.032ZM3.1289 131.313L4.1289 131.314C4.12898 130.686 4.63771 130.177 5.26583 130.177L5.26562 129.177L5.26541 128.177C3.5332 128.177 2.12913 129.581 2.1289 131.313L3.1289 131.313ZM5.26562 129.177L5.26562 130.177L27.709 130.177L27.709 129.177L27.709 128.177L5.26562 128.177L5.26562 129.177ZM27.709 129.177L27.709 130.177C28.3375 130.177 28.8466 130.686 28.8467 131.314L29.8467 131.313L30.8467 131.313C30.8464 129.58 29.4412 128.177 27.709 128.177L27.709 129.177ZM29.8467 131.313L28.8467 131.313C28.8467 131.942 28.3372 132.451 27.709 132.451L27.709 133.451L27.709 134.451C29.4417 134.451 30.8467 133.046 30.8467 131.313L29.8467 131.313ZM27.709 133.451L27.709 132.451L5.26562 132.451L5.26562 133.451L5.26562 134.451L27.709 134.451L27.709 133.451ZM5.26562 133.451L5.26583 132.451C4.63808 132.451 4.1289 131.942 4.1289 131.313L3.1289 131.313L2.1289 131.313C2.1289 133.046 3.53264 134.451 5.26541 134.451L5.26562 133.451Z" fill="#607C82" style="mix-blend-mode:overlay" mask="url(#path-1-inside-1_872_9619)"/>
</g>
<defs>
<filter id="filter0_d_872_9619" x="0.128906" y="-0.00195312" width="172.367" height="266.631" filterUnits="userSpaceOnUse" color-interpolation-filters="sRGB">
<feFlood flood-opacity="0" result="BackgroundImageFix"/>
<feColorMatrix in="SourceAlpha" type="matrix" values="0 0 0 0 0 0 0 0 0 0 0 0 0 0 0 0 0 0 127 0" result="hardAlpha"/>
<feOffset dx="1" dy="2"/>
<feGaussianBlur stdDeviation="2"/>
<feColorMatrix type="matrix" values="0 0 0 0 0 0 0 0 0 0 0 0 0 0 0 0 0 0 0.25 0"/>
<feBlend mode="normal" in2="BackgroundImageFix" result="effect1_dropShadow_872_9619"/>
<feBlend mode="normal" in="SourceGraphic" in2="effect1_dropShadow_872_9619" result="shape"/>
</filter>
<radialGradient id="paint0_radial_872_9619" cx="0" cy="0" r="1" gradientTransform="matrix(167.085 -166.72 105.956 262.905 -3.32356 203.987)" gradientUnits="userSpaceOnUse">
<stop stop-color="#FFD6C7"/>
<stop offset="0.237763" stop-color="#FDD4C6"/>
<stop offset="1" stop-color="#E3DDD9" stop-opacity="0.48"/>
</radialGradient>
</defs>
</svg>
