<svg width="640" height="432" viewBox="0 0 640 432" fill="none" xmlns="http://www.w3.org/2000/svg">
<g filter="url(#filter0_i_1077_11047)">
<g clip-path="url(#clip0_1077_11047)">
<rect width="502" height="347" rx="20" fill="#080808"/>
<g opacity="0.1" clip-path="url(#clip1_1077_11047)">
<rect width="604" height="347" transform="translate(-102)" fill="url(#paint0_radial_1077_11047)"/>
<g filter="url(#filter1_di_1077_11047)">
<path d="M0 19.3678C0 8.67125 8.67126 0 19.3678 0H487.632C498.329 0 507 8.67126 507 19.3678V64H0V19.3678Z" fill="#CDCDCD" fill-opacity="0.2" shape-rendering="crispEdges"/>
</g>
</g>
<rect x="41" y="95" width="422" height="63" fill="#0E0E0F"/>
<path d="M39 99C39 96.7909 40.7909 95 43 95H45V158H43C40.7909 158 39 156.209 39 154V99Z" fill="url(#paint1_linear_1077_11047)"/>
<path d="M68.598 134V119.455H77.6179V121.344H70.7926V125.776H76.9716V127.658H70.7926V134H68.598ZM86.1732 129.476V123.091H88.3039V134H86.2158V132.111H86.1022C85.8513 132.693 85.4488 133.179 84.8948 133.567C84.3456 133.95 83.6614 134.142 82.8423 134.142C82.1415 134.142 81.5212 133.988 80.9815 133.68C80.4464 133.368 80.025 132.906 79.7173 132.295C79.4142 131.685 79.2627 130.929 79.2627 130.03V123.091H81.3863V129.774C81.3863 130.518 81.5923 131.109 82.0042 131.55C82.4161 131.99 82.9512 132.21 83.6093 132.21C84.007 132.21 84.4024 132.111 84.7954 131.912C85.1931 131.713 85.5222 131.412 85.7826 131.01C86.0478 130.607 86.178 130.096 86.1732 129.476ZM93.0808 119.455V134H90.9572V119.455H93.0808ZM97.8613 119.455V134H95.7377V119.455H97.8613ZM105.782 134V119.455H111.108C112.141 119.455 112.995 119.625 113.672 119.966C114.349 120.302 114.856 120.759 115.192 121.337C115.528 121.91 115.696 122.556 115.696 123.276C115.696 123.882 115.585 124.393 115.363 124.81C115.14 125.222 114.842 125.553 114.468 125.804C114.098 126.05 113.691 126.23 113.246 126.344V126.486C113.729 126.509 114.2 126.666 114.659 126.955C115.123 127.239 115.507 127.643 115.81 128.169C116.113 128.695 116.265 129.334 116.265 130.087C116.265 130.83 116.089 131.498 115.739 132.089C115.393 132.677 114.858 133.143 114.134 133.489C113.409 133.83 112.484 134 111.357 134H105.782ZM107.976 132.118H111.144C112.195 132.118 112.948 131.914 113.402 131.507C113.857 131.1 114.084 130.591 114.084 129.98C114.084 129.521 113.968 129.099 113.736 128.716C113.504 128.332 113.173 128.027 112.742 127.8C112.316 127.572 111.809 127.459 111.222 127.459H107.976V132.118ZM107.976 125.747H110.917C111.409 125.747 111.852 125.652 112.245 125.463C112.642 125.274 112.957 125.009 113.189 124.668C113.426 124.322 113.544 123.915 113.544 123.446C113.544 122.845 113.334 122.34 112.912 121.933C112.491 121.526 111.845 121.322 110.973 121.322H107.976V125.747ZM118.497 134V123.091H120.55V124.824H120.663C120.862 124.237 121.213 123.775 121.714 123.439C122.221 123.098 122.794 122.928 123.433 122.928C123.566 122.928 123.722 122.932 123.902 122.942C124.087 122.951 124.231 122.963 124.335 122.977V125.009C124.25 124.985 124.098 124.959 123.881 124.93C123.663 124.897 123.445 124.881 123.227 124.881C122.725 124.881 122.278 124.987 121.885 125.2C121.497 125.409 121.189 125.7 120.962 126.074C120.734 126.443 120.621 126.865 120.621 127.338V134H118.497ZM129.05 134.241C128.359 134.241 127.734 134.114 127.175 133.858C126.616 133.598 126.174 133.221 125.847 132.729C125.525 132.236 125.364 131.633 125.364 130.918C125.364 130.302 125.482 129.795 125.719 129.398C125.956 129 126.275 128.685 126.678 128.453C127.08 128.221 127.53 128.046 128.027 127.928C128.524 127.809 129.031 127.719 129.547 127.658C130.2 127.582 130.731 127.52 131.138 127.473C131.545 127.421 131.841 127.338 132.026 127.224C132.21 127.111 132.303 126.926 132.303 126.67V126.621C132.303 126 132.128 125.52 131.777 125.179C131.432 124.838 130.915 124.668 130.229 124.668C129.514 124.668 128.95 124.826 128.539 125.143C128.131 125.456 127.85 125.804 127.693 126.188L125.698 125.733C125.934 125.07 126.28 124.535 126.735 124.128C127.194 123.716 127.722 123.418 128.318 123.233C128.915 123.044 129.542 122.949 130.2 122.949C130.636 122.949 131.098 123.001 131.585 123.105C132.078 123.205 132.537 123.389 132.963 123.659C133.394 123.929 133.747 124.315 134.022 124.817C134.296 125.314 134.433 125.96 134.433 126.756V134H132.36V132.509H132.274C132.137 132.783 131.931 133.053 131.656 133.318C131.382 133.583 131.029 133.804 130.598 133.979C130.167 134.154 129.651 134.241 129.05 134.241ZM129.512 132.537C130.099 132.537 130.601 132.421 131.017 132.189C131.439 131.957 131.758 131.654 131.976 131.28C132.199 130.901 132.31 130.496 132.31 130.065V128.659C132.234 128.735 132.087 128.806 131.87 128.872C131.656 128.934 131.413 128.988 131.138 129.036C130.863 129.078 130.596 129.118 130.335 129.156C130.075 129.189 129.857 129.218 129.682 129.241C129.27 129.294 128.894 129.381 128.553 129.504C128.217 129.627 127.947 129.805 127.743 130.037C127.544 130.264 127.445 130.567 127.445 130.946C127.445 131.472 127.639 131.869 128.027 132.139C128.415 132.404 128.91 132.537 129.512 132.537ZM139.186 127.523V134H137.062V123.091H139.1V124.866H139.235C139.486 124.289 139.879 123.825 140.414 123.474C140.954 123.124 141.633 122.949 142.453 122.949C143.196 122.949 143.847 123.105 144.406 123.418C144.964 123.725 145.398 124.185 145.705 124.795C146.013 125.406 146.167 126.161 146.167 127.061V134H144.043V127.317C144.043 126.526 143.838 125.908 143.426 125.463C143.014 125.013 142.448 124.788 141.728 124.788C141.236 124.788 140.798 124.895 140.414 125.108C140.035 125.321 139.735 125.634 139.512 126.045C139.294 126.453 139.186 126.945 139.186 127.523ZM152.899 134.213C152.018 134.213 151.232 133.988 150.541 133.538C149.854 133.084 149.315 132.437 148.922 131.599C148.533 130.757 148.339 129.746 148.339 128.567C148.339 127.388 148.536 126.379 148.929 125.541C149.326 124.703 149.871 124.062 150.562 123.616C151.254 123.171 152.037 122.949 152.913 122.949C153.59 122.949 154.135 123.062 154.547 123.29C154.963 123.512 155.285 123.773 155.512 124.071C155.745 124.369 155.924 124.632 156.052 124.859H156.18V119.455H158.304V134H156.23V132.303H156.052C155.924 132.535 155.74 132.8 155.498 133.098C155.262 133.396 154.935 133.657 154.518 133.879C154.102 134.102 153.562 134.213 152.899 134.213ZM153.368 132.402C153.978 132.402 154.495 132.241 154.916 131.919C155.342 131.592 155.664 131.14 155.882 130.562C156.104 129.985 156.216 129.312 156.216 128.545C156.216 127.788 156.107 127.125 155.889 126.557C155.671 125.989 155.352 125.546 154.93 125.229C154.509 124.911 153.988 124.753 153.368 124.753C152.728 124.753 152.196 124.919 151.77 125.25C151.343 125.581 151.021 126.034 150.804 126.607C150.591 127.179 150.484 127.826 150.484 128.545C150.484 129.275 150.593 129.93 150.811 130.513C151.029 131.095 151.351 131.557 151.777 131.898C152.208 132.234 152.738 132.402 153.368 132.402ZM161.135 134V123.091H163.258V134H161.135ZM162.207 121.408C161.838 121.408 161.52 121.285 161.255 121.038C160.995 120.787 160.865 120.489 160.865 120.143C160.865 119.793 160.995 119.495 161.255 119.249C161.52 118.998 161.838 118.872 162.207 118.872C162.576 118.872 162.891 118.998 163.152 119.249C163.417 119.495 163.549 119.793 163.549 120.143C163.549 120.489 163.417 120.787 163.152 121.038C162.891 121.285 162.576 121.408 162.207 121.408ZM168.039 127.523V134H165.915V123.091H167.953V124.866H168.088C168.339 124.289 168.732 123.825 169.267 123.474C169.807 123.124 170.487 122.949 171.306 122.949C172.049 122.949 172.7 123.105 173.259 123.418C173.818 123.725 174.251 124.185 174.559 124.795C174.866 125.406 175.02 126.161 175.02 127.061V134H172.897V127.317C172.897 126.526 172.691 125.908 172.279 125.463C171.867 125.013 171.301 124.788 170.581 124.788C170.089 124.788 169.651 124.895 169.267 125.108C168.889 125.321 168.588 125.634 168.365 126.045C168.148 126.453 168.039 126.945 168.039 127.523ZM182.242 138.318C181.376 138.318 180.63 138.205 180.005 137.977C179.385 137.75 178.878 137.449 178.485 137.075C178.092 136.701 177.798 136.292 177.604 135.847L179.43 135.094C179.557 135.302 179.728 135.522 179.941 135.754C180.159 135.991 180.452 136.192 180.822 136.358C181.196 136.524 181.676 136.607 182.263 136.607C183.068 136.607 183.734 136.41 184.259 136.017C184.785 135.629 185.047 135.009 185.047 134.156V132.011H184.912C184.785 132.243 184.6 132.501 184.359 132.786C184.122 133.07 183.795 133.316 183.378 133.524C182.962 133.732 182.42 133.837 181.752 133.837C180.89 133.837 180.114 133.635 179.422 133.233C178.736 132.826 178.191 132.227 177.789 131.436C177.391 130.641 177.192 129.663 177.192 128.503C177.192 127.343 177.389 126.348 177.782 125.52C178.18 124.691 178.724 124.057 179.415 123.616C180.107 123.171 180.89 122.949 181.766 122.949C182.443 122.949 182.99 123.062 183.407 123.29C183.823 123.512 184.148 123.773 184.38 124.071C184.617 124.369 184.799 124.632 184.927 124.859H185.083V123.091H187.164V134.241C187.164 135.179 186.946 135.948 186.511 136.55C186.075 137.151 185.485 137.596 184.742 137.885C184.003 138.174 183.17 138.318 182.242 138.318ZM182.221 132.075C182.832 132.075 183.348 131.933 183.769 131.649C184.195 131.36 184.517 130.948 184.735 130.413C184.957 129.874 185.069 129.227 185.069 128.474C185.069 127.741 184.96 127.094 184.742 126.536C184.524 125.977 184.205 125.541 183.783 125.229C183.362 124.911 182.841 124.753 182.221 124.753C181.582 124.753 181.049 124.919 180.623 125.25C180.197 125.577 179.875 126.022 179.657 126.585C179.444 127.149 179.337 127.778 179.337 128.474C179.337 129.189 179.446 129.817 179.664 130.357C179.882 130.896 180.204 131.318 180.63 131.621C181.061 131.924 181.591 132.075 182.221 132.075ZM195.075 134V119.455H197.27V126.401H197.448L203.548 119.455H206.311L200.445 126.003L206.332 134H203.69L198.989 127.501L197.27 129.476V134H195.075ZM208.67 134V123.091H210.793V134H208.67ZM209.742 121.408C209.373 121.408 209.056 121.285 208.79 121.038C208.53 120.787 208.4 120.489 208.4 120.143C208.4 119.793 208.53 119.495 208.79 119.249C209.056 118.998 209.373 118.872 209.742 118.872C210.112 118.872 210.426 118.998 210.687 119.249C210.952 119.495 211.085 119.793 211.085 120.143C211.085 120.489 210.952 120.787 210.687 121.038C210.426 121.285 210.112 121.408 209.742 121.408ZM218.543 123.091V124.795H212.584V123.091H218.543ZM214.182 120.477H216.305V130.797C216.305 131.209 216.367 131.519 216.49 131.727C216.613 131.931 216.772 132.071 216.966 132.146C217.165 132.217 217.38 132.253 217.612 132.253C217.783 132.253 217.932 132.241 218.06 132.217C218.187 132.194 218.287 132.175 218.358 132.161L218.741 133.915C218.618 133.962 218.443 134.009 218.216 134.057C217.989 134.109 217.704 134.137 217.364 134.142C216.805 134.152 216.284 134.052 215.801 133.844C215.318 133.635 214.927 133.313 214.629 132.878C214.331 132.442 214.182 131.895 214.182 131.237V120.477Z" fill="white"/>
<rect x="41" y="172" width="401" height="63" fill="#0E0E0F"/>
<path d="M39 176C39 173.791 40.7909 172 43 172H45V235H43C40.7909 235 39 233.209 39 231V176Z" fill="#12DCDC"/>
<path d="M68.598 211V196.455H70.7926V209.111H77.3835V211H68.598ZM82.6913 211.241C82 211.241 81.375 211.114 80.8163 210.858C80.2576 210.598 79.8149 210.221 79.4882 209.729C79.1662 209.236 79.0053 208.633 79.0053 207.918C79.0053 207.302 79.1236 206.795 79.3604 206.398C79.5971 206 79.9167 205.685 80.3192 205.453C80.7216 205.221 81.1714 205.046 81.6686 204.928C82.1658 204.809 82.6724 204.719 83.1885 204.658C83.8419 204.582 84.3722 204.52 84.7794 204.473C85.1866 204.421 85.4825 204.338 85.6672 204.224C85.8518 204.111 85.9442 203.926 85.9442 203.67V203.621C85.9442 203 85.769 202.52 85.4186 202.179C85.073 201.838 84.5569 201.668 83.8703 201.668C83.1554 201.668 82.5919 201.826 82.18 202.143C81.7728 202.456 81.4911 202.804 81.3348 203.188L79.3391 202.733C79.5758 202.07 79.9214 201.535 80.376 201.128C80.8353 200.716 81.3632 200.418 81.9598 200.233C82.5564 200.044 83.1838 199.949 83.8419 199.949C84.2775 199.949 84.7392 200.001 85.2268 200.105C85.7193 200.205 86.1786 200.389 86.6047 200.659C87.0356 200.929 87.3883 201.315 87.6629 201.817C87.9375 202.314 88.0749 202.96 88.0749 203.756V211H86.001V209.509H85.9158C85.7785 209.783 85.5725 210.053 85.2979 210.318C85.0232 210.583 84.6705 210.804 84.2396 210.979C83.8088 211.154 83.2927 211.241 82.6913 211.241ZM83.153 209.537C83.7401 209.537 84.242 209.421 84.6587 209.189C85.0801 208.957 85.3997 208.654 85.6175 208.28C85.84 207.901 85.9513 207.496 85.9513 207.065V205.659C85.8755 205.735 85.7287 205.806 85.5109 205.872C85.2979 205.934 85.054 205.988 84.7794 206.036C84.5048 206.078 84.2373 206.118 83.9768 206.156C83.7164 206.189 83.4986 206.218 83.3234 206.241C82.9115 206.294 82.5351 206.381 82.1942 206.504C81.858 206.627 81.5881 206.805 81.3845 207.037C81.1857 207.264 81.0862 207.567 81.0862 207.946C81.0862 208.472 81.2804 208.869 81.6686 209.139C82.0569 209.404 82.5517 209.537 83.153 209.537ZM92.8269 204.523V211H90.7033V200.091H92.7417V201.866H92.8766C93.1276 201.289 93.5206 200.825 94.0556 200.474C94.5954 200.124 95.2748 199.949 96.094 199.949C96.8373 199.949 97.4884 200.105 98.0471 200.418C98.6058 200.725 99.039 201.185 99.3468 201.795C99.6546 202.406 99.8085 203.161 99.8085 204.061V211H97.6849V204.317C97.6849 203.526 97.4789 202.908 97.067 202.463C96.655 202.013 96.0892 201.788 95.3695 201.788C94.8771 201.788 94.4391 201.895 94.0556 202.108C93.6768 202.321 93.3762 202.634 93.1536 203.045C92.9358 203.453 92.8269 203.945 92.8269 204.523ZM106.54 211.213C105.66 211.213 104.874 210.988 104.182 210.538C103.496 210.084 102.956 209.437 102.563 208.599C102.175 207.757 101.981 206.746 101.981 205.567C101.981 204.388 102.177 203.379 102.57 202.541C102.968 201.703 103.512 201.062 104.204 200.616C104.895 200.171 105.679 199.949 106.554 199.949C107.232 199.949 107.776 200.062 108.188 200.29C108.605 200.512 108.927 200.773 109.154 201.071C109.386 201.369 109.566 201.632 109.694 201.859H109.822V196.455H111.945V211H109.871V209.303H109.694C109.566 209.535 109.381 209.8 109.14 210.098C108.903 210.396 108.576 210.657 108.16 210.879C107.743 211.102 107.203 211.213 106.54 211.213ZM107.009 209.402C107.62 209.402 108.136 209.241 108.557 208.919C108.983 208.592 109.305 208.14 109.523 207.562C109.746 206.985 109.857 206.312 109.857 205.545C109.857 204.788 109.748 204.125 109.53 203.557C109.313 202.989 108.993 202.546 108.572 202.229C108.15 201.911 107.629 201.753 107.009 201.753C106.37 201.753 105.837 201.919 105.411 202.25C104.985 202.581 104.663 203.034 104.445 203.607C104.232 204.179 104.125 204.826 104.125 205.545C104.125 206.275 104.234 206.93 104.452 207.513C104.67 208.095 104.992 208.557 105.418 208.898C105.849 209.234 106.379 209.402 107.009 209.402ZM114.776 211V200.091H116.9V211H114.776ZM115.848 198.408C115.479 198.408 115.162 198.285 114.897 198.038C114.636 197.787 114.506 197.489 114.506 197.143C114.506 196.793 114.636 196.495 114.897 196.249C115.162 195.998 115.479 195.872 115.848 195.872C116.218 195.872 116.533 195.998 116.793 196.249C117.058 196.495 117.191 196.793 117.191 197.143C117.191 197.489 117.058 197.787 116.793 198.038C116.533 198.285 116.218 198.408 115.848 198.408ZM121.68 204.523V211H119.556V200.091H121.595V201.866H121.73C121.981 201.289 122.374 200.825 122.909 200.474C123.449 200.124 124.128 199.949 124.947 199.949C125.69 199.949 126.342 200.105 126.9 200.418C127.459 200.725 127.892 201.185 128.2 201.795C128.508 202.406 128.662 203.161 128.662 204.061V211H126.538V204.317C126.538 203.526 126.332 202.908 125.92 202.463C125.508 202.013 124.942 201.788 124.223 201.788C123.73 201.788 123.292 201.895 122.909 202.108C122.53 202.321 122.229 202.634 122.007 203.045C121.789 203.453 121.68 203.945 121.68 204.523ZM135.883 215.318C135.017 215.318 134.271 215.205 133.646 214.977C133.026 214.75 132.519 214.449 132.126 214.075C131.733 213.701 131.44 213.292 131.246 212.847L133.071 212.094C133.199 212.302 133.369 212.522 133.582 212.754C133.8 212.991 134.094 213.192 134.463 213.358C134.837 213.524 135.318 213.607 135.905 213.607C136.71 213.607 137.375 213.41 137.9 213.017C138.426 212.629 138.689 212.009 138.689 211.156V209.011H138.554C138.426 209.243 138.241 209.501 138 209.786C137.763 210.07 137.436 210.316 137.02 210.524C136.603 210.732 136.061 210.837 135.393 210.837C134.532 210.837 133.755 210.635 133.064 210.233C132.377 209.826 131.833 209.227 131.43 208.436C131.033 207.641 130.834 206.663 130.834 205.503C130.834 204.343 131.03 203.348 131.423 202.52C131.821 201.691 132.365 201.057 133.057 200.616C133.748 200.171 134.532 199.949 135.408 199.949C136.085 199.949 136.632 200.062 137.048 200.29C137.465 200.512 137.789 200.773 138.021 201.071C138.258 201.369 138.44 201.632 138.568 201.859H138.724V200.091H140.805V211.241C140.805 212.179 140.588 212.948 140.152 213.55C139.716 214.151 139.127 214.596 138.383 214.885C137.645 215.174 136.811 215.318 135.883 215.318ZM135.862 209.075C136.473 209.075 136.989 208.933 137.41 208.649C137.837 208.36 138.159 207.948 138.376 207.413C138.599 206.874 138.71 206.227 138.71 205.474C138.71 204.741 138.601 204.094 138.383 203.536C138.166 202.977 137.846 202.541 137.425 202.229C137.003 201.911 136.482 201.753 135.862 201.753C135.223 201.753 134.69 201.919 134.264 202.25C133.838 202.577 133.516 203.022 133.298 203.585C133.085 204.149 132.979 204.778 132.979 205.474C132.979 206.189 133.088 206.817 133.305 207.357C133.523 207.896 133.845 208.318 134.271 208.621C134.702 208.924 135.232 209.075 135.862 209.075ZM148.717 211V196.455H153.901C155.033 196.455 155.971 196.661 156.714 197.072C157.457 197.484 158.014 198.048 158.383 198.763C158.752 199.473 158.937 200.273 158.937 201.163C158.937 202.058 158.75 202.863 158.376 203.578C158.007 204.288 157.448 204.852 156.7 205.268C155.956 205.68 155.021 205.886 153.894 205.886H150.329V204.026H153.695C154.41 204.026 154.99 203.902 155.436 203.656C155.881 203.405 156.207 203.064 156.416 202.634C156.624 202.203 156.728 201.713 156.728 201.163C156.728 200.614 156.624 200.126 156.416 199.7C156.207 199.274 155.878 198.94 155.428 198.699C154.983 198.457 154.396 198.337 153.667 198.337H150.911V211H148.717ZM164.216 211.241C163.525 211.241 162.9 211.114 162.341 210.858C161.783 210.598 161.34 210.221 161.013 209.729C160.691 209.236 160.53 208.633 160.53 207.918C160.53 207.302 160.649 206.795 160.885 206.398C161.122 206 161.442 205.685 161.844 205.453C162.247 205.221 162.696 205.046 163.194 204.928C163.691 204.809 164.197 204.719 164.713 204.658C165.367 204.582 165.897 204.52 166.304 204.473C166.712 204.421 167.008 204.338 167.192 204.224C167.377 204.111 167.469 203.926 167.469 203.67V203.621C167.469 203 167.294 202.52 166.944 202.179C166.598 201.838 166.082 201.668 165.395 201.668C164.68 201.668 164.117 201.826 163.705 202.143C163.298 202.456 163.016 202.804 162.86 203.188L160.864 202.733C161.101 202.07 161.446 201.535 161.901 201.128C162.36 200.716 162.888 200.418 163.485 200.233C164.081 200.044 164.709 199.949 165.367 199.949C165.803 199.949 166.264 200.001 166.752 200.105C167.244 200.205 167.704 200.389 168.13 200.659C168.561 200.929 168.913 201.315 169.188 201.817C169.463 202.314 169.6 202.96 169.6 203.756V211H167.526V209.509H167.441C167.303 209.783 167.097 210.053 166.823 210.318C166.548 210.583 166.195 210.804 165.765 210.979C165.334 211.154 164.818 211.241 164.216 211.241ZM164.678 209.537C165.265 209.537 165.767 209.421 166.184 209.189C166.605 208.957 166.925 208.654 167.142 208.28C167.365 207.901 167.476 207.496 167.476 207.065V205.659C167.401 205.735 167.254 205.806 167.036 205.872C166.823 205.934 166.579 205.988 166.304 206.036C166.03 206.078 165.762 206.118 165.502 206.156C165.241 206.189 165.024 206.218 164.848 206.241C164.437 206.294 164.06 206.381 163.719 206.504C163.383 206.627 163.113 206.805 162.91 207.037C162.711 207.264 162.611 207.567 162.611 207.946C162.611 208.472 162.805 208.869 163.194 209.139C163.582 209.404 164.077 209.537 164.678 209.537ZM176.802 215.318C175.936 215.318 175.19 215.205 174.565 214.977C173.945 214.75 173.438 214.449 173.045 214.075C172.652 213.701 172.359 213.292 172.164 212.847L173.99 212.094C174.118 212.302 174.288 212.522 174.501 212.754C174.719 212.991 175.012 213.192 175.382 213.358C175.756 213.524 176.236 213.607 176.824 213.607C177.628 213.607 178.294 213.41 178.819 213.017C179.345 212.629 179.608 212.009 179.608 211.156V209.011H179.473C179.345 209.243 179.16 209.501 178.919 209.786C178.682 210.07 178.355 210.316 177.939 210.524C177.522 210.732 176.98 210.837 176.312 210.837C175.45 210.837 174.674 210.635 173.983 210.233C173.296 209.826 172.752 209.227 172.349 208.436C171.951 207.641 171.752 206.663 171.752 205.503C171.752 204.343 171.949 203.348 172.342 202.52C172.74 201.691 173.284 201.057 173.975 200.616C174.667 200.171 175.45 199.949 176.326 199.949C177.003 199.949 177.55 200.062 177.967 200.29C178.384 200.512 178.708 200.773 178.94 201.071C179.177 201.369 179.359 201.632 179.487 201.859H179.643V200.091H181.724V211.241C181.724 212.179 181.506 212.948 181.071 213.55C180.635 214.151 180.046 214.596 179.302 214.885C178.564 215.174 177.73 215.318 176.802 215.318ZM176.781 209.075C177.392 209.075 177.908 208.933 178.329 208.649C178.755 208.36 179.077 207.948 179.295 207.413C179.518 206.874 179.629 206.227 179.629 205.474C179.629 204.741 179.52 204.094 179.302 203.536C179.084 202.977 178.765 202.541 178.343 202.229C177.922 201.911 177.401 201.753 176.781 201.753C176.142 201.753 175.609 201.919 175.183 202.25C174.757 202.577 174.435 203.022 174.217 203.585C174.004 204.149 173.897 204.778 173.897 205.474C173.897 206.189 174.006 206.817 174.224 207.357C174.442 207.896 174.764 208.318 175.19 208.621C175.621 208.924 176.151 209.075 176.781 209.075ZM189.074 211.22C187.999 211.22 187.073 210.991 186.297 210.531C185.525 210.067 184.928 209.416 184.507 208.578C184.09 207.735 183.882 206.748 183.882 205.616C183.882 204.499 184.09 203.514 184.507 202.662C184.928 201.81 185.516 201.144 186.268 200.666C187.026 200.188 187.911 199.949 188.925 199.949C189.54 199.949 190.137 200.051 190.714 200.254C191.292 200.458 191.811 200.777 192.27 201.213C192.729 201.649 193.091 202.214 193.356 202.911C193.622 203.602 193.754 204.442 193.754 205.432V206.185H185.082V204.594H191.673C191.673 204.035 191.56 203.54 191.332 203.109C191.105 202.674 190.785 202.33 190.374 202.08C189.966 201.829 189.488 201.703 188.939 201.703C188.342 201.703 187.821 201.85 187.376 202.143C186.936 202.432 186.595 202.811 186.354 203.28C186.117 203.744 185.999 204.248 185.999 204.793V206.036C185.999 206.765 186.126 207.385 186.382 207.896C186.642 208.408 187.005 208.798 187.469 209.068C187.933 209.333 188.475 209.466 189.095 209.466C189.498 209.466 189.865 209.409 190.196 209.295C190.527 209.177 190.814 209.002 191.055 208.77C191.297 208.538 191.481 208.251 191.609 207.911L193.619 208.273C193.458 208.865 193.169 209.383 192.753 209.828C192.341 210.268 191.822 210.612 191.197 210.858C190.577 211.099 189.869 211.22 189.074 211.22Z" fill="white"/>
<rect x="41" y="249" width="401" height="63" fill="#0E0E0F"/>
<path d="M39 253C39 250.791 40.7909 249 43 249H45V312H43C40.7909 312 39 310.209 39 308V253Z" fill="#212528"/>
<path d="M77.9517 273.455H80.1534V283.021C80.1534 284.039 79.9143 284.941 79.4361 285.727C78.9579 286.509 78.2855 287.124 77.419 287.574C76.5526 288.019 75.5369 288.241 74.3722 288.241C73.2121 288.241 72.1989 288.019 71.3324 287.574C70.4659 287.124 69.7936 286.509 69.3153 285.727C68.8371 284.941 68.598 284.039 68.598 283.021V273.455H70.7926V282.844C70.7926 283.502 70.937 284.087 71.2259 284.598C71.5194 285.109 71.9337 285.512 72.4688 285.805C73.0038 286.094 73.6383 286.239 74.3722 286.239C75.1108 286.239 75.7476 286.094 76.2827 285.805C76.8224 285.512 77.2344 285.109 77.5185 284.598C77.8073 284.087 77.9517 283.502 77.9517 282.844V273.455ZM84.6711 273.455L88.1512 279.143H88.2648L91.745 273.455H94.2876L89.7563 280.727L94.316 288H91.7592L88.2648 282.389H88.1512L84.6569 288H82.1001L86.7379 280.727L82.1285 273.455H84.6711ZM101.357 288V273.455H106.542C107.674 273.455 108.611 273.661 109.355 274.072C110.098 274.484 110.654 275.048 111.024 275.763C111.393 276.473 111.578 277.273 111.578 278.163C111.578 279.058 111.391 279.863 111.016 280.578C110.647 281.288 110.088 281.852 109.34 282.268C108.597 282.68 107.662 282.886 106.535 282.886H102.97V281.026H106.336C107.051 281.026 107.631 280.902 108.076 280.656C108.521 280.405 108.848 280.064 109.056 279.634C109.265 279.203 109.369 278.713 109.369 278.163C109.369 277.614 109.265 277.126 109.056 276.7C108.848 276.274 108.519 275.94 108.069 275.699C107.624 275.457 107.037 275.337 106.308 275.337H103.552V288H101.357ZM113.78 288V277.091H115.832V278.824H115.946C116.145 278.237 116.495 277.775 116.997 277.439C117.504 277.098 118.077 276.928 118.716 276.928C118.849 276.928 119.005 276.932 119.185 276.942C119.369 276.951 119.514 276.963 119.618 276.977V279.009C119.533 278.985 119.381 278.959 119.163 278.93C118.946 278.897 118.728 278.881 118.51 278.881C118.008 278.881 117.561 278.987 117.168 279.2C116.779 279.409 116.472 279.7 116.244 280.074C116.017 280.443 115.903 280.865 115.903 281.338V288H113.78ZM125.46 288.22C124.438 288.22 123.545 287.986 122.783 287.517C122.02 287.048 121.429 286.393 121.007 285.55C120.586 284.707 120.375 283.722 120.375 282.595C120.375 281.464 120.586 280.474 121.007 279.626C121.429 278.779 122.02 278.121 122.783 277.652C123.545 277.183 124.438 276.949 125.46 276.949C126.483 276.949 127.375 277.183 128.138 277.652C128.9 278.121 129.492 278.779 129.913 279.626C130.335 280.474 130.545 281.464 130.545 282.595C130.545 283.722 130.335 284.707 129.913 285.55C129.492 286.393 128.9 287.048 128.138 287.517C127.375 287.986 126.483 288.22 125.46 288.22ZM125.467 286.438C126.13 286.438 126.679 286.262 127.115 285.912C127.551 285.562 127.873 285.095 128.081 284.513C128.294 283.93 128.401 283.289 128.401 282.588C128.401 281.892 128.294 281.253 128.081 280.67C127.873 280.083 127.551 279.612 127.115 279.257C126.679 278.902 126.13 278.724 125.467 278.724C124.8 278.724 124.246 278.902 123.805 279.257C123.37 279.612 123.045 280.083 122.832 280.67C122.624 281.253 122.52 281.892 122.52 282.588C122.52 283.289 122.624 283.93 122.832 284.513C123.045 285.095 123.37 285.562 123.805 285.912C124.246 286.262 124.8 286.438 125.467 286.438ZM137.808 277.091V278.795H131.849V277.091H137.808ZM133.447 274.477H135.571V284.797C135.571 285.209 135.633 285.519 135.756 285.727C135.879 285.931 136.037 286.071 136.231 286.146C136.43 286.217 136.646 286.253 136.878 286.253C137.048 286.253 137.197 286.241 137.325 286.217C137.453 286.194 137.552 286.175 137.624 286.161L138.007 287.915C137.884 287.962 137.709 288.009 137.481 288.057C137.254 288.109 136.97 288.137 136.629 288.142C136.07 288.152 135.55 288.052 135.067 287.844C134.584 287.635 134.193 287.313 133.895 286.878C133.597 286.442 133.447 285.895 133.447 285.237V274.477ZM144.435 288.22C143.412 288.22 142.52 287.986 141.758 287.517C140.995 287.048 140.404 286.393 139.982 285.55C139.561 284.707 139.35 283.722 139.35 282.595C139.35 281.464 139.561 280.474 139.982 279.626C140.404 278.779 140.995 278.121 141.758 277.652C142.52 277.183 143.412 276.949 144.435 276.949C145.458 276.949 146.35 277.183 147.113 277.652C147.875 278.121 148.467 278.779 148.888 279.626C149.31 280.474 149.52 281.464 149.52 282.595C149.52 283.722 149.31 284.707 148.888 285.55C148.467 286.393 147.875 287.048 147.113 287.517C146.35 287.986 145.458 288.22 144.435 288.22ZM144.442 286.438C145.105 286.438 145.654 286.262 146.09 285.912C146.526 285.562 146.848 285.095 147.056 284.513C147.269 283.93 147.376 283.289 147.376 282.588C147.376 281.892 147.269 281.253 147.056 280.67C146.848 280.083 146.526 279.612 146.09 279.257C145.654 278.902 145.105 278.724 144.442 278.724C143.775 278.724 143.221 278.902 142.78 279.257C142.345 279.612 142.02 280.083 141.807 280.67C141.599 281.253 141.495 281.892 141.495 282.588C141.495 283.289 141.599 283.93 141.807 284.513C142.02 285.095 142.345 285.562 142.78 285.912C143.221 286.262 143.775 286.438 144.442 286.438ZM156.783 277.091V278.795H150.824V277.091H156.783ZM152.422 274.477H154.546V284.797C154.546 285.209 154.608 285.519 154.731 285.727C154.854 285.931 155.012 286.071 155.206 286.146C155.405 286.217 155.621 286.253 155.853 286.253C156.023 286.253 156.172 286.241 156.3 286.217C156.428 286.194 156.527 286.175 156.599 286.161L156.982 287.915C156.859 287.962 156.684 288.009 156.456 288.057C156.229 288.109 155.945 288.137 155.604 288.142C155.045 288.152 154.525 288.052 154.042 287.844C153.559 287.635 153.168 287.313 152.87 286.878C152.572 286.442 152.422 285.895 152.422 285.237V274.477ZM160.275 292.091C159.957 292.091 159.669 292.065 159.408 292.013C159.148 291.965 158.954 291.913 158.826 291.857L159.337 290.116C159.725 290.221 160.071 290.266 160.374 290.251C160.677 290.237 160.945 290.124 161.177 289.911C161.413 289.697 161.622 289.349 161.802 288.866L162.064 288.142L158.073 277.091H160.346L163.108 285.557H163.222L165.985 277.091H168.265L163.769 289.456C163.561 290.024 163.295 290.505 162.973 290.898C162.651 291.295 162.268 291.594 161.823 291.793C161.378 291.991 160.862 292.091 160.275 292.091ZM170.06 292.091V277.091H172.134V278.859H172.312C172.435 278.632 172.612 278.369 172.844 278.071C173.076 277.773 173.398 277.512 173.81 277.29C174.222 277.062 174.767 276.949 175.444 276.949C176.325 276.949 177.111 277.171 177.802 277.616C178.493 278.062 179.035 278.703 179.428 279.541C179.826 280.379 180.025 281.388 180.025 282.567C180.025 283.746 179.828 284.757 179.435 285.599C179.042 286.437 178.503 287.084 177.816 287.538C177.129 287.988 176.346 288.213 175.465 288.213C174.802 288.213 174.26 288.102 173.839 287.879C173.422 287.657 173.095 287.396 172.859 287.098C172.622 286.8 172.44 286.535 172.312 286.303H172.184V292.091H170.06ZM172.141 282.545C172.141 283.312 172.253 283.985 172.475 284.562C172.698 285.14 173.02 285.592 173.441 285.919C173.862 286.241 174.379 286.402 174.989 286.402C175.624 286.402 176.154 286.234 176.58 285.898C177.006 285.557 177.328 285.095 177.546 284.513C177.769 283.93 177.88 283.275 177.88 282.545C177.88 281.826 177.771 281.179 177.553 280.607C177.34 280.034 177.018 279.581 176.587 279.25C176.161 278.919 175.629 278.753 174.989 278.753C174.374 278.753 173.853 278.911 173.427 279.229C173.005 279.546 172.686 279.989 172.468 280.557C172.25 281.125 172.141 281.788 172.141 282.545ZM186.906 288.22C185.831 288.22 184.905 287.991 184.129 287.531C183.357 287.067 182.76 286.416 182.339 285.578C181.922 284.735 181.714 283.748 181.714 282.616C181.714 281.499 181.922 280.514 182.339 279.662C182.76 278.81 183.348 278.144 184.1 277.666C184.858 277.188 185.743 276.949 186.757 276.949C187.372 276.949 187.969 277.051 188.546 277.254C189.124 277.458 189.643 277.777 190.102 278.213C190.561 278.649 190.923 279.214 191.188 279.911C191.454 280.602 191.586 281.442 191.586 282.432V283.185H182.914V281.594H189.505C189.505 281.035 189.392 280.54 189.164 280.109C188.937 279.674 188.617 279.33 188.206 279.08C187.798 278.829 187.32 278.703 186.771 278.703C186.174 278.703 185.653 278.85 185.208 279.143C184.768 279.432 184.427 279.811 184.186 280.28C183.949 280.744 183.831 281.248 183.831 281.793V283.036C183.831 283.765 183.958 284.385 184.214 284.896C184.474 285.408 184.837 285.798 185.301 286.068C185.765 286.333 186.307 286.466 186.927 286.466C187.33 286.466 187.697 286.409 188.028 286.295C188.359 286.177 188.646 286.002 188.887 285.77C189.129 285.538 189.313 285.251 189.441 284.911L191.451 285.273C191.29 285.865 191.001 286.383 190.585 286.828C190.173 287.268 189.654 287.612 189.029 287.858C188.409 288.099 187.701 288.22 186.906 288.22Z" fill="#5A5B5B"/>
<circle cx="38.3043" cy="33.4996" r="7.30425" fill="#18191A"/>
<circle cx="58.9996" cy="33.4996" r="7.30425" fill="#18191A"/>
<circle cx="79.6959" cy="33.4996" r="7.30425" fill="#18191A"/>
<path d="M181.578 39.6617C181.16 39.6617 180.759 39.4956 180.463 39.1999C180.168 38.9042 180.001 38.5031 180.001 38.085L180 28.2705C180 27.8523 180.166 27.4513 180.462 27.1556C180.758 26.8599 181.159 26.6938 181.577 26.6938L182.1 26.693V26.1682C182.1 26.0409 182.146 25.9181 182.23 25.8223C182.314 25.7266 182.43 25.6644 182.556 25.6475L182.626 25.6426C182.753 25.6426 182.876 25.6886 182.971 25.7721C183.067 25.8555 183.129 25.9709 183.147 26.0967L183.151 26.1682V26.693H185.256V26.1682C185.256 26.0411 185.302 25.9183 185.386 25.8225C185.469 25.7268 185.585 25.6646 185.711 25.6475L185.781 25.6426C185.908 25.6426 186.031 25.6886 186.127 25.7721C186.223 25.8555 186.285 25.9709 186.302 26.0967L186.307 26.1682V26.693H188.408V26.1682C188.408 26.0412 188.454 25.9184 188.537 25.8227C188.621 25.727 188.736 25.6648 188.862 25.6475L188.935 25.6426C189.062 25.6426 189.185 25.6886 189.28 25.7721C189.376 25.8555 189.438 25.9709 189.456 26.0967L189.461 26.1682V26.693H189.985C190.404 26.693 190.805 26.8592 191.1 27.1549C191.396 27.4506 191.562 27.8516 191.562 28.2698V31.3028C191.243 31.1013 190.885 30.9713 190.511 30.9216V28.2705C190.511 28.1311 190.456 27.9974 190.357 27.8989C190.259 27.8003 190.125 27.7449 189.985 27.7449H181.57C181.432 27.7468 181.3 27.803 181.203 27.9013C181.106 27.9997 181.051 28.1323 181.051 28.2705L181.052 38.0843C181.052 38.3751 181.288 38.6098 181.577 38.6098H186.145C186.285 38.989 186.499 39.345 186.778 39.661L181.578 39.6617ZM190.51 31.6308C190.922 31.7064 191.287 31.9111 191.561 32.2033C191.9 32.5605 192.089 33.0341 192.088 33.5264C192.089 34.0184 191.901 34.4921 191.563 34.8494C191.383 35.0404 191.166 35.1925 190.925 35.2964C190.684 35.4003 190.424 35.4537 190.161 35.4535C189.894 35.4533 189.629 35.3973 189.384 35.289C189.139 35.1808 188.92 35.0228 188.739 34.825C188.559 34.6272 188.422 34.394 188.336 34.1402C188.251 33.8865 188.22 33.6178 188.244 33.3512C188.268 33.0846 188.348 32.826 188.478 32.5919C188.608 32.3577 188.785 32.1532 188.998 31.9914C189.211 31.8295 189.456 31.7139 189.716 31.6518C189.977 31.5897 190.247 31.5825 190.51 31.6308ZM187.697 36.1543H192.614C192.893 36.1543 193.16 36.265 193.357 36.4622C193.554 36.6593 193.665 36.9267 193.665 37.2055V37.5559C193.665 38.9371 192.362 40.359 190.161 40.359C189.195 40.359 188.402 40.0857 187.817 39.6617C187.434 39.3898 187.123 39.0288 186.91 38.6098C186.746 38.2827 186.659 37.922 186.657 37.5559V37.2055C186.657 36.9284 186.767 36.6625 186.962 36.4656C187.157 36.2688 187.422 36.1569 187.699 36.1543H187.697ZM182.627 32.6504H187.682C187.563 32.9873 187.514 33.345 187.538 33.7016H182.627C182.493 33.7015 182.365 33.6509 182.268 33.56C182.171 33.4691 182.111 33.3447 182.102 33.2118C182.093 33.0789 182.135 32.9476 182.219 32.8443C182.303 32.741 182.423 32.6734 182.555 32.6553L182.627 32.6504ZM182.627 35.4535H185.429C185.562 35.4536 185.69 35.5041 185.788 35.5951C185.885 35.686 185.944 35.8104 185.953 35.9433C185.962 36.0761 185.921 36.2075 185.837 36.3108C185.752 36.4141 185.632 36.4816 185.5 36.4998L185.429 36.5047H182.627C182.493 36.5046 182.365 36.4541 182.268 36.3632C182.171 36.2722 182.111 36.1478 182.102 36.0149C182.093 35.8821 182.135 35.7507 182.219 35.6474C182.303 35.5441 182.423 35.4766 182.555 35.4584L182.627 35.4535ZM182.627 29.8473H188.934C189.067 29.8475 189.195 29.8982 189.292 29.9892C189.389 30.0801 189.448 30.2046 189.457 30.3374C189.466 30.4702 189.424 30.6014 189.34 30.7047C189.256 30.8079 189.136 30.8754 189.004 30.8935L188.934 30.8984H182.627C182.493 30.8984 182.365 30.8478 182.268 30.7569C182.171 30.666 182.111 30.5415 182.102 30.4087C182.093 30.2758 182.135 30.1445 182.219 30.0412C182.303 29.9379 182.423 29.8703 182.555 29.8522L182.627 29.8473Z" fill="#5A5B5B"/>
<path d="M205.121 38.168C204.169 38.168 203.343 37.958 202.643 37.538C201.953 37.1087 201.421 36.516 201.047 35.76C200.674 34.9947 200.487 34.108 200.487 33.1C200.487 32.092 200.674 31.21 201.047 30.454C201.421 29.6887 201.953 29.096 202.643 28.676C203.343 28.2467 204.169 28.032 205.121 28.032C206.241 28.032 207.151 28.298 207.851 28.83C208.551 29.362 208.999 30.1133 209.195 31.084H207.893C207.744 30.4773 207.441 29.992 206.983 29.628C206.526 29.2547 205.905 29.068 205.121 29.068C204.421 29.068 203.815 29.2313 203.301 29.558C202.788 29.8753 202.391 30.3373 202.111 30.944C201.831 31.5413 201.691 32.26 201.691 33.1C201.691 33.94 201.831 34.6633 202.111 35.27C202.391 35.8673 202.788 36.3293 203.301 36.656C203.815 36.9733 204.421 37.132 205.121 37.132C205.905 37.132 206.526 36.9547 206.983 36.6C207.441 36.236 207.744 35.7553 207.893 35.158H209.195C208.999 36.1007 208.551 36.838 207.851 37.37C207.151 37.902 206.241 38.168 205.121 38.168ZM213.393 38.168C212.851 38.168 212.375 38.0607 211.965 37.846C211.563 37.6313 211.251 37.3 211.027 36.852C210.812 36.404 210.705 35.844 210.705 35.172V30.944H211.881V35.046C211.881 35.746 212.035 36.2733 212.343 36.628C212.651 36.9827 213.085 37.16 213.645 37.16C214.037 37.16 214.391 37.0667 214.709 36.88C215.026 36.684 215.273 36.4087 215.451 36.054C215.637 35.69 215.731 35.2467 215.731 34.724V30.944H216.907V38H215.843L215.773 36.768C215.558 37.2067 215.241 37.552 214.821 37.804C214.401 38.0467 213.925 38.168 213.393 38.168ZM218.856 38V30.944H219.92L220.004 32.288C220.163 31.9707 220.363 31.7 220.606 31.476C220.858 31.252 221.157 31.0793 221.502 30.958C221.857 30.8367 222.258 30.776 222.706 30.776V32.008H222.272C221.973 32.008 221.689 32.05 221.418 32.134C221.147 32.2087 220.905 32.3347 220.69 32.512C220.485 32.6893 220.321 32.932 220.2 33.24C220.088 33.5387 220.032 33.912 220.032 34.36V38H218.856ZM224.038 38V30.944H225.102L225.186 32.288C225.344 31.9707 225.545 31.7 225.788 31.476C226.04 31.252 226.338 31.0793 226.684 30.958C227.038 30.8367 227.44 30.776 227.888 30.776V32.008H227.454C227.155 32.008 226.87 32.05 226.6 32.134C226.329 32.2087 226.086 32.3347 225.872 32.512C225.666 32.6893 225.503 32.932 225.382 33.24C225.27 33.5387 225.214 33.912 225.214 34.36V38H224.038ZM232.053 38.168C231.391 38.168 230.803 38.014 230.289 37.706C229.785 37.398 229.389 36.9687 229.099 36.418C228.81 35.858 228.665 35.2093 228.665 34.472C228.665 33.7253 228.805 33.0767 229.085 32.526C229.375 31.9753 229.776 31.546 230.289 31.238C230.812 30.93 231.409 30.776 232.081 30.776C232.772 30.776 233.355 30.93 233.831 31.238C234.317 31.546 234.685 31.952 234.937 32.456C235.199 32.9507 235.329 33.4967 235.329 34.094C235.329 34.1873 235.329 34.2853 235.329 34.388C235.329 34.4907 235.325 34.6073 235.315 34.738H229.547V33.828H234.181C234.153 33.184 233.939 32.68 233.537 32.316C233.145 31.952 232.651 31.77 232.053 31.77C231.652 31.77 231.279 31.8633 230.933 32.05C230.597 32.2273 230.327 32.4933 230.121 32.848C229.916 33.1933 229.813 33.6273 229.813 34.15V34.542C229.813 35.1207 229.916 35.606 230.121 35.998C230.336 36.39 230.611 36.684 230.947 36.88C231.293 37.076 231.661 37.174 232.053 37.174C232.548 37.174 232.954 37.0667 233.271 36.852C233.598 36.628 233.831 36.3293 233.971 35.956H235.133C235.021 36.376 234.825 36.754 234.545 37.09C234.265 37.426 233.915 37.692 233.495 37.888C233.085 38.0747 232.604 38.168 232.053 38.168ZM236.917 38V30.944H237.981L238.037 32.176C238.261 31.7373 238.578 31.3967 238.989 31.154C239.409 30.902 239.885 30.776 240.417 30.776C240.967 30.776 241.443 30.888 241.845 31.112C242.246 31.3267 242.559 31.658 242.783 32.106C243.007 32.5447 243.119 33.1047 243.119 33.786V38H241.943V33.912C241.943 33.2027 241.784 32.6707 241.467 32.316C241.159 31.9613 240.72 31.784 240.151 31.784C239.759 31.784 239.409 31.882 239.101 32.078C238.793 32.2647 238.545 32.54 238.359 32.904C238.181 33.2587 238.093 33.702 238.093 34.234V38H236.917ZM247.728 38C247.308 38 246.944 37.9347 246.636 37.804C246.328 37.6733 246.09 37.454 245.922 37.146C245.763 36.8287 245.684 36.404 245.684 35.872V31.938H244.452V30.944H245.684L245.838 29.236H246.86V30.944H248.904V31.938H246.86V35.872C246.86 36.3107 246.948 36.6093 247.126 36.768C247.303 36.9173 247.616 36.992 248.064 36.992H248.82V38H247.728ZM256.243 38L253.555 28.2H254.815L256.929 36.6L259.323 28.2H260.639L262.977 36.628L265.119 28.2H266.379L263.635 38H262.291L259.953 29.894L257.559 38H256.243ZM270.145 38.168C269.491 38.168 268.903 38.0187 268.381 37.72C267.858 37.412 267.447 36.9827 267.149 36.432C266.85 35.872 266.701 35.2233 266.701 34.486C266.701 33.73 266.85 33.0767 267.149 32.526C267.457 31.966 267.872 31.5367 268.395 31.238C268.927 30.93 269.519 30.776 270.173 30.776C270.845 30.776 271.437 30.93 271.951 31.238C272.473 31.5367 272.884 31.966 273.183 32.526C273.491 33.0767 273.645 33.7253 273.645 34.472C273.645 35.2187 273.491 35.872 273.183 36.432C272.875 36.9827 272.459 37.412 271.937 37.72C271.414 38.0187 270.817 38.168 270.145 38.168ZM270.159 37.16C270.56 37.16 270.933 37.062 271.279 36.866C271.624 36.6607 271.904 36.3573 272.119 35.956C272.333 35.5547 272.441 35.06 272.441 34.472C272.441 33.8747 272.333 33.38 272.119 32.988C271.913 32.5867 271.638 32.288 271.293 32.092C270.957 31.8867 270.583 31.784 270.173 31.784C269.781 31.784 269.407 31.8867 269.053 32.092C268.707 32.288 268.427 32.5867 268.213 32.988C268.007 33.38 267.905 33.8747 267.905 34.472C267.905 35.06 268.007 35.5547 268.213 35.956C268.427 36.3573 268.703 36.6607 269.039 36.866C269.384 37.062 269.757 37.16 270.159 37.16ZM275.293 38V30.944H276.357L276.441 32.288C276.6 31.9707 276.801 31.7 277.043 31.476C277.295 31.252 277.594 31.0793 277.939 30.958C278.294 30.8367 278.695 30.776 279.143 30.776V32.008H278.709C278.411 32.008 278.126 32.05 277.855 32.134C277.585 32.2087 277.342 32.3347 277.127 32.512C276.922 32.6893 276.759 32.932 276.637 33.24C276.525 33.5387 276.469 33.912 276.469 34.36V38H275.293ZM284.815 38L281.455 34.136L284.521 30.944H285.963L282.449 34.556L282.463 33.716L286.313 38H284.815ZM280.475 38V27.92H281.651V38H280.475ZM289.78 38.168C289.192 38.168 288.678 38.07 288.24 37.874C287.81 37.678 287.465 37.4073 287.204 37.062C286.952 36.7073 286.798 36.292 286.742 35.816H287.946C287.992 36.0587 288.09 36.2827 288.24 36.488C288.389 36.6933 288.59 36.8613 288.842 36.992C289.103 37.1133 289.42 37.174 289.794 37.174C290.12 37.174 290.391 37.1273 290.606 37.034C290.82 36.9313 290.979 36.796 291.082 36.628C291.194 36.46 291.25 36.278 291.25 36.082C291.25 35.7927 291.18 35.5733 291.04 35.424C290.909 35.2747 290.713 35.158 290.452 35.074C290.19 34.9807 289.873 34.9013 289.5 34.836C289.192 34.78 288.888 34.7053 288.59 34.612C288.291 34.5187 288.025 34.3973 287.792 34.248C287.558 34.0893 287.372 33.898 287.232 33.674C287.101 33.45 287.036 33.1747 287.036 32.848C287.036 32.4467 287.138 32.092 287.344 31.784C287.549 31.4667 287.843 31.2193 288.226 31.042C288.618 30.8647 289.07 30.776 289.584 30.776C290.34 30.776 290.951 30.958 291.418 31.322C291.884 31.686 292.16 32.2133 292.244 32.904H291.082C291.035 32.5493 290.881 32.274 290.62 32.078C290.368 31.8727 290.018 31.77 289.57 31.77C289.131 31.77 288.795 31.8587 288.562 32.036C288.338 32.2133 288.226 32.4467 288.226 32.736C288.226 32.9227 288.286 33.0907 288.408 33.24C288.538 33.38 288.725 33.5013 288.968 33.604C289.22 33.7067 289.528 33.7907 289.892 33.856C290.358 33.94 290.783 34.052 291.166 34.192C291.548 34.332 291.856 34.542 292.09 34.822C292.332 35.0927 292.454 35.48 292.454 35.984C292.454 36.4227 292.342 36.8053 292.118 37.132C291.903 37.4587 291.595 37.7153 291.194 37.902C290.792 38.0793 290.321 38.168 289.78 38.168ZM294.147 41.08V30.944H295.211L295.309 32.092C295.458 31.868 295.65 31.658 295.883 31.462C296.116 31.2567 296.396 31.0933 296.723 30.972C297.05 30.8413 297.423 30.776 297.843 30.776C298.534 30.776 299.131 30.9393 299.635 31.266C300.148 31.5927 300.545 32.036 300.825 32.596C301.114 33.1467 301.259 33.7767 301.259 34.486C301.259 35.1953 301.114 35.83 300.825 36.39C300.545 36.9407 300.148 37.3747 299.635 37.692C299.122 38.0093 298.52 38.168 297.829 38.168C297.26 38.168 296.756 38.0513 296.317 37.818C295.888 37.5847 295.556 37.258 295.323 36.838V41.08H294.147ZM297.703 37.146C298.16 37.146 298.566 37.034 298.921 36.81C299.276 36.586 299.551 36.278 299.747 35.886C299.952 35.4847 300.055 35.0133 300.055 34.472C300.055 33.94 299.952 33.4733 299.747 33.072C299.551 32.6707 299.276 32.358 298.921 32.134C298.566 31.91 298.16 31.798 297.703 31.798C297.236 31.798 296.826 31.91 296.471 32.134C296.116 32.358 295.841 32.6707 295.645 33.072C295.449 33.4733 295.351 33.94 295.351 34.472C295.351 35.0133 295.449 35.4847 295.645 35.886C295.841 36.278 296.116 36.586 296.471 36.81C296.826 37.034 297.236 37.146 297.703 37.146ZM305.207 38.168C304.637 38.168 304.161 38.07 303.779 37.874C303.396 37.6687 303.111 37.4027 302.925 37.076C302.738 36.74 302.645 36.376 302.645 35.984C302.645 35.508 302.766 35.1067 303.009 34.78C303.261 34.444 303.611 34.192 304.059 34.024C304.516 33.8467 305.053 33.758 305.669 33.758H307.531C307.531 33.3193 307.461 32.9553 307.321 32.666C307.19 32.3673 306.994 32.1433 306.733 31.994C306.481 31.8447 306.163 31.77 305.781 31.77C305.333 31.77 304.945 31.882 304.619 32.106C304.292 32.33 304.091 32.6613 304.017 33.1H302.813C302.869 32.596 303.037 32.176 303.317 31.84C303.606 31.4947 303.97 31.2333 304.409 31.056C304.847 30.8693 305.305 30.776 305.781 30.776C306.434 30.776 306.975 30.8973 307.405 31.14C307.843 31.3733 308.17 31.7047 308.385 32.134C308.599 32.554 308.707 33.0533 308.707 33.632V38H307.657L307.587 36.754C307.493 36.95 307.372 37.1367 307.223 37.314C307.083 37.482 306.915 37.6313 306.719 37.762C306.523 37.8833 306.299 37.9813 306.047 38.056C305.804 38.1307 305.524 38.168 305.207 38.168ZM305.389 37.174C305.715 37.174 306.009 37.1087 306.271 36.978C306.541 36.838 306.77 36.6513 306.957 36.418C307.143 36.1753 307.283 35.9093 307.377 35.62C307.479 35.3307 307.531 35.0273 307.531 34.71V34.668H305.767C305.309 34.668 304.941 34.724 304.661 34.836C304.381 34.9387 304.18 35.088 304.059 35.284C303.937 35.4707 303.877 35.6853 303.877 35.928C303.877 36.18 303.933 36.3993 304.045 36.586C304.166 36.7727 304.339 36.9173 304.563 37.02C304.796 37.1227 305.071 37.174 305.389 37.174ZM313.704 38.168C313.041 38.168 312.444 38.014 311.912 37.706C311.389 37.398 310.979 36.9687 310.68 36.418C310.381 35.858 310.232 35.214 310.232 34.486C310.232 33.7393 310.381 33.0907 310.68 32.54C310.979 31.9893 311.389 31.56 311.912 31.252C312.444 30.9347 313.041 30.776 313.704 30.776C314.544 30.776 315.244 30.9953 315.804 31.434C316.364 31.8633 316.719 32.442 316.868 33.17H315.664C315.571 32.7313 315.342 32.3907 314.978 32.148C314.614 31.9053 314.185 31.784 313.69 31.784C313.289 31.784 312.915 31.8867 312.57 32.092C312.225 32.288 311.949 32.5867 311.744 32.988C311.539 33.3893 311.436 33.884 311.436 34.472C311.436 34.9107 311.497 35.3027 311.618 35.648C311.739 35.984 311.903 36.264 312.108 36.488C312.313 36.712 312.551 36.8847 312.822 37.006C313.102 37.118 313.391 37.174 313.69 37.174C314.026 37.174 314.329 37.1227 314.6 37.02C314.871 36.908 315.099 36.7447 315.286 36.53C315.473 36.3153 315.599 36.0633 315.664 35.774H316.868C316.719 36.4833 316.359 37.062 315.79 37.51C315.23 37.9487 314.535 38.168 313.704 38.168ZM321.632 38.168C320.969 38.168 320.381 38.014 319.868 37.706C319.364 37.398 318.967 36.9687 318.678 36.418C318.388 35.858 318.244 35.2093 318.244 34.472C318.244 33.7253 318.384 33.0767 318.664 32.526C318.953 31.9753 319.354 31.546 319.868 31.238C320.39 30.93 320.988 30.776 321.66 30.776C322.35 30.776 322.934 30.93 323.41 31.238C323.895 31.546 324.264 31.952 324.516 32.456C324.777 32.9507 324.908 33.4967 324.908 34.094C324.908 34.1873 324.908 34.2853 324.908 34.388C324.908 34.4907 324.903 34.6073 324.894 34.738H319.126V33.828H323.76C323.732 33.184 323.517 32.68 323.116 32.316C322.724 31.952 322.229 31.77 321.632 31.77C321.23 31.77 320.857 31.8633 320.512 32.05C320.176 32.2273 319.905 32.4933 319.7 32.848C319.494 33.1933 319.392 33.6273 319.392 34.15V34.542C319.392 35.1207 319.494 35.606 319.7 35.998C319.914 36.39 320.19 36.684 320.526 36.88C320.871 37.076 321.24 37.174 321.632 37.174C322.126 37.174 322.532 37.0667 322.85 36.852C323.176 36.628 323.41 36.3293 323.55 35.956H324.712C324.6 36.376 324.404 36.754 324.124 37.09C323.844 37.426 323.494 37.692 323.074 37.888C322.663 38.0747 322.182 38.168 321.632 38.168Z" fill="#5A5B5B"/>
</g>
</g>
<g filter="url(#filter2_di_1077_11047)">
<g clip-path="url(#clip2_1077_11047)">
<rect x="241" y="157" width="397" height="269" rx="19.3678" fill="#080808"/>
<g opacity="0.1" clip-path="url(#clip3_1077_11047)">
<rect width="419" height="269" transform="translate(219 157)" fill="url(#paint2_radial_1077_11047)"/>
<g filter="url(#filter3_di_1077_11047)">
<path d="M219 176.368C219 165.671 227.671 157 238.368 157H618.905C629.601 157 638.273 165.671 638.273 176.368V260.618H219V176.368Z" fill="#CDCDCD" fill-opacity="0.2" shape-rendering="crispEdges"/>
</g>
</g>
<rect x="241.484" y="157.484" width="396.032" height="268.032" rx="18.8836" stroke="#D8E7F2" stroke-opacity="0.07" stroke-width="0.96839"/>
<rect x="562.466" y="187.99" width="44.5459" height="44.5459" rx="11.6207" fill="#778592" fill-opacity="0.1"/>
<g clip-path="url(#clip4_1077_11047)">
<path d="M578.929 208.326C577.864 208.326 576.992 209.198 576.992 210.263C576.992 211.328 577.864 212.2 578.929 212.2C579.994 212.2 580.866 211.328 580.866 210.263C580.866 209.198 579.994 208.326 578.929 208.326ZM590.55 208.326C589.484 208.326 588.613 209.198 588.613 210.263C588.613 211.328 589.484 212.2 590.55 212.2C591.615 212.2 592.486 211.328 592.486 210.263C592.486 209.198 591.615 208.326 590.55 208.326ZM584.739 208.326C583.674 208.326 582.803 209.198 582.803 210.263C582.803 211.328 583.674 212.2 584.739 212.2C585.805 212.2 586.676 211.328 586.676 210.263C586.676 209.198 585.805 208.326 584.739 208.326Z" fill="#878787"/>
</g>
<path d="M275.761 333.291V312.163H280.228V329.608H289.286V333.291H275.761ZM295.751 333.59C294.74 333.59 293.839 333.415 293.048 333.064C292.257 332.706 291.631 332.18 291.171 331.486C290.717 330.784 290.49 329.911 290.49 328.865C290.49 327.985 290.651 327.245 290.974 326.647C291.298 326.049 291.738 325.567 292.295 325.203C292.852 324.838 293.485 324.563 294.193 324.377C294.909 324.192 295.658 324.061 296.442 323.985C297.364 323.889 298.107 323.8 298.671 323.717C299.235 323.628 299.644 323.497 299.898 323.325C300.153 323.153 300.28 322.899 300.28 322.562V322.5C300.28 321.846 300.074 321.341 299.661 320.983C299.255 320.626 298.678 320.447 297.928 320.447C297.137 320.447 296.508 320.622 296.04 320.973C295.572 321.317 295.263 321.75 295.111 322.273L291.047 321.943C291.253 320.98 291.659 320.148 292.264 319.446C292.869 318.738 293.65 318.194 294.606 317.816C295.569 317.431 296.683 317.238 297.949 317.238C298.829 317.238 299.671 317.341 300.476 317.548C301.288 317.754 302.006 318.074 302.632 318.507C303.265 318.941 303.764 319.498 304.128 320.179C304.493 320.853 304.675 321.661 304.675 322.603V333.291H300.507V331.094H300.383C300.129 331.589 299.788 332.026 299.362 332.404C298.936 332.775 298.423 333.067 297.825 333.281C297.226 333.487 296.535 333.59 295.751 333.59ZM297.01 330.557C297.656 330.557 298.227 330.43 298.722 330.175C299.217 329.914 299.606 329.563 299.888 329.123C300.17 328.683 300.311 328.184 300.311 327.627V325.946C300.174 326.035 299.984 326.118 299.744 326.193C299.51 326.262 299.245 326.327 298.949 326.389C298.654 326.444 298.358 326.496 298.062 326.544C297.766 326.585 297.498 326.623 297.257 326.657C296.741 326.733 296.291 326.853 295.906 327.018C295.521 327.184 295.222 327.407 295.008 327.689C294.795 327.964 294.688 328.308 294.688 328.721C294.688 329.319 294.905 329.776 295.338 330.093C295.779 330.402 296.336 330.557 297.01 330.557ZM311.55 324.13V333.291H307.155V317.445H311.344V320.24H311.529C311.88 319.319 312.468 318.59 313.293 318.053C314.119 317.51 315.119 317.238 316.296 317.238C317.396 317.238 318.355 317.479 319.174 317.96C319.992 318.442 320.629 319.13 321.082 320.024C321.536 320.911 321.763 321.97 321.763 323.201V333.291H317.368V323.985C317.375 323.016 317.128 322.259 316.626 321.716C316.124 321.166 315.432 320.89 314.552 320.89C313.961 320.89 313.438 321.018 312.984 321.272C312.537 321.527 312.186 321.898 311.932 322.386C311.684 322.868 311.557 323.449 311.55 324.13ZM330.137 333.549C328.933 333.549 327.843 333.239 326.866 332.62C325.897 331.995 325.126 331.076 324.555 329.866C323.991 328.649 323.709 327.156 323.709 325.388C323.709 323.573 324.002 322.063 324.586 320.859C325.171 319.649 325.948 318.745 326.918 318.146C327.895 317.541 328.964 317.238 330.126 317.238C331.014 317.238 331.753 317.39 332.345 317.692C332.943 317.988 333.424 318.359 333.789 318.806C334.16 319.247 334.442 319.68 334.635 320.106H334.769V312.163H339.154V333.291H334.821V330.753H334.635C334.428 331.193 334.136 331.63 333.758 332.063C333.387 332.49 332.902 332.844 332.303 333.126C331.712 333.408 330.99 333.549 330.137 333.549ZM331.53 330.052C332.238 330.052 332.836 329.859 333.325 329.474C333.82 329.082 334.198 328.535 334.459 327.834C334.728 327.132 334.862 326.31 334.862 325.368C334.862 324.426 334.731 323.607 334.47 322.912C334.208 322.218 333.83 321.681 333.335 321.303C332.84 320.925 332.238 320.736 331.53 320.736C330.807 320.736 330.199 320.932 329.703 321.324C329.208 321.716 328.833 322.259 328.579 322.954C328.324 323.648 328.197 324.453 328.197 325.368C328.197 326.289 328.324 327.104 328.579 327.813C328.84 328.514 329.215 329.065 329.703 329.464C330.199 329.856 330.807 330.052 331.53 330.052ZM341.837 333.291V317.445H346.232V333.291H341.837ZM344.045 315.402C343.392 315.402 342.831 315.185 342.363 314.752C341.903 314.312 341.672 313.786 341.672 313.174C341.672 312.568 341.903 312.049 342.363 311.616C342.831 311.176 343.392 310.955 344.045 310.955C344.698 310.955 345.256 311.176 345.716 311.616C346.184 312.049 346.418 312.568 346.418 313.174C346.418 313.786 346.184 314.312 345.716 314.752C345.256 315.185 344.698 315.402 344.045 315.402ZM353.218 324.13V333.291H348.823V317.445H353.012V320.24H353.197C353.548 319.319 354.136 318.59 354.961 318.053C355.787 317.51 356.788 317.238 357.964 317.238C359.064 317.238 360.024 317.479 360.842 317.96C361.66 318.442 362.297 319.13 362.751 320.024C363.204 320.911 363.431 321.97 363.431 323.201V333.291H359.037V323.985C359.043 323.016 358.796 322.259 358.294 321.716C357.792 321.166 357.1 320.89 356.22 320.89C355.629 320.89 355.106 321.018 354.652 321.272C354.205 321.527 353.854 321.898 353.6 322.386C353.352 322.868 353.225 323.449 353.218 324.13ZM373.105 339.564C371.681 339.564 370.46 339.368 369.442 338.975C368.431 338.59 367.627 338.064 367.028 337.397C366.43 336.73 366.041 335.98 365.862 335.148L369.927 334.601C370.051 334.918 370.247 335.213 370.515 335.488C370.783 335.764 371.138 335.984 371.578 336.149C372.025 336.321 372.568 336.407 373.208 336.407C374.164 336.407 374.951 336.173 375.57 335.705C376.196 335.244 376.509 334.471 376.509 333.384V330.485H376.324C376.131 330.925 375.842 331.341 375.457 331.733C375.072 332.125 374.577 332.445 373.971 332.693C373.366 332.94 372.644 333.064 371.805 333.064C370.615 333.064 369.532 332.789 368.555 332.239C367.585 331.682 366.812 330.832 366.234 329.691C365.663 328.542 365.378 327.091 365.378 325.337C365.378 323.542 365.67 322.042 366.254 320.839C366.839 319.635 367.616 318.734 368.586 318.136C369.563 317.537 370.632 317.238 371.795 317.238C372.682 317.238 373.425 317.39 374.023 317.692C374.621 317.988 375.103 318.359 375.467 318.806C375.839 319.247 376.124 319.68 376.324 320.106H376.489V317.445H380.853V333.446C380.853 334.794 380.522 335.922 379.862 336.83C379.202 337.737 378.287 338.418 377.118 338.872C375.956 339.333 374.618 339.564 373.105 339.564ZM373.198 329.763C373.906 329.763 374.504 329.587 374.993 329.237C375.488 328.879 375.866 328.37 376.127 327.71C376.396 327.043 376.53 326.245 376.53 325.316C376.53 324.388 376.399 323.583 376.138 322.902C375.876 322.214 375.498 321.681 375.003 321.303C374.508 320.925 373.906 320.736 373.198 320.736C372.475 320.736 371.867 320.932 371.372 321.324C370.876 321.709 370.501 322.245 370.247 322.933C369.993 323.621 369.865 324.415 369.865 325.316C369.865 326.231 369.993 327.022 370.247 327.689C370.508 328.349 370.883 328.862 371.372 329.226C371.867 329.584 372.475 329.763 373.198 329.763ZM389.297 333.291V312.163H397.633C399.235 312.163 400.601 312.469 401.729 313.081C402.856 313.686 403.716 314.528 404.308 315.608C404.906 316.681 405.205 317.919 405.205 319.322C405.205 320.725 404.903 321.963 404.297 323.036C403.692 324.109 402.815 324.945 401.667 325.543C400.525 326.142 399.142 326.441 397.519 326.441H392.206V322.861H396.797C397.657 322.861 398.365 322.713 398.922 322.417C399.486 322.115 399.906 321.699 400.181 321.169C400.463 320.632 400.604 320.017 400.604 319.322C400.604 318.621 400.463 318.009 400.181 317.486C399.906 316.956 399.486 316.547 398.922 316.258C398.358 315.962 397.643 315.815 396.777 315.815H393.764V333.291H389.297ZM411.188 333.59C410.177 333.59 409.276 333.415 408.485 333.064C407.694 332.706 407.068 332.18 406.607 331.486C406.153 330.784 405.926 329.911 405.926 328.865C405.926 327.985 406.088 327.245 406.411 326.647C406.734 326.049 407.175 325.567 407.732 325.203C408.289 324.838 408.922 324.563 409.63 324.377C410.345 324.192 411.095 324.061 411.879 323.985C412.801 323.889 413.543 323.8 414.107 323.717C414.671 323.628 415.081 323.497 415.335 323.325C415.59 323.153 415.717 322.899 415.717 322.562V322.5C415.717 321.846 415.51 321.341 415.098 320.983C414.692 320.626 414.114 320.447 413.365 320.447C412.574 320.447 411.944 320.622 411.477 320.973C411.009 321.317 410.699 321.75 410.548 322.273L406.483 321.943C406.69 320.98 407.095 320.148 407.701 319.446C408.306 318.738 409.087 318.194 410.043 317.816C411.005 317.431 412.12 317.238 413.385 317.238C414.266 317.238 415.108 317.341 415.913 317.548C416.724 317.754 417.443 318.074 418.069 318.507C418.702 318.941 419.2 319.498 419.565 320.179C419.929 320.853 420.112 321.661 420.112 322.603V333.291H415.944V331.094H415.82C415.565 331.589 415.225 332.026 414.799 332.404C414.372 332.775 413.86 333.067 413.261 333.281C412.663 333.487 411.972 333.59 411.188 333.59ZM412.446 330.557C413.093 330.557 413.664 330.43 414.159 330.175C414.654 329.914 415.043 329.563 415.325 329.123C415.607 328.683 415.748 328.184 415.748 327.627V325.946C415.61 326.035 415.421 326.118 415.18 326.193C414.946 326.262 414.682 326.327 414.386 326.389C414.09 326.444 413.794 326.496 413.499 326.544C413.203 326.585 412.935 326.623 412.694 326.657C412.178 326.733 411.728 326.853 411.342 327.018C410.957 327.184 410.658 327.407 410.445 327.689C410.232 327.964 410.125 328.308 410.125 328.721C410.125 329.319 410.342 329.776 410.775 330.093C411.215 330.402 411.772 330.557 412.446 330.557ZM429.731 339.564C428.307 339.564 427.086 339.368 426.068 338.975C425.057 338.59 424.253 338.064 423.654 337.397C423.056 336.73 422.667 335.98 422.488 335.148L426.553 334.601C426.677 334.918 426.873 335.213 427.141 335.488C427.41 335.764 427.764 335.984 428.204 336.149C428.651 336.321 429.194 336.407 429.834 336.407C430.79 336.407 431.577 336.173 432.196 335.705C432.822 335.244 433.135 334.471 433.135 333.384V330.485H432.95C432.757 330.925 432.468 331.341 432.083 331.733C431.698 332.125 431.203 332.445 430.597 332.693C429.992 332.94 429.27 333.064 428.431 333.064C427.241 333.064 426.158 332.789 425.181 332.239C424.211 331.682 423.438 330.832 422.86 329.691C422.289 328.542 422.004 327.091 422.004 325.337C422.004 323.542 422.296 322.042 422.881 320.839C423.465 319.635 424.242 318.734 425.212 318.136C426.189 317.537 427.258 317.238 428.421 317.238C429.308 317.238 430.051 317.39 430.649 317.692C431.247 317.988 431.729 318.359 432.093 318.806C432.465 319.247 432.75 319.68 432.95 320.106H433.115V317.445H437.479V333.446C437.479 334.794 437.148 335.922 436.488 336.83C435.828 337.737 434.913 338.418 433.744 338.872C432.582 339.333 431.244 339.564 429.731 339.564ZM429.824 329.763C430.532 329.763 431.13 329.587 431.619 329.237C432.114 328.879 432.492 328.37 432.754 327.71C433.022 327.043 433.156 326.245 433.156 325.316C433.156 324.388 433.025 323.583 432.764 322.902C432.503 322.214 432.124 321.681 431.629 321.303C431.134 320.925 430.532 320.736 429.824 320.736C429.101 320.736 428.493 320.932 427.998 321.324C427.502 321.709 427.128 322.245 426.873 322.933C426.619 323.621 426.491 324.415 426.491 325.316C426.491 326.231 426.619 327.022 426.873 327.689C427.134 328.349 427.509 328.862 427.998 329.226C428.493 329.584 429.101 329.763 429.824 329.763ZM447.268 333.601C445.638 333.601 444.235 333.27 443.059 332.61C441.89 331.943 440.989 331.001 440.356 329.783C439.723 328.559 439.407 327.111 439.407 325.44C439.407 323.81 439.723 322.379 440.356 321.148C440.989 319.917 441.879 318.958 443.028 318.27C444.183 317.582 445.538 317.238 447.093 317.238C448.138 317.238 449.111 317.407 450.012 317.744C450.92 318.074 451.711 318.573 452.385 319.24C453.066 319.907 453.595 320.746 453.974 321.757C454.352 322.761 454.541 323.937 454.541 325.285V326.492H441.16V323.769H450.404C450.404 323.136 450.267 322.575 449.992 322.087C449.716 321.599 449.335 321.217 448.846 320.942C448.365 320.66 447.804 320.519 447.165 320.519C446.498 320.519 445.906 320.674 445.39 320.983C444.881 321.286 444.482 321.695 444.194 322.211C443.905 322.72 443.757 323.287 443.75 323.913V326.503C443.75 327.287 443.894 327.964 444.183 328.535C444.479 329.106 444.895 329.546 445.432 329.856C445.968 330.165 446.604 330.32 447.34 330.32C447.828 330.32 448.276 330.251 448.681 330.113C449.087 329.976 449.434 329.77 449.723 329.494C450.012 329.219 450.232 328.882 450.384 328.483L454.448 328.752C454.242 329.728 453.819 330.581 453.179 331.31C452.547 332.032 451.728 332.596 450.724 333.002C449.727 333.401 448.575 333.601 447.268 333.601Z" fill="white"/>
<path d="M278.526 297.795H275.918V289.344H278.642C279.461 289.344 280.163 289.513 280.746 289.851C281.329 290.187 281.776 290.67 282.087 291.3C282.398 291.927 282.554 292.678 282.554 293.553C282.554 294.433 282.397 295.191 282.083 295.827C281.77 296.459 281.313 296.946 280.713 297.287C280.113 297.626 279.384 297.795 278.526 297.795ZM276.941 296.887H278.46C279.159 296.887 279.738 296.752 280.197 296.483C280.657 296.213 280.999 295.829 281.225 295.331C281.45 294.833 281.563 294.24 281.563 293.553C281.563 292.87 281.452 292.283 281.229 291.791C281.006 291.295 280.673 290.916 280.23 290.652C279.787 290.385 279.236 290.251 278.576 290.251H276.941V296.887ZM286.796 297.927C286.185 297.927 285.658 297.792 285.215 297.523C284.775 297.25 284.435 296.871 284.196 296.384C283.959 295.894 283.841 295.324 283.841 294.675C283.841 294.026 283.959 293.454 284.196 292.958C284.435 292.461 284.768 292.073 285.195 291.795C285.624 291.514 286.125 291.374 286.697 291.374C287.027 291.374 287.353 291.429 287.675 291.539C287.997 291.649 288.29 291.828 288.554 292.075C288.818 292.32 289.028 292.645 289.185 293.049C289.342 293.454 289.42 293.952 289.42 294.543V294.956H284.534V294.114H288.43C288.43 293.756 288.358 293.437 288.215 293.157C288.075 292.876 287.874 292.654 287.613 292.492C287.354 292.33 287.049 292.249 286.697 292.249C286.309 292.249 285.973 292.345 285.69 292.538C285.409 292.727 285.193 292.975 285.042 293.28C284.891 293.586 284.815 293.913 284.815 294.263V294.824C284.815 295.302 284.898 295.708 285.063 296.041C285.23 296.371 285.463 296.623 285.76 296.796C286.057 296.967 286.402 297.052 286.796 297.052C287.052 297.052 287.283 297.016 287.489 296.945C287.698 296.871 287.878 296.761 288.03 296.615C288.181 296.466 288.298 296.282 288.38 296.062L289.321 296.326C289.222 296.645 289.056 296.926 288.822 297.168C288.588 297.407 288.299 297.594 287.955 297.729C287.612 297.861 287.225 297.927 286.796 297.927ZM291.876 289.344V297.795H290.902V289.344H291.876ZM293.659 297.795V291.456H294.633V297.795H293.659ZM294.155 290.4C293.965 290.4 293.801 290.335 293.664 290.206C293.529 290.077 293.461 289.921 293.461 289.74C293.461 289.558 293.529 289.403 293.664 289.273C293.801 289.144 293.965 289.079 294.155 289.079C294.345 289.079 294.507 289.144 294.642 289.273C294.779 289.403 294.848 289.558 294.848 289.74C294.848 289.921 294.779 290.077 294.642 290.206C294.507 290.335 294.345 290.4 294.155 290.4ZM301.6 291.456L299.256 297.795H298.266L295.922 291.456H296.978L298.728 296.507H298.794L300.544 291.456H301.6ZM305.316 297.927C304.706 297.927 304.179 297.792 303.736 297.523C303.296 297.25 302.956 296.871 302.716 296.384C302.48 295.894 302.362 295.324 302.362 294.675C302.362 294.026 302.48 293.454 302.716 292.958C302.956 292.461 303.289 292.073 303.715 291.795C304.144 291.514 304.645 291.374 305.217 291.374C305.547 291.374 305.873 291.429 306.195 291.539C306.517 291.649 306.81 291.828 307.074 292.075C307.338 292.32 307.549 292.645 307.706 293.049C307.862 293.454 307.941 293.952 307.941 294.543V294.956H303.055V294.114H306.95C306.95 293.756 306.879 293.437 306.736 293.157C306.596 292.876 306.395 292.654 306.133 292.492C305.875 292.33 305.569 292.249 305.217 292.249C304.829 292.249 304.494 292.345 304.21 292.538C303.93 292.727 303.714 292.975 303.562 293.28C303.411 293.586 303.335 293.913 303.335 294.263V294.824C303.335 295.302 303.418 295.708 303.583 296.041C303.751 296.371 303.983 296.623 304.28 296.796C304.578 296.967 304.923 297.052 305.316 297.052C305.572 297.052 305.803 297.016 306.01 296.945C306.219 296.871 306.399 296.761 306.55 296.615C306.701 296.466 306.818 296.282 306.901 296.062L307.842 296.326C307.743 296.645 307.576 296.926 307.342 297.168C307.109 297.407 306.82 297.594 306.476 297.729C306.132 297.861 305.745 297.927 305.316 297.927ZM309.422 297.795V291.456H310.363V292.414H310.429C310.545 292.1 310.754 291.846 311.056 291.65C311.359 291.455 311.7 291.357 312.08 291.357C312.151 291.357 312.241 291.359 312.348 291.361C312.455 291.364 312.537 291.368 312.592 291.374V292.364C312.559 292.356 312.483 292.344 312.365 292.327C312.249 292.308 312.127 292.298 311.997 292.298C311.689 292.298 311.414 292.363 311.172 292.492C310.933 292.619 310.743 292.795 310.603 293.02C310.465 293.243 310.396 293.498 310.396 293.784V297.795H309.422ZM316.211 297.927C315.6 297.927 315.073 297.792 314.63 297.523C314.19 297.25 313.85 296.871 313.611 296.384C313.374 295.894 313.256 295.324 313.256 294.675C313.256 294.026 313.374 293.454 313.611 292.958C313.85 292.461 314.183 292.073 314.61 291.795C315.039 291.514 315.539 291.374 316.112 291.374C316.442 291.374 316.768 291.429 317.09 291.539C317.412 291.649 317.705 291.828 317.969 292.075C318.233 292.32 318.443 292.645 318.6 293.049C318.757 293.454 318.835 293.952 318.835 294.543V294.956H313.949V294.114H317.845C317.845 293.756 317.773 293.437 317.63 293.157C317.49 292.876 317.289 292.654 317.028 292.492C316.769 292.33 316.464 292.249 316.112 292.249C315.724 292.249 315.388 292.345 315.105 292.538C314.824 292.727 314.608 292.975 314.457 293.28C314.306 293.586 314.23 293.913 314.23 294.263V294.824C314.23 295.302 314.312 295.708 314.477 296.041C314.645 296.371 314.878 296.623 315.175 296.796C315.472 296.967 315.817 297.052 316.211 297.052C316.467 297.052 316.698 297.016 316.904 296.945C317.113 296.871 317.293 296.761 317.445 296.615C317.596 296.466 317.713 296.282 317.795 296.062L318.736 296.326C318.637 296.645 318.471 296.926 318.237 297.168C318.003 297.407 317.714 297.594 317.37 297.729C317.026 297.861 316.64 297.927 316.211 297.927ZM322.71 297.927C322.182 297.927 321.716 297.794 321.311 297.527C320.907 297.257 320.59 296.877 320.362 296.388C320.134 295.895 320.02 295.313 320.02 294.642C320.02 293.976 320.134 293.399 320.362 292.909C320.59 292.419 320.908 292.041 321.315 291.774C321.722 291.507 322.193 291.374 322.727 291.374C323.139 291.374 323.465 291.443 323.705 291.58C323.947 291.715 324.131 291.869 324.258 292.042C324.387 292.213 324.487 292.353 324.559 292.463H324.641V289.344H325.615V297.795H324.674V296.821H324.559C324.487 296.937 324.386 297.082 324.254 297.258C324.121 297.432 323.933 297.587 323.688 297.725C323.443 297.86 323.117 297.927 322.71 297.927ZM322.842 297.052C323.233 297.052 323.563 296.95 323.833 296.747C324.102 296.54 324.307 296.256 324.447 295.893C324.588 295.527 324.658 295.104 324.658 294.626C324.658 294.152 324.589 293.738 324.452 293.384C324.314 293.026 324.11 292.748 323.841 292.55C323.571 292.349 323.238 292.249 322.842 292.249C322.43 292.249 322.086 292.355 321.811 292.566C321.538 292.776 321.333 293.06 321.196 293.421C321.061 293.778 320.993 294.18 320.993 294.626C320.993 295.077 321.062 295.487 321.2 295.855C321.34 296.221 321.546 296.513 321.819 296.73C322.094 296.945 322.435 297.052 322.842 297.052Z" fill="#E1F1FF"/>
<path d="M279.135 188.788C279.387 188.909 279.599 189.098 279.748 189.335C279.897 189.571 279.975 189.845 279.975 190.124C279.975 191.765 280.592 192.709 281.365 193.86L281.422 193.943C282.079 194.919 282.941 196.198 282.941 198.031C282.941 199.901 281.998 201.55 280.561 202.528C280.938 202.844 281.272 203.234 281.561 203.7C282.502 205.222 282.941 207.549 282.941 210.89C282.941 214.274 282.486 218.338 281.745 221.584C281.377 223.197 280.92 224.686 280.377 225.803C280.106 226.358 279.776 226.9 279.369 227.325C278.961 227.742 278.335 228.186 277.504 228.186C276.674 228.186 276.048 227.742 275.642 227.325C275.23 226.872 274.89 226.359 274.634 225.803C274.089 224.684 273.632 223.197 273.264 221.582C272.493 218.069 272.092 214.485 272.068 210.888C272.068 207.547 272.507 205.222 273.448 203.7C273.717 203.258 274.054 202.863 274.448 202.528C273.715 202.03 273.114 201.359 272.699 200.575C272.284 199.792 272.068 198.918 272.068 198.031C272.068 197.303 272.068 196.052 272.825 194.437C273.567 192.856 274.976 191.039 277.566 188.965C277.784 188.791 278.047 188.682 278.325 188.65C278.603 188.619 278.884 188.666 279.135 188.788ZM275.034 198.029C275.034 198.684 275.294 199.315 275.757 199.778C276.221 200.242 276.849 200.502 277.504 200.502C278.16 200.502 278.788 200.242 279.252 199.778C279.715 199.315 279.975 198.686 279.975 198.031C279.975 197.163 279.61 196.562 278.904 195.513L278.88 195.477C278.428 194.805 277.892 194.008 277.512 192.986C276.439 194.077 275.846 194.983 275.512 195.694C275.034 196.714 275.034 197.442 275.034 198.029ZM275.97 205.258C275.48 206.053 275.034 207.681 275.034 210.89C275.034 214.055 275.464 217.897 276.154 220.924C276.502 222.446 276.898 223.681 277.299 224.504C277.372 224.656 277.441 224.782 277.504 224.889C277.568 224.782 277.637 224.656 277.71 224.504C278.111 223.681 278.507 222.444 278.855 220.924C279.546 217.899 279.975 214.057 279.975 210.89C279.975 207.681 279.529 206.053 279.038 205.258C278.891 204.99 278.667 204.772 278.396 204.631C278.115 204.509 277.81 204.452 277.504 204.465C277.109 204.465 276.826 204.527 276.613 204.631C276.342 204.772 276.118 204.99 275.97 205.258ZM287.882 214.175C286.835 213.999 285.817 213.683 284.854 213.234C284.912 212.113 284.928 210.99 284.904 209.868C285.795 210.467 286.801 210.908 287.882 211.153V205.444C287.882 204.657 288.195 203.903 288.751 203.347C289.307 202.791 290.061 202.479 290.848 202.479H298.755C298.755 200.82 298.291 199.193 297.415 197.784C296.539 196.375 295.287 195.239 293.799 194.504C292.312 193.769 290.649 193.465 288.997 193.626C287.346 193.786 285.773 194.406 284.455 195.414C284.059 194.321 283.496 193.484 283.105 192.903L283.026 192.785C284.802 191.533 286.887 190.793 289.055 190.645C291.223 190.498 293.39 190.949 295.319 191.949C297.248 192.95 298.865 194.461 299.994 196.318C301.123 198.174 301.72 200.306 301.72 202.479H308.639C309.425 202.479 310.179 202.791 310.735 203.347C311.291 203.903 311.604 204.657 311.604 205.444V223.235C311.604 224.021 311.291 224.775 310.735 225.331C310.179 225.887 309.425 226.2 308.639 226.2H290.848C290.061 226.2 289.307 225.887 288.751 225.331C288.195 224.775 287.882 224.021 287.882 223.235V214.175ZM290.848 214.3V223.235H308.639V205.444H301.344C300.728 207.826 299.387 209.958 297.507 211.544C295.626 213.131 293.299 214.094 290.848 214.3ZM298.249 205.444H290.848V211.321C292.509 211.134 294.083 210.485 295.392 209.445C296.701 208.406 297.691 207.019 298.249 205.444Z" fill="#07D9D9"/>
<g opacity="0.9">
<path d="M549.189 368.111C550.024 368.111 550.824 368.443 551.414 369.033C552.005 369.623 552.336 370.424 552.336 371.259V382.395C552.336 383.23 552.005 384.03 551.414 384.621C550.824 385.211 550.024 385.542 549.189 385.542H538.053C537.218 385.542 536.417 385.211 535.827 384.621C535.237 384.03 534.905 383.23 534.905 382.395V371.259C534.905 370.424 535.237 369.623 535.827 369.033C536.417 368.443 537.218 368.111 538.053 368.111H549.189ZM550.884 373.437H536.358V382.395C536.358 383.331 537.117 384.09 538.053 384.09H549.189C549.638 384.09 550.07 383.911 550.387 383.593C550.705 383.276 550.884 382.845 550.884 382.395V373.437ZM539.505 379.248C539.826 379.248 540.134 379.375 540.361 379.602C540.588 379.829 540.716 380.137 540.716 380.458C540.716 380.779 540.588 381.087 540.361 381.314C540.134 381.541 539.826 381.669 539.505 381.669C539.184 381.669 538.876 381.541 538.649 381.314C538.422 381.087 538.295 380.779 538.295 380.458C538.295 380.137 538.422 379.829 538.649 379.602C538.876 379.375 539.184 379.248 539.505 379.248ZM543.621 379.248C543.942 379.248 544.25 379.375 544.477 379.602C544.704 379.829 544.831 380.137 544.831 380.458C544.831 380.779 544.704 381.087 544.477 381.314C544.25 381.541 543.942 381.669 543.621 381.669C543.3 381.669 542.992 381.541 542.765 381.314C542.538 381.087 542.41 380.779 542.41 380.458C542.41 380.137 542.538 379.829 542.765 379.602C542.992 379.375 543.3 379.248 543.621 379.248ZM539.505 375.374C539.826 375.374 540.134 375.502 540.361 375.729C540.588 375.956 540.716 376.264 540.716 376.585C540.716 376.906 540.588 377.214 540.361 377.441C540.134 377.668 539.826 377.795 539.505 377.795C539.184 377.795 538.876 377.668 538.649 377.441C538.422 377.214 538.295 376.906 538.295 376.585C538.295 376.264 538.422 375.956 538.649 375.729C538.876 375.502 539.184 375.374 539.505 375.374ZM543.621 375.374C543.942 375.374 544.25 375.502 544.477 375.729C544.704 375.956 544.831 376.264 544.831 376.585C544.831 376.906 544.704 377.214 544.477 377.441C544.25 377.668 543.942 377.795 543.621 377.795C543.3 377.795 542.992 377.668 542.765 377.441C542.538 377.214 542.41 376.906 542.41 376.585C542.41 376.264 542.538 375.956 542.765 375.729C542.992 375.502 543.3 375.374 543.621 375.374ZM547.736 375.374C548.057 375.374 548.365 375.502 548.592 375.729C548.819 375.956 548.947 376.264 548.947 376.585C548.947 376.906 548.819 377.214 548.592 377.441C548.365 377.668 548.057 377.795 547.736 377.795C547.415 377.795 547.108 377.668 546.88 377.441C546.653 377.214 546.526 376.906 546.526 376.585C546.526 376.264 546.653 375.956 546.88 375.729C547.108 375.502 547.415 375.374 547.736 375.374ZM549.189 369.564H538.053C537.603 369.564 537.172 369.742 536.854 370.06C536.536 370.378 536.358 370.809 536.358 371.259V371.985H550.884V371.259C550.884 370.809 550.705 370.378 550.387 370.06C550.07 369.742 549.638 369.564 549.189 369.564Z" fill="url(#paint3_linear_1077_11047)"/>
</g>
<path d="M570.851 378.79C570.851 379.701 570.681 380.48 570.339 381.13C570.001 381.776 569.539 382.271 568.953 382.615C568.37 382.959 567.708 383.131 566.968 383.131C566.228 383.131 565.565 382.959 564.979 382.615C564.396 382.269 563.934 381.772 563.592 381.126C563.254 380.476 563.085 379.698 563.085 378.79C563.085 377.879 563.254 377.101 563.592 376.454C563.934 375.805 564.396 375.308 564.979 374.965C565.565 374.621 566.228 374.449 566.968 374.449C567.708 374.449 568.37 374.621 568.953 374.965C569.539 375.308 570.001 375.805 570.339 376.454C570.681 377.101 570.851 377.879 570.851 378.79ZM569.312 378.79C569.312 378.149 569.212 377.608 569.011 377.168C568.813 376.725 568.538 376.391 568.185 376.165C567.833 375.937 567.427 375.823 566.968 375.823C566.509 375.823 566.103 375.937 565.751 376.165C565.399 376.391 565.122 376.725 564.921 377.168C564.723 377.608 564.624 378.149 564.624 378.79C564.624 379.431 564.723 379.973 564.921 380.416C565.122 380.856 565.399 381.19 565.751 381.419C566.103 381.644 566.509 381.757 566.968 381.757C567.427 381.757 567.833 381.644 568.185 381.419C568.538 381.19 568.813 380.856 569.011 380.416C569.212 379.973 569.312 379.431 569.312 378.79ZM573.726 379.302V383.016H572.233V376.677H573.66V377.754H573.735C573.881 377.399 574.113 377.117 574.432 376.908C574.754 376.699 575.152 376.595 575.625 376.595C576.062 376.595 576.443 376.688 576.768 376.875C577.095 377.062 577.348 377.333 577.527 377.688C577.709 378.043 577.798 378.474 577.795 378.98V383.016H576.301V379.211C576.301 378.787 576.191 378.456 575.971 378.216C575.754 377.977 575.453 377.857 575.068 377.857C574.806 377.857 574.574 377.915 574.37 378.031C574.169 378.143 574.011 378.307 573.896 378.522C573.783 378.736 573.726 378.996 573.726 379.302ZM581.891 375.848V374.564H588.634V375.848H586.022V383.016H584.503V375.848H581.891ZM589.868 383.016V376.677H591.362V383.016H589.868ZM590.619 375.777C590.382 375.777 590.179 375.699 590.008 375.542C589.838 375.383 589.752 375.191 589.752 374.969C589.752 374.743 589.838 374.552 590.008 374.395C590.179 374.235 590.382 374.156 590.619 374.156C590.858 374.156 591.062 374.235 591.23 374.395C591.4 374.552 591.486 374.743 591.486 374.969C591.486 375.191 591.4 375.383 591.23 375.542C591.062 375.699 590.858 375.777 590.619 375.777ZM592.898 383.016V376.677H594.326V377.754H594.4C594.532 377.391 594.751 377.108 595.056 376.904C595.361 376.698 595.726 376.595 596.15 376.595C596.579 376.595 596.941 376.699 597.235 376.908C597.532 377.115 597.741 377.396 597.862 377.754H597.928C598.069 377.402 598.305 377.121 598.638 376.912C598.974 376.7 599.371 376.595 599.831 376.595C600.414 376.595 600.89 376.779 601.258 377.148C601.627 377.516 601.811 378.054 601.811 378.761V383.016H600.313V378.992C600.313 378.599 600.209 378.311 600 378.13C599.791 377.945 599.535 377.853 599.232 377.853C598.872 377.853 598.59 377.966 598.386 378.192C598.186 378.414 598.085 378.705 598.085 379.062V383.016H596.62V378.93C596.62 378.603 596.521 378.341 596.323 378.146C596.128 377.951 595.872 377.853 595.555 377.853C595.341 377.853 595.146 377.908 594.969 378.018C594.793 378.126 594.653 378.278 594.549 378.476C594.444 378.672 594.392 378.9 594.392 379.161V383.016H592.898ZM606.133 383.139C605.498 383.139 604.949 383.007 604.487 382.743C604.027 382.476 603.674 382.1 603.426 381.613C603.178 381.123 603.055 380.547 603.055 379.883C603.055 379.231 603.178 378.659 603.426 378.167C603.676 377.672 604.026 377.286 604.474 377.011C604.923 376.733 605.449 376.595 606.055 376.595C606.445 376.595 606.814 376.658 607.161 376.784C607.51 376.908 607.818 377.101 608.085 377.362C608.355 377.623 608.566 377.956 608.721 378.361C608.875 378.762 608.952 379.241 608.952 379.797V380.255H603.756V379.248H607.52C607.517 378.962 607.455 378.707 607.334 378.485C607.213 378.259 607.044 378.082 606.826 377.952C606.612 377.823 606.361 377.758 606.075 377.758C605.77 377.758 605.502 377.833 605.271 377.981C605.04 378.127 604.859 378.319 604.73 378.559C604.603 378.795 604.539 379.055 604.536 379.339V380.218C604.536 380.586 604.603 380.903 604.738 381.167C604.873 381.428 605.062 381.629 605.304 381.769C605.546 381.907 605.829 381.976 606.154 381.976C606.371 381.976 606.568 381.945 606.744 381.885C606.92 381.822 607.073 381.729 607.202 381.608C607.331 381.487 607.429 381.337 607.495 381.159L608.89 381.315C608.802 381.684 608.634 382.006 608.386 382.281C608.141 382.553 607.828 382.765 607.445 382.917C607.063 383.065 606.626 383.139 606.133 383.139Z" fill="url(#paint4_radial_1077_11047)"/>
<g clip-path="url(#clip5_1077_11047)">
<rect x="274.895" y="364.236" width="44.5459" height="25.1781" rx="8.71551" fill="#18E0E0" fill-opacity="0.1"/>
<path d="M287.113 379.508V378.291L290.699 372.625H291.714V374.358H291.095L288.681 378.183V378.249H293.687V379.508H287.113ZM291.145 381.076V379.137L291.161 378.592V372.625H292.606V381.076H291.145ZM298.009 381.192C297.396 381.192 296.851 381.089 296.375 380.882C295.902 380.676 295.531 380.394 295.261 380.036C294.994 379.676 294.862 379.267 294.865 378.811C294.862 378.456 294.939 378.13 295.096 377.833C295.253 377.535 295.465 377.288 295.732 377.09C296.001 376.889 296.301 376.761 296.631 376.706V376.648C296.196 376.552 295.844 376.331 295.575 375.984C295.308 375.634 295.176 375.231 295.179 374.775C295.176 374.34 295.297 373.952 295.542 373.611C295.787 373.27 296.122 373.002 296.549 372.806C296.975 372.608 297.462 372.509 298.009 372.509C298.551 372.509 299.034 372.608 299.458 372.806C299.884 373.002 300.22 373.27 300.465 373.611C300.712 373.952 300.836 374.34 300.836 374.775C300.836 375.231 300.7 375.634 300.428 375.984C300.158 376.331 299.81 376.552 299.384 376.648V376.706C299.714 376.761 300.011 376.889 300.275 377.09C300.542 377.288 300.754 377.535 300.911 377.833C301.07 378.13 301.15 378.456 301.15 378.811C301.15 379.267 301.015 379.676 300.745 380.036C300.476 380.394 300.104 380.676 299.631 380.882C299.161 381.089 298.62 381.192 298.009 381.192ZM298.009 380.011C298.326 380.011 298.601 379.958 298.835 379.851C299.069 379.741 299.25 379.586 299.38 379.388C299.509 379.19 299.575 378.962 299.578 378.703C299.575 378.434 299.505 378.196 299.367 377.989C299.232 377.78 299.047 377.617 298.81 377.498C298.576 377.38 298.309 377.321 298.009 377.321C297.707 377.321 297.437 377.38 297.201 377.498C296.964 377.617 296.777 377.78 296.639 377.989C296.505 378.196 296.439 378.434 296.441 378.703C296.439 378.962 296.502 379.19 296.631 379.388C296.76 379.584 296.942 379.736 297.176 379.846C297.412 379.956 297.69 380.011 298.009 380.011ZM298.009 376.161C298.268 376.161 298.496 376.109 298.694 376.005C298.895 375.9 299.054 375.754 299.169 375.567C299.285 375.38 299.344 375.164 299.346 374.919C299.344 374.677 299.286 374.465 299.173 374.284C299.06 374.099 298.904 373.958 298.703 373.859C298.502 373.757 298.271 373.706 298.009 373.706C297.743 373.706 297.507 373.757 297.304 373.859C297.103 373.958 296.946 374.099 296.833 374.284C296.723 374.465 296.67 374.677 296.672 374.919C296.67 375.164 296.725 375.38 296.837 375.567C296.953 375.751 297.111 375.897 297.312 376.005C297.516 376.109 297.748 376.161 298.009 376.161ZM304.017 377.362V381.076H302.523V372.625H303.984V375.815H304.058C304.207 375.457 304.436 375.175 304.747 374.969C305.061 374.76 305.46 374.655 305.944 374.655C306.384 374.655 306.768 374.747 307.095 374.932C307.423 375.116 307.676 375.386 307.855 375.74C308.036 376.095 308.127 376.529 308.127 377.04V381.076H306.633V377.271C306.633 376.845 306.523 376.513 306.303 376.277C306.086 376.038 305.78 375.918 305.387 375.918C305.123 375.918 304.886 375.976 304.677 376.091C304.471 376.204 304.308 376.368 304.19 376.582C304.075 376.797 304.017 377.057 304.017 377.362Z" fill="url(#paint5_linear_1077_11047)"/>
</g>
</g>
</g>
<defs>
<filter id="filter0_i_1077_11047" x="0" y="0" width="502" height="348" filterUnits="userSpaceOnUse" color-interpolation-filters="sRGB">
<feFlood flood-opacity="0" result="BackgroundImageFix"/>
<feBlend mode="normal" in="SourceGraphic" in2="BackgroundImageFix" result="shape"/>
<feColorMatrix in="SourceAlpha" type="matrix" values="0 0 0 0 0 0 0 0 0 0 0 0 0 0 0 0 0 0 127 0" result="hardAlpha"/>
<feOffset dy="2"/>
<feGaussianBlur stdDeviation="0.5"/>
<feComposite in2="hardAlpha" operator="arithmetic" k2="-1" k3="1"/>
<feColorMatrix type="matrix" values="0 0 0 0 0.811765 0 0 0 0 0.905882 0 0 0 0 1 0 0 0 0.2 0"/>
<feBlend mode="normal" in2="shape" result="effect1_innerShadow_1077_11047"/>
</filter>
<filter id="filter1_di_1077_11047" x="-15.01" y="-2.42097" width="537.02" height="94.0201" filterUnits="userSpaceOnUse" color-interpolation-filters="sRGB">
<feFlood flood-opacity="0" result="BackgroundImageFix"/>
<feColorMatrix in="SourceAlpha" type="matrix" values="0 0 0 0 0 0 0 0 0 0 0 0 0 0 0 0 0 0 127 0" result="hardAlpha"/>
<feOffset dy="12.5891"/>
<feGaussianBlur stdDeviation="7.50502"/>
<feComposite in2="hardAlpha" operator="out"/>
<feColorMatrix type="matrix" values="0 0 0 0 0.0697679 0 0 0 0 0.0694429 0 0 0 0 0.0694429 0 0 0 0.85 0"/>
<feBlend mode="normal" in2="BackgroundImageFix" result="effect1_dropShadow_1077_11047"/>
<feBlend mode="normal" in="SourceGraphic" in2="effect1_dropShadow_1077_11047" result="shape"/>
<feColorMatrix in="SourceAlpha" type="matrix" values="0 0 0 0 0 0 0 0 0 0 0 0 0 0 0 0 0 0 127 0" result="hardAlpha"/>
<feOffset dy="1.93678"/>
<feGaussianBlur stdDeviation="0.484195"/>
<feComposite in2="hardAlpha" operator="arithmetic" k2="-1" k3="1"/>
<feColorMatrix type="matrix" values="0 0 0 0 0.811765 0 0 0 0 0.905882 0 0 0 0 1 0 0 0 0.2 0"/>
<feBlend mode="normal" in2="shape" result="effect2_innerShadow_1077_11047"/>
</filter>
<filter id="filter2_di_1077_11047" x="216.597" y="137.439" width="422.565" height="294.565" filterUnits="userSpaceOnUse" color-interpolation-filters="sRGB">
<feFlood flood-opacity="0" result="BackgroundImageFix"/>
<feColorMatrix in="SourceAlpha" type="matrix" values="0 0 0 0 0 0 0 0 0 0 0 0 0 0 0 0 0 0 127 0" result="hardAlpha"/>
<feOffset dx="-11.6207" dy="-6.77873"/>
<feGaussianBlur stdDeviation="6.39137"/>
<feComposite in2="hardAlpha" operator="out"/>
<feColorMatrix type="matrix" values="0 0 0 0 0 0 0 0 0 0 0 0 0 0 0 0 0 0 0.65 0"/>
<feBlend mode="normal" in2="BackgroundImageFix" result="effect1_dropShadow_1077_11047"/>
<feBlend mode="normal" in="SourceGraphic" in2="effect1_dropShadow_1077_11047" result="shape"/>
<feColorMatrix in="SourceAlpha" type="matrix" values="0 0 0 0 0 0 0 0 0 0 0 0 0 0 0 0 0 0 127 0" result="hardAlpha"/>
<feOffset dy="1.93678"/>
<feGaussianBlur stdDeviation="0.484195"/>
<feComposite in2="hardAlpha" operator="arithmetic" k2="-1" k3="1"/>
<feColorMatrix type="matrix" values="0 0 0 0 0.811765 0 0 0 0 0.905882 0 0 0 0 1 0 0 0 0.2 0"/>
<feBlend mode="normal" in2="shape" result="effect2_innerShadow_1077_11047"/>
</filter>
<filter id="filter3_di_1077_11047" x="203.99" y="154.579" width="449.293" height="133.637" filterUnits="userSpaceOnUse" color-interpolation-filters="sRGB">
<feFlood flood-opacity="0" result="BackgroundImageFix"/>
<feColorMatrix in="SourceAlpha" type="matrix" values="0 0 0 0 0 0 0 0 0 0 0 0 0 0 0 0 0 0 127 0" result="hardAlpha"/>
<feOffset dy="12.5891"/>
<feGaussianBlur stdDeviation="7.50502"/>
<feComposite in2="hardAlpha" operator="out"/>
<feColorMatrix type="matrix" values="0 0 0 0 0.0697679 0 0 0 0 0.0694429 0 0 0 0 0.0694429 0 0 0 0.85 0"/>
<feBlend mode="normal" in2="BackgroundImageFix" result="effect1_dropShadow_1077_11047"/>
<feBlend mode="normal" in="SourceGraphic" in2="effect1_dropShadow_1077_11047" result="shape"/>
<feColorMatrix in="SourceAlpha" type="matrix" values="0 0 0 0 0 0 0 0 0 0 0 0 0 0 0 0 0 0 127 0" result="hardAlpha"/>
<feOffset dy="1.93678"/>
<feGaussianBlur stdDeviation="0.484195"/>
<feComposite in2="hardAlpha" operator="arithmetic" k2="-1" k3="1"/>
<feColorMatrix type="matrix" values="0 0 0 0 0.811765 0 0 0 0 0.905882 0 0 0 0 1 0 0 0 0.2 0"/>
<feBlend mode="normal" in2="shape" result="effect2_innerShadow_1077_11047"/>
</filter>
<radialGradient id="paint0_radial_1077_11047" cx="0" cy="0" r="1" gradientUnits="userSpaceOnUse" gradientTransform="translate(565.948 28.107) scale(302 173.5)">
<stop stop-color="#B8C7D9" stop-opacity="0.5"/>
<stop offset="1" stop-color="#B8C7D9" stop-opacity="0"/>
</radialGradient>
<linearGradient id="paint1_linear_1077_11047" x1="42" y1="95" x2="42" y2="158" gradientUnits="userSpaceOnUse">
<stop stop-color="#89FFFF"/>
<stop offset="1" stop-color="#00D7D7"/>
</linearGradient>
<radialGradient id="paint2_radial_1077_11047" cx="0" cy="0" r="1" gradientUnits="userSpaceOnUse" gradientTransform="translate(392.603 21.789) scale(209.5 134.5)">
<stop stop-color="#B8C7D9" stop-opacity="0.5"/>
<stop offset="1" stop-color="#B8C7D9" stop-opacity="0"/>
</radialGradient>
<linearGradient id="paint3_linear_1077_11047" x1="543.621" y1="368.111" x2="543.621" y2="385.542" gradientUnits="userSpaceOnUse">
<stop stop-color="#89FFFF"/>
<stop offset="1" stop-color="#00D7D7"/>
</linearGradient>
<radialGradient id="paint4_radial_1077_11047" cx="0" cy="0" r="1" gradientUnits="userSpaceOnUse" gradientTransform="translate(585.966 379.016) scale(46.53 13.76)">
<stop offset="0.283874" stop-color="#D5DBE6"/>
<stop offset="1" stop-color="#04070D"/>
</radialGradient>
<linearGradient id="paint5_linear_1077_11047" x1="304.914" y1="369.076" x2="304.914" y2="385.076" gradientUnits="userSpaceOnUse">
<stop stop-color="#89FFFF"/>
<stop offset="1" stop-color="#00D7D7"/>
</linearGradient>
<clipPath id="clip0_1077_11047">
<rect width="502" height="347" rx="20" fill="white"/>
</clipPath>
<clipPath id="clip1_1077_11047">
<rect width="604" height="347" fill="white" transform="translate(-102)"/>
</clipPath>
<clipPath id="clip2_1077_11047">
<rect x="241" y="157" width="397" height="269" rx="19.3678" fill="white"/>
</clipPath>
<clipPath id="clip3_1077_11047">
<rect width="419" height="269" fill="white" transform="translate(219 157)"/>
</clipPath>
<clipPath id="clip4_1077_11047">
<rect width="23.2413" height="23.2413" fill="white" transform="translate(573.118 198.643)"/>
</clipPath>
<clipPath id="clip5_1077_11047">
<rect x="274.895" y="364.236" width="44.5459" height="25.1781" rx="8.71551" fill="white"/>
</clipPath>
</defs>
</svg>
