<svg width="638" height="426" viewBox="0 0 638 426" fill="none" xmlns="http://www.w3.org/2000/svg">
<g filter="url(#filter0_i_616_2568)">
<g clip-path="url(#clip0_616_2568)">
<rect width="604" height="347" rx="20" fill="#080808"/>
<g opacity="0.1">
<rect width="604" height="347" fill="url(#paint0_radial_616_2568)"/>
</g>
<rect x="0.5" y="0.5" width="603" height="346" rx="19.5" stroke="#D8E7F2" stroke-opacity="0.07"/>
<path d="M33.2686 57H27.8417V40.2364H33.4405C35.083 40.2364 36.4936 40.572 37.6723 41.2432C38.851 41.9089 39.7541 42.8666 40.3817 44.1162C41.0147 45.3604 41.3312 46.8529 41.3312 48.5936C41.3312 50.3398 41.012 51.8405 40.3735 53.0956C39.7405 54.3507 38.8237 55.3165 37.6232 55.9932C36.4227 56.6644 34.9712 57 33.2686 57ZM30.371 54.79H33.1295C34.4064 54.79 35.4677 54.5498 36.3136 54.0696C37.1594 53.584 37.7924 52.8828 38.2126 51.966C38.6328 51.0438 38.8428 49.9197 38.8428 48.5936C38.8428 47.2785 38.6328 46.1626 38.2126 45.2458C37.7978 44.329 37.1785 43.6333 36.3545 43.1585C35.5305 42.6838 34.5073 42.4464 33.285 42.4464H30.371V54.79ZM47.438 57.2783C46.6413 57.2783 45.921 57.131 45.2771 56.8363C44.6332 56.5362 44.1229 56.1023 43.7464 55.5348C43.3753 54.9673 43.1898 54.2715 43.1898 53.4475C43.1898 52.7382 43.3262 52.1543 43.5991 51.6959C43.8719 51.2375 44.2403 50.8746 44.7041 50.6072C45.1679 50.3398 45.6863 50.1379 46.2593 50.0015C46.8323 49.8651 47.4162 49.7614 48.011 49.6905C48.764 49.6032 49.3752 49.5322 49.8445 49.4776C50.3138 49.4176 50.6549 49.3221 50.8677 49.1912C51.0805 49.0602 51.1869 48.8474 51.1869 48.5527V48.4954C51.1869 47.7805 50.985 47.2267 50.5812 46.8338C50.1828 46.4409 49.588 46.2444 48.7968 46.2444C47.9728 46.2444 47.3234 46.4272 46.8487 46.7928C46.3794 47.153 46.0547 47.5541 45.8746 47.9961L43.5745 47.4722C43.8474 46.7083 44.2457 46.0916 44.7696 45.6223C45.2989 45.1476 45.9073 44.8038 46.5949 44.591C47.2825 44.3727 48.0055 44.2636 48.764 44.2636C49.2661 44.2636 49.7981 44.3236 50.3602 44.4436C50.9277 44.5582 51.457 44.7711 51.9481 45.0821C52.4447 45.3931 52.8513 45.8379 53.1678 46.4163C53.4843 46.9893 53.6425 47.7342 53.6425 48.6509V57H51.2524V55.2811H51.1542C50.9959 55.5976 50.7585 55.9086 50.442 56.2142C50.1255 56.5198 49.719 56.7735 49.2224 56.9754C48.7258 57.1773 48.131 57.2783 47.438 57.2783ZM47.9701 55.3138C48.6467 55.3138 49.2251 55.1801 49.7054 54.9127C50.191 54.6453 50.5594 54.2961 50.8104 53.865C51.0669 53.4285 51.1951 52.9619 51.1951 52.4653V50.8446C51.1078 50.9319 50.9386 51.0138 50.6876 51.0902C50.442 51.1611 50.161 51.2239 49.8445 51.2784C49.528 51.3275 49.2197 51.3739 48.9196 51.4176C48.6194 51.4558 48.3684 51.4885 48.1665 51.5158C47.6918 51.5758 47.2579 51.6768 46.865 51.8187C46.4776 51.9605 46.1665 52.1652 45.9319 52.4326C45.7027 52.6945 45.5881 53.0437 45.5881 53.4803C45.5881 54.086 45.8118 54.5444 46.2593 54.8554C46.7068 55.161 47.277 55.3138 47.9701 55.3138ZM56.4015 57V44.4273H58.8489V57H56.4015ZM57.6375 42.4873C57.2119 42.4873 56.8462 42.3455 56.5407 42.0617C56.2405 41.7725 56.0905 41.4287 56.0905 41.0303C56.0905 40.6265 56.2405 40.2827 56.5407 39.999C56.8462 39.7098 57.2119 39.5652 57.6375 39.5652C58.0631 39.5652 58.426 39.7098 58.7261 39.999C59.0317 40.2827 59.1845 40.6265 59.1845 41.0303C59.1845 41.4287 59.0317 41.7725 58.7261 42.0617C58.426 42.3455 58.0631 42.4873 57.6375 42.4873ZM64.0881 40.2364V57H61.6407V40.2364H64.0881ZM68.4269 61.7148C68.0612 61.7148 67.7284 61.6848 67.4282 61.6247C67.1281 61.5702 66.9044 61.5101 66.757 61.4447L67.3464 59.4392C67.7939 59.5593 68.1922 59.6111 68.5414 59.5948C68.8907 59.5784 69.199 59.4474 69.4664 59.2019C69.7392 58.9563 69.9793 58.5552 70.1867 57.9986L70.4896 57.1637L65.8894 44.4273H68.5087L71.6928 54.1842H71.8238L75.0079 44.4273H77.6354L72.4541 58.678C72.2139 59.3328 71.9084 59.8867 71.5373 60.3396C71.1662 60.798 70.7242 61.1418 70.2113 61.371C69.6983 61.6002 69.1035 61.7148 68.4269 61.7148ZM99.1537 45.6878H96.5999C96.5017 45.1421 96.3189 44.6619 96.0515 44.2472C95.7841 43.8325 95.4567 43.4805 95.0692 43.1913C94.6818 42.9021 94.248 42.6838 93.7678 42.5365C93.293 42.3891 92.7882 42.3154 92.2535 42.3154C91.2876 42.3154 90.4227 42.5583 89.6587 43.0439C88.9002 43.5296 88.2999 44.2417 87.8579 45.1803C87.4214 46.1189 87.2031 47.2649 87.2031 48.6182C87.2031 49.9824 87.4214 51.1338 87.8579 52.0724C88.2999 53.011 88.9029 53.7204 89.6669 54.2006C90.4309 54.6808 91.2903 54.9209 92.2453 54.9209C92.7746 54.9209 93.2766 54.85 93.7514 54.7081C94.2316 54.5608 94.6654 54.3452 95.0529 54.0615C95.4403 53.7777 95.7677 53.4312 96.0351 53.0219C96.3079 52.6072 96.4962 52.1324 96.5999 51.5977L99.1537 51.6058C99.0173 52.4298 98.7526 53.1883 98.3597 53.8814C97.9723 54.5689 97.473 55.1637 96.8618 55.6658C96.2561 56.1624 95.5631 56.5471 94.7827 56.8199C94.0024 57.0928 93.1511 57.2292 92.2289 57.2292C90.7774 57.2292 89.4841 56.8854 88.349 56.1978C87.214 55.5048 86.3191 54.5144 85.6642 53.2265C85.0149 51.9387 84.6902 50.4026 84.6902 48.6182C84.6902 46.8283 85.0176 45.2922 85.6724 44.0098C86.3273 42.722 87.2222 41.7343 88.3572 41.0467C89.4923 40.3537 90.7828 40.0072 92.2289 40.0072C93.1184 40.0072 93.9478 40.1354 94.7173 40.3919C95.4921 40.6429 96.1879 41.014 96.8045 41.5051C97.4212 41.9908 97.9314 42.5856 98.3352 43.2895C98.739 43.988 99.0118 44.7874 99.1537 45.6878ZM105.142 57.2783C104.345 57.2783 103.625 57.131 102.981 56.8363C102.337 56.5362 101.827 56.1023 101.45 55.5348C101.079 54.9673 100.894 54.2715 100.894 53.4475C100.894 52.7382 101.03 52.1543 101.303 51.6959C101.576 51.2375 101.944 50.8746 102.408 50.6072C102.872 50.3398 103.39 50.1379 103.963 50.0015C104.536 49.8651 105.12 49.7614 105.715 49.6905C106.468 49.6032 107.079 49.5322 107.548 49.4776C108.018 49.4176 108.359 49.3221 108.572 49.1912C108.784 49.0602 108.891 48.8474 108.891 48.5527V48.4954C108.891 47.7805 108.689 47.2267 108.285 46.8338C107.887 46.4409 107.292 46.2444 106.501 46.2444C105.677 46.2444 105.027 46.4272 104.553 46.7928C104.083 47.153 103.759 47.5541 103.578 47.9961L101.278 47.4722C101.551 46.7083 101.95 46.0916 102.473 45.6223C103.003 45.1476 103.611 44.8038 104.299 44.591C104.986 44.3727 105.709 44.2636 106.468 44.2636C106.97 44.2636 107.502 44.3236 108.064 44.4436C108.632 44.5582 109.161 44.7711 109.652 45.0821C110.149 45.3931 110.555 45.8379 110.872 46.4163C111.188 46.9893 111.346 47.7342 111.346 48.6509V57H108.956V55.2811H108.858C108.7 55.5976 108.462 55.9086 108.146 56.2142C107.829 56.5198 107.423 56.7735 106.926 56.9754C106.43 57.1773 105.835 57.2783 105.142 57.2783ZM105.674 55.3138C106.351 55.3138 106.929 55.1801 107.409 54.9127C107.895 54.6453 108.263 54.2961 108.514 53.865C108.771 53.4285 108.899 52.9619 108.899 52.4653V50.8446C108.812 50.9319 108.642 51.0138 108.391 51.0902C108.146 51.1611 107.865 51.2239 107.548 51.2784C107.232 51.3275 106.924 51.3739 106.623 51.4176C106.323 51.4558 106.072 51.4885 105.87 51.5158C105.396 51.5758 104.962 51.6768 104.569 51.8187C104.181 51.9605 103.87 52.1652 103.636 52.4326C103.407 52.6945 103.292 53.0437 103.292 53.4803C103.292 54.086 103.516 54.5444 103.963 54.8554C104.411 55.161 104.981 55.3138 105.674 55.3138ZM123.527 47.4968L121.308 47.8897C121.216 47.6059 121.068 47.3358 120.866 47.0793C120.67 46.8229 120.403 46.6128 120.064 46.4491C119.726 46.2854 119.303 46.2035 118.796 46.2035C118.103 46.2035 117.524 46.359 117.06 46.6701C116.596 46.9757 116.365 47.3713 116.365 47.8569C116.365 48.2771 116.52 48.6155 116.831 48.8719C117.142 49.1284 117.644 49.3385 118.337 49.5022L120.334 49.9606C121.491 50.228 122.353 50.64 122.921 51.1966C123.489 51.7532 123.772 52.4762 123.772 53.3657C123.772 54.1188 123.554 54.79 123.117 55.3793C122.686 55.9632 122.083 56.4216 121.308 56.7544C120.539 57.0873 119.647 57.2537 118.632 57.2537C117.224 57.2537 116.075 56.9536 115.186 56.3534C114.296 55.7476 113.751 54.8882 113.549 53.775L115.914 53.4148C116.062 54.0314 116.365 54.498 116.823 54.8145C117.281 55.1256 117.879 55.2811 118.615 55.2811C119.418 55.2811 120.059 55.1146 120.539 54.7818C121.019 54.4434 121.259 54.0314 121.259 53.5458C121.259 53.1529 121.112 52.8227 120.817 52.5553C120.528 52.288 120.083 52.086 119.483 51.9496L117.355 51.4831C116.182 51.2157 115.314 50.79 114.752 50.2061C114.195 49.6223 113.917 48.8828 113.917 47.9879C113.917 47.2458 114.124 46.5964 114.539 46.0398C114.954 45.4832 115.527 45.0494 116.258 44.7383C116.989 44.4218 117.827 44.2636 118.771 44.2636C120.13 44.2636 121.199 44.5582 121.98 45.1476C122.76 45.7315 123.276 46.5145 123.527 47.4968ZM128.41 49.5349V57H125.962V40.2364H128.377V46.4736H128.533C128.827 45.797 129.277 45.2595 129.883 44.8611C130.489 44.4627 131.28 44.2636 132.257 44.2636C133.119 44.2636 133.872 44.4409 134.516 44.7956C135.165 45.1503 135.667 45.6796 136.022 46.3836C136.382 47.0821 136.562 47.9552 136.562 49.0029V57H134.115V49.2976C134.115 48.3753 133.878 47.6605 133.403 47.153C132.928 46.6401 132.268 46.3836 131.422 46.3836C130.844 46.3836 130.325 46.5064 129.867 46.7519C129.414 46.9975 129.056 47.3576 128.795 47.8324C128.538 48.3017 128.41 48.8692 128.41 49.5349ZM145.123 57V40.2364H151.099C152.397 40.2364 153.475 40.4601 154.332 40.9076C155.194 41.355 155.838 41.9744 156.264 42.7656C156.689 43.5514 156.902 44.46 156.902 45.4914C156.902 46.5173 156.687 47.4204 156.255 48.2007C155.83 48.9756 155.186 49.5786 154.324 50.0097C153.467 50.4408 152.389 50.6563 151.09 50.6563H146.564V48.479H150.861C151.68 48.479 152.346 48.3617 152.858 48.1271C153.377 47.8924 153.756 47.5514 153.996 47.1039C154.236 46.6564 154.356 46.1189 154.356 45.4914C154.356 44.8584 154.234 44.3099 153.988 43.8461C153.748 43.3823 153.369 43.0276 152.85 42.782C152.337 42.531 151.663 42.4055 150.829 42.4055H147.653V57H145.123ZM153.399 49.4367L157.541 57H154.659L150.599 49.4367H153.399ZM164.544 57.2537C163.305 57.2537 162.238 56.9891 161.343 56.4598C160.454 55.925 159.766 55.1747 159.28 54.2088C158.8 53.2375 158.56 52.0997 158.56 50.7955C158.56 49.5077 158.8 48.3726 159.28 47.3904C159.766 46.4081 160.443 45.6414 161.31 45.0903C162.184 44.5391 163.204 44.2636 164.372 44.2636C165.081 44.2636 165.769 44.3809 166.434 44.6155C167.1 44.8502 167.698 45.2185 168.227 45.7206C168.756 46.2226 169.174 46.8747 169.479 47.6769C169.785 48.4736 169.938 49.4422 169.938 50.5827V51.4503H159.943V49.6168H167.539C167.539 48.9729 167.409 48.4026 167.147 47.9061C166.885 47.404 166.516 47.0084 166.042 46.7192C165.572 46.43 165.021 46.2854 164.388 46.2854C163.701 46.2854 163.1 46.4545 162.587 46.7928C162.08 47.1257 161.687 47.5623 161.409 48.1025C161.136 48.6373 160.999 49.2184 160.999 49.846V51.2784C160.999 52.1188 161.147 52.8336 161.441 53.423C161.742 54.0123 162.159 54.4625 162.694 54.7736C163.229 55.0792 163.853 55.232 164.568 55.232C165.032 55.232 165.455 55.1665 165.837 55.0355C166.219 54.8991 166.549 54.6972 166.827 54.4298C167.106 54.1624 167.318 53.8323 167.466 53.4394L169.782 53.8568C169.597 54.5389 169.264 55.1365 168.784 55.6494C168.309 56.1569 167.711 56.5525 166.991 56.8363C166.276 57.1146 165.46 57.2537 164.544 57.2537ZM172.152 61.7148V44.4273H174.543V46.4654H174.747C174.889 46.2035 175.094 45.9006 175.361 45.5569C175.628 45.2131 176 44.9129 176.474 44.6565C176.949 44.3945 177.577 44.2636 178.357 44.2636C179.372 44.2636 180.278 44.52 181.074 45.033C181.871 45.5459 182.496 46.2854 182.949 47.2512C183.407 48.2171 183.637 49.3794 183.637 50.7382C183.637 52.097 183.41 53.262 182.957 54.2333C182.504 55.1992 181.882 55.9441 181.091 56.468C180.3 56.9864 179.396 57.2456 178.382 57.2456C177.618 57.2456 176.993 57.1173 176.507 56.8608C176.027 56.6044 175.65 56.3042 175.377 55.9605C175.105 55.6167 174.895 55.3111 174.747 55.0437H174.6V61.7148H172.152ZM174.551 50.7136C174.551 51.5977 174.679 52.3725 174.935 53.0383C175.192 53.704 175.563 54.2252 176.049 54.6017C176.534 54.9728 177.129 55.1583 177.833 55.1583C178.564 55.1583 179.175 54.9646 179.667 54.5771C180.158 54.1842 180.529 53.6522 180.78 52.981C181.036 52.3098 181.165 51.554 181.165 50.7136C181.165 49.8842 181.039 49.1393 180.788 48.479C180.542 47.8187 180.171 47.2976 179.675 46.9156C179.184 46.5336 178.57 46.3426 177.833 46.3426C177.124 46.3426 176.523 46.5255 176.032 46.8911C175.547 47.2567 175.178 47.7669 174.927 48.4217C174.676 49.0766 174.551 49.8405 174.551 50.7136ZM191.174 57.2537C189.995 57.2537 188.966 56.9836 188.088 56.4434C187.209 55.9032 186.527 55.1474 186.041 54.176C185.556 53.2047 185.313 52.0697 185.313 50.7709C185.313 49.4667 185.556 48.3262 186.041 47.3494C186.527 46.3727 187.209 45.6142 188.088 45.0739C188.966 44.5337 189.995 44.2636 191.174 44.2636C192.352 44.2636 193.381 44.5337 194.26 45.0739C195.138 45.6142 195.82 46.3727 196.306 47.3494C196.792 48.3262 197.034 49.4667 197.034 50.7709C197.034 52.0697 196.792 53.2047 196.306 54.176C195.82 55.1474 195.138 55.9032 194.26 56.4434C193.381 56.9836 192.352 57.2537 191.174 57.2537ZM191.182 55.1992C191.946 55.1992 192.579 54.9973 193.081 54.5935C193.583 54.1897 193.954 53.6522 194.194 52.981C194.44 52.3098 194.562 51.5704 194.562 50.7627C194.562 49.9606 194.44 49.2239 194.194 48.5527C193.954 47.876 193.583 47.3331 193.081 46.9238C192.579 46.5145 191.946 46.3099 191.182 46.3099C190.412 46.3099 189.774 46.5145 189.267 46.9238C188.764 47.3331 188.391 47.876 188.145 48.5527C187.905 49.2239 187.785 49.9606 187.785 50.7627C187.785 51.5704 187.905 52.3098 188.145 52.981C188.391 53.6522 188.764 54.1897 189.267 54.5935C189.774 54.9973 190.412 55.1992 191.182 55.1992ZM199.265 57V44.4273H201.631V46.4245H201.762C201.991 45.7478 202.395 45.2158 202.973 44.8284C203.557 44.4355 204.218 44.239 204.954 44.239C205.107 44.239 205.287 44.2445 205.495 44.2554C205.707 44.2663 205.874 44.2799 205.994 44.2963V46.6373C205.896 46.61 205.721 46.58 205.47 46.5473C205.219 46.5091 204.968 46.49 204.717 46.49C204.139 46.49 203.623 46.6128 203.17 46.8583C202.722 47.0984 202.368 47.434 202.106 47.8651C201.844 48.2908 201.713 48.7764 201.713 49.3221V57H199.265ZM214.223 44.4273V46.3918H207.355V44.4273H214.223ZM209.197 41.4151H211.644V53.3084C211.644 53.7831 211.715 54.1406 211.857 54.3807C211.999 54.6153 212.182 54.7763 212.406 54.8636C212.635 54.9455 212.883 54.9864 213.15 54.9864C213.347 54.9864 213.519 54.9728 213.666 54.9455C213.813 54.9182 213.928 54.8964 214.01 54.88L214.452 56.9018C214.31 56.9563 214.108 57.0109 213.846 57.0655C213.584 57.1255 213.257 57.1583 212.864 57.1637C212.22 57.1746 211.62 57.06 211.063 56.8199C210.507 56.5798 210.056 56.2087 209.713 55.7067C209.369 55.2047 209.197 54.5744 209.197 53.8159V41.4151Z" fill="white"/>
<path d="M26 117H578" stroke="white" stroke-opacity="0.09" stroke-dasharray="2.48 2.48"/>
<path d="M31.9034 102V101.233L34.7841 98.0795C35.1222 97.7102 35.4006 97.3892 35.6193 97.1165C35.8381 96.8409 36 96.5824 36.1051 96.3409C36.2131 96.0966 36.267 95.8409 36.267 95.5739C36.267 95.267 36.1932 95.0014 36.0455 94.777C35.9006 94.5526 35.7017 94.3793 35.4489 94.2571C35.196 94.1349 34.9119 94.0739 34.5966 94.0739C34.2614 94.0739 33.9688 94.1435 33.7188 94.2827C33.4716 94.419 33.2798 94.6108 33.1435 94.858C33.0099 95.1051 32.9432 95.3949 32.9432 95.7273H31.9375C31.9375 95.2159 32.0554 94.767 32.2912 94.3807C32.527 93.9943 32.848 93.6932 33.2543 93.4773C33.6634 93.2614 34.1222 93.1534 34.6307 93.1534C35.142 93.1534 35.5952 93.2614 35.9901 93.4773C36.3849 93.6932 36.6946 93.9844 36.919 94.3509C37.1435 94.7173 37.2557 95.125 37.2557 95.5739C37.2557 95.8949 37.1974 96.2088 37.081 96.5156C36.9673 96.8196 36.7685 97.1591 36.4844 97.5341C36.2031 97.9062 35.8125 98.3608 35.3125 98.8977L33.3523 100.994V101.062H37.4091V102H31.9034ZM38.777 100.21V99.3409L42.6122 93.2727H43.2429V94.6193H42.8168L39.919 99.2045V99.2727H45.0838V100.21H38.777ZM42.8849 102V99.946V99.5412V93.2727H43.8906V102H42.8849ZM46.8342 102V93.2727H47.891V97.1591H52.5444V93.2727H53.6012V102H52.5444V98.0966H47.891V102H46.8342Z" fill="white"/>
<path d="M86.4475 102.119C85.885 102.119 85.3836 102.023 84.9432 101.83C84.5057 101.636 84.1577 101.368 83.8992 101.024C83.6435 100.678 83.5043 100.276 83.4816 99.8182H84.5554C84.5782 100.099 84.6748 100.342 84.8452 100.547C85.0157 100.749 85.2387 100.905 85.5142 101.016C85.7898 101.126 86.0952 101.182 86.4304 101.182C86.8054 101.182 87.1378 101.116 87.4276 100.986C87.7174 100.855 87.9446 100.673 88.1094 100.44C88.2742 100.207 88.3566 99.9375 88.3566 99.6307C88.3566 99.3097 88.277 99.027 88.1179 98.7827C87.9589 98.5355 87.7259 98.3423 87.4191 98.2031C87.1123 98.0639 86.7373 97.9943 86.2941 97.9943H85.5952V97.0568H86.2941C86.6407 97.0568 86.9446 96.9943 87.206 96.8693C87.4702 96.7443 87.6762 96.5682 87.8239 96.3409C87.9745 96.1136 88.0498 95.8466 88.0498 95.5398C88.0498 95.2443 87.9844 94.9872 87.8537 94.7685C87.7231 94.5497 87.5384 94.3793 87.2998 94.2571C87.064 94.1349 86.7856 94.0739 86.4645 94.0739C86.1634 94.0739 85.8793 94.1293 85.6123 94.2401C85.3481 94.348 85.1321 94.5057 84.9645 94.7131C84.7969 94.9176 84.706 95.1648 84.6918 95.4545H83.6691C83.6861 94.9972 83.8239 94.5966 84.0824 94.2528C84.341 93.9062 84.679 93.6364 85.0966 93.4432C85.5171 93.25 85.9787 93.1534 86.4816 93.1534C87.0214 93.1534 87.4844 93.2628 87.8708 93.4815C88.2571 93.6974 88.554 93.983 88.7614 94.3381C88.9688 94.6932 89.0725 95.0767 89.0725 95.4886C89.0725 95.9801 88.9432 96.3991 88.6847 96.7457C88.429 97.0923 88.081 97.3324 87.6407 97.4659V97.5341C88.1918 97.625 88.6222 97.8594 88.9319 98.2372C89.2415 98.6122 89.3964 99.0767 89.3964 99.6307C89.3964 100.105 89.2671 100.531 89.0086 100.909C88.7529 101.284 88.4035 101.58 87.9603 101.795C87.5171 102.011 87.0128 102.119 86.4475 102.119ZM91.2927 93.2727H92.554L95.5199 100.517H95.6222L98.5881 93.2727H99.8495V102H98.8608V95.3693H98.7756L96.0483 102H95.0938L92.3665 95.3693H92.2813V102H91.2927V93.2727Z" fill="#727272"/>
<path d="M132.992 102.119C132.634 102.114 132.276 102.045 131.918 101.915C131.56 101.784 131.233 101.564 130.938 101.254C130.642 100.942 130.405 100.52 130.226 99.9886C130.047 99.4545 129.957 98.7841 129.957 97.9773C129.957 97.2045 130.03 96.5199 130.175 95.9233C130.32 95.3239 130.53 94.8196 130.805 94.4105C131.081 93.9986 131.413 93.6861 131.803 93.473C132.195 93.2599 132.636 93.1534 133.128 93.1534C133.617 93.1534 134.051 93.2514 134.432 93.4474C134.815 93.6406 135.128 93.9105 135.369 94.2571C135.611 94.6037 135.767 95.0028 135.838 95.4545H134.798C134.702 95.0625 134.514 94.7372 134.236 94.4787C133.957 94.2202 133.588 94.0909 133.128 94.0909C132.452 94.0909 131.919 94.3849 131.53 94.973C131.144 95.5611 130.949 96.3864 130.946 97.4489H131.014C131.173 97.2074 131.362 97.0014 131.581 96.831C131.803 96.6577 132.047 96.5241 132.314 96.4304C132.581 96.3366 132.864 96.2898 133.162 96.2898C133.662 96.2898 134.119 96.4148 134.534 96.6648C134.949 96.9119 135.281 97.2543 135.531 97.6918C135.781 98.1264 135.906 98.625 135.906 99.1875C135.906 99.7273 135.786 100.222 135.544 100.67C135.303 101.116 134.963 101.472 134.526 101.736C134.091 101.997 133.58 102.125 132.992 102.119ZM132.992 101.182C133.35 101.182 133.671 101.092 133.955 100.913C134.242 100.734 134.467 100.494 134.632 100.193C134.8 99.892 134.884 99.5568 134.884 99.1875C134.884 98.8267 134.803 98.4986 134.641 98.2031C134.482 97.9048 134.261 97.6676 133.98 97.4915C133.702 97.3153 133.384 97.2273 133.026 97.2273C132.756 97.2273 132.504 97.2812 132.271 97.3892C132.038 97.4943 131.834 97.6392 131.658 97.8239C131.484 98.0085 131.348 98.2202 131.249 98.4588C131.149 98.6946 131.1 98.9432 131.1 99.2045C131.1 99.5511 131.18 99.875 131.342 100.176C131.507 100.477 131.732 100.72 132.016 100.905C132.303 101.089 132.628 101.182 132.992 101.182ZM137.736 93.2727H138.997L141.963 100.517H142.065L145.031 93.2727H146.292V102H145.304V95.3693H145.218L142.491 102H141.537L138.809 95.3693H138.724V102H137.736V93.2727Z" fill="#727272"/>
<path d="M179.757 93.2727V102H178.7V94.3807H178.649L176.519 95.7955V94.7216L178.7 93.2727H179.757ZM181.671 93.2727H182.881L185.301 97.3466H185.404L187.824 93.2727H189.034L185.881 98.4034V102H184.824V98.4034L181.671 93.2727Z" fill="#727272"/>
<path d="M221.233 102.119C220.671 102.119 220.169 102.023 219.729 101.83C219.291 101.636 218.943 101.368 218.685 101.024C218.429 100.678 218.29 100.276 218.267 99.8182H219.341C219.364 100.099 219.46 100.342 219.631 100.547C219.801 100.749 220.024 100.905 220.3 101.016C220.575 101.126 220.881 101.182 221.216 101.182C221.591 101.182 221.923 101.116 222.213 100.986C222.503 100.855 222.73 100.673 222.895 100.44C223.06 100.207 223.142 99.9375 223.142 99.6307C223.142 99.3097 223.063 99.027 222.904 98.7827C222.744 98.5355 222.512 98.3423 222.205 98.2031C221.898 98.0639 221.523 97.9943 221.08 97.9943H220.381V97.0568H221.08C221.426 97.0568 221.73 96.9943 221.992 96.8693C222.256 96.7443 222.462 96.5682 222.61 96.3409C222.76 96.1136 222.835 95.8466 222.835 95.5398C222.835 95.2443 222.77 94.9872 222.639 94.7685C222.509 94.5497 222.324 94.3793 222.085 94.2571C221.85 94.1349 221.571 94.0739 221.25 94.0739C220.949 94.0739 220.665 94.1293 220.398 94.2401C220.134 94.348 219.918 94.5057 219.75 94.7131C219.583 94.9176 219.492 95.1648 219.477 95.4545H218.455C218.472 94.9972 218.61 94.5966 218.868 94.2528C219.127 93.9062 219.465 93.6364 219.882 93.4432C220.303 93.25 220.764 93.1534 221.267 93.1534C221.807 93.1534 222.27 93.2628 222.656 93.4815C223.043 93.6974 223.34 93.983 223.547 94.3381C223.754 94.6932 223.858 95.0767 223.858 95.4886C223.858 95.9801 223.729 96.3991 223.47 96.7457C223.215 97.0923 222.867 97.3324 222.426 97.4659V97.5341C222.977 97.625 223.408 97.8594 223.718 98.2372C224.027 98.6122 224.182 99.0767 224.182 99.6307C224.182 100.105 224.053 100.531 223.794 100.909C223.539 101.284 223.189 101.58 222.746 101.795C222.303 102.011 221.798 102.119 221.233 102.119ZM225.328 93.2727H226.539L228.959 97.3466H229.061L231.482 93.2727H232.692L229.539 98.4034V102H228.482V98.4034L225.328 93.2727Z" fill="#727272"/>
<path d="M264.607 102.119C264.107 102.119 263.656 102.02 263.256 101.821C262.855 101.622 262.534 101.349 262.293 101.003C262.051 100.656 261.919 100.261 261.897 99.8182H262.919C262.959 100.213 263.138 100.54 263.456 100.798C263.777 101.054 264.161 101.182 264.607 101.182C264.965 101.182 265.283 101.098 265.561 100.93C265.843 100.763 266.063 100.533 266.222 100.24C266.384 99.9446 266.465 99.6108 266.465 99.2386C266.465 98.858 266.381 98.5185 266.213 98.2202C266.049 97.919 265.821 97.6818 265.531 97.5085C265.242 97.3352 264.911 97.2472 264.539 97.2443C264.272 97.2415 263.997 97.2827 263.716 97.3679C263.435 97.4503 263.203 97.5568 263.022 97.6875L262.033 97.5682L262.561 93.2727H267.095V94.2102H263.448L263.141 96.7841H263.192C263.371 96.642 263.595 96.5241 263.865 96.4304C264.135 96.3366 264.416 96.2898 264.709 96.2898C265.243 96.2898 265.719 96.4176 266.137 96.6733C266.557 96.9261 266.887 97.2727 267.125 97.7131C267.367 98.1534 267.487 98.6562 267.487 99.2216C267.487 99.7784 267.362 100.276 267.112 100.713C266.865 101.148 266.524 101.491 266.09 101.744C265.655 101.994 265.161 102.119 264.607 102.119ZM268.584 93.2727H269.794L272.214 97.3466H272.317L274.737 93.2727H275.947L272.794 98.4034V102H271.737V98.4034L268.584 93.2727Z" fill="#727272"/>
<path d="M305.986 102H304.878L308.083 93.2727H309.174L312.378 102H311.27L308.662 94.6534H308.594L305.986 102ZM306.395 98.5909H310.861V99.5284H306.395V98.5909ZM313.737 102V93.2727H314.794V101.062H318.851V102H313.737ZM320.487 102V93.2727H321.544V101.062H325.601V102H320.487Z" fill="#727272"/>
<path d="M26 117H61" stroke="white" stroke-width="1.5"/>
<rect opacity="0.03" x="26.2422" y="128" width="458" height="169" fill="#B0B0B0"/>
<path d="M26.2422 308H578.242" stroke="white" stroke-opacity="0.05"/>
<path d="M410 100.226L404.226 106L410 111.774L415.774 106L410 100.226ZM410 106L409 106L409 107.975L410 107.975L411 107.975L411 106L410 106ZM410 111.925L409 111.925L409 115.875L410 115.875L411 115.875L411 111.925L410 111.925ZM410 119.825L409 119.825L409 123.775L410 123.775L411 123.775L411 119.825L410 119.825ZM410 127.725L409 127.725L409 131.675L410 131.675L411 131.675L411 127.725L410 127.725ZM410 135.625L409 135.625L409 139.575L410 139.575L411 139.575L411 135.625L410 135.625ZM410 143.525L409 143.525L409 147.475L410 147.475L411 147.475L411 143.525L410 143.525ZM410 151.425L409 151.425L409 155.375L410 155.375L411 155.375L411 151.425L410 151.425ZM410 159.325L409 159.325L409 163.275L410 163.275L411 163.275L411 159.325L410 159.325ZM410 167.225L409 167.225L409 171.175L410 171.175L411 171.175L411 167.225L410 167.225ZM410 175.125L409 175.125L409 179.075L410 179.075L411 179.075L411 175.125L410 175.125ZM410 183.025L409 183.025L409 186.975L410 186.975L411 186.975L411 183.025L410 183.025ZM410 190.925L409 190.925L409 194.875L410 194.875L411 194.875L411 190.925L410 190.925ZM410 198.825L409 198.825L409 202.775L410 202.775L411 202.775L411 198.825L410 198.825ZM410 206.725L409 206.725L409 210.675L410 210.675L411 210.675L411 206.725L410 206.725ZM410 214.625L409 214.625L409 218.575L410 218.575L411 218.575L411 214.625L410 214.625ZM410 222.525L409 222.525L409 226.475L410 226.475L411 226.475L411 222.525L410 222.525ZM410 230.425L409 230.425L409 234.375L410 234.375L411 234.375L411 230.425L410 230.425ZM410 238.325L409 238.325L409 242.275L410 242.275L411 242.275L411 238.325L410 238.325ZM410 246.225L409 246.225L409 250.175L410 250.175L411 250.175L411 246.225L410 246.225ZM410 254.125L409 254.125L409 258.075L410 258.075L411 258.075L411 254.125L410 254.125ZM410 262.025L409 262.025L409 265.975L410 265.975L411 265.975L411 262.025L410 262.025ZM410 269.925L409 269.925L409 273.875L410 273.875L411 273.875L411 269.925L410 269.925ZM410 277.825L409 277.825L409 281.775L410 281.775L411 281.775L411 277.825L410 277.825ZM410 285.725L409 285.725L409 289.675L410 289.675L411 289.675L411 285.725L410 285.725ZM410 293.625L409 293.625L409 297.575L410 297.575L411 297.575L411 293.625L410 293.625ZM410 301.525L409 301.525L409 305.475L410 305.475L411 305.475L411 301.525L410 301.525ZM410 309.425L409 309.425L409 313.375L410 313.375L411 313.375L411 309.425L410 309.425ZM410 317.325L409 317.325L409 321.275L410 321.275L411 321.275L411 317.325L410 317.325ZM410 325.225L409 325.225L409 329.175L410 329.175L411 329.175L411 325.225L410 325.225ZM410 333.125L409 333.125L409 337.075L410 337.075L411 337.075L411 333.125L410 333.125ZM410 341.025L409 341.025L409 343L410 343L411 343L411 341.025L410 341.025Z" fill="url(#paint1_linear_616_2568)"/>
<g filter="url(#filter1_d_616_2568)">
<path d="M41.5693 264.476C54.726 259.993 85.7533 251.097 104.609 251.38C128.178 251.734 137.488 265.062 154.98 258.079C172.473 251.096 207.405 214.796 236.561 223.147C265.716 231.498 279.419 262.7 310.07 235.261C340.721 207.823 336.108 196.449 364.645 194.602C393.182 192.755 440.65 193.708 455.858 181.182" stroke="#F2C6A6" stroke-width="2.3559"/>
</g>
</g>
</g>
<g filter="url(#filter2_f_616_2568)">
<ellipse cx="344.5" cy="256" rx="127.5" ry="52" fill="#080808"/>
</g>
<g filter="url(#filter3_i_616_2568)">
<g clip-path="url(#clip1_616_2568)">
<rect x="248" y="219" width="390" height="97" rx="12" fill="#080808"/>
<g opacity="0.1">
<rect width="390" height="97" transform="translate(248 219)" fill="url(#paint2_radial_616_2568)"/>
</g>
<path d="M381.47 286.223C381.171 286.515 381.165 286.995 381.458 287.295C381.751 287.594 382.231 287.599 382.53 287.307L382 286.765L381.47 286.223ZM387.686 281.202L388.216 280.66L387.686 280.141L387.156 280.66L387.686 281.202ZM391.856 285.281L391.326 285.823L391.856 286.342L392.386 285.823L391.856 285.281ZM399.817 278.244C399.821 277.825 399.485 277.482 399.067 277.477L392.244 277.402C391.825 277.398 391.482 277.733 391.477 278.152C391.473 278.571 391.808 278.914 392.227 278.918L398.292 278.985L398.225 285.05C398.221 285.469 398.556 285.812 398.975 285.816C399.394 285.821 399.737 285.485 399.742 285.067L399.817 278.244ZM382 286.765L382.53 287.307L388.216 281.744L387.686 281.202L387.156 280.66L381.47 286.223L382 286.765ZM387.686 281.202L387.156 281.744L391.326 285.823L391.856 285.281L392.386 284.739L388.216 280.66L387.686 281.202ZM391.856 285.281L392.386 285.823L399.589 278.777L399.058 278.235L398.528 277.693L391.326 284.739L391.856 285.281Z" fill="#18E0E0"/>
<path d="M414.368 282.175C414.368 283.193 414.185 284.073 413.817 284.814C413.45 285.555 412.946 286.127 412.305 286.529C411.664 286.931 410.932 287.132 410.109 287.132C409.286 287.132 408.554 286.931 407.914 286.529C407.273 286.127 406.769 285.555 406.401 284.814C406.034 284.073 405.85 283.193 405.85 282.175C405.85 281.158 406.034 280.278 406.401 279.537C406.769 278.796 407.273 278.224 407.914 277.822C408.554 277.42 409.286 277.219 410.109 277.219C410.932 277.219 411.664 277.42 412.305 277.822C412.946 278.224 413.45 278.796 413.817 279.537C414.185 280.278 414.368 281.158 414.368 282.175ZM413.238 282.175C413.238 281.34 413.098 280.635 412.818 280.06C412.542 279.485 412.167 279.05 411.692 278.755C411.221 278.46 410.693 278.312 410.109 278.312C409.525 278.312 408.996 278.46 408.521 278.755C408.05 279.05 407.675 279.485 407.395 280.06C407.119 280.635 406.981 281.34 406.981 282.175C406.981 283.011 407.119 283.716 407.395 284.291C407.675 284.866 408.05 285.301 408.521 285.596C408.996 285.891 409.525 286.039 410.109 286.039C410.693 286.039 411.221 285.891 411.692 285.596C412.167 285.301 412.542 284.866 412.818 284.291C413.098 283.716 413.238 283.011 413.238 282.175ZM417.029 282.647V287H415.917V279.763H416.991V280.894H417.085C417.255 280.526 417.513 280.231 417.858 280.008C418.204 279.782 418.65 279.669 419.196 279.669C419.686 279.669 420.115 279.769 420.482 279.97C420.85 280.168 421.136 280.47 421.34 280.875C421.544 281.277 421.646 281.786 421.646 282.402V287H420.534V282.477C420.534 281.908 420.387 281.466 420.091 281.148C419.796 280.828 419.391 280.668 418.876 280.668C418.521 280.668 418.204 280.745 417.924 280.899C417.648 281.052 417.429 281.277 417.269 281.572C417.109 281.868 417.029 282.226 417.029 282.647ZM430.026 279.763V280.705H426.276V279.763H430.026ZM427.369 278.029H428.481V284.927C428.481 285.241 428.526 285.477 428.617 285.634C428.712 285.788 428.831 285.891 428.975 285.945C429.123 285.995 429.279 286.02 429.442 286.02C429.564 286.02 429.665 286.014 429.743 286.001C429.822 285.985 429.885 285.973 429.932 285.963L430.158 286.962C430.083 286.991 429.977 287.019 429.842 287.047C429.707 287.079 429.536 287.094 429.329 287.094C429.015 287.094 428.707 287.027 428.405 286.892C428.107 286.757 427.859 286.551 427.661 286.274C427.466 285.998 427.369 285.649 427.369 285.228V278.029ZM431.433 287V279.763H432.545V287H431.433ZM431.999 278.557C431.782 278.557 431.595 278.483 431.438 278.336C431.284 278.188 431.207 278.01 431.207 277.803C431.207 277.596 431.284 277.418 431.438 277.271C431.595 277.123 431.782 277.049 431.999 277.049C432.216 277.049 432.401 277.123 432.555 277.271C432.712 277.418 432.79 277.596 432.79 277.803C432.79 278.01 432.712 278.188 432.555 278.336C432.401 278.483 432.216 278.557 431.999 278.557ZM434.317 287V279.763H435.391V280.894H435.485C435.636 280.508 435.879 280.208 436.215 279.994C436.551 279.777 436.955 279.669 437.426 279.669C437.904 279.669 438.301 279.777 438.618 279.994C438.939 280.208 439.188 280.508 439.367 280.894H439.443C439.628 280.52 439.906 280.223 440.277 280.003C440.647 279.78 441.092 279.669 441.61 279.669C442.257 279.669 442.786 279.871 443.198 280.277C443.609 280.679 443.815 281.305 443.815 282.157V287H442.703V282.157C442.703 281.623 442.557 281.241 442.265 281.012C441.973 280.782 441.629 280.668 441.233 280.668C440.724 280.668 440.33 280.822 440.05 281.129C439.771 281.434 439.631 281.82 439.631 282.288V287H438.5V282.043C438.5 281.632 438.367 281.301 438.1 281.049C437.833 280.795 437.489 280.668 437.068 280.668C436.779 280.668 436.509 280.745 436.258 280.899C436.01 281.052 435.809 281.266 435.655 281.539C435.504 281.809 435.428 282.122 435.428 282.477V287H434.317ZM448.617 287.151C447.92 287.151 447.318 286.997 446.812 286.689C446.31 286.378 445.922 285.945 445.649 285.389C445.378 284.83 445.243 284.179 445.243 283.438C445.243 282.697 445.378 282.043 445.649 281.478C445.922 280.91 446.302 280.467 446.789 280.149C447.279 279.829 447.85 279.669 448.504 279.669C448.881 279.669 449.253 279.732 449.62 279.857C449.988 279.983 450.322 280.187 450.624 280.47C450.925 280.749 451.166 281.12 451.345 281.582C451.524 282.043 451.613 282.612 451.613 283.287V283.758H446.035V282.797H450.483C450.483 282.389 450.401 282.025 450.238 281.704C450.077 281.384 449.848 281.131 449.55 280.946C449.254 280.76 448.906 280.668 448.504 280.668C448.061 280.668 447.678 280.778 447.354 280.998C447.034 281.214 446.787 281.497 446.614 281.846C446.442 282.194 446.355 282.568 446.355 282.967V283.608C446.355 284.154 446.45 284.618 446.638 284.998C446.83 285.375 447.095 285.662 447.434 285.86C447.773 286.055 448.168 286.152 448.617 286.152C448.909 286.152 449.173 286.111 449.408 286.029C449.647 285.945 449.853 285.819 450.026 285.653C450.198 285.483 450.332 285.272 450.426 285.021L451.5 285.323C451.387 285.687 451.197 286.007 450.93 286.284C450.663 286.557 450.333 286.771 449.941 286.925C449.548 287.075 449.107 287.151 448.617 287.151Z" fill="#18E0E0"/>
<rect opacity="0.06" x="597.551" y="290.57" width="45.5705" height="6.29507" rx="3.14753" transform="rotate(-90 597.551 290.57)" fill="#B0B0B0"/>
<rect x="597.551" y="290.57" width="10.8668" height="6.29507" rx="3.14754" transform="rotate(-90 597.551 290.57)" fill="#F2C6A6"/>
<rect opacity="0.06" x="580.414" y="290.57" width="45.5705" height="6.29501" rx="3.14751" transform="rotate(-90 580.414 290.57)" fill="#B0B0B0"/>
<rect x="580.414" y="290.57" width="41.364" height="6.29508" rx="3.14754" transform="rotate(-90 580.414 290.57)" fill="#F2C6A6"/>
<rect opacity="0.06" x="563.274" y="290.57" width="45.5705" height="6.29508" rx="3.14754" transform="rotate(-90 563.274 290.57)" fill="#B0B0B0"/>
<rect x="563.274" y="290.57" width="31.5488" height="6.29508" rx="3.14754" transform="rotate(-90 563.274 290.57)" fill="#F2C6A6"/>
<rect opacity="0.06" x="546.137" y="290.57" width="45.5705" height="6.29509" rx="3.14754" transform="rotate(-90 546.137 290.57)" fill="#B0B0B0"/>
<rect x="546.137" y="290.57" width="23.4863" height="6.29508" rx="3.14754" transform="rotate(-90 546.137 290.57)" fill="#F2C6A6"/>
<rect opacity="0.06" x="529" y="290.57" width="45.5705" height="6.29509" rx="3.14754" transform="rotate(-90 529 290.57)" fill="#B0B0B0"/>
<rect x="529" y="290.57" width="37.508" height="6.2951" rx="3.14755" transform="rotate(-90 529 290.57)" fill="#F2C6A6"/>
<path d="M273.051 254.474L276.663 244.674H277.909L281.507 254.474H280.261L277.279 246.144L274.283 254.474H273.051ZM274.703 251.954L275.039 251.002H279.477L279.813 251.954H274.703ZM285.694 257.722C285.059 257.722 284.494 257.638 284 257.47C283.514 257.311 283.136 257.064 282.866 256.728C282.595 256.392 282.46 255.976 282.46 255.482C282.46 255.267 282.502 255.038 282.586 254.796C282.679 254.553 282.833 254.315 283.048 254.082C283.272 253.848 283.584 253.638 283.986 253.452L284.798 253.928C284.303 254.133 283.981 254.366 283.832 254.628C283.682 254.898 283.608 255.146 283.608 255.37C283.608 255.678 283.696 255.934 283.874 256.14C284.051 256.345 284.298 256.499 284.616 256.602C284.933 256.704 285.292 256.756 285.694 256.756C286.095 256.756 286.44 256.7 286.73 256.588C287.019 256.476 287.243 256.317 287.402 256.112C287.56 255.906 287.64 255.664 287.64 255.384C287.64 255.057 287.518 254.782 287.276 254.558C287.033 254.343 286.571 254.217 285.89 254.18C285.339 254.142 284.877 254.091 284.504 254.026C284.13 253.96 283.822 253.886 283.58 253.802C283.337 253.708 283.132 253.606 282.964 253.494C282.805 253.382 282.66 253.265 282.53 253.144V252.822L283.888 251.478L284.91 251.842L283.51 253.102L283.692 252.612C283.794 252.686 283.892 252.756 283.986 252.822C284.079 252.887 284.205 252.943 284.364 252.99C284.522 253.036 284.742 253.078 285.022 253.116C285.311 253.153 285.689 253.19 286.156 253.228C286.8 253.274 287.313 253.386 287.696 253.564C288.088 253.741 288.368 253.979 288.536 254.278C288.713 254.576 288.802 254.931 288.802 255.342C288.802 255.743 288.69 256.121 288.466 256.476C288.251 256.84 287.915 257.138 287.458 257.372C287 257.605 286.412 257.722 285.694 257.722ZM285.68 252.262C285.092 252.262 284.588 252.15 284.168 251.926C283.757 251.702 283.444 251.403 283.23 251.03C283.015 250.647 282.908 250.222 282.908 249.756C282.908 249.289 283.015 248.869 283.23 248.496C283.454 248.122 283.771 247.824 284.182 247.6C284.592 247.366 285.092 247.25 285.68 247.25C286.268 247.25 286.767 247.366 287.178 247.6C287.588 247.824 287.901 248.122 288.116 248.496C288.33 248.869 288.438 249.289 288.438 249.756C288.438 250.222 288.33 250.647 288.116 251.03C287.901 251.403 287.588 251.702 287.178 251.926C286.767 252.15 286.268 252.262 285.68 252.262ZM285.68 251.296C286.184 251.296 286.58 251.165 286.87 250.904C287.159 250.642 287.304 250.26 287.304 249.756C287.304 249.261 287.159 248.883 286.87 248.622C286.58 248.36 286.184 248.23 285.68 248.23C285.185 248.23 284.784 248.36 284.476 248.622C284.177 248.883 284.028 249.261 284.028 249.756C284.028 250.26 284.177 250.642 284.476 250.904C284.774 251.165 285.176 251.296 285.68 251.296ZM286.828 248.412L286.478 247.418H289.362V248.3L286.828 248.412ZM293.535 254.642C292.872 254.642 292.284 254.488 291.771 254.18C291.267 253.872 290.87 253.442 290.581 252.892C290.292 252.332 290.147 251.683 290.147 250.946C290.147 250.199 290.287 249.55 290.567 249C290.856 248.449 291.258 248.02 291.771 247.712C292.294 247.404 292.891 247.25 293.563 247.25C294.254 247.25 294.837 247.404 295.313 247.712C295.798 248.02 296.167 248.426 296.419 248.93C296.68 249.424 296.811 249.97 296.811 250.568C296.811 250.661 296.811 250.759 296.811 250.862C296.811 250.964 296.806 251.081 296.797 251.212H291.029V250.302H295.663C295.635 249.658 295.42 249.154 295.019 248.79C294.627 248.426 294.132 248.244 293.535 248.244C293.134 248.244 292.76 248.337 292.415 248.524C292.079 248.701 291.808 248.967 291.603 249.322C291.398 249.667 291.295 250.101 291.295 250.624V251.016C291.295 251.594 291.398 252.08 291.603 252.472C291.818 252.864 292.093 253.158 292.429 253.354C292.774 253.55 293.143 253.648 293.535 253.648C294.03 253.648 294.436 253.54 294.753 253.326C295.08 253.102 295.313 252.803 295.453 252.43H296.615C296.503 252.85 296.307 253.228 296.027 253.564C295.747 253.9 295.397 254.166 294.977 254.362C294.566 254.548 294.086 254.642 293.535 254.642ZM298.398 254.474V247.418H299.462L299.518 248.65C299.742 248.211 300.059 247.87 300.47 247.628C300.89 247.376 301.366 247.25 301.898 247.25C302.449 247.25 302.925 247.362 303.326 247.586C303.727 247.8 304.04 248.132 304.264 248.58C304.488 249.018 304.6 249.578 304.6 250.26V254.474H303.424V250.386C303.424 249.676 303.265 249.144 302.948 248.79C302.64 248.435 302.201 248.258 301.632 248.258C301.24 248.258 300.89 248.356 300.582 248.552C300.274 248.738 300.027 249.014 299.84 249.378C299.663 249.732 299.574 250.176 299.574 250.708V254.474H298.398ZM309.209 254.474C308.789 254.474 308.425 254.408 308.117 254.278C307.809 254.147 307.571 253.928 307.403 253.62C307.244 253.302 307.165 252.878 307.165 252.346V248.412H305.933V247.418H307.165L307.319 245.71H308.341V247.418H310.385V248.412H308.341V252.346C308.341 252.784 308.43 253.083 308.607 253.242C308.784 253.391 309.097 253.466 309.545 253.466H310.301V254.474H309.209ZM319.236 254.642C318.564 254.642 317.953 254.506 317.402 254.236C316.861 253.965 316.427 253.554 316.1 253.004C315.774 252.444 315.61 251.73 315.61 250.862V244.674H316.786V250.876C316.786 251.51 316.889 252.028 317.094 252.43C317.309 252.831 317.603 253.125 317.976 253.312C318.35 253.498 318.779 253.592 319.264 253.592C319.759 253.592 320.188 253.498 320.552 253.312C320.916 253.125 321.201 252.831 321.406 252.43C321.612 252.028 321.714 251.51 321.714 250.876V244.674H322.89V250.862C322.89 251.73 322.727 252.444 322.4 253.004C322.074 253.554 321.635 253.965 321.084 254.236C320.534 254.506 319.918 254.642 319.236 254.642ZM324.812 257.554V247.418H325.876L325.974 248.566C326.123 248.342 326.315 248.132 326.548 247.936C326.781 247.73 327.061 247.567 327.388 247.446C327.715 247.315 328.088 247.25 328.508 247.25C329.199 247.25 329.796 247.413 330.3 247.74C330.813 248.066 331.21 248.51 331.49 249.07C331.779 249.62 331.924 250.25 331.924 250.96C331.924 251.669 331.779 252.304 331.49 252.864C331.21 253.414 330.813 253.848 330.3 254.166C329.787 254.483 329.185 254.642 328.494 254.642C327.925 254.642 327.421 254.525 326.982 254.292C326.553 254.058 326.221 253.732 325.988 253.312V257.554H324.812ZM328.368 253.62C328.825 253.62 329.231 253.508 329.586 253.284C329.941 253.06 330.216 252.752 330.412 252.36C330.617 251.958 330.72 251.487 330.72 250.946C330.72 250.414 330.617 249.947 330.412 249.546C330.216 249.144 329.941 248.832 329.586 248.608C329.231 248.384 328.825 248.272 328.368 248.272C327.901 248.272 327.491 248.384 327.136 248.608C326.781 248.832 326.506 249.144 326.31 249.546C326.114 249.947 326.016 250.414 326.016 250.946C326.016 251.487 326.114 251.958 326.31 252.36C326.506 252.752 326.781 253.06 327.136 253.284C327.491 253.508 327.901 253.62 328.368 253.62ZM336.074 254.474C335.654 254.474 335.29 254.408 334.982 254.278C334.674 254.147 334.436 253.928 334.268 253.62C334.11 253.302 334.03 252.878 334.03 252.346V248.412H332.798V247.418H334.03L334.184 245.71H335.206V247.418H337.25V248.412H335.206V252.346C335.206 252.784 335.295 253.083 335.472 253.242C335.65 253.391 335.962 253.466 336.41 253.466H337.166V254.474H336.074ZM338.897 254.474V247.418H340.073V254.474H338.897ZM339.485 245.92C339.251 245.92 339.055 245.845 338.897 245.696C338.747 245.537 338.673 245.341 338.673 245.108C338.673 244.874 338.747 244.688 338.897 244.548C339.055 244.398 339.251 244.324 339.485 244.324C339.709 244.324 339.9 244.398 340.059 244.548C340.217 244.688 340.297 244.874 340.297 245.108C340.297 245.341 340.217 245.537 340.059 245.696C339.9 245.845 339.709 245.92 339.485 245.92ZM342.148 254.474V247.418H343.212L343.282 248.426C343.506 248.062 343.805 247.777 344.178 247.572C344.561 247.357 344.976 247.25 345.424 247.25C345.788 247.25 346.115 247.301 346.404 247.404C346.703 247.497 346.964 247.646 347.188 247.852C347.412 248.048 347.594 248.3 347.734 248.608C347.977 248.178 348.308 247.847 348.728 247.614C349.157 247.371 349.615 247.25 350.1 247.25C350.641 247.25 351.113 247.362 351.514 247.586C351.925 247.8 352.237 248.132 352.452 248.58C352.676 249.018 352.788 249.578 352.788 250.26V254.474H351.626V250.386C351.626 249.676 351.481 249.144 351.192 248.79C350.903 248.435 350.497 248.258 349.974 248.258C349.61 248.258 349.283 248.356 348.994 248.552C348.705 248.738 348.476 249.014 348.308 249.378C348.14 249.742 348.056 250.19 348.056 250.722V254.474H346.88V250.386C346.88 249.676 346.735 249.144 346.446 248.79C346.157 248.435 345.746 248.258 345.214 248.258C344.859 248.258 344.537 248.356 344.248 248.552C343.968 248.738 343.744 249.014 343.576 249.378C343.408 249.742 343.324 250.19 343.324 250.722V254.474H342.148ZM357.711 254.642C357.048 254.642 356.46 254.488 355.947 254.18C355.443 253.872 355.046 253.442 354.757 252.892C354.467 252.332 354.323 251.683 354.323 250.946C354.323 250.199 354.463 249.55 354.743 249C355.032 248.449 355.433 248.02 355.947 247.712C356.469 247.404 357.067 247.25 357.739 247.25C358.429 247.25 359.013 247.404 359.489 247.712C359.974 248.02 360.343 248.426 360.595 248.93C360.856 249.424 360.987 249.97 360.987 250.568C360.987 250.661 360.987 250.759 360.987 250.862C360.987 250.964 360.982 251.081 360.973 251.212H355.205V250.302H359.839C359.811 249.658 359.596 249.154 359.195 248.79C358.803 248.426 358.308 248.244 357.711 248.244C357.309 248.244 356.936 248.337 356.591 248.524C356.255 248.701 355.984 248.967 355.779 249.322C355.573 249.667 355.471 250.101 355.471 250.624V251.016C355.471 251.594 355.573 252.08 355.779 252.472C355.993 252.864 356.269 253.158 356.605 253.354C356.95 253.55 357.319 253.648 357.711 253.648C358.205 253.648 358.611 253.54 358.929 253.326C359.255 253.102 359.489 252.803 359.629 252.43H360.791C360.679 252.85 360.483 253.228 360.203 253.564C359.923 253.9 359.573 254.166 359.153 254.362C358.742 254.548 358.261 254.642 357.711 254.642Z" fill="#A9A9A9"/>
<path d="M280.932 270.676V288.131H278.29V273.318H278.188L274.012 276.046V273.523L278.367 270.676H280.932ZM291.25 288.369C290.08 288.369 289.034 288.168 288.114 287.764C287.199 287.361 286.475 286.801 285.941 286.085C285.412 285.364 285.128 284.529 285.088 283.58H287.764C287.799 284.097 287.972 284.546 288.284 284.926C288.603 285.301 289.017 285.591 289.529 285.796C290.04 286 290.608 286.102 291.233 286.102C291.921 286.102 292.529 285.983 293.057 285.744C293.591 285.506 294.009 285.173 294.31 284.747C294.611 284.316 294.762 283.818 294.762 283.256C294.762 282.671 294.611 282.156 294.31 281.713C294.014 281.264 293.58 280.912 293.006 280.656C292.438 280.401 291.75 280.273 290.943 280.273H289.469V278.125H290.943C291.591 278.125 292.159 278.009 292.648 277.776C293.142 277.543 293.529 277.219 293.807 276.804C294.086 276.384 294.225 275.892 294.225 275.33C294.225 274.79 294.103 274.321 293.858 273.923C293.62 273.52 293.279 273.205 292.836 272.977C292.398 272.75 291.881 272.637 291.284 272.637C290.716 272.637 290.185 272.742 289.691 272.952C289.202 273.156 288.804 273.452 288.497 273.838C288.191 274.219 288.026 274.676 288.003 275.21H285.455C285.483 274.267 285.762 273.438 286.29 272.722C286.824 272.006 287.529 271.446 288.404 271.043C289.279 270.639 290.25 270.438 291.318 270.438C292.438 270.438 293.404 270.656 294.216 271.094C295.034 271.526 295.665 272.102 296.108 272.824C296.557 273.546 296.779 274.335 296.773 275.193C296.779 276.171 296.506 277 295.955 277.682C295.409 278.364 294.682 278.821 293.773 279.054V279.191C294.932 279.367 295.83 279.827 296.466 280.571C297.108 281.316 297.426 282.239 297.421 283.341C297.426 284.301 297.159 285.162 296.62 285.923C296.086 286.685 295.355 287.284 294.429 287.722C293.503 288.154 292.443 288.369 291.25 288.369ZM300.162 288.131V286.222L306.069 280.102C306.699 279.438 307.219 278.855 307.628 278.355C308.043 277.85 308.353 277.369 308.557 276.915C308.762 276.46 308.864 275.977 308.864 275.466C308.864 274.887 308.728 274.387 308.455 273.966C308.182 273.54 307.81 273.213 307.338 272.986C306.867 272.753 306.336 272.637 305.745 272.637C305.12 272.637 304.574 272.764 304.108 273.02C303.642 273.276 303.284 273.637 303.034 274.102C302.784 274.568 302.659 275.114 302.659 275.739H300.145C300.145 274.676 300.39 273.747 300.878 272.952C301.367 272.156 302.037 271.54 302.89 271.102C303.742 270.659 304.711 270.438 305.796 270.438C306.892 270.438 307.858 270.656 308.694 271.094C309.534 271.526 310.191 272.117 310.662 272.867C311.134 273.611 311.37 274.452 311.37 275.389C311.37 276.037 311.248 276.671 311.003 277.29C310.765 277.909 310.347 278.6 309.75 279.361C309.154 280.117 308.324 281.034 307.262 282.114L303.793 285.744V285.872H311.651V288.131H300.162ZM321.023 270.676V288.131H318.381V273.318H318.279L314.103 276.046V273.523L318.458 270.676H321.023ZM333.719 280.358V288.131H331.17V270.676H333.685V277.171H333.847C334.153 276.466 334.622 275.906 335.253 275.492C335.884 275.077 336.707 274.869 337.724 274.869C338.622 274.869 339.406 275.054 340.077 275.423C340.753 275.793 341.276 276.344 341.645 277.077C342.02 277.804 342.207 278.713 342.207 279.804V288.131H339.659V280.111C339.659 279.151 339.412 278.406 338.918 277.878C338.423 277.344 337.736 277.077 336.855 277.077C336.253 277.077 335.713 277.205 335.236 277.46C334.764 277.716 334.392 278.091 334.119 278.585C333.852 279.074 333.719 279.665 333.719 280.358ZM345.128 288.131V275.04H347.591V277.119H347.727C347.966 276.415 348.387 275.861 348.989 275.458C349.597 275.048 350.284 274.844 351.051 274.844C351.21 274.844 351.398 274.85 351.614 274.861C351.835 274.872 352.009 274.887 352.134 274.904V277.341C352.031 277.313 351.85 277.281 351.588 277.247C351.327 277.208 351.065 277.188 350.804 277.188C350.202 277.188 349.665 277.316 349.193 277.571C348.727 277.821 348.358 278.171 348.085 278.619C347.813 279.063 347.676 279.568 347.676 280.137V288.131H345.128ZM363.669 278.236L361.359 278.645C361.262 278.35 361.109 278.068 360.899 277.801C360.694 277.534 360.416 277.316 360.063 277.145C359.711 276.975 359.271 276.889 358.742 276.889C358.021 276.889 357.419 277.051 356.936 277.375C356.453 277.693 356.211 278.105 356.211 278.611C356.211 279.048 356.373 279.401 356.697 279.668C357.021 279.935 357.544 280.154 358.265 280.324L360.345 280.801C361.549 281.08 362.447 281.509 363.038 282.088C363.629 282.668 363.924 283.421 363.924 284.347C363.924 285.131 363.697 285.83 363.242 286.443C362.794 287.051 362.166 287.529 361.359 287.875C360.558 288.222 359.629 288.395 358.572 288.395C357.106 288.395 355.91 288.083 354.984 287.458C354.058 286.827 353.49 285.932 353.279 284.773L355.742 284.398C355.896 285.04 356.211 285.526 356.688 285.855C357.166 286.179 357.788 286.341 358.555 286.341C359.39 286.341 360.058 286.168 360.558 285.821C361.058 285.469 361.308 285.04 361.308 284.534C361.308 284.125 361.154 283.781 360.848 283.503C360.546 283.225 360.083 283.014 359.458 282.872L357.242 282.387C356.021 282.108 355.117 281.665 354.532 281.057C353.953 280.449 353.663 279.679 353.663 278.747C353.663 277.975 353.879 277.298 354.311 276.719C354.742 276.139 355.339 275.688 356.1 275.364C356.862 275.034 357.734 274.869 358.717 274.869C360.132 274.869 361.245 275.176 362.058 275.79C362.87 276.398 363.407 277.213 363.669 278.236ZM367.925 288.293C367.459 288.293 367.059 288.128 366.723 287.798C366.388 287.463 366.221 287.06 366.221 286.588C366.221 286.122 366.388 285.725 366.723 285.395C367.059 285.06 367.459 284.892 367.925 284.892C368.391 284.892 368.792 285.06 369.127 285.395C369.462 285.725 369.63 286.122 369.63 286.588C369.63 286.901 369.55 287.188 369.391 287.449C369.238 287.705 369.033 287.909 368.777 288.063C368.522 288.216 368.238 288.293 367.925 288.293Z" fill="white"/>
</g>
</g>
<g filter="url(#filter4_i_616_2568)">
<g clip-path="url(#clip2_616_2568)">
<rect x="248" y="329" width="390" height="97" rx="12" fill="#080808"/>
<g opacity="0.1">
<rect width="390" height="97" transform="translate(248 329)" fill="url(#paint3_radial_616_2568)"/>
</g>
<path d="M340.56 396.223C340.26 396.515 340.255 396.995 340.548 397.295C340.841 397.594 341.321 397.599 341.62 397.307L341.09 396.765L340.56 396.223ZM346.776 391.202L347.306 390.66L346.776 390.141L346.246 390.66L346.776 391.202ZM350.946 395.281L350.416 395.823L350.946 396.342L351.476 395.823L350.946 395.281ZM358.906 388.244C358.911 387.825 358.575 387.482 358.157 387.477L351.334 387.402C350.915 387.398 350.572 387.733 350.567 388.152C350.563 388.571 350.898 388.914 351.317 388.918L357.382 388.985L357.315 395.05C357.311 395.469 357.646 395.812 358.065 395.816C358.484 395.821 358.827 395.485 358.831 395.067L358.906 388.244ZM341.09 396.765L341.62 397.307L347.306 391.744L346.776 391.202L346.246 390.66L340.56 396.223L341.09 396.765ZM346.776 391.202L346.246 391.744L350.416 395.823L350.946 395.281L351.476 394.739L347.306 390.66L346.776 391.202ZM350.946 395.281L351.476 395.823L358.678 388.777L358.148 388.235L357.618 387.693L350.416 394.739L350.946 395.281Z" fill="#18E0E0"/>
<path d="M373.458 392.175C373.458 393.193 373.274 394.073 372.907 394.814C372.539 395.555 372.035 396.127 371.395 396.529C370.754 396.931 370.022 397.132 369.199 397.132C368.376 397.132 367.644 396.931 367.003 396.529C366.363 396.127 365.859 395.555 365.491 394.814C365.124 394.073 364.94 393.193 364.94 392.175C364.94 391.158 365.124 390.278 365.491 389.537C365.859 388.796 366.363 388.224 367.003 387.822C367.644 387.42 368.376 387.219 369.199 387.219C370.022 387.219 370.754 387.42 371.395 387.822C372.035 388.224 372.539 388.796 372.907 389.537C373.274 390.278 373.458 391.158 373.458 392.175ZM372.327 392.175C372.327 391.34 372.188 390.635 371.908 390.06C371.632 389.485 371.256 389.05 370.782 388.755C370.311 388.46 369.783 388.312 369.199 388.312C368.615 388.312 368.086 388.46 367.611 388.755C367.14 389.05 366.765 389.485 366.485 390.06C366.209 390.635 366.071 391.34 366.071 392.175C366.071 393.011 366.209 393.716 366.485 394.291C366.765 394.866 367.14 395.301 367.611 395.596C368.086 395.891 368.615 396.039 369.199 396.039C369.783 396.039 370.311 395.891 370.782 395.596C371.256 395.301 371.632 394.866 371.908 394.291C372.188 393.716 372.327 393.011 372.327 392.175ZM376.119 392.647V397H375.007V389.763H376.081V390.894H376.175C376.345 390.526 376.602 390.231 376.948 390.008C377.293 389.782 377.74 389.669 378.286 389.669C378.776 389.669 379.205 389.769 379.572 389.97C379.94 390.168 380.226 390.47 380.43 390.875C380.634 391.277 380.736 391.786 380.736 392.402V397H379.624V392.477C379.624 391.908 379.476 391.466 379.181 391.148C378.886 390.828 378.481 390.668 377.966 390.668C377.611 390.668 377.293 390.745 377.014 390.899C376.738 391.052 376.519 391.277 376.359 391.572C376.199 391.868 376.119 392.226 376.119 392.647ZM389.116 389.763V390.705H385.366V389.763H389.116ZM386.459 388.029H387.571V394.927C387.571 395.241 387.616 395.477 387.707 395.634C387.801 395.788 387.921 395.891 388.065 395.945C388.213 395.995 388.368 396.02 388.532 396.02C388.654 396.02 388.755 396.014 388.833 396.001C388.912 395.985 388.975 395.973 389.022 395.963L389.248 396.962C389.173 396.991 389.067 397.019 388.932 397.047C388.797 397.079 388.626 397.094 388.419 397.094C388.105 397.094 387.797 397.027 387.495 396.892C387.197 396.757 386.949 396.551 386.751 396.274C386.556 395.998 386.459 395.649 386.459 395.228V388.029ZM390.523 397V389.763H391.597V390.856H391.673C391.805 390.498 392.043 390.208 392.389 389.985C392.735 389.762 393.124 389.65 393.557 389.65C393.639 389.65 393.741 389.652 393.864 389.655C393.986 389.658 394.079 389.663 394.142 389.669V390.8C394.104 390.79 394.018 390.776 393.883 390.757C393.751 390.735 393.611 390.724 393.463 390.724C393.111 390.724 392.797 390.798 392.521 390.946C392.248 391.09 392.031 391.291 391.871 391.549C391.714 391.803 391.635 392.094 391.635 392.42V397H390.523ZM397.324 397.17C396.865 397.17 396.449 397.083 396.075 396.91C395.702 396.735 395.405 396.482 395.185 396.152C394.965 395.819 394.855 395.417 394.855 394.946C394.855 394.531 394.937 394.195 395.1 393.938C395.263 393.677 395.482 393.473 395.755 393.325C396.028 393.177 396.33 393.067 396.66 392.995C396.993 392.92 397.327 392.86 397.663 392.816C398.103 392.76 398.459 392.717 398.733 392.689C399.009 392.658 399.21 392.606 399.336 392.533C399.465 392.461 399.529 392.336 399.529 392.157V392.119C399.529 391.654 399.402 391.293 399.147 391.035C398.896 390.778 398.514 390.649 398.002 390.649C397.472 390.649 397.055 390.765 396.754 390.998C396.452 391.23 396.24 391.478 396.118 391.742L395.062 391.365C395.251 390.925 395.502 390.583 395.816 390.338C396.134 390.09 396.479 389.917 396.853 389.82C397.23 389.719 397.6 389.669 397.965 389.669C398.197 389.669 398.464 389.697 398.766 389.754C399.07 389.807 399.364 389.919 399.647 390.088C399.933 390.258 400.17 390.514 400.358 390.856C400.547 391.199 400.641 391.657 400.641 392.232V397H399.529V396.02H399.472C399.397 396.177 399.271 396.345 399.096 396.524C398.92 396.703 398.686 396.856 398.394 396.981C398.101 397.107 397.745 397.17 397.324 397.17ZM397.494 396.171C397.933 396.171 398.304 396.084 398.606 395.912C398.91 395.739 399.14 395.516 399.293 395.243C399.45 394.969 399.529 394.682 399.529 394.38V393.363C399.482 393.419 399.378 393.471 399.218 393.518C399.061 393.562 398.879 393.601 398.671 393.636C398.467 393.667 398.268 393.696 398.073 393.721C397.882 393.743 397.726 393.762 397.607 393.777C397.318 393.815 397.048 393.876 396.796 393.961C396.548 394.043 396.347 394.167 396.193 394.333C396.042 394.497 395.967 394.72 395.967 395.002C395.967 395.389 396.11 395.681 396.396 395.879C396.685 396.073 397.051 396.171 397.494 396.171ZM405.345 397.151C404.667 397.151 404.082 396.991 403.592 396.67C403.102 396.35 402.725 395.908 402.462 395.346C402.198 394.784 402.066 394.142 402.066 393.419C402.066 392.684 402.201 392.036 402.471 391.473C402.744 390.908 403.124 390.467 403.611 390.149C404.101 389.829 404.673 389.669 405.326 389.669C405.835 389.669 406.294 389.763 406.702 389.952C407.11 390.14 407.445 390.404 407.706 390.743C407.966 391.082 408.128 391.478 408.191 391.93H407.079C406.994 391.601 406.806 391.308 406.514 391.054C406.225 390.796 405.835 390.668 405.345 390.668C404.912 390.668 404.532 390.781 404.205 391.007C403.881 391.23 403.628 391.546 403.446 391.954C403.267 392.359 403.178 392.835 403.178 393.382C403.178 393.941 403.266 394.428 403.442 394.842C403.621 395.257 403.872 395.579 404.195 395.808C404.522 396.037 404.905 396.152 405.345 396.152C405.634 396.152 405.896 396.102 406.132 396.001C406.367 395.901 406.567 395.756 406.73 395.568C406.894 395.379 407.01 395.153 407.079 394.889H408.191C408.128 395.316 407.973 395.701 407.724 396.044C407.479 396.383 407.154 396.653 406.749 396.854C406.347 397.052 405.879 397.151 405.345 397.151ZM410.587 394.362L410.569 392.986H410.795L413.961 389.763H415.337L411.963 393.174H411.869L410.587 394.362ZM409.551 397V387.351H410.663V397H409.551ZM414.149 397L411.322 393.419L412.114 392.647L415.563 397H414.149Z" fill="#18E0E0"/>
<circle opacity="0.06" cx="588" cy="378" r="28" fill="#B0B0B0"/>
<g clip-path="url(#clip3_616_2568)">
<path d="M580.285 374.315H580.559C581.612 374.315 582.474 375.177 582.474 376.23V385.809C582.474 386.863 581.612 387.725 580.559 387.725H580.285C579.231 387.725 578.369 386.863 578.369 385.809V376.23C578.369 375.177 579.231 374.315 580.285 374.315V374.315ZM587.948 368.567C589.002 368.567 589.864 369.429 589.864 370.483V385.809C589.864 386.863 589.002 387.725 587.948 387.725C586.894 387.725 586.032 386.863 586.032 385.809V370.483C586.032 369.429 586.894 368.567 587.948 368.567ZM595.611 379.515C596.665 379.515 597.527 380.377 597.527 381.43V385.809C597.527 386.863 596.665 387.725 595.611 387.725C594.557 387.725 593.695 386.863 593.695 385.809V381.43C593.695 380.377 594.557 379.515 595.611 379.515V379.515Z" fill="#F2C6A6"/>
</g>
<path d="M273.681 364.474V354.674H274.857V363.536H279.421V364.474H273.681ZM283.787 364.642C283.124 364.642 282.536 364.488 282.023 364.18C281.519 363.872 281.122 363.442 280.833 362.892C280.544 362.332 280.399 361.683 280.399 360.946C280.399 360.199 280.539 359.55 280.819 359C281.108 358.449 281.51 358.02 282.023 357.712C282.546 357.404 283.143 357.25 283.815 357.25C284.506 357.25 285.089 357.404 285.565 357.712C286.05 358.02 286.419 358.426 286.671 358.93C286.932 359.424 287.063 359.97 287.063 360.568C287.063 360.661 287.063 360.759 287.063 360.862C287.063 360.964 287.058 361.081 287.049 361.212H281.281V360.302H285.915C285.887 359.658 285.672 359.154 285.271 358.79C284.879 358.426 284.384 358.244 283.787 358.244C283.386 358.244 283.012 358.337 282.667 358.524C282.331 358.701 282.06 358.967 281.855 359.322C281.65 359.667 281.547 360.101 281.547 360.624V361.016C281.547 361.594 281.65 362.08 281.855 362.472C282.07 362.864 282.345 363.158 282.681 363.354C283.026 363.55 283.395 363.648 283.787 363.648C284.282 363.648 284.688 363.54 285.005 363.326C285.332 363.102 285.565 362.803 285.705 362.43H286.867C286.755 362.85 286.559 363.228 286.279 363.564C285.999 363.9 285.649 364.166 285.229 364.362C284.818 364.548 284.338 364.642 283.787 364.642ZM290.946 364.642C290.377 364.642 289.901 364.544 289.518 364.348C289.135 364.142 288.851 363.876 288.664 363.55C288.477 363.214 288.384 362.85 288.384 362.458C288.384 361.982 288.505 361.58 288.748 361.254C289 360.918 289.35 360.666 289.798 360.498C290.255 360.32 290.792 360.232 291.408 360.232H293.27C293.27 359.793 293.2 359.429 293.06 359.14C292.929 358.841 292.733 358.617 292.472 358.468C292.22 358.318 291.903 358.244 291.52 358.244C291.072 358.244 290.685 358.356 290.358 358.58C290.031 358.804 289.831 359.135 289.756 359.574H288.552C288.608 359.07 288.776 358.65 289.056 358.314C289.345 357.968 289.709 357.707 290.148 357.53C290.587 357.343 291.044 357.25 291.52 357.25C292.173 357.25 292.715 357.371 293.144 357.614C293.583 357.847 293.909 358.178 294.124 358.608C294.339 359.028 294.446 359.527 294.446 360.106V364.474H293.396L293.326 363.228C293.233 363.424 293.111 363.61 292.962 363.788C292.822 363.956 292.654 364.105 292.458 364.236C292.262 364.357 292.038 364.455 291.786 364.53C291.543 364.604 291.263 364.642 290.946 364.642ZM291.128 363.648C291.455 363.648 291.749 363.582 292.01 363.452C292.281 363.312 292.509 363.125 292.696 362.892C292.883 362.649 293.023 362.383 293.116 362.094C293.219 361.804 293.27 361.501 293.27 361.184V361.142H291.506C291.049 361.142 290.68 361.198 290.4 361.31C290.12 361.412 289.919 361.562 289.798 361.758C289.677 361.944 289.616 362.159 289.616 362.402C289.616 362.654 289.672 362.873 289.784 363.06C289.905 363.246 290.078 363.391 290.302 363.494C290.535 363.596 290.811 363.648 291.128 363.648ZM299.373 364.642C298.692 364.642 298.094 364.483 297.581 364.166C297.068 363.839 296.671 363.396 296.391 362.836C296.111 362.276 295.971 361.641 295.971 360.932C295.971 360.222 296.111 359.592 296.391 359.042C296.671 358.482 297.068 358.043 297.581 357.726C298.104 357.408 298.706 357.25 299.387 357.25C299.966 357.25 300.47 357.366 300.899 357.6C301.338 357.833 301.674 358.16 301.907 358.58V354.394H303.083V364.474H302.019L301.921 363.312C301.772 363.545 301.58 363.764 301.347 363.97C301.114 364.166 300.834 364.329 300.507 364.46C300.18 364.581 299.802 364.642 299.373 364.642ZM299.513 363.62C299.98 363.62 300.39 363.508 300.745 363.284C301.1 363.06 301.375 362.752 301.571 362.36C301.767 361.958 301.865 361.487 301.865 360.946C301.865 360.414 301.767 359.947 301.571 359.546C301.375 359.144 301.1 358.832 300.745 358.608C300.39 358.384 299.98 358.272 299.513 358.272C299.056 358.272 298.65 358.384 298.295 358.608C297.94 358.832 297.665 359.144 297.469 359.546C297.273 359.947 297.175 360.414 297.175 360.946C297.175 361.487 297.273 361.958 297.469 362.36C297.665 362.752 297.94 363.06 298.295 363.284C298.65 363.508 299.056 363.62 299.513 363.62ZM307.703 364.642C307.115 364.642 306.601 364.544 306.163 364.348C305.733 364.152 305.388 363.881 305.127 363.536C304.875 363.181 304.721 362.766 304.665 362.29H305.869C305.915 362.532 306.013 362.756 306.163 362.962C306.312 363.167 306.513 363.335 306.765 363.466C307.026 363.587 307.343 363.648 307.717 363.648C308.043 363.648 308.314 363.601 308.529 363.508C308.743 363.405 308.902 363.27 309.005 363.102C309.117 362.934 309.173 362.752 309.173 362.556C309.173 362.266 309.103 362.047 308.963 361.898C308.832 361.748 308.636 361.632 308.375 361.548C308.113 361.454 307.796 361.375 307.423 361.31C307.115 361.254 306.811 361.179 306.513 361.086C306.214 360.992 305.948 360.871 305.715 360.722C305.481 360.563 305.295 360.372 305.155 360.148C305.024 359.924 304.959 359.648 304.959 359.322C304.959 358.92 305.061 358.566 305.267 358.258C305.472 357.94 305.766 357.693 306.149 357.516C306.541 357.338 306.993 357.25 307.507 357.25C308.263 357.25 308.874 357.432 309.341 357.796C309.807 358.16 310.083 358.687 310.167 359.378H309.005C308.958 359.023 308.804 358.748 308.543 358.552C308.291 358.346 307.941 358.244 307.493 358.244C307.054 358.244 306.718 358.332 306.485 358.51C306.261 358.687 306.149 358.92 306.149 359.21C306.149 359.396 306.209 359.564 306.331 359.714C306.461 359.854 306.648 359.975 306.891 360.078C307.143 360.18 307.451 360.264 307.815 360.33C308.281 360.414 308.706 360.526 309.089 360.666C309.471 360.806 309.779 361.016 310.013 361.296C310.255 361.566 310.377 361.954 310.377 362.458C310.377 362.896 310.265 363.279 310.041 363.606C309.826 363.932 309.518 364.189 309.117 364.376C308.715 364.553 308.244 364.642 307.703 364.642ZM320.073 364.642C319.158 364.642 318.355 364.432 317.665 364.012C316.974 363.582 316.437 362.99 316.055 362.234C315.672 361.478 315.481 360.596 315.481 359.588C315.481 358.589 315.672 357.707 316.055 356.942C316.447 356.176 316.997 355.579 317.707 355.15C318.425 354.72 319.27 354.506 320.241 354.506C321.342 354.506 322.261 354.772 322.999 355.304C323.736 355.826 324.207 356.559 324.413 357.502H323.055C322.924 356.914 322.616 356.447 322.131 356.102C321.645 355.756 321.015 355.584 320.241 355.584C319.522 355.584 318.892 355.747 318.351 356.074C317.819 356.391 317.408 356.848 317.119 357.446C316.829 358.043 316.685 358.757 316.685 359.588C316.685 360.418 316.829 361.137 317.119 361.744C317.408 362.341 317.809 362.798 318.323 363.116C318.845 363.433 319.443 363.592 320.115 363.592C321.16 363.592 321.949 363.284 322.481 362.668C323.013 362.052 323.316 361.216 323.391 360.162H320.563V359.238H324.595V364.474H323.517L323.419 362.864C323.185 363.246 322.915 363.573 322.607 363.844C322.308 364.105 321.953 364.306 321.543 364.446C321.132 364.576 320.642 364.642 320.073 364.642ZM329.492 364.642C328.829 364.642 328.241 364.488 327.728 364.18C327.224 363.872 326.827 363.442 326.538 362.892C326.249 362.332 326.104 361.683 326.104 360.946C326.104 360.199 326.244 359.55 326.524 359C326.813 358.449 327.215 358.02 327.728 357.712C328.251 357.404 328.848 357.25 329.52 357.25C330.211 357.25 330.794 357.404 331.27 357.712C331.755 358.02 332.124 358.426 332.376 358.93C332.637 359.424 332.768 359.97 332.768 360.568C332.768 360.661 332.768 360.759 332.768 360.862C332.768 360.964 332.763 361.081 332.754 361.212H326.986V360.302H331.62C331.592 359.658 331.377 359.154 330.976 358.79C330.584 358.426 330.089 358.244 329.492 358.244C329.091 358.244 328.717 358.337 328.372 358.524C328.036 358.701 327.765 358.967 327.56 359.322C327.355 359.667 327.252 360.101 327.252 360.624V361.016C327.252 361.594 327.355 362.08 327.56 362.472C327.775 362.864 328.05 363.158 328.386 363.354C328.731 363.55 329.1 363.648 329.492 363.648C329.987 363.648 330.393 363.54 330.71 363.326C331.037 363.102 331.27 362.803 331.41 362.43H332.572C332.46 362.85 332.264 363.228 331.984 363.564C331.704 363.9 331.354 364.166 330.934 364.362C330.523 364.548 330.043 364.642 329.492 364.642ZM334.355 364.474V357.418H335.419L335.475 358.65C335.699 358.211 336.016 357.87 336.427 357.628C336.847 357.376 337.323 357.25 337.855 357.25C338.406 357.25 338.882 357.362 339.283 357.586C339.684 357.8 339.997 358.132 340.221 358.58C340.445 359.018 340.557 359.578 340.557 360.26V364.474H339.381V360.386C339.381 359.676 339.222 359.144 338.905 358.79C338.597 358.435 338.158 358.258 337.589 358.258C337.197 358.258 336.847 358.356 336.539 358.552C336.231 358.738 335.984 359.014 335.797 359.378C335.62 359.732 335.531 360.176 335.531 360.708V364.474H334.355ZM345.488 364.642C344.825 364.642 344.237 364.488 343.724 364.18C343.22 363.872 342.823 363.442 342.534 362.892C342.245 362.332 342.1 361.683 342.1 360.946C342.1 360.199 342.24 359.55 342.52 359C342.809 358.449 343.211 358.02 343.724 357.712C344.247 357.404 344.844 357.25 345.516 357.25C346.207 357.25 346.79 357.404 347.266 357.712C347.751 358.02 348.12 358.426 348.372 358.93C348.633 359.424 348.764 359.97 348.764 360.568C348.764 360.661 348.764 360.759 348.764 360.862C348.764 360.964 348.759 361.081 348.75 361.212H342.982V360.302H347.616C347.588 359.658 347.373 359.154 346.972 358.79C346.58 358.426 346.085 358.244 345.488 358.244C345.087 358.244 344.713 358.337 344.368 358.524C344.032 358.701 343.761 358.967 343.556 359.322C343.351 359.667 343.248 360.101 343.248 360.624V361.016C343.248 361.594 343.351 362.08 343.556 362.472C343.771 362.864 344.046 363.158 344.382 363.354C344.727 363.55 345.096 363.648 345.488 363.648C345.983 363.648 346.389 363.54 346.706 363.326C347.033 363.102 347.266 362.803 347.406 362.43H348.568C348.456 362.85 348.26 363.228 347.98 363.564C347.7 363.9 347.35 364.166 346.93 364.362C346.519 364.548 346.039 364.642 345.488 364.642ZM350.351 364.474V357.418H351.415L351.499 358.762C351.658 358.444 351.858 358.174 352.101 357.95C352.353 357.726 352.652 357.553 352.997 357.432C353.352 357.31 353.753 357.25 354.201 357.25V358.482H353.767C353.468 358.482 353.184 358.524 352.913 358.608C352.642 358.682 352.4 358.808 352.185 358.986C351.98 359.163 351.816 359.406 351.695 359.714C351.583 360.012 351.527 360.386 351.527 360.834V364.474H350.351ZM357.829 364.642C357.259 364.642 356.783 364.544 356.401 364.348C356.018 364.142 355.733 363.876 355.547 363.55C355.36 363.214 355.267 362.85 355.267 362.458C355.267 361.982 355.388 361.58 355.631 361.254C355.883 360.918 356.233 360.666 356.681 360.498C357.138 360.32 357.675 360.232 358.291 360.232H360.153C360.153 359.793 360.083 359.429 359.943 359.14C359.812 358.841 359.616 358.617 359.355 358.468C359.103 358.318 358.785 358.244 358.403 358.244C357.955 358.244 357.567 358.356 357.241 358.58C356.914 358.804 356.713 359.135 356.639 359.574H355.435C355.491 359.07 355.659 358.65 355.939 358.314C356.228 357.968 356.592 357.707 357.031 357.53C357.469 357.343 357.927 357.25 358.403 357.25C359.056 357.25 359.597 357.371 360.027 357.614C360.465 357.847 360.792 358.178 361.007 358.608C361.221 359.028 361.329 359.527 361.329 360.106V364.474H360.279L360.209 363.228C360.115 363.424 359.994 363.61 359.845 363.788C359.705 363.956 359.537 364.105 359.341 364.236C359.145 364.357 358.921 364.455 358.669 364.53C358.426 364.604 358.146 364.642 357.829 364.642ZM358.011 363.648C358.337 363.648 358.631 363.582 358.893 363.452C359.163 363.312 359.392 363.125 359.579 362.892C359.765 362.649 359.905 362.383 359.999 362.094C360.101 361.804 360.153 361.501 360.153 361.184V361.142H358.389C357.931 361.142 357.563 361.198 357.283 361.31C357.003 361.412 356.802 361.562 356.681 361.758C356.559 361.944 356.499 362.159 356.499 362.402C356.499 362.654 356.555 362.873 356.667 363.06C356.788 363.246 356.961 363.391 357.185 363.494C357.418 363.596 357.693 363.648 358.011 363.648ZM365.729 364.474C365.309 364.474 364.945 364.408 364.637 364.278C364.329 364.147 364.091 363.928 363.923 363.62C363.764 363.302 363.685 362.878 363.685 362.346V358.412H362.453V357.418H363.685L363.839 355.71H364.861V357.418H366.905V358.412H364.861V362.346C364.861 362.784 364.949 363.083 365.127 363.242C365.304 363.391 365.617 363.466 366.065 363.466H366.821V364.474H365.729ZM371.342 364.642C370.679 364.642 370.091 364.488 369.578 364.18C369.074 363.872 368.677 363.442 368.388 362.892C368.098 362.332 367.954 361.683 367.954 360.946C367.954 360.199 368.094 359.55 368.374 359C368.663 358.449 369.064 358.02 369.578 357.712C370.1 357.404 370.698 357.25 371.37 357.25C372.06 357.25 372.644 357.404 373.12 357.712C373.605 358.02 373.974 358.426 374.226 358.93C374.487 359.424 374.618 359.97 374.618 360.568C374.618 360.661 374.618 360.759 374.618 360.862C374.618 360.964 374.613 361.081 374.604 361.212H368.836V360.302H373.47C373.442 359.658 373.227 359.154 372.826 358.79C372.434 358.426 371.939 358.244 371.342 358.244C370.94 358.244 370.567 358.337 370.222 358.524C369.886 358.701 369.615 358.967 369.41 359.322C369.204 359.667 369.102 360.101 369.102 360.624V361.016C369.102 361.594 369.204 362.08 369.41 362.472C369.624 362.864 369.9 363.158 370.236 363.354C370.581 363.55 370.95 363.648 371.342 363.648C371.836 363.648 372.242 363.54 372.56 363.326C372.886 363.102 373.12 362.803 373.26 362.43H374.422C374.31 362.85 374.114 363.228 373.834 363.564C373.554 363.9 373.204 364.166 372.784 364.362C372.373 364.548 371.892 364.642 371.342 364.642ZM379.313 364.642C378.631 364.642 378.034 364.483 377.521 364.166C377.007 363.839 376.611 363.396 376.331 362.836C376.051 362.276 375.911 361.641 375.911 360.932C375.911 360.222 376.051 359.592 376.331 359.042C376.611 358.482 377.007 358.043 377.521 357.726C378.043 357.408 378.645 357.25 379.327 357.25C379.905 357.25 380.409 357.366 380.839 357.6C381.277 357.833 381.613 358.16 381.847 358.58V354.394H383.023V364.474H381.959L381.861 363.312C381.711 363.545 381.52 363.764 381.287 363.97C381.053 364.166 380.773 364.329 380.447 364.46C380.12 364.581 379.742 364.642 379.313 364.642ZM379.453 363.62C379.919 363.62 380.33 363.508 380.685 363.284C381.039 363.06 381.315 362.752 381.511 362.36C381.707 361.958 381.805 361.487 381.805 360.946C381.805 360.414 381.707 359.947 381.511 359.546C381.315 359.144 381.039 358.832 380.685 358.608C380.33 358.384 379.919 358.272 379.453 358.272C378.995 358.272 378.589 358.384 378.235 358.608C377.88 358.832 377.605 359.144 377.409 359.546C377.213 359.947 377.115 360.414 377.115 360.946C377.115 361.487 377.213 361.958 377.409 362.36C377.605 362.752 377.88 363.06 378.235 363.284C378.589 363.508 378.995 363.62 379.453 363.62Z" fill="#A9A9A9"/>
<path d="M274.898 398.131L282.517 383.063V382.935H273.705V380.676H285.244V383.012L277.651 398.131H274.898ZM287.728 398.131V396.222L293.635 390.102C294.265 389.438 294.785 388.855 295.194 388.355C295.609 387.85 295.919 387.369 296.123 386.915C296.328 386.46 296.43 385.977 296.43 385.466C296.43 384.887 296.294 384.387 296.021 383.966C295.748 383.54 295.376 383.213 294.904 382.986C294.433 382.753 293.902 382.637 293.311 382.637C292.686 382.637 292.14 382.764 291.674 383.02C291.208 383.276 290.85 383.637 290.6 384.102C290.35 384.568 290.225 385.114 290.225 385.739H287.711C287.711 384.676 287.956 383.747 288.444 382.952C288.933 382.156 289.603 381.54 290.456 381.102C291.308 380.659 292.277 380.438 293.362 380.438C294.458 380.438 295.424 380.656 296.26 381.094C297.1 381.526 297.757 382.117 298.228 382.867C298.7 383.611 298.936 384.452 298.936 385.389C298.936 386.037 298.814 386.671 298.569 387.29C298.331 387.909 297.913 388.6 297.316 389.361C296.72 390.117 295.89 391.034 294.828 392.114L291.359 395.744V395.872H299.217V398.131H287.728ZM308.061 398.369C307.282 398.358 306.515 398.216 305.76 397.943C305.01 397.671 304.328 397.216 303.714 396.58C303.101 395.943 302.609 395.088 302.24 394.014C301.876 392.941 301.694 391.6 301.694 389.992C301.694 388.469 301.845 387.117 302.146 385.935C302.453 384.753 302.893 383.756 303.467 382.943C304.041 382.125 304.734 381.503 305.547 381.077C306.359 380.651 307.271 380.438 308.282 380.438C309.322 380.438 310.245 380.642 311.052 381.051C311.859 381.46 312.512 382.026 313.012 382.747C313.518 383.469 313.839 384.29 313.976 385.21H311.376C311.2 384.483 310.851 383.889 310.328 383.429C309.805 382.969 309.123 382.739 308.282 382.739C307.004 382.739 306.007 383.296 305.291 384.409C304.581 385.523 304.223 387.071 304.217 389.054H304.345C304.646 388.56 305.015 388.139 305.453 387.793C305.896 387.441 306.39 387.171 306.936 386.983C307.487 386.79 308.066 386.693 308.674 386.693C309.686 386.693 310.601 386.941 311.419 387.435C312.243 387.923 312.899 388.6 313.387 389.463C313.876 390.327 314.12 391.316 314.12 392.429C314.12 393.543 313.868 394.551 313.362 395.455C312.862 396.358 312.157 397.074 311.248 397.602C310.339 398.125 309.277 398.381 308.061 398.369ZM308.052 396.154C308.723 396.154 309.322 395.989 309.851 395.659C310.379 395.33 310.797 394.887 311.103 394.33C311.41 393.773 311.564 393.151 311.564 392.463C311.564 391.793 311.413 391.182 311.112 390.631C310.816 390.08 310.407 389.642 309.885 389.318C309.368 388.994 308.777 388.833 308.112 388.833C307.606 388.833 307.137 388.929 306.706 389.122C306.28 389.316 305.905 389.583 305.581 389.923C305.257 390.264 305.001 390.656 304.814 391.1C304.632 391.537 304.541 392 304.541 392.489C304.541 393.142 304.691 393.747 304.993 394.304C305.299 394.861 305.717 395.31 306.245 395.651C306.78 395.986 307.382 396.154 308.052 396.154ZM322.549 380.438C323.327 380.443 324.094 380.585 324.85 380.864C325.606 381.142 326.287 381.597 326.895 382.227C327.509 382.858 327.998 383.71 328.361 384.784C328.731 385.852 328.918 387.182 328.924 388.773C328.924 390.301 328.77 391.662 328.464 392.855C328.157 394.043 327.716 395.046 327.143 395.864C326.574 396.682 325.884 397.304 325.072 397.73C324.259 398.156 323.344 398.369 322.327 398.369C321.287 398.369 320.364 398.165 319.557 397.756C318.751 397.347 318.094 396.781 317.589 396.06C317.083 395.333 316.768 394.497 316.643 393.554H319.242C319.412 394.304 319.759 394.912 320.282 395.378C320.81 395.838 321.492 396.068 322.327 396.068C323.606 396.068 324.603 395.512 325.319 394.398C326.035 393.279 326.395 391.716 326.401 389.71H326.265C325.969 390.199 325.6 390.619 325.157 390.972C324.719 391.324 324.228 391.597 323.682 391.79C323.137 391.983 322.554 392.08 321.935 392.08C320.929 392.08 320.015 391.833 319.191 391.338C318.367 390.844 317.711 390.165 317.222 389.301C316.733 388.438 316.489 387.452 316.489 386.344C316.489 385.242 316.739 384.242 317.239 383.344C317.745 382.446 318.449 381.736 319.353 381.213C320.262 380.685 321.327 380.426 322.549 380.438ZM322.557 382.654C321.893 382.654 321.293 382.818 320.759 383.148C320.231 383.472 319.813 383.912 319.506 384.469C319.199 385.02 319.046 385.634 319.046 386.31C319.046 386.986 319.194 387.6 319.489 388.151C319.79 388.696 320.199 389.131 320.716 389.455C321.239 389.773 321.836 389.932 322.506 389.932C323.006 389.932 323.472 389.835 323.904 389.642C324.336 389.449 324.714 389.182 325.037 388.841C325.361 388.494 325.614 388.102 325.796 387.665C325.978 387.227 326.069 386.767 326.069 386.284C326.069 385.642 325.915 385.046 325.608 384.494C325.307 383.943 324.893 383.5 324.364 383.165C323.836 382.824 323.233 382.654 322.557 382.654Z" fill="white"/>
</g>
</g>
<defs>
<filter id="filter0_i_616_2568" x="0" y="0" width="604" height="348" filterUnits="userSpaceOnUse" color-interpolation-filters="sRGB">
<feFlood flood-opacity="0" result="BackgroundImageFix"/>
<feBlend mode="normal" in="SourceGraphic" in2="BackgroundImageFix" result="shape"/>
<feColorMatrix in="SourceAlpha" type="matrix" values="0 0 0 0 0 0 0 0 0 0 0 0 0 0 0 0 0 0 127 0" result="hardAlpha"/>
<feOffset dy="2"/>
<feGaussianBlur stdDeviation="0.5"/>
<feComposite in2="hardAlpha" operator="arithmetic" k2="-1" k3="1"/>
<feColorMatrix type="matrix" values="0 0 0 0 0.811765 0 0 0 0 0.905882 0 0 0 0 1 0 0 0 0.2 0"/>
<feBlend mode="normal" in2="shape" result="effect1_innerShadow_616_2568"/>
</filter>
<filter id="filter1_d_616_2568" x="28.8209" y="175.562" width="440.154" height="110.054" filterUnits="userSpaceOnUse" color-interpolation-filters="sRGB">
<feFlood flood-opacity="0" result="BackgroundImageFix"/>
<feColorMatrix in="SourceAlpha" type="matrix" values="0 0 0 0 0 0 0 0 0 0 0 0 0 0 0 0 0 0 127 0" result="hardAlpha"/>
<feOffset dy="7.65666"/>
<feGaussianBlur stdDeviation="6.18423"/>
<feColorMatrix type="matrix" values="0 0 0 0 0.262745 0 0 0 0 0.0941176 0 0 0 0 1 0 0 0 0.25 0"/>
<feBlend mode="normal" in2="BackgroundImageFix" result="effect1_dropShadow_616_2568"/>
<feBlend mode="normal" in="SourceGraphic" in2="effect1_dropShadow_616_2568" result="shape"/>
</filter>
<filter id="filter2_f_616_2568" x="182.3" y="169.3" width="324.4" height="173.4" filterUnits="userSpaceOnUse" color-interpolation-filters="sRGB">
<feFlood flood-opacity="0" result="BackgroundImageFix"/>
<feBlend mode="normal" in="SourceGraphic" in2="BackgroundImageFix" result="shape"/>
<feGaussianBlur stdDeviation="17.35" result="effect1_foregroundBlur_616_2568"/>
</filter>
<filter id="filter3_i_616_2568" x="248" y="219" width="390" height="98" filterUnits="userSpaceOnUse" color-interpolation-filters="sRGB">
<feFlood flood-opacity="0" result="BackgroundImageFix"/>
<feBlend mode="normal" in="SourceGraphic" in2="BackgroundImageFix" result="shape"/>
<feColorMatrix in="SourceAlpha" type="matrix" values="0 0 0 0 0 0 0 0 0 0 0 0 0 0 0 0 0 0 127 0" result="hardAlpha"/>
<feOffset dy="2"/>
<feGaussianBlur stdDeviation="0.5"/>
<feComposite in2="hardAlpha" operator="arithmetic" k2="-1" k3="1"/>
<feColorMatrix type="matrix" values="0 0 0 0 0.811765 0 0 0 0 0.905882 0 0 0 0 1 0 0 0 0.2 0"/>
<feBlend mode="normal" in2="shape" result="effect1_innerShadow_616_2568"/>
</filter>
<filter id="filter4_i_616_2568" x="248" y="329" width="390" height="98" filterUnits="userSpaceOnUse" color-interpolation-filters="sRGB">
<feFlood flood-opacity="0" result="BackgroundImageFix"/>
<feBlend mode="normal" in="SourceGraphic" in2="BackgroundImageFix" result="shape"/>
<feColorMatrix in="SourceAlpha" type="matrix" values="0 0 0 0 0 0 0 0 0 0 0 0 0 0 0 0 0 0 127 0" result="hardAlpha"/>
<feOffset dy="2"/>
<feGaussianBlur stdDeviation="0.5"/>
<feComposite in2="hardAlpha" operator="arithmetic" k2="-1" k3="1"/>
<feColorMatrix type="matrix" values="0 0 0 0 0.811765 0 0 0 0 0.905882 0 0 0 0 1 0 0 0 0.2 0"/>
<feBlend mode="normal" in2="shape" result="effect1_innerShadow_616_2568"/>
</filter>
<radialGradient id="paint0_radial_616_2568" cx="0" cy="0" r="1" gradientUnits="userSpaceOnUse" gradientTransform="translate(565.948 28.107) scale(302 173.5)">
<stop stop-color="#B8C7D9" stop-opacity="0.5"/>
<stop offset="1" stop-color="#B8C7D9" stop-opacity="0"/>
</radialGradient>
<linearGradient id="paint1_linear_616_2568" x1="409" y1="107.419" x2="409" y2="273.461" gradientUnits="userSpaceOnUse">
<stop stop-color="#F2C6A6"/>
<stop offset="1" stop-color="#BC845B" stop-opacity="0"/>
</linearGradient>
<radialGradient id="paint2_radial_616_2568" cx="0" cy="0" r="1" gradientUnits="userSpaceOnUse" gradientTransform="translate(365.43 7.857) scale(195 48.5)">
<stop stop-color="#B8C7D9" stop-opacity="0.5"/>
<stop offset="1" stop-color="#B8C7D9" stop-opacity="0"/>
</radialGradient>
<radialGradient id="paint3_radial_616_2568" cx="0" cy="0" r="1" gradientUnits="userSpaceOnUse" gradientTransform="translate(365.43 7.857) scale(195 48.5)">
<stop stop-color="#B8C7D9" stop-opacity="0.5"/>
<stop offset="1" stop-color="#B8C7D9" stop-opacity="0"/>
</radialGradient>
<clipPath id="clip0_616_2568">
<rect width="604" height="347" rx="20" fill="white"/>
</clipPath>
<clipPath id="clip1_616_2568">
<rect x="248" y="219" width="390" height="97" rx="12" fill="white"/>
</clipPath>
<clipPath id="clip2_616_2568">
<rect x="248" y="329" width="390" height="97" rx="12" fill="white"/>
</clipPath>
<clipPath id="clip3_616_2568">
<rect width="32.8417" height="32.8417" fill="white" transform="translate(571.527 361.725)"/>
</clipPath>
</defs>
</svg>
