<svg width="555" height="418" viewBox="0 0 555 418" fill="none" xmlns="http://www.w3.org/2000/svg">
<g clip-path="url(#clip0_1282_1215)">
<path d="M0 24C0 10.7452 10.7452 0 24 0H531C544.255 0 555 10.7452 555 24V394C555 407.255 544.255 418 531 418H24C10.7452 418 0 407.255 0 394V24Z" fill="#080808"/>
<path d="M52 456V192" stroke="url(#paint0_linear_1282_1215)" stroke-opacity="0.1" stroke-width="1.5" stroke-linecap="round"/>
<path d="M89 456V192" stroke="url(#paint1_linear_1282_1215)" stroke-opacity="0.1" stroke-width="1.5" stroke-linecap="round"/>
<path d="M126 456V192" stroke="url(#paint2_linear_1282_1215)" stroke-opacity="0.1" stroke-width="1.5" stroke-linecap="round"/>
<path d="M163 456V192" stroke="url(#paint3_linear_1282_1215)" stroke-opacity="0.1" stroke-width="1.5" stroke-linecap="round"/>
<path d="M200 456V192" stroke="url(#paint4_linear_1282_1215)" stroke-opacity="0.1" stroke-width="1.5" stroke-linecap="round"/>
<path d="M237 456V192" stroke="url(#paint5_linear_1282_1215)" stroke-opacity="0.1" stroke-width="1.5" stroke-linecap="round"/>
<path d="M274 456V192" stroke="url(#paint6_linear_1282_1215)" stroke-opacity="0.1" stroke-width="1.5" stroke-linecap="round"/>
<path d="M311 456V192" stroke="url(#paint7_linear_1282_1215)" stroke-opacity="0.1" stroke-width="1.5" stroke-linecap="round"/>
<path d="M348 456V192" stroke="url(#paint8_linear_1282_1215)" stroke-opacity="0.1" stroke-width="1.5" stroke-linecap="round"/>
<path d="M48.48 156C48.416 156 48.36 155.976 48.312 155.928C48.264 155.88 48.24 155.824 48.24 155.76C48.24 155.72 48.244 155.676 48.252 155.628L51.228 147.864C51.26 147.784 51.304 147.72 51.36 147.672C51.416 147.624 51.5 147.6 51.612 147.6H52.428C52.532 147.6 52.612 147.624 52.668 147.672C52.732 147.72 52.78 147.784 52.812 147.864L55.776 155.628C55.792 155.676 55.8 155.72 55.8 155.76C55.8 155.824 55.776 155.88 55.728 155.928C55.68 155.976 55.624 156 55.56 156H54.948C54.852 156 54.78 155.976 54.732 155.928C54.692 155.88 54.664 155.836 54.648 155.796L53.988 154.092H50.052L49.392 155.796C49.384 155.836 49.356 155.88 49.308 155.928C49.26 155.976 49.188 156 49.092 156H48.48ZM50.4 153.06H53.64L52.02 148.8L50.4 153.06ZM59.173 156.12C58.661 156.12 58.225 156.008 57.865 155.784C57.513 155.552 57.245 155.232 57.061 154.824C56.877 154.416 56.785 153.948 56.785 153.42V150.036C56.785 149.956 56.809 149.892 56.857 149.844C56.913 149.788 56.981 149.76 57.061 149.76H57.661C57.741 149.76 57.805 149.788 57.853 149.844C57.909 149.892 57.937 149.956 57.937 150.036V153.36C57.937 154.552 58.457 155.148 59.497 155.148C59.993 155.148 60.389 154.992 60.685 154.68C60.989 154.36 61.141 153.92 61.141 153.36V150.036C61.141 149.956 61.165 149.892 61.213 149.844C61.269 149.788 61.337 149.76 61.417 149.76H62.005C62.093 149.76 62.161 149.788 62.209 149.844C62.257 149.892 62.281 149.956 62.281 150.036V155.724C62.281 155.804 62.257 155.872 62.209 155.928C62.161 155.976 62.093 156 62.005 156H61.453C61.373 156 61.305 155.976 61.249 155.928C61.201 155.872 61.177 155.804 61.177 155.724V155.196C60.961 155.476 60.697 155.7 60.385 155.868C60.081 156.036 59.677 156.12 59.173 156.12ZM66.6198 158.64C66.0758 158.64 65.6278 158.568 65.2758 158.424C64.9318 158.28 64.6598 158.104 64.4598 157.896C64.2678 157.696 64.1278 157.492 64.0398 157.284C63.9598 157.084 63.9158 156.924 63.9078 156.804C63.8998 156.724 63.9238 156.656 63.9798 156.6C64.0438 156.544 64.1118 156.516 64.1838 156.516H64.7598C64.8318 156.516 64.8918 156.532 64.9398 156.564C64.9878 156.596 65.0278 156.664 65.0598 156.768C65.1078 156.888 65.1798 157.02 65.2758 157.164C65.3718 157.316 65.5198 157.444 65.7198 157.548C65.9198 157.66 66.1998 157.716 66.5598 157.716C66.9358 157.716 67.2518 157.664 67.5078 157.56C67.7638 157.464 67.9558 157.288 68.0838 157.032C68.2198 156.784 68.2878 156.44 68.2878 156V155.184C68.0958 155.432 67.8438 155.64 67.5318 155.808C67.2198 155.968 66.8278 156.048 66.3558 156.048C65.9078 156.048 65.5238 155.972 65.2038 155.82C64.8838 155.66 64.6198 155.448 64.4118 155.184C64.2118 154.912 64.0598 154.604 63.9558 154.26C63.8598 153.916 63.8038 153.556 63.7878 153.18C63.7798 152.956 63.7798 152.736 63.7878 152.52C63.8038 152.144 63.8598 151.784 63.9558 151.44C64.0598 151.096 64.2118 150.788 64.4118 150.516C64.6198 150.244 64.8838 150.032 65.2038 149.88C65.5238 149.72 65.9078 149.64 66.3558 149.64C66.8358 149.64 67.2318 149.732 67.5438 149.916C67.8638 150.092 68.1238 150.308 68.3238 150.564V150.048C68.3238 149.968 68.3478 149.9 68.3958 149.844C68.4518 149.788 68.5198 149.76 68.5998 149.76H69.1518C69.2318 149.76 69.2998 149.788 69.3558 149.844C69.4118 149.9 69.4398 149.968 69.4398 150.048V155.868C69.4398 156.404 69.3478 156.88 69.1638 157.296C68.9878 157.712 68.6918 158.04 68.2758 158.28C67.8678 158.52 67.3158 158.64 66.6198 158.64ZM66.5958 155.088C66.9958 155.088 67.3158 154.996 67.5558 154.812C67.8038 154.628 67.9838 154.396 68.0958 154.116C68.2158 153.836 68.2798 153.552 68.2878 153.264C68.2958 153.152 68.2998 153.016 68.2998 152.856C68.2998 152.688 68.2958 152.548 68.2878 152.436C68.2798 152.148 68.2158 151.864 68.0958 151.584C67.9838 151.304 67.8038 151.072 67.5558 150.888C67.3158 150.704 66.9958 150.612 66.5958 150.612C66.1958 150.612 65.8758 150.704 65.6358 150.888C65.3958 151.064 65.2238 151.3 65.1198 151.596C65.0158 151.884 64.9558 152.196 64.9398 152.532C64.9318 152.74 64.9318 152.952 64.9398 153.168C64.9558 153.504 65.0158 153.82 65.1198 154.116C65.2238 154.404 65.3958 154.64 65.6358 154.824C65.8758 155 66.1958 155.088 66.5958 155.088Z" fill="#F8F8F8" fill-opacity="0.7"/>
<path d="M194.244 156.12C193.548 156.12 192.964 156.016 192.492 155.808C192.02 155.592 191.656 155.316 191.4 154.98C191.152 154.636 191.02 154.272 191.004 153.888C191.004 153.824 191.028 153.768 191.076 153.72C191.132 153.664 191.196 153.636 191.268 153.636H191.88C191.976 153.636 192.048 153.66 192.096 153.708C192.144 153.756 192.176 153.812 192.192 153.876C192.232 154.068 192.328 154.26 192.48 154.452C192.64 154.636 192.86 154.792 193.14 154.92C193.428 155.04 193.796 155.1 194.244 155.1C194.932 155.1 195.436 154.98 195.756 154.74C196.084 154.492 196.248 154.164 196.248 153.756C196.248 153.476 196.16 153.252 195.984 153.084C195.816 152.908 195.556 152.752 195.204 152.616C194.852 152.48 194.396 152.332 193.836 152.172C193.252 152.004 192.768 151.82 192.384 151.62C192 151.42 191.712 151.172 191.52 150.876C191.336 150.58 191.244 150.204 191.244 149.748C191.244 149.316 191.36 148.932 191.592 148.596C191.824 148.252 192.156 147.98 192.588 147.78C193.028 147.58 193.56 147.48 194.184 147.48C194.68 147.48 195.112 147.548 195.48 147.684C195.856 147.812 196.168 147.988 196.416 148.212C196.664 148.428 196.852 148.664 196.98 148.92C197.108 149.168 197.176 149.412 197.184 149.652C197.184 149.708 197.164 149.764 197.124 149.82C197.084 149.868 197.02 149.892 196.932 149.892H196.296C196.24 149.892 196.18 149.876 196.116 149.844C196.06 149.812 196.016 149.752 195.984 149.664C195.936 149.336 195.752 149.06 195.432 148.836C195.112 148.612 194.696 148.5 194.184 148.5C193.664 148.5 193.24 148.6 192.912 148.8C192.592 149 192.432 149.312 192.432 149.736C192.432 150.008 192.508 150.236 192.66 150.42C192.812 150.596 193.052 150.752 193.38 150.888C193.708 151.024 194.136 151.168 194.664 151.32C195.304 151.496 195.828 151.684 196.236 151.884C196.644 152.076 196.944 152.32 197.136 152.616C197.336 152.904 197.436 153.276 197.436 153.732C197.436 154.236 197.304 154.668 197.04 155.028C196.776 155.38 196.404 155.652 195.924 155.844C195.452 156.028 194.892 156.12 194.244 156.12ZM201.337 156.12C200.513 156.12 199.857 155.868 199.369 155.364C198.881 154.852 198.613 154.156 198.565 153.276C198.557 153.172 198.553 153.04 198.553 152.88C198.553 152.712 198.557 152.576 198.565 152.472C198.597 151.904 198.729 151.408 198.961 150.984C199.193 150.552 199.509 150.22 199.909 149.988C200.317 149.756 200.793 149.64 201.337 149.64C201.945 149.64 202.453 149.768 202.861 150.024C203.277 150.28 203.593 150.644 203.809 151.116C204.025 151.588 204.133 152.14 204.133 152.772V152.976C204.133 153.064 204.105 153.132 204.049 153.18C204.001 153.228 203.937 153.252 203.857 153.252H199.705C199.705 153.26 199.705 153.276 199.705 153.3C199.705 153.324 199.705 153.344 199.705 153.36C199.721 153.688 199.793 153.996 199.921 154.284C200.049 154.564 200.233 154.792 200.473 154.968C200.713 155.144 201.001 155.232 201.337 155.232C201.625 155.232 201.865 155.188 202.057 155.1C202.249 155.012 202.405 154.916 202.525 154.812C202.645 154.7 202.725 154.616 202.765 154.56C202.837 154.456 202.893 154.396 202.933 154.38C202.973 154.356 203.037 154.344 203.125 154.344H203.701C203.781 154.344 203.845 154.368 203.893 154.416C203.949 154.456 203.973 154.516 203.965 154.596C203.957 154.716 203.893 154.864 203.773 155.04C203.653 155.208 203.481 155.376 203.257 155.544C203.033 155.712 202.761 155.852 202.441 155.964C202.121 156.068 201.753 156.12 201.337 156.12ZM199.705 152.424H202.993V152.388C202.993 152.028 202.925 151.708 202.789 151.428C202.661 151.148 202.473 150.928 202.225 150.768C201.977 150.6 201.681 150.516 201.337 150.516C200.993 150.516 200.697 150.6 200.449 150.768C200.209 150.928 200.025 151.148 199.897 151.428C199.769 151.708 199.705 152.028 199.705 152.388V152.424ZM205.856 158.28C205.776 158.28 205.708 158.252 205.652 158.196C205.604 158.148 205.58 158.084 205.58 158.004V150.036C205.58 149.956 205.604 149.892 205.652 149.844C205.708 149.788 205.776 149.76 205.856 149.76H206.408C206.488 149.76 206.552 149.788 206.6 149.844C206.656 149.892 206.684 149.956 206.684 150.036V150.564C206.876 150.3 207.132 150.08 207.452 149.904C207.772 149.728 208.172 149.64 208.652 149.64C209.1 149.64 209.48 149.716 209.792 149.868C210.112 150.02 210.372 150.228 210.572 150.492C210.78 150.756 210.936 151.056 211.04 151.392C211.144 151.728 211.2 152.088 211.208 152.472C211.216 152.6 211.22 152.736 211.22 152.88C211.22 153.024 211.216 153.16 211.208 153.288C211.2 153.664 211.144 154.024 211.04 154.368C210.936 154.704 210.78 155.004 210.572 155.268C210.372 155.524 210.112 155.732 209.792 155.892C209.48 156.044 209.1 156.12 208.652 156.12C208.188 156.12 207.796 156.036 207.476 155.868C207.164 155.692 206.908 155.476 206.708 155.22V158.004C206.708 158.084 206.684 158.148 206.636 158.196C206.588 158.252 206.52 158.28 206.432 158.28H205.856ZM208.4 155.148C208.816 155.148 209.14 155.06 209.372 154.884C209.612 154.7 209.784 154.464 209.888 154.176C209.992 153.88 210.052 153.564 210.068 153.228C210.076 152.996 210.076 152.764 210.068 152.532C210.052 152.196 209.992 151.884 209.888 151.596C209.784 151.3 209.612 151.064 209.372 150.888C209.14 150.704 208.816 150.612 208.4 150.612C208.008 150.612 207.688 150.704 207.44 150.888C207.2 151.072 207.02 151.308 206.9 151.596C206.788 151.876 206.724 152.164 206.708 152.46C206.7 152.588 206.696 152.74 206.696 152.916C206.696 153.092 206.7 153.248 206.708 153.384C206.716 153.664 206.78 153.94 206.9 154.212C207.028 154.484 207.216 154.708 207.464 154.884C207.712 155.06 208.024 155.148 208.4 155.148Z" fill="#F8F8F8" fill-opacity="0.7"/>
<path d="M336.056 156.12C335.376 156.12 334.792 156.004 334.304 155.772C333.816 155.532 333.44 155.168 333.176 154.68C332.912 154.184 332.764 153.564 332.732 152.82C332.724 152.468 332.72 152.132 332.72 151.812C332.72 151.484 332.724 151.144 332.732 150.792C332.764 150.056 332.916 149.444 333.188 148.956C333.468 148.46 333.852 148.092 334.34 147.852C334.836 147.604 335.408 147.48 336.056 147.48C336.712 147.48 337.284 147.604 337.772 147.852C338.268 148.092 338.656 148.46 338.936 148.956C339.216 149.444 339.368 150.056 339.392 150.792C339.408 151.144 339.416 151.484 339.416 151.812C339.416 152.132 339.408 152.468 339.392 152.82C339.368 153.564 339.22 154.184 338.948 154.68C338.684 155.168 338.308 155.532 337.82 155.772C337.332 156.004 336.744 156.12 336.056 156.12ZM336.056 155.1C336.672 155.1 337.172 154.916 337.556 154.548C337.948 154.18 338.16 153.584 338.192 152.76C338.208 152.4 338.216 152.08 338.216 151.8C338.216 151.512 338.208 151.192 338.192 150.84C338.176 150.288 338.072 149.84 337.88 149.496C337.696 149.152 337.448 148.9 337.136 148.74C336.824 148.58 336.464 148.5 336.056 148.5C335.664 148.5 335.312 148.58 335 148.74C334.688 148.9 334.436 149.152 334.244 149.496C334.06 149.84 333.956 150.288 333.932 150.84C333.924 151.192 333.92 151.512 333.92 151.8C333.92 152.08 333.924 152.4 333.932 152.76C333.964 153.584 334.176 154.18 334.568 154.548C334.96 154.916 335.456 155.1 336.056 155.1ZM343.529 156.12C342.961 156.12 342.469 156.012 342.053 155.796C341.645 155.572 341.329 155.256 341.105 154.848C340.881 154.432 340.761 153.936 340.745 153.36C340.737 153.24 340.733 153.08 340.733 152.88C340.733 152.68 340.737 152.52 340.745 152.4C340.761 151.824 340.881 151.332 341.105 150.924C341.329 150.508 341.645 150.192 342.053 149.976C342.469 149.752 342.961 149.64 343.529 149.64C343.993 149.64 344.389 149.704 344.717 149.832C345.053 149.96 345.329 150.124 345.545 150.324C345.761 150.524 345.921 150.74 346.025 150.972C346.137 151.204 346.197 151.424 346.205 151.632C346.213 151.712 346.189 151.776 346.133 151.824C346.077 151.872 346.009 151.896 345.929 151.896H345.353C345.273 151.896 345.213 151.88 345.173 151.848C345.133 151.808 345.093 151.744 345.053 151.656C344.909 151.264 344.713 150.988 344.465 150.828C344.217 150.668 343.909 150.588 343.541 150.588C343.061 150.588 342.669 150.736 342.365 151.032C342.069 151.328 341.909 151.804 341.885 152.46C341.877 152.748 341.877 153.028 341.885 153.3C341.909 153.964 342.069 154.444 342.365 154.74C342.669 155.028 343.061 155.172 343.541 155.172C343.909 155.172 344.217 155.092 344.465 154.932C344.713 154.772 344.909 154.496 345.053 154.104C345.093 154.016 345.133 153.956 345.173 153.924C345.213 153.884 345.273 153.864 345.353 153.864H345.929C346.009 153.864 346.077 153.888 346.133 153.936C346.189 153.984 346.213 154.048 346.205 154.128C346.197 154.296 346.161 154.468 346.097 154.644C346.033 154.82 345.929 155 345.785 155.184C345.649 155.36 345.477 155.52 345.269 155.664C345.061 155.8 344.809 155.912 344.513 156C344.225 156.08 343.897 156.12 343.529 156.12ZM350.066 156C349.618 156 349.254 155.916 348.974 155.748C348.694 155.572 348.49 155.328 348.362 155.016C348.234 154.696 348.17 154.32 348.17 153.888V150.72H347.234C347.154 150.72 347.086 150.696 347.03 150.648C346.982 150.592 346.958 150.524 346.958 150.444V150.036C346.958 149.956 346.982 149.892 347.03 149.844C347.086 149.788 347.154 149.76 347.234 149.76H348.17V147.756C348.17 147.676 348.194 147.612 348.242 147.564C348.298 147.508 348.366 147.48 348.446 147.48H349.01C349.09 147.48 349.154 147.508 349.202 147.564C349.258 147.612 349.286 147.676 349.286 147.756V149.76H350.774C350.854 149.76 350.918 149.788 350.966 149.844C351.022 149.892 351.05 149.956 351.05 150.036V150.444C351.05 150.524 351.022 150.592 350.966 150.648C350.918 150.696 350.854 150.72 350.774 150.72H349.286V153.804C349.286 154.18 349.35 154.476 349.478 154.692C349.606 154.908 349.834 155.016 350.162 155.016H350.894C350.974 155.016 351.038 155.044 351.086 155.1C351.142 155.148 351.17 155.212 351.17 155.292V155.724C351.17 155.804 351.142 155.872 351.086 155.928C351.038 155.976 350.974 156 350.894 156H350.066Z" fill="#F8F8F8" fill-opacity="0.7"/>
<path d="M204.084 296.183C203.896 296.116 203.705 296.047 203.545 296.005C203.392 295.966 203.097 295.9 202.781 296.009C202.419 296.135 202.135 296.419 202.009 296.781C201.9 297.097 201.966 297.392 202.005 297.545C202.047 297.705 202.116 297.896 202.183 298.084L206.957 311.383C207.041 311.617 207.121 311.841 207.201 312.013C207.268 312.159 207.42 312.478 207.751 312.658C208.114 312.855 208.55 312.861 208.917 312.673C209.253 312.502 209.414 312.187 209.485 312.043C209.569 311.873 209.655 311.651 209.745 311.42L211.894 305.894L217.42 303.745C217.651 303.655 217.873 303.569 218.043 303.485C218.187 303.414 218.502 303.253 218.673 302.917C218.861 302.55 218.855 302.114 218.658 301.751C218.478 301.42 218.159 301.268 218.013 301.201C217.841 301.121 217.617 301.041 217.383 300.957L204.084 296.183Z" fill="url(#paint9_linear_1282_1215)"/>
<g clip-path="url(#clip1_1282_1215)">
<rect x="52" y="277" width="304" height="40" rx="10" fill="url(#paint10_linear_1282_1215)"/>
<g filter="url(#filter0_d_1282_1215)">
<rect x="56" y="281" width="93" height="32" rx="8" fill="#2C2C2C" shape-rendering="crispEdges"/>
<rect x="56.75" y="281.75" width="91.5" height="30.5" rx="7.25" stroke="url(#paint11_linear_1282_1215)" stroke-width="1.5" shape-rendering="crispEdges"/>
<g filter="url(#filter1_d_1282_1215)">
<path d="M70.799 300.5V293.227H71.8963V299.555H75.1918V300.5H70.799ZM77.9457 300.621C77.6 300.621 77.2875 300.557 77.0082 300.429C76.7288 300.299 76.5075 300.111 76.3441 299.864C76.1831 299.618 76.1026 299.316 76.1026 298.959C76.1026 298.651 76.1618 298.398 76.2802 298.199C76.3986 298 76.5584 297.843 76.7596 297.727C76.9608 297.611 77.1857 297.523 77.4343 297.464C77.6829 297.405 77.9362 297.36 78.1942 297.329C78.521 297.291 78.7861 297.26 78.9897 297.237C79.1933 297.21 79.3413 297.169 79.4336 297.112C79.5259 297.055 79.5721 296.963 79.5721 296.835V296.81C79.5721 296.5 79.4845 296.26 79.3093 296.089C79.1365 295.919 78.8784 295.834 78.5352 295.834C78.1777 295.834 77.896 295.913 77.69 296.072C77.4864 296.228 77.3455 296.402 77.2674 296.594L76.2695 296.366C76.3879 296.035 76.5607 295.768 76.788 295.564C77.0176 295.358 77.2816 295.209 77.5799 295.116C77.8782 295.022 78.1919 294.974 78.521 294.974C78.7388 294.974 78.9696 295 79.2134 295.053C79.4596 295.102 79.6893 295.195 79.9023 295.33C80.1178 295.464 80.2942 295.657 80.4315 295.908C80.5688 296.157 80.6374 296.48 80.6374 296.878V300.5H79.6005V299.754H79.5579C79.4892 299.892 79.3862 300.027 79.2489 300.159C79.1116 300.292 78.9353 300.402 78.7198 300.489C78.5044 300.577 78.2463 300.621 77.9457 300.621ZM78.1765 299.768C78.4701 299.768 78.721 299.71 78.9293 299.594C79.14 299.478 79.2998 299.327 79.4087 299.14C79.52 298.951 79.5756 298.748 79.5756 298.533V297.83C79.5378 297.867 79.4644 297.903 79.3555 297.936C79.2489 297.967 79.127 297.994 78.9897 298.018C78.8524 298.039 78.7186 298.059 78.5884 298.078C78.4582 298.095 78.3493 298.109 78.2617 298.121C78.0558 298.147 77.8675 298.191 77.6971 298.252C77.529 298.314 77.3941 298.402 77.2923 298.518C77.1928 298.632 77.1431 298.784 77.1431 298.973C77.1431 299.236 77.2402 299.435 77.4343 299.57C77.6284 299.702 77.8758 299.768 78.1765 299.768ZM83.1135 297.261V300.5H82.0517V295.045H83.0708V295.933H83.1383C83.2638 295.644 83.4603 295.412 83.7278 295.237C83.9977 295.062 84.3374 294.974 84.747 294.974C85.1187 294.974 85.4442 295.053 85.7235 295.209C86.0029 295.363 86.2195 295.592 86.3734 295.898C86.5273 296.203 86.6042 296.581 86.6042 297.031V300.5H85.5424V297.158C85.5424 296.763 85.4395 296.454 85.2335 296.232C85.0275 296.007 84.7446 295.894 84.3848 295.894C84.1386 295.894 83.9196 295.947 83.7278 296.054C83.5384 296.161 83.3881 296.317 83.2768 296.523C83.1679 296.726 83.1135 296.973 83.1135 297.261ZM90.0701 300.607C89.6298 300.607 89.2368 300.494 88.8912 300.269C88.5479 300.042 88.278 299.719 88.0815 299.3C87.8874 298.878 87.7903 298.373 87.7903 297.783C87.7903 297.194 87.8886 296.69 88.085 296.271C88.2839 295.852 88.5562 295.531 88.9018 295.308C89.2475 295.086 89.6393 294.974 90.0772 294.974C90.4158 294.974 90.688 295.031 90.894 295.145C91.1023 295.256 91.2633 295.386 91.377 295.536C91.493 295.685 91.5829 295.816 91.6468 295.93H91.7108V293.227H92.7725V300.5H91.7356V299.651H91.6468C91.5829 299.767 91.4906 299.9 91.3699 300.049C91.2515 300.198 91.0881 300.328 90.8798 300.44C90.6715 300.551 90.4016 300.607 90.0701 300.607ZM90.3045 299.701C90.6099 299.701 90.868 299.621 91.0787 299.46C91.2917 299.296 91.4527 299.07 91.5616 298.781C91.6729 298.492 91.7285 298.156 91.7285 297.773C91.7285 297.394 91.6741 297.062 91.5652 296.778C91.4563 296.494 91.2965 296.273 91.0858 296.114C90.8751 295.956 90.6146 295.876 90.3045 295.876C89.9849 295.876 89.7186 295.959 89.5055 296.125C89.2924 296.291 89.1315 296.517 89.0225 296.803C88.916 297.09 88.8627 297.413 88.8627 297.773C88.8627 298.137 88.9172 298.465 89.0261 298.756C89.135 299.048 89.296 299.278 89.5091 299.449C89.7245 299.617 89.9896 299.701 90.3045 299.701ZM94.288 300.5V295.045H95.3498V300.5H94.288ZM94.8242 294.204C94.6396 294.204 94.4809 294.142 94.3484 294.019C94.2182 293.894 94.1531 293.745 94.1531 293.572C94.1531 293.397 94.2182 293.247 94.3484 293.124C94.4809 292.999 94.6396 292.936 94.8242 292.936C95.0089 292.936 95.1663 292.999 95.2965 293.124C95.4291 293.247 95.4954 293.397 95.4954 293.572C95.4954 293.745 95.4291 293.894 95.2965 294.019C95.1663 294.142 95.0089 294.204 94.8242 294.204ZM97.84 297.261V300.5H96.7782V295.045H97.7974V295.933H97.8649C97.9904 295.644 98.1868 295.412 98.4544 295.237C98.7243 295.062 99.064 294.974 99.4735 294.974C99.8452 294.974 100.171 295.053 100.45 295.209C100.729 295.363 100.946 295.592 101.1 295.898C101.254 296.203 101.331 296.581 101.331 297.031V300.5H100.269V297.158C100.269 296.763 100.166 296.454 99.96 296.232C99.7541 296.007 99.4712 295.894 99.1113 295.894C98.8651 295.894 98.6461 295.947 98.4544 296.054C98.265 296.161 98.1146 296.317 98.0034 296.523C97.8945 296.726 97.84 296.973 97.84 297.261ZM105.042 302.659C104.608 302.659 104.236 302.602 103.923 302.489C103.613 302.375 103.36 302.225 103.163 302.038C102.967 301.851 102.82 301.646 102.723 301.423L103.635 301.047C103.699 301.151 103.785 301.261 103.891 301.377C104 301.496 104.147 301.596 104.331 301.679C104.519 301.762 104.759 301.803 105.052 301.803C105.455 301.803 105.787 301.705 106.05 301.509C106.313 301.314 106.444 301.004 106.444 300.578V299.506H106.377C106.313 299.622 106.221 299.751 106.1 299.893C105.982 300.035 105.818 300.158 105.61 300.262C105.402 300.366 105.131 300.418 104.797 300.418C104.366 300.418 103.978 300.318 103.632 300.116C103.289 299.913 103.016 299.613 102.815 299.218C102.616 298.82 102.517 298.331 102.517 297.751C102.517 297.171 102.615 296.674 102.812 296.26C103.01 295.846 103.283 295.528 103.628 295.308C103.974 295.086 104.366 294.974 104.804 294.974C105.142 294.974 105.416 295.031 105.624 295.145C105.832 295.256 105.995 295.386 106.111 295.536C106.229 295.685 106.32 295.816 106.384 295.93H106.462V295.045H107.503V300.621C107.503 301.089 107.394 301.474 107.176 301.775C106.958 302.076 106.663 302.298 106.292 302.442C105.922 302.587 105.506 302.659 105.042 302.659ZM105.031 299.538C105.336 299.538 105.595 299.467 105.805 299.325C106.018 299.18 106.179 298.974 106.288 298.707C106.399 298.437 106.455 298.114 106.455 297.737C106.455 297.37 106.401 297.047 106.292 296.768C106.183 296.488 106.023 296.271 105.812 296.114C105.602 295.956 105.341 295.876 105.031 295.876C104.711 295.876 104.445 295.959 104.232 296.125C104.019 296.288 103.858 296.511 103.749 296.793C103.643 297.074 103.589 297.389 103.589 297.737C103.589 298.095 103.644 298.408 103.753 298.678C103.862 298.948 104.023 299.159 104.236 299.31C104.451 299.462 104.716 299.538 105.031 299.538ZM111.658 300.5V293.227H114.251C114.817 293.227 115.285 293.33 115.657 293.536C116.029 293.742 116.307 294.024 116.491 294.381C116.676 294.737 116.768 295.137 116.768 295.582C116.768 296.029 116.675 296.432 116.488 296.789C116.303 297.144 116.024 297.426 115.65 297.634C115.278 297.84 114.811 297.943 114.247 297.943H112.464V297.013H114.148C114.505 297.013 114.795 296.951 115.018 296.828C115.24 296.703 115.404 296.532 115.508 296.317C115.612 296.101 115.664 295.856 115.664 295.582C115.664 295.307 115.612 295.063 115.508 294.85C115.404 294.637 115.239 294.47 115.014 294.349C114.792 294.229 114.498 294.168 114.134 294.168H112.756V300.5H111.658ZM119.508 300.621C119.163 300.621 118.85 300.557 118.571 300.429C118.291 300.299 118.07 300.111 117.907 299.864C117.746 299.618 117.665 299.316 117.665 298.959C117.665 298.651 117.724 298.398 117.843 298.199C117.961 298 118.121 297.843 118.322 297.727C118.523 297.611 118.748 297.523 118.997 297.464C119.245 297.405 119.499 297.36 119.757 297.329C120.083 297.291 120.349 297.26 120.552 297.237C120.756 297.21 120.904 297.169 120.996 297.112C121.088 297.055 121.135 296.963 121.135 296.835V296.81C121.135 296.5 121.047 296.26 120.872 296.089C120.699 295.919 120.441 295.834 120.098 295.834C119.74 295.834 119.458 295.913 119.252 296.072C119.049 296.228 118.908 296.402 118.83 296.594L117.832 296.366C117.95 296.035 118.123 295.768 118.35 295.564C118.58 295.358 118.844 295.209 119.142 295.116C119.441 295.022 119.754 294.974 120.083 294.974C120.301 294.974 120.532 295 120.776 295.053C121.022 295.102 121.252 295.195 121.465 295.33C121.68 295.464 121.857 295.657 121.994 295.908C122.131 296.157 122.2 296.48 122.2 296.878V300.5H121.163V299.754H121.12C121.052 299.892 120.949 300.027 120.811 300.159C120.674 300.292 120.498 300.402 120.282 300.489C120.067 300.577 119.809 300.621 119.508 300.621ZM119.739 299.768C120.033 299.768 120.283 299.71 120.492 299.594C120.703 299.478 120.862 299.327 120.971 299.14C121.083 298.951 121.138 298.748 121.138 298.533V297.83C121.1 297.867 121.027 297.903 120.918 297.936C120.811 297.967 120.69 297.994 120.552 298.018C120.415 298.039 120.281 298.059 120.151 298.078C120.021 298.095 119.912 298.109 119.824 298.121C119.618 298.147 119.43 298.191 119.26 298.252C119.092 298.314 118.957 298.402 118.855 298.518C118.755 298.632 118.706 298.784 118.706 298.973C118.706 299.236 118.803 299.435 118.997 299.57C119.191 299.702 119.438 299.768 119.739 299.768ZM125.901 302.659C125.468 302.659 125.095 302.602 124.782 302.489C124.472 302.375 124.219 302.225 124.023 302.038C123.826 301.851 123.679 301.646 123.582 301.423L124.495 301.047C124.559 301.151 124.644 301.261 124.751 301.377C124.859 301.496 125.006 301.596 125.191 301.679C125.378 301.762 125.618 301.803 125.912 301.803C126.314 301.803 126.647 301.705 126.91 301.509C127.172 301.314 127.304 301.004 127.304 300.578V299.506H127.236C127.172 299.622 127.08 299.751 126.959 299.893C126.841 300.035 126.678 300.158 126.469 300.262C126.261 300.366 125.99 300.418 125.656 300.418C125.225 300.418 124.837 300.318 124.491 300.116C124.148 299.913 123.876 299.613 123.675 299.218C123.476 298.82 123.376 298.331 123.376 297.751C123.376 297.171 123.474 296.674 123.671 296.26C123.87 295.846 124.142 295.528 124.488 295.308C124.833 295.086 125.225 294.974 125.663 294.974C126.002 294.974 126.275 295.031 126.483 295.145C126.692 295.256 126.854 295.386 126.97 295.536C127.088 295.685 127.18 295.816 127.243 295.93H127.322V295.045H128.362V300.621C128.362 301.089 128.253 301.474 128.035 301.775C127.818 302.076 127.523 302.298 127.151 302.442C126.782 302.587 126.365 302.659 125.901 302.659ZM125.89 299.538C126.196 299.538 126.454 299.467 126.665 299.325C126.878 299.18 127.039 298.974 127.148 298.707C127.259 298.437 127.314 298.114 127.314 297.737C127.314 297.37 127.26 297.047 127.151 296.768C127.042 296.488 126.882 296.271 126.672 296.114C126.461 295.956 126.201 295.876 125.89 295.876C125.571 295.876 125.305 295.959 125.091 296.125C124.878 296.288 124.717 296.511 124.608 296.793C124.502 297.074 124.449 297.389 124.449 297.737C124.449 298.095 124.503 298.408 124.612 298.678C124.721 298.948 124.882 299.159 125.095 299.31C125.31 299.462 125.576 299.538 125.89 299.538ZM132.137 300.61C131.599 300.61 131.137 300.495 130.748 300.266C130.363 300.034 130.064 299.708 129.854 299.289C129.645 298.868 129.541 298.374 129.541 297.808C129.541 297.25 129.645 296.757 129.854 296.331C130.064 295.905 130.358 295.572 130.734 295.333C131.113 295.094 131.556 294.974 132.062 294.974C132.37 294.974 132.668 295.025 132.957 295.127C133.246 295.229 133.505 295.389 133.735 295.607C133.965 295.824 134.146 296.107 134.278 296.455C134.411 296.801 134.477 297.221 134.477 297.716V298.092H130.141V297.297H133.437C133.437 297.018 133.38 296.77 133.266 296.555C133.153 296.337 132.993 296.165 132.787 296.04C132.583 295.914 132.344 295.852 132.069 295.852C131.771 295.852 131.511 295.925 131.288 296.072C131.068 296.216 130.898 296.406 130.777 296.64C130.658 296.872 130.599 297.124 130.599 297.396V298.018C130.599 298.382 130.663 298.692 130.791 298.948C130.921 299.204 131.102 299.399 131.334 299.534C131.566 299.667 131.837 299.733 132.148 299.733C132.349 299.733 132.532 299.705 132.698 299.648C132.864 299.589 133.007 299.501 133.128 299.385C133.248 299.269 133.341 299.126 133.405 298.955L134.41 299.136C134.329 299.432 134.185 299.692 133.976 299.914C133.77 300.134 133.511 300.306 133.199 300.429C132.889 300.55 132.535 300.61 132.137 300.61Z" fill="#ECECEC"/>
</g>
</g>
</g>
<rect x="52.75" y="277.75" width="302.5" height="38.5" rx="9.25" stroke="url(#paint12_linear_1282_1215)" stroke-width="1.5"/>
<g clip-path="url(#clip2_1282_1215)">
<rect x="200" y="217" width="316" height="40" rx="10" fill="url(#paint13_linear_1282_1215)"/>
<g filter="url(#filter2_d_1282_1215)">
<rect x="204" y="221" width="83" height="32" rx="8" fill="#191919" shape-rendering="crispEdges"/>
<rect x="204.75" y="221.75" width="81.5" height="30.5" rx="7.25" stroke="url(#paint14_linear_1282_1215)" stroke-width="1.5" shape-rendering="crispEdges"/>
<g filter="url(#filter3_d_1282_1215)">
<path d="M218.799 233.227H220.131L222.446 238.881H222.531L224.847 233.227H226.178V240.5H225.134V235.237H225.067L222.922 240.489H222.055L219.911 235.234H219.843V240.5H218.799V233.227ZM229.986 240.61C229.475 240.61 229.028 240.493 228.647 240.259C228.266 240.024 227.97 239.696 227.759 239.275C227.549 238.853 227.443 238.361 227.443 237.798C227.443 237.232 227.549 236.737 227.759 236.313C227.97 235.889 228.266 235.56 228.647 235.326C229.028 235.092 229.475 234.974 229.986 234.974C230.497 234.974 230.944 235.092 231.325 235.326C231.706 235.56 232.002 235.889 232.213 236.313C232.423 236.737 232.529 237.232 232.529 237.798C232.529 238.361 232.423 238.853 232.213 239.275C232.002 239.696 231.706 240.024 231.325 240.259C230.944 240.493 230.497 240.61 229.986 240.61ZM229.99 239.719C230.321 239.719 230.596 239.631 230.813 239.456C231.031 239.281 231.192 239.048 231.296 238.756C231.403 238.465 231.456 238.144 231.456 237.794C231.456 237.446 231.403 237.126 231.296 236.835C231.192 236.542 231.031 236.306 230.813 236.129C230.596 235.951 230.321 235.862 229.99 235.862C229.656 235.862 229.379 235.951 229.159 236.129C228.941 236.306 228.779 236.542 228.672 236.835C228.568 237.126 228.516 237.446 228.516 237.794C228.516 238.144 228.568 238.465 228.672 238.756C228.779 239.048 228.941 239.281 229.159 239.456C229.379 239.631 229.656 239.719 229.99 239.719ZM233.799 240.5V233.227H234.861V235.93H234.925C234.986 235.816 235.075 235.685 235.191 235.536C235.307 235.386 235.468 235.256 235.674 235.145C235.88 235.031 236.152 234.974 236.491 234.974C236.931 234.974 237.324 235.086 237.67 235.308C238.015 235.531 238.286 235.852 238.483 236.271C238.682 236.69 238.781 237.194 238.781 237.783C238.781 238.373 238.683 238.878 238.487 239.3C238.29 239.719 238.02 240.042 237.677 240.269C237.334 240.494 236.942 240.607 236.501 240.607C236.17 240.607 235.899 240.551 235.688 240.44C235.48 240.328 235.317 240.198 235.198 240.049C235.08 239.9 234.989 239.767 234.925 239.651H234.836V240.5H233.799ZM234.839 237.773C234.839 238.156 234.895 238.492 235.006 238.781C235.118 239.07 235.279 239.296 235.489 239.46C235.7 239.621 235.958 239.701 236.263 239.701C236.581 239.701 236.846 239.617 237.059 239.449C237.272 239.278 237.433 239.048 237.542 238.756C237.653 238.465 237.709 238.137 237.709 237.773C237.709 237.413 237.654 237.09 237.545 236.803C237.439 236.517 237.278 236.291 237.062 236.125C236.849 235.959 236.583 235.876 236.263 235.876C235.956 235.876 235.695 235.956 235.482 236.114C235.272 236.273 235.112 236.494 235.003 236.778C234.894 237.062 234.839 237.394 234.839 237.773ZM239.974 240.5V235.045H241.035V240.5H239.974ZM240.51 234.204C240.325 234.204 240.166 234.142 240.034 234.019C239.904 233.894 239.839 233.745 239.839 233.572C239.839 233.397 239.904 233.247 240.034 233.124C240.166 232.999 240.325 232.936 240.51 232.936C240.694 232.936 240.852 232.999 240.982 233.124C241.115 233.247 241.181 233.397 241.181 233.572C241.181 233.745 241.115 233.894 240.982 234.019C240.852 234.142 240.694 234.204 240.51 234.204ZM243.526 233.227V240.5H242.464V233.227H243.526ZM247.305 240.61C246.767 240.61 246.305 240.495 245.916 240.266C245.53 240.034 245.232 239.708 245.021 239.289C244.813 238.868 244.709 238.374 244.709 237.808C244.709 237.25 244.813 236.757 245.021 236.331C245.232 235.905 245.526 235.572 245.902 235.333C246.281 235.094 246.724 234.974 247.23 234.974C247.538 234.974 247.836 235.025 248.125 235.127C248.414 235.229 248.673 235.389 248.903 235.607C249.133 235.824 249.314 236.107 249.446 236.455C249.579 236.801 249.645 237.221 249.645 237.716V238.092H245.309V237.297H248.605C248.605 237.018 248.548 236.77 248.434 236.555C248.32 236.337 248.161 236.165 247.955 236.04C247.751 235.914 247.512 235.852 247.237 235.852C246.939 235.852 246.679 235.925 246.456 236.072C246.236 236.216 246.066 236.406 245.945 236.64C245.826 236.872 245.767 237.124 245.767 237.396V238.018C245.767 238.382 245.831 238.692 245.959 238.948C246.089 239.204 246.27 239.399 246.502 239.534C246.734 239.667 247.005 239.733 247.316 239.733C247.517 239.733 247.7 239.705 247.866 239.648C248.032 239.589 248.175 239.501 248.296 239.385C248.416 239.269 248.509 239.126 248.573 238.955L249.578 239.136C249.497 239.432 249.353 239.692 249.144 239.914C248.938 240.134 248.679 240.306 248.367 240.429C248.057 240.55 247.703 240.61 247.305 240.61ZM254.169 240.5H253.004L255.622 233.227H256.889L259.507 240.5H258.342L256.286 234.548H256.229L254.169 240.5ZM254.365 237.652H258.143V238.575H254.365V237.652ZM260.472 242.545V235.045H261.509V235.93H261.597C261.659 235.816 261.748 235.685 261.864 235.536C261.98 235.386 262.141 235.256 262.347 235.145C262.553 235.031 262.825 234.974 263.163 234.974C263.604 234.974 263.997 235.086 264.342 235.308C264.688 235.531 264.959 235.852 265.156 236.271C265.354 236.69 265.454 237.194 265.454 237.783C265.454 238.373 265.356 238.878 265.159 239.3C264.963 239.719 264.693 240.042 264.349 240.269C264.006 240.494 263.614 240.607 263.174 240.607C262.843 240.607 262.571 240.551 262.361 240.44C262.152 240.328 261.989 240.198 261.871 240.049C261.752 239.9 261.661 239.767 261.597 239.651H261.533V242.545H260.472ZM261.512 237.773C261.512 238.156 261.568 238.492 261.679 238.781C261.79 239.07 261.951 239.296 262.162 239.46C262.373 239.621 262.631 239.701 262.936 239.701C263.253 239.701 263.518 239.617 263.732 239.449C263.945 239.278 264.106 239.048 264.214 238.756C264.326 238.465 264.381 238.137 264.381 237.773C264.381 237.413 264.327 237.09 264.218 236.803C264.112 236.517 263.951 236.291 263.735 236.125C263.522 235.959 263.256 235.876 262.936 235.876C262.628 235.876 262.368 235.956 262.155 236.114C261.944 236.273 261.784 236.494 261.675 236.778C261.567 237.062 261.512 237.394 261.512 237.773ZM266.643 242.545V235.045H267.68V235.93H267.769C267.831 235.816 267.92 235.685 268.036 235.536C268.152 235.386 268.313 235.256 268.518 235.145C268.724 235.031 268.997 234.974 269.335 234.974C269.776 234.974 270.169 235.086 270.514 235.308C270.86 235.531 271.131 235.852 271.327 236.271C271.526 236.69 271.626 237.194 271.626 237.783C271.626 238.373 271.527 238.878 271.331 239.3C271.134 239.719 270.865 240.042 270.521 240.269C270.178 240.494 269.786 240.607 269.346 240.607C269.014 240.607 268.743 240.551 268.533 240.44C268.324 240.328 268.161 240.198 268.043 240.049C267.924 239.9 267.833 239.767 267.769 239.651H267.705V242.545H266.643ZM267.684 237.773C267.684 238.156 267.74 238.492 267.851 238.781C267.962 239.07 268.123 239.296 268.334 239.46C268.545 239.621 268.803 239.701 269.108 239.701C269.425 239.701 269.69 239.617 269.903 239.449C270.116 239.278 270.277 239.048 270.386 238.756C270.498 238.465 270.553 238.137 270.553 237.773C270.553 237.413 270.499 237.09 270.39 236.803C270.283 236.517 270.122 236.291 269.907 236.125C269.694 235.959 269.428 235.876 269.108 235.876C268.8 235.876 268.54 235.956 268.327 236.114C268.116 236.273 267.956 236.494 267.847 236.778C267.738 237.062 267.684 237.394 267.684 237.773Z" fill="#666666"/>
</g>
</g>
</g>
<rect x="200.75" y="217.75" width="314.5" height="38.5" rx="9.25" stroke="url(#paint15_linear_1282_1215)" stroke-width="1.5"/>
<g clip-path="url(#clip3_1282_1215)">
<rect x="163" y="337" width="316" height="40" rx="10" fill="url(#paint16_linear_1282_1215)"/>
<g filter="url(#filter4_d_1282_1215)">
<rect x="167" y="341" width="100" height="32" rx="8" fill="#191919" shape-rendering="crispEdges"/>
<rect x="167.75" y="341.75" width="98.5" height="30.5" rx="7.25" stroke="url(#paint17_linear_1282_1215)" stroke-width="1.5" shape-rendering="crispEdges"/>
<g filter="url(#filter5_d_1282_1215)">
<path d="M184.153 360.5H181.799V353.227H184.228C184.941 353.227 185.553 353.373 186.064 353.664C186.575 353.953 186.967 354.368 187.239 354.911C187.514 355.45 187.651 356.098 187.651 356.853C187.651 357.611 187.513 358.262 187.236 358.806C186.961 359.351 186.563 359.77 186.043 360.063C185.522 360.354 184.892 360.5 184.153 360.5ZM182.896 359.541H184.093C184.647 359.541 185.107 359.437 185.474 359.229C185.841 359.018 186.116 358.714 186.298 358.316C186.481 357.916 186.572 357.428 186.572 356.853C186.572 356.282 186.481 355.798 186.298 355.401C186.118 355.003 185.85 354.701 185.492 354.495C185.135 354.289 184.691 354.186 184.161 354.186H182.896V359.541ZM191.281 360.61C190.744 360.61 190.281 360.495 189.893 360.266C189.507 360.034 189.209 359.708 188.998 359.289C188.79 358.868 188.686 358.374 188.686 357.808C188.686 357.25 188.79 356.757 188.998 356.331C189.209 355.905 189.502 355.572 189.879 355.333C190.258 355.094 190.7 354.974 191.207 354.974C191.515 354.974 191.813 355.025 192.102 355.127C192.391 355.229 192.65 355.389 192.879 355.607C193.109 355.824 193.29 356.107 193.423 356.455C193.555 356.801 193.622 357.221 193.622 357.716V358.092H189.286V357.297H192.581C192.581 357.018 192.524 356.77 192.411 356.555C192.297 356.337 192.137 356.165 191.931 356.04C191.728 355.914 191.489 355.852 191.214 355.852C190.916 355.852 190.655 355.925 190.433 356.072C190.213 356.216 190.042 356.406 189.921 356.64C189.803 356.872 189.744 357.124 189.744 357.396V358.018C189.744 358.382 189.808 358.692 189.936 358.948C190.066 359.204 190.247 359.399 190.479 359.534C190.711 359.667 190.982 359.733 191.292 359.733C191.493 359.733 191.677 359.705 191.843 359.648C192.008 359.589 192.151 359.501 192.272 359.385C192.393 359.269 192.485 359.126 192.549 358.955L193.554 359.136C193.474 359.432 193.329 359.692 193.121 359.914C192.915 360.134 192.656 360.306 192.343 360.429C192.033 360.55 191.679 360.61 191.281 360.61ZM198.887 356.377L197.925 356.548C197.884 356.424 197.821 356.307 197.733 356.196C197.648 356.085 197.532 355.994 197.385 355.923C197.238 355.852 197.055 355.816 196.835 355.816C196.534 355.816 196.283 355.884 196.082 356.018C195.88 356.151 195.78 356.323 195.78 356.533C195.78 356.716 195.847 356.862 195.982 356.974C196.117 357.085 196.335 357.176 196.636 357.247L197.502 357.446C198.004 357.562 198.378 357.741 198.624 357.982C198.871 358.224 198.994 358.537 198.994 358.923C198.994 359.25 198.899 359.541 198.71 359.797C198.522 360.05 198.261 360.249 197.925 360.393C197.591 360.538 197.204 360.61 196.763 360.61C196.153 360.61 195.654 360.48 195.268 360.219C194.883 359.957 194.646 359.584 194.558 359.101L195.585 358.945C195.648 359.212 195.78 359.415 195.979 359.552C196.178 359.687 196.437 359.754 196.756 359.754C197.104 359.754 197.383 359.682 197.591 359.538C197.799 359.391 197.903 359.212 197.903 359.001C197.903 358.831 197.839 358.688 197.712 358.572C197.586 358.456 197.393 358.368 197.133 358.309L196.21 358.107C195.701 357.991 195.324 357.806 195.08 357.553C194.839 357.299 194.718 356.978 194.718 356.59C194.718 356.268 194.808 355.987 194.988 355.745C195.168 355.504 195.416 355.315 195.734 355.18C196.051 355.043 196.414 354.974 196.824 354.974C197.413 354.974 197.877 355.102 198.216 355.358C198.554 355.611 198.778 355.951 198.887 356.377ZM200.161 360.5V355.045H201.223V360.5H200.161ZM200.697 354.204C200.513 354.204 200.354 354.142 200.221 354.019C200.091 353.894 200.026 353.745 200.026 353.572C200.026 353.397 200.091 353.247 200.221 353.124C200.354 352.999 200.513 352.936 200.697 352.936C200.882 352.936 201.039 352.999 201.17 353.124C201.302 353.247 201.368 353.397 201.368 353.572C201.368 353.745 201.302 353.894 201.17 354.019C201.039 354.142 200.882 354.204 200.697 354.204ZM204.938 362.659C204.505 362.659 204.132 362.602 203.82 362.489C203.509 362.375 203.256 362.225 203.06 362.038C202.863 361.851 202.716 361.646 202.619 361.423L203.532 361.047C203.596 361.151 203.681 361.261 203.788 361.377C203.897 361.496 204.043 361.596 204.228 361.679C204.415 361.762 204.655 361.803 204.949 361.803C205.351 361.803 205.684 361.705 205.947 361.509C206.21 361.314 206.341 361.004 206.341 360.578V359.506H206.273C206.21 359.622 206.117 359.751 205.996 359.893C205.878 360.035 205.715 360.158 205.506 360.262C205.298 360.366 205.027 360.418 204.693 360.418C204.262 360.418 203.874 360.318 203.528 360.116C203.185 359.913 202.913 359.613 202.712 359.218C202.513 358.82 202.413 358.331 202.413 357.751C202.413 357.171 202.512 356.674 202.708 356.26C202.907 355.846 203.179 355.528 203.525 355.308C203.871 355.086 204.262 354.974 204.7 354.974C205.039 354.974 205.312 355.031 205.521 355.145C205.729 355.256 205.891 355.386 206.007 355.536C206.125 355.685 206.217 355.816 206.281 355.93H206.359V355.045H207.399V360.621C207.399 361.089 207.29 361.474 207.072 361.775C206.855 362.076 206.56 362.298 206.188 362.442C205.819 362.587 205.402 362.659 204.938 362.659ZM204.928 359.538C205.233 359.538 205.491 359.467 205.702 359.325C205.915 359.18 206.076 358.974 206.185 358.707C206.296 358.437 206.352 358.114 206.352 357.737C206.352 357.37 206.297 357.047 206.188 356.768C206.079 356.488 205.92 356.271 205.709 356.114C205.498 355.956 205.238 355.876 204.928 355.876C204.608 355.876 204.342 355.959 204.129 356.125C203.915 356.288 203.754 356.511 203.646 356.793C203.539 357.074 203.486 357.389 203.486 357.737C203.486 358.095 203.54 358.408 203.649 358.678C203.758 358.948 203.919 359.159 204.132 359.31C204.348 359.462 204.613 359.538 204.928 359.538ZM209.885 357.261V360.5H208.823V355.045H209.842V355.933H209.91C210.035 355.644 210.232 355.412 210.499 355.237C210.769 355.062 211.109 354.974 211.518 354.974C211.89 354.974 212.216 355.053 212.495 355.209C212.774 355.363 212.991 355.592 213.145 355.898C213.299 356.203 213.376 356.581 213.376 357.031V360.5H212.314V357.158C212.314 356.763 212.211 356.454 212.005 356.232C211.799 356.007 211.516 355.894 211.156 355.894C210.91 355.894 210.691 355.947 210.499 356.054C210.31 356.161 210.16 356.317 210.048 356.523C209.939 356.726 209.885 356.973 209.885 357.261ZM221.498 355.138C221.46 354.802 221.304 354.541 221.029 354.357C220.755 354.17 220.409 354.076 219.992 354.076C219.694 354.076 219.436 354.123 219.218 354.218C219 354.31 218.831 354.438 218.71 354.602C218.592 354.763 218.533 354.946 218.533 355.152C218.533 355.325 218.573 355.474 218.654 355.599C218.736 355.725 218.844 355.83 218.977 355.915C219.112 355.998 219.256 356.068 219.41 356.125C219.564 356.179 219.712 356.224 219.854 356.26L220.564 356.445C220.796 356.501 221.034 356.578 221.278 356.675C221.522 356.772 221.748 356.9 221.956 357.059C222.164 357.218 222.333 357.414 222.46 357.648C222.591 357.883 222.656 358.163 222.656 358.49C222.656 358.902 222.549 359.268 222.336 359.587C222.125 359.907 221.819 360.159 221.416 360.344C221.016 360.528 220.532 360.621 219.964 360.621C219.419 360.621 218.948 360.534 218.551 360.362C218.153 360.189 217.842 359.944 217.617 359.626C217.392 359.307 217.267 358.928 217.244 358.49H218.345C218.366 358.753 218.451 358.972 218.6 359.147C218.752 359.32 218.945 359.449 219.179 359.534C219.416 359.617 219.675 359.658 219.957 359.658C220.267 359.658 220.543 359.61 220.784 359.513C221.028 359.413 221.22 359.276 221.36 359.101C221.499 358.923 221.569 358.716 221.569 358.479C221.569 358.264 221.508 358.088 221.384 357.95C221.264 357.813 221.099 357.699 220.891 357.609C220.685 357.519 220.452 357.44 220.191 357.371L219.332 357.137C218.749 356.978 218.288 356.745 217.947 356.438C217.608 356.13 217.439 355.723 217.439 355.216C217.439 354.797 217.553 354.431 217.78 354.119C218.007 353.806 218.315 353.563 218.703 353.391C219.092 353.215 219.53 353.128 220.017 353.128C220.51 353.128 220.944 353.214 221.32 353.387C221.699 353.56 221.998 353.798 222.215 354.101C222.433 354.402 222.547 354.747 222.556 355.138H221.498ZM224.553 362.545C224.394 362.545 224.25 362.532 224.12 362.506C223.989 362.483 223.892 362.457 223.828 362.428L224.084 361.558C224.278 361.61 224.451 361.633 224.603 361.626C224.754 361.619 224.888 361.562 225.004 361.455C225.122 361.349 225.226 361.175 225.316 360.933L225.448 360.571L223.452 355.045H224.588L225.97 359.278H226.027L227.408 355.045H228.548L226.3 361.228C226.196 361.512 226.063 361.752 225.902 361.949C225.741 362.148 225.55 362.297 225.327 362.396C225.105 362.496 224.846 362.545 224.553 362.545ZM233.633 356.377L232.671 356.548C232.631 356.424 232.567 356.307 232.479 356.196C232.394 356.085 232.278 355.994 232.131 355.923C231.984 355.852 231.801 355.816 231.581 355.816C231.28 355.816 231.029 355.884 230.828 356.018C230.627 356.151 230.526 356.323 230.526 356.533C230.526 356.716 230.593 356.862 230.728 356.974C230.863 357.085 231.081 357.176 231.382 357.247L232.248 357.446C232.75 357.562 233.124 357.741 233.37 357.982C233.617 358.224 233.74 358.537 233.74 358.923C233.74 359.25 233.645 359.541 233.456 359.797C233.269 360.05 233.007 360.249 232.671 360.393C232.337 360.538 231.95 360.61 231.51 360.61C230.899 360.61 230.4 360.48 230.015 360.219C229.629 359.957 229.392 359.584 229.304 359.101L230.331 358.945C230.395 359.212 230.526 359.415 230.725 359.552C230.924 359.687 231.183 359.754 231.502 359.754C231.85 359.754 232.129 359.682 232.337 359.538C232.545 359.391 232.65 359.212 232.65 359.001C232.65 358.831 232.586 358.688 232.458 358.572C232.332 358.456 232.139 358.368 231.879 358.309L230.956 358.107C230.447 357.991 230.07 357.806 229.826 357.553C229.585 357.299 229.464 356.978 229.464 356.59C229.464 356.268 229.554 355.987 229.734 355.745C229.914 355.504 230.163 355.315 230.48 355.18C230.797 355.043 231.16 354.974 231.57 354.974C232.159 354.974 232.623 355.102 232.962 355.358C233.301 355.611 233.524 355.951 233.633 356.377ZM237.453 355.045V355.898H234.474V355.045H237.453ZM235.273 353.739H236.335V358.898C236.335 359.104 236.365 359.259 236.427 359.364C236.489 359.465 236.568 359.535 236.665 359.573C236.764 359.609 236.872 359.626 236.988 359.626C237.073 359.626 237.148 359.621 237.212 359.609C237.276 359.597 237.325 359.587 237.361 359.58L237.553 360.457C237.491 360.481 237.404 360.505 237.29 360.528C237.176 360.554 237.034 360.569 236.864 360.571C236.584 360.576 236.324 360.526 236.083 360.422C235.841 360.318 235.646 360.157 235.497 359.939C235.347 359.721 235.273 359.448 235.273 359.119V353.739ZM240.92 360.61C240.383 360.61 239.92 360.495 239.532 360.266C239.146 360.034 238.847 359.708 238.637 359.289C238.428 358.868 238.324 358.374 238.324 357.808C238.324 357.25 238.428 356.757 238.637 356.331C238.847 355.905 239.141 355.572 239.517 355.333C239.896 355.094 240.339 354.974 240.846 354.974C241.153 354.974 241.452 355.025 241.74 355.127C242.029 355.229 242.288 355.389 242.518 355.607C242.748 355.824 242.929 356.107 243.061 356.455C243.194 356.801 243.26 357.221 243.26 357.716V358.092H238.924V357.297H242.22C242.22 357.018 242.163 356.77 242.049 356.555C241.936 356.337 241.776 356.165 241.57 356.04C241.366 355.914 241.127 355.852 240.853 355.852C240.554 355.852 240.294 355.925 240.071 356.072C239.851 356.216 239.681 356.406 239.56 356.64C239.442 356.872 239.382 357.124 239.382 357.396V358.018C239.382 358.382 239.446 358.692 239.574 358.948C239.704 359.204 239.886 359.399 240.118 359.534C240.35 359.667 240.621 359.733 240.931 359.733C241.132 359.733 241.315 359.705 241.481 359.648C241.647 359.589 241.79 359.501 241.911 359.385C242.032 359.269 242.124 359.126 242.188 358.955L243.193 359.136C243.112 359.432 242.968 359.692 242.76 359.914C242.554 360.134 242.294 360.306 241.982 360.429C241.672 360.55 241.318 360.61 240.92 360.61ZM244.438 360.5V355.045H245.458V355.933H245.525C245.639 355.633 245.825 355.398 246.083 355.23C246.341 355.06 246.65 354.974 247.009 354.974C247.374 354.974 247.679 355.06 247.926 355.23C248.174 355.401 248.358 355.635 248.476 355.933H248.533C248.663 355.642 248.87 355.41 249.154 355.237C249.438 355.062 249.777 354.974 250.17 354.974C250.665 354.974 251.068 355.129 251.381 355.44C251.696 355.75 251.853 356.217 251.853 356.842V360.5H250.791V356.942C250.791 356.572 250.691 356.305 250.49 356.139C250.288 355.973 250.048 355.891 249.769 355.891C249.423 355.891 249.154 355.997 248.963 356.21C248.771 356.421 248.675 356.692 248.675 357.023V360.5H247.617V356.874C247.617 356.578 247.524 356.34 247.34 356.161C247.155 355.981 246.915 355.891 246.619 355.891C246.418 355.891 246.232 355.944 246.061 356.05C245.893 356.155 245.757 356.3 245.653 356.487C245.551 356.674 245.5 356.891 245.5 357.137V360.5H244.438Z" fill="#666666"/>
</g>
</g>
</g>
<rect x="163.75" y="337.75" width="314.5" height="38.5" rx="9.25" stroke="url(#paint18_linear_1282_1215)" stroke-width="1.5"/>
<rect x="48.75" y="176.75" width="6.5" height="6.5" rx="3.25" fill="#202020" stroke="url(#paint19_linear_1282_1215)" stroke-width="1.5"/>
<rect x="85.75" y="176.75" width="6.5" height="6.5" rx="3.25" fill="#202020" stroke="url(#paint20_linear_1282_1215)" stroke-width="1.5"/>
<rect x="122.75" y="176.75" width="6.5" height="6.5" rx="3.25" fill="#202020" stroke="url(#paint21_linear_1282_1215)" stroke-width="1.5"/>
<rect x="159.75" y="176.75" width="6.5" height="6.5" rx="3.25" fill="#202020" stroke="url(#paint22_linear_1282_1215)" stroke-width="1.5"/>
<rect x="196.75" y="176.75" width="6.5" height="6.5" rx="3.25" fill="#202020" stroke="url(#paint23_linear_1282_1215)" stroke-width="1.5"/>
<rect x="233.75" y="176.75" width="6.5" height="6.5" rx="3.25" fill="#202020" stroke="url(#paint24_linear_1282_1215)" stroke-width="1.5"/>
<rect x="270.75" y="176.75" width="6.5" height="6.5" rx="3.25" fill="#202020" stroke="url(#paint25_linear_1282_1215)" stroke-width="1.5"/>
<rect x="307.75" y="176.75" width="6.5" height="6.5" rx="3.25" fill="#202020" stroke="url(#paint26_linear_1282_1215)" stroke-width="1.5"/>
<rect x="344.75" y="176.75" width="6.5" height="6.5" rx="3.25" fill="#202020" stroke="url(#paint27_linear_1282_1215)" stroke-width="1.5"/>
</g>
<defs>
<filter id="filter0_d_1282_1215" x="41" y="269" width="123" height="62" filterUnits="userSpaceOnUse" color-interpolation-filters="sRGB">
<feFlood flood-opacity="0" result="BackgroundImageFix"/>
<feColorMatrix in="SourceAlpha" type="matrix" values="0 0 0 0 0 0 0 0 0 0 0 0 0 0 0 0 0 0 127 0" result="hardAlpha"/>
<feOffset dy="3"/>
<feGaussianBlur stdDeviation="7.5"/>
<feComposite in2="hardAlpha" operator="out"/>
<feColorMatrix type="matrix" values="0 0 0 0 0 0 0 0 0 0 0 0 0 0 0 0 0 0 0.5 0"/>
<feBlend mode="normal" in2="BackgroundImageFix" result="effect1_dropShadow_1282_1215"/>
<feBlend mode="normal" in="SourceGraphic" in2="effect1_dropShadow_1282_1215" result="shape"/>
</filter>
<filter id="filter1_d_1282_1215" x="66.7988" y="292.936" width="71.6787" height="17.7227" filterUnits="userSpaceOnUse" color-interpolation-filters="sRGB">
<feFlood flood-opacity="0" result="BackgroundImageFix"/>
<feColorMatrix in="SourceAlpha" type="matrix" values="0 0 0 0 0 0 0 0 0 0 0 0 0 0 0 0 0 0 127 0" result="hardAlpha"/>
<feOffset dy="4"/>
<feGaussianBlur stdDeviation="2"/>
<feComposite in2="hardAlpha" operator="out"/>
<feColorMatrix type="matrix" values="0 0 0 0 0 0 0 0 0 0 0 0 0 0 0 0 0 0 0.25 0"/>
<feBlend mode="normal" in2="BackgroundImageFix" result="effect1_dropShadow_1282_1215"/>
<feBlend mode="normal" in="SourceGraphic" in2="effect1_dropShadow_1282_1215" result="shape"/>
</filter>
<filter id="filter2_d_1282_1215" x="189" y="209" width="113" height="62" filterUnits="userSpaceOnUse" color-interpolation-filters="sRGB">
<feFlood flood-opacity="0" result="BackgroundImageFix"/>
<feColorMatrix in="SourceAlpha" type="matrix" values="0 0 0 0 0 0 0 0 0 0 0 0 0 0 0 0 0 0 127 0" result="hardAlpha"/>
<feOffset dy="3"/>
<feGaussianBlur stdDeviation="7.5"/>
<feComposite in2="hardAlpha" operator="out"/>
<feColorMatrix type="matrix" values="0 0 0 0 0 0 0 0 0 0 0 0 0 0 0 0 0 0 0.5 0"/>
<feBlend mode="normal" in2="BackgroundImageFix" result="effect1_dropShadow_1282_1215"/>
<feBlend mode="normal" in="SourceGraphic" in2="effect1_dropShadow_1282_1215" result="shape"/>
</filter>
<filter id="filter3_d_1282_1215" x="214.799" y="232.936" width="60.8271" height="17.6094" filterUnits="userSpaceOnUse" color-interpolation-filters="sRGB">
<feFlood flood-opacity="0" result="BackgroundImageFix"/>
<feColorMatrix in="SourceAlpha" type="matrix" values="0 0 0 0 0 0 0 0 0 0 0 0 0 0 0 0 0 0 127 0" result="hardAlpha"/>
<feOffset dy="4"/>
<feGaussianBlur stdDeviation="2"/>
<feComposite in2="hardAlpha" operator="out"/>
<feColorMatrix type="matrix" values="0 0 0 0 0 0 0 0 0 0 0 0 0 0 0 0 0 0 0.25 0"/>
<feBlend mode="normal" in2="BackgroundImageFix" result="effect1_dropShadow_1282_1215"/>
<feBlend mode="normal" in="SourceGraphic" in2="effect1_dropShadow_1282_1215" result="shape"/>
</filter>
<filter id="filter4_d_1282_1215" x="152" y="329" width="130" height="62" filterUnits="userSpaceOnUse" color-interpolation-filters="sRGB">
<feFlood flood-opacity="0" result="BackgroundImageFix"/>
<feColorMatrix in="SourceAlpha" type="matrix" values="0 0 0 0 0 0 0 0 0 0 0 0 0 0 0 0 0 0 127 0" result="hardAlpha"/>
<feOffset dy="3"/>
<feGaussianBlur stdDeviation="7.5"/>
<feComposite in2="hardAlpha" operator="out"/>
<feColorMatrix type="matrix" values="0 0 0 0 0 0 0 0 0 0 0 0 0 0 0 0 0 0 0.5 0"/>
<feBlend mode="normal" in2="BackgroundImageFix" result="effect1_dropShadow_1282_1215"/>
<feBlend mode="normal" in="SourceGraphic" in2="effect1_dropShadow_1282_1215" result="shape"/>
</filter>
<filter id="filter5_d_1282_1215" x="177.799" y="352.936" width="78.0547" height="17.7227" filterUnits="userSpaceOnUse" color-interpolation-filters="sRGB">
<feFlood flood-opacity="0" result="BackgroundImageFix"/>
<feColorMatrix in="SourceAlpha" type="matrix" values="0 0 0 0 0 0 0 0 0 0 0 0 0 0 0 0 0 0 127 0" result="hardAlpha"/>
<feOffset dy="4"/>
<feGaussianBlur stdDeviation="2"/>
<feComposite in2="hardAlpha" operator="out"/>
<feColorMatrix type="matrix" values="0 0 0 0 0 0 0 0 0 0 0 0 0 0 0 0 0 0 0.25 0"/>
<feBlend mode="normal" in2="BackgroundImageFix" result="effect1_dropShadow_1282_1215"/>
<feBlend mode="normal" in="SourceGraphic" in2="effect1_dropShadow_1282_1215" result="shape"/>
</filter>
<linearGradient id="paint0_linear_1282_1215" x1="52.5" y1="192" x2="52.5" y2="456" gradientUnits="userSpaceOnUse">
<stop stop-color="#F8F8F8" stop-opacity="0.05"/>
<stop offset="0.530519" stop-color="#F8F8F8" stop-opacity="0.5"/>
<stop offset="1" stop-color="#F8F8F8" stop-opacity="0.05"/>
</linearGradient>
<linearGradient id="paint1_linear_1282_1215" x1="89.5" y1="192" x2="89.5" y2="456" gradientUnits="userSpaceOnUse">
<stop stop-color="#F8F8F8" stop-opacity="0.05"/>
<stop offset="0.530519" stop-color="#F8F8F8" stop-opacity="0.5"/>
<stop offset="1" stop-color="#F8F8F8" stop-opacity="0.05"/>
</linearGradient>
<linearGradient id="paint2_linear_1282_1215" x1="126.5" y1="192" x2="126.5" y2="456" gradientUnits="userSpaceOnUse">
<stop stop-color="#F8F8F8" stop-opacity="0.05"/>
<stop offset="0.530519" stop-color="#F8F8F8" stop-opacity="0.5"/>
<stop offset="1" stop-color="#18E0E0"/>
</linearGradient>
<linearGradient id="paint3_linear_1282_1215" x1="163.5" y1="192" x2="163.5" y2="456" gradientUnits="userSpaceOnUse">
<stop stop-color="#F8F8F8" stop-opacity="0.05"/>
<stop offset="0.530519" stop-color="#F8F8F8" stop-opacity="0.5"/>
<stop offset="1" stop-color="#F8F8F8" stop-opacity="0.05"/>
</linearGradient>
<linearGradient id="paint4_linear_1282_1215" x1="200.5" y1="192" x2="200.5" y2="456" gradientUnits="userSpaceOnUse">
<stop stop-color="#F8F8F8" stop-opacity="0.05"/>
<stop offset="0.530519" stop-color="#F8F8F8" stop-opacity="0.5"/>
<stop offset="1" stop-color="#F8F8F8" stop-opacity="0.05"/>
</linearGradient>
<linearGradient id="paint5_linear_1282_1215" x1="237.5" y1="192" x2="237.5" y2="456" gradientUnits="userSpaceOnUse">
<stop stop-color="#F8F8F8" stop-opacity="0.05"/>
<stop offset="0.530519" stop-color="#F8F8F8" stop-opacity="0.5"/>
<stop offset="1" stop-color="#F8F8F8" stop-opacity="0.05"/>
</linearGradient>
<linearGradient id="paint6_linear_1282_1215" x1="274.5" y1="192" x2="274.5" y2="456" gradientUnits="userSpaceOnUse">
<stop stop-color="#F8F8F8" stop-opacity="0.05"/>
<stop offset="0.530519" stop-color="#F8F8F8" stop-opacity="0.5"/>
<stop offset="1" stop-color="#F8F8F8" stop-opacity="0.05"/>
</linearGradient>
<linearGradient id="paint7_linear_1282_1215" x1="311.5" y1="192" x2="311.5" y2="456" gradientUnits="userSpaceOnUse">
<stop stop-color="#F8F8F8" stop-opacity="0.05"/>
<stop offset="0.530519" stop-color="#F8F8F8" stop-opacity="0.5"/>
<stop offset="1" stop-color="#F8F8F8" stop-opacity="0.05"/>
</linearGradient>
<linearGradient id="paint8_linear_1282_1215" x1="348.5" y1="192" x2="348.5" y2="456" gradientUnits="userSpaceOnUse">
<stop stop-color="#F8F8F8" stop-opacity="0.05"/>
<stop offset="0.530519" stop-color="#F8F8F8" stop-opacity="0.5"/>
<stop offset="1" stop-color="#F8F8F8" stop-opacity="0.05"/>
</linearGradient>
<linearGradient id="paint9_linear_1282_1215" x1="210.38" y1="295.949" x2="210.38" y2="312.81" gradientUnits="userSpaceOnUse">
<stop stop-color="#89FFFF"/>
<stop offset="1" stop-color="#00D7D7"/>
</linearGradient>
<linearGradient id="paint10_linear_1282_1215" x1="204" y1="272" x2="204" y2="326" gradientUnits="userSpaceOnUse">
<stop stop-color="#222222"/>
<stop offset="0.268341" stop-color="#191919"/>
<stop offset="0.678036" stop-color="#191919"/>
<stop offset="1" stop-color="#222222"/>
</linearGradient>
<linearGradient id="paint11_linear_1282_1215" x1="102.5" y1="281" x2="102.5" y2="313" gradientUnits="userSpaceOnUse">
<stop stop-color="#484848"/>
<stop offset="1" stop-color="#2C2C2C"/>
</linearGradient>
<linearGradient id="paint12_linear_1282_1215" x1="204" y1="277" x2="204" y2="317" gradientUnits="userSpaceOnUse">
<stop stop-color="#727272"/>
<stop offset="1" stop-color="#2C2C2C"/>
</linearGradient>
<linearGradient id="paint13_linear_1282_1215" x1="358" y1="212" x2="358" y2="266" gradientUnits="userSpaceOnUse">
<stop stop-color="#181818"/>
<stop offset="0.268341" stop-color="#121212"/>
<stop offset="0.678036" stop-color="#121212"/>
<stop offset="1" stop-color="#181818"/>
</linearGradient>
<linearGradient id="paint14_linear_1282_1215" x1="245.5" y1="221" x2="245.5" y2="253" gradientUnits="userSpaceOnUse">
<stop stop-color="#2B2B2B"/>
<stop offset="1" stop-color="#1B1B1B"/>
</linearGradient>
<linearGradient id="paint15_linear_1282_1215" x1="358" y1="217" x2="358" y2="257" gradientUnits="userSpaceOnUse">
<stop stop-color="#2C2C2C"/>
<stop offset="1" stop-color="#131313"/>
</linearGradient>
<linearGradient id="paint16_linear_1282_1215" x1="321" y1="332" x2="321" y2="386" gradientUnits="userSpaceOnUse">
<stop stop-color="#181818"/>
<stop offset="0.268341" stop-color="#121212"/>
<stop offset="0.678036" stop-color="#121212"/>
<stop offset="1" stop-color="#181818"/>
</linearGradient>
<linearGradient id="paint17_linear_1282_1215" x1="217" y1="341" x2="217" y2="373" gradientUnits="userSpaceOnUse">
<stop stop-color="#2B2B2B"/>
<stop offset="1" stop-color="#1B1B1B"/>
</linearGradient>
<linearGradient id="paint18_linear_1282_1215" x1="321" y1="337" x2="321" y2="377" gradientUnits="userSpaceOnUse">
<stop stop-color="#2C2C2C"/>
<stop offset="1" stop-color="#131313"/>
</linearGradient>
<linearGradient id="paint19_linear_1282_1215" x1="52" y1="176" x2="52" y2="184" gradientUnits="userSpaceOnUse">
<stop stop-color="#353535"/>
<stop offset="1" stop-color="#191919"/>
</linearGradient>
<linearGradient id="paint20_linear_1282_1215" x1="89" y1="176" x2="89" y2="184" gradientUnits="userSpaceOnUse">
<stop stop-color="#353535"/>
<stop offset="1" stop-color="#191919"/>
</linearGradient>
<linearGradient id="paint21_linear_1282_1215" x1="126" y1="176" x2="126" y2="184" gradientUnits="userSpaceOnUse">
<stop stop-color="#353535"/>
<stop offset="1" stop-color="#191919"/>
</linearGradient>
<linearGradient id="paint22_linear_1282_1215" x1="163" y1="176" x2="163" y2="184" gradientUnits="userSpaceOnUse">
<stop stop-color="#353535"/>
<stop offset="1" stop-color="#191919"/>
</linearGradient>
<linearGradient id="paint23_linear_1282_1215" x1="200" y1="176" x2="200" y2="184" gradientUnits="userSpaceOnUse">
<stop stop-color="#353535"/>
<stop offset="1" stop-color="#191919"/>
</linearGradient>
<linearGradient id="paint24_linear_1282_1215" x1="237" y1="176" x2="237" y2="184" gradientUnits="userSpaceOnUse">
<stop stop-color="#353535"/>
<stop offset="1" stop-color="#191919"/>
</linearGradient>
<linearGradient id="paint25_linear_1282_1215" x1="274" y1="176" x2="274" y2="184" gradientUnits="userSpaceOnUse">
<stop stop-color="#353535"/>
<stop offset="1" stop-color="#191919"/>
</linearGradient>
<linearGradient id="paint26_linear_1282_1215" x1="311" y1="176" x2="311" y2="184" gradientUnits="userSpaceOnUse">
<stop stop-color="#353535"/>
<stop offset="1" stop-color="#191919"/>
</linearGradient>
<linearGradient id="paint27_linear_1282_1215" x1="348" y1="176" x2="348" y2="184" gradientUnits="userSpaceOnUse">
<stop stop-color="#353535"/>
<stop offset="1" stop-color="#191919"/>
</linearGradient>
<clipPath id="clip0_1282_1215">
<path d="M0 24C0 10.7452 10.7452 0 24 0H531C544.255 0 555 10.7452 555 24V394C555 407.255 544.255 418 531 418H24C10.7452 418 0 407.255 0 394V24Z" fill="white"/>
</clipPath>
<clipPath id="clip1_1282_1215">
<rect x="52" y="277" width="304" height="40" rx="10" fill="white"/>
</clipPath>
<clipPath id="clip2_1282_1215">
<rect x="200" y="217" width="316" height="40" rx="10" fill="white"/>
</clipPath>
<clipPath id="clip3_1282_1215">
<rect x="163" y="337" width="316" height="40" rx="10" fill="white"/>
</clipPath>
</defs>
</svg>
