<svg width="367" height="345" viewBox="0 0 367 345" fill="none" xmlns="http://www.w3.org/2000/svg">
<g clip-path="url(#clip0_1282_1309)">
<path d="M0 24C0 10.7452 10.7452 0 24 0H342.667C355.922 0 366.667 10.7452 366.667 24V321C366.667 334.255 355.921 345 342.667 345H24C10.7451 345 0 334.255 0 321V24Z" fill="#080808"/>
<g opacity="0.5">
<g opacity="0.7" filter="url(#filter0_f_1282_1309)">
<circle cx="180" cy="180" r="180" transform="matrix(-1 0 0 1 415 205)" fill="#18E0E0" fill-opacity="0.2"/>
</g>
</g>
<path d="M90.3891 305.665L90.3942 305.759L90.6355 306.503L89.5997 313.552L88.5387 295.764L89.3483 288.384L90.3891 305.665ZM173.986 185.532L173.373 186.035L161.747 188.7L162.079 188.572L176.772 183.04L185.607 181.168L173.986 185.532ZM233.9 180.468L232.854 180.547L229.44 179.562L242.639 181.985L243.288 182.202L233.9 180.468ZM187.362 408.773L187.905 408.995L209.743 412.488L199.742 413.488L178.839 410.153L187.362 408.773ZM175.5 409.621L152.762 400.241L160.455 397.625L160.52 397.669L186.04 408.226L176.471 409.773L175.5 409.621ZM111.192 365.072L115.084 358.648L135.192 379.974L129.203 384.467L128.61 384.058L112.605 367.092L111.192 365.072ZM99.8777 333.824L114.551 358.072L110.749 364.338L97.62 342.618L97.5043 342.258L99.8777 333.824ZM99.1587 332.598L99.1838 332.676L99.3548 332.957L97.082 340.958L89.9265 318.996L89.826 317.296L91.1736 308.138L99.1587 332.598ZM134.322 206.124L132.663 207.312L134.529 205.789L134.322 206.124ZM195.146 179.158L196.277 179.079L212.73 182.577L197.409 188.36L197.167 188.557L176.757 186.099L195.146 179.158ZM300.989 222.603L290.057 211.105L291.983 207.193L306.148 222.056L300.989 222.603ZM324.477 258.718L314.289 250.318L314.269 250.097L309.723 237.121L318.071 240.786L318.257 241.086L322.214 252.304L324.477 258.718ZM329.259 272.97L330.848 289.946L328.293 280.6L328.429 279.916L328.449 279.812L327.247 266.93L329.259 272.97ZM327.856 315.242L324.728 298.384L324.95 297.99L327.967 282.305L331.26 294.374L331.451 296.419L327.856 315.242ZM263.492 399.807L249.423 405.768L257.529 401.059L258.278 400.985L258.393 400.97L270.165 395.989L263.492 399.807ZM217.93 411.66L230.868 403.699L231.255 403.763L255.703 401.246L243.856 408.128L241.221 409.241L217.93 411.66ZM98.9626 265.551L100.547 291.251L100.552 291.345L100.622 291.547L91.8273 304.01L90.3439 279.418L90.55 278.546L98.9626 265.551ZM103.679 243.047L98.8771 263.659L98.852 263.762L98.8871 264.304L91.0629 276.359L95.9003 255.683L103.679 243.047ZM146.174 217.48L146.114 217.583L146.079 217.726L124.447 225.145L135.997 206.312L136.495 205.908L156.588 200.385L146.174 217.48ZM183.264 200.42L174.63 214.741L148.03 217.366L158.534 200.114L158.665 200.011L183.264 200.42ZM234.247 194.03L233.965 194.139L216.416 183.232L233.815 181.981L234.222 182.059L246.622 193.114L234.247 194.03ZM275.721 201.341L262.602 195.705L262.215 195.631L255.562 186.404L273.484 194.089L273.695 194.242L275.721 201.341ZM289.439 210.647L276.883 201.838L276.632 201.73L274.691 194.937L291.405 206.637L289.439 210.647ZM317.065 336.534L302.181 349.721L302.96 325.174L303.016 325.154L315.401 314.257L317.226 336.243L317.065 336.534ZM294.095 372.924L272.724 381.925L281.434 360.377L300.984 352.249L294.412 372.644L294.095 372.924ZM109.733 319.331L109.754 319.385L100.32 331.218L91.9128 305.483L91.8976 305.222L100.909 292.433L109.733 319.331ZM116.673 250.107L116.653 250.215L116.663 250.392L100.712 262.521L106.153 239.165L106.54 238.544L121.932 227.293L116.673 250.107ZM141.136 239.549L141.116 239.633L118.402 249.441L123.727 226.322L123.828 226.155L145.883 218.588L141.136 239.549ZM326.901 279.738L323.748 296.133L312.937 277.108L312.952 277.083L315.3 265.23L326.865 279.389L326.901 279.738ZM306.777 288.015L306.792 288L312.499 277.881L323.521 297.286L323.486 297.478L315.577 311.626L306.777 288.015ZM315.074 312.528L302.759 323.356L297.369 296.207L306.158 288.551L315.089 312.503L315.074 312.528ZM301.336 350.475L281.861 358.604L286.095 332.135L302.181 325.499L301.391 350.421L301.336 350.475ZM271.653 382.373L246.526 384.9L257.775 362.697L280.569 360.476L271.749 382.334L271.653 382.373ZM258.001 399.502L232.482 402.123L245.556 386.482L245.656 386.501L270.663 383.984L258.449 399.31L258.001 399.502ZM148.045 369.348L173.338 386.92L161.26 396.344L136.957 379.491L148.045 369.348ZM126.247 346.362L147.467 368.85L136.369 379.003L115.994 357.416L126.247 346.362ZM110.166 320.08L125.749 345.785L115.546 356.781L100.607 332.08L110.166 320.08ZM118.372 277.004L102.015 290.152L100.396 263.89L100.446 263.679L116.718 251.284L118.372 277.004ZM205.65 218.199L203.036 230.308L172.242 232.544L176.023 215.489L205.65 218.199ZM205.867 217.47L176.39 214.775L184.943 200.597L211.876 207.381L205.867 217.47ZM275.968 203.07L274.067 217.258L267.264 214.332L267.173 214.317L262.964 197.498L275.968 203.07ZM287.272 228.308L281.826 222.568L289.228 212.435L299.375 223.086L287.272 228.308ZM291.747 235.421L287.724 228.933L299.878 223.672L307.461 235.835L291.747 235.421ZM294.377 242.919L292.044 236.18L307.908 236.569L312.424 249.402L294.377 242.919ZM313.993 263.94L311.715 275.61L293.668 257.028L294.88 251.097L313.993 263.915V263.94ZM286.18 330.469L285.351 301.094L296.66 296.532L302.09 323.908L286.18 330.469ZM281.046 358.919L258.383 361.126L266.655 333.977L285.306 332.233L281.046 358.919ZM245.641 384.974L218.679 380.575L232.613 358.525L256.98 362.584L245.641 384.974ZM118.619 277.773L127.338 304.153L110.97 318.183L102.075 291.074L118.619 277.773ZM142.946 264.422L150.876 288.207L128.635 303.192L119.936 276.876L142.946 264.422ZM172.201 253.254L178.718 272.669L152.219 287.394L144.344 263.782L172.201 253.254ZM245.883 215.933L223.486 199.73L234.473 195.518L251.479 213.79L245.883 215.933ZM305.922 286.438L290.445 262.782L293.316 257.757L311.534 276.497L305.922 286.438ZM266.997 332.435L271.523 302.434L284.597 301.266L285.426 330.711L266.997 332.435ZM257.579 361.155L233.357 357.145L245.983 330.524L265.886 333.898L257.579 361.155ZM217.89 380.407L191.113 369.284L207.677 348.17L231.869 358.283L217.89 380.407ZM190.098 370.476L216.934 381.644L202.784 397.64L175.218 386.225L190.098 370.476ZM127.705 304.833L142.961 329.913L126.865 344.687L111.252 318.927L127.705 304.833ZM151.238 288.872L165.016 311.474L144.128 328.898L128.927 303.902L151.238 288.872ZM179.065 273.334L190.349 291.773L166.213 310.508L152.525 288.083L179.065 273.334ZM204.212 245.096L208.818 258.698L180.101 271.969L173.64 252.806L204.212 245.096ZM237.214 226.455L235.952 232.465L204.599 230.317L207.159 218.47L237.214 226.455ZM240.407 220.731L237.465 225.741L207.461 217.775L213.344 207.898L240.407 220.731ZM240.854 220.11L213.912 207.341L222.667 200.07L245.259 216.415L240.854 220.11ZM267.917 237.288L267.364 216.016L273.75 218.746L267.917 237.288ZM270.542 240.367L292.893 243.333L293.441 249.496L270.542 240.367ZM285.522 267.083L289.896 263.319L305.474 287.138L296.871 294.631L285.522 267.083ZM266.223 332.435L246.557 329.115L256.82 299.961L270.758 302.38L266.223 332.435ZM232.603 356.958L208.577 346.933L225.508 322.006L245.244 330.302L232.603 356.958ZM190.419 368.934L165.81 351.84L184.762 332.307L207.008 347.795L190.419 368.934ZM164.739 352.919L189.424 370.087L174.499 385.885L149.151 368.294L164.739 352.919ZM143.444 330.494L164.161 352.426L148.568 367.806L127.313 345.303L143.444 330.494ZM165.494 312.06L184.179 331.819L165.227 351.347L144.58 329.504L165.494 312.06ZM190.827 292.364L206.093 308.493L185.225 330.716L166.67 311.114L190.827 292.364ZM209.155 259.368L217.09 272.285L191.576 290.857L180.418 272.654L209.155 259.368ZM264.719 237.072L242.227 220.938L246.416 217.42L264.719 237.072ZM265.413 236.697L247.125 217.066L252.425 215.011L265.413 236.697ZM266.263 236.633L253.249 214.903L259.314 214.435L266.263 236.633ZM268.556 237.796L274.419 219.159L280.312 223.283L268.556 237.796ZM269.119 238.318L280.886 223.785L285.864 229.012L269.119 238.318ZM269.657 238.879L286.351 229.608L290.062 235.569L269.657 238.879ZM290.455 236.269L292.652 242.55L270.165 239.559L290.455 236.269ZM270.658 241.224L293.477 250.323L292.35 255.979L270.658 241.224ZM279.236 269.659L284.848 267.442L296.237 295.079L285.17 299.581L279.236 269.659ZM245.822 328.913L226.317 320.73L242.257 293.911L256.08 299.759L245.822 328.913ZM217.563 272.876L228.273 284.182L207.124 307.375L192.033 291.453L217.563 272.876ZM236.605 240.569L238.913 247.343L210.236 258.107L205.711 244.816L236.605 240.569ZM270.457 242.003L292.139 256.742L289.414 261.516L270.457 242.003ZM271.995 270.408L278.492 269.856L284.431 299.774L271.638 300.912L271.995 270.408ZM264.297 269.142L271.236 270.378L270.879 300.877L257.237 298.527L264.297 269.142ZM239.245 248.023L243.213 254.476L218.337 271.408L210.568 258.787L239.245 248.023ZM240.367 246.865L238.164 240.461L264.694 240.017L240.367 246.865ZM284.149 266.102L278.819 268.235L269.235 242.86L284.149 266.102ZM269.954 242.569L288.956 262.127L284.798 265.708L269.954 242.569ZM243.68 255.067L249.041 260.728L229.289 283.049L218.805 272.004L243.68 255.067ZM244.49 253.639L240.724 247.545L265.172 240.668L244.49 253.639ZM271.91 268.905L268.415 242.86L278.06 268.383L271.91 268.905ZM250.041 259.575L244.963 254.235L265.695 241.229L250.041 259.575ZM267.611 242.614L271.13 268.831L264.563 267.684L267.611 242.614ZM257.297 264.664L266.886 242.215L263.819 267.432L257.297 264.664ZM256.633 264.275L250.614 260.072L266.258 241.742L256.633 264.275ZM242.318 292.227L229.867 283.541L249.624 261.21L255.985 265.664L242.318 292.227ZM256.508 298.306L242.981 292.601L256.664 266.014L263.558 268.955L256.508 298.306ZM225.648 320.366L207.702 307.868L228.857 284.67L241.578 293.557L225.648 320.366ZM264.332 239.274L237.968 239.712L237.46 233.451L264.332 239.274ZM238.923 226.268L241.724 221.509L264.297 237.697L238.923 226.268ZM264.176 238.471L237.47 232.682L238.672 226.982L264.176 238.471ZM207.898 346.574L185.808 331.213L206.676 308.981L224.834 321.641L207.898 346.574ZM267.138 236.865L260.153 214.558L266.59 215.721L267.138 236.865ZM235.901 233.214L236.439 239.83L205.545 244.082L204.549 231.061L235.901 233.214ZM276.677 203.543L288.659 211.928L281.227 222.091L274.796 217.578L276.677 203.543ZM203.011 231.056L204.031 244.372L173.504 252.067L172.151 233.298L203.011 231.056ZM231.295 402.246L203.649 397.792L217.699 381.92L244.686 386.339L231.426 402.231L231.295 402.246ZM312.751 250.323L313.907 262.964L295.046 250.294L295.051 250.274L294.472 243.752L312.736 250.289L312.751 250.323ZM262.084 197.119L266.348 214.164L259.515 212.913L259.48 212.918L248.92 194.715L262.069 197.114L262.084 197.119ZM247.934 194.533L258.635 212.982L252.334 213.465L252.249 213.499L235.444 195.444L247.889 194.528L247.934 194.533ZM170.633 233.529L172 252.525L144.233 263.023L142.67 239.919L170.633 233.529ZM141.166 240.426L142.74 263.683L119.851 276.073L118.196 250.353L141.166 240.426ZM188.328 407.542L162.029 396.679L174.017 387.344L201.467 398.723L188.478 407.566L188.328 407.542ZM215.134 183.325L233.09 194.469L221.937 198.71L221.867 198.769L199.32 189.242L214.857 183.345L215.134 183.325ZM198.299 189.631L221.223 199.301L212.293 206.716L185.642 199.996L198.198 189.671L198.299 189.631ZM174.449 215.509L170.622 232.761L142.805 239.126L147.552 218.169L174.449 215.509ZM189.565 407.739L202.301 399.068L202.332 399.078L229.726 403.512L216.195 411.842L215.607 411.901L189.565 407.739ZM281.112 389.718L259.872 398.709L271.724 383.876L271.925 383.856L292.868 375.072L282.515 388.472L281.112 389.718ZM295.538 371.639L301.914 351.864L302.176 351.756L316.809 338.785L312.203 356.204L311.554 357.377L295.538 371.639ZM317.895 335.036L316.12 313.626L316.291 313.474L324.145 299.434L327.459 317.311L327.308 318.095L317.895 335.036ZM325.11 260.516L326.74 278.034L315.491 264.265L315.541 264.018L314.385 251.382L324.965 260.102L325.11 260.516ZM175.239 186.675L196.363 189.217L183.877 199.489L183.777 199.572L183.711 199.676L159.57 199.272L174.776 186.848L175.239 186.675ZM122.234 215.79L123.365 214.873L133.312 207.775L122.284 225.756L122.189 226.165L107.586 236.84L118.835 218.558L122.234 215.79ZM151.515 399.728L145.868 396.019L129.857 384.92L135.766 380.486L159.686 397.093L151.706 399.807L151.515 399.728ZM299.144 373.639L287.885 383.679L285.607 385.708L294.291 374.476L294.935 374.205L306.742 363.692L299.144 373.639ZM322.933 336.849L317.9 345.928L313.716 353.475L317.839 337.869L318.287 337.475L326.051 323.499L322.933 336.849ZM306.817 222.756L317.362 239.653L309.381 236.145L309.321 235.968L301.447 223.307L306.802 222.746L306.817 222.756ZM253.803 185.651L254.205 185.823L261.134 195.434L247.975 193.015L247.653 193.04L235.65 182.32L253.803 185.651ZM221.902 178.177L230.677 180.705L214.631 181.857L214.033 182.084L198.988 178.887L218.272 177.512L221.902 178.177ZM154.084 191.587L156.528 190.666L172.061 187.109L157.352 199.129L157.156 199.449L137.943 204.73L154.084 191.587ZM150.725 401.019L174.987 411.039L199.697 415L215.561 413.419L215.657 413.409H215.662L241.619 410.714L264.141 401.167C264.146 401.167 264.146 401.167 264.146 401.162L281.881 391.033L281.957 390.999L300.23 374.703L312.736 358.357L312.776 358.318L324.331 337.475C324.391 337.366 324.411 337.243 324.416 337.125L328.766 318.622L328.771 318.602L328.796 318.494V318.489L332.98 296.596L333 296.493L330.777 272.753C330.767 272.644 330.732 272.541 330.682 272.452L326.589 260.107L319.68 240.52L308.084 221.908L292.622 205.661L274.308 192.823L254.336 184.237H254.325L254.275 184.212L243.072 180.547L243.006 180.532C242.996 180.532 242.986 180.522 242.971 180.522L218.357 176L194.92 177.67L176.39 181.582L176.32 181.606C176.305 181.611 176.289 181.611 176.274 181.616L153.606 190.158L153.415 190.227V190.232L153.3 190.276L152.927 190.577L136.61 202.144C136.605 202.144 136.605 202.144 136.605 202.149L128.213 208.977L117.678 217.549L117.658 217.563L117.558 217.726L106.847 234.988L94.5275 255.008L94.4621 255.112L88.8253 279.187L88.8002 279.29L88.8052 279.364L87 295.724L88.4029 319.178L88.408 319.272L96.1869 343.155L109.889 365.865L111.926 368.781L126.971 384.743L144.998 397.255L150.725 401.019Z" fill="url(#paint0_linear_1282_1309)" fill-opacity="0.5"/>
<g filter="url(#filter1_d_1282_1309)">
<ellipse cx="81.268" cy="166.593" rx="81.268" ry="166.593" transform="matrix(0.716126 -0.697971 0.716126 0.697971 32 235.445)" stroke="url(#paint1_linear_1282_1309)" stroke-width="2" shape-rendering="crispEdges"/>
</g>
<g filter="url(#filter2_d_1282_1309)">
<ellipse cx="58.6089" cy="149.626" rx="58.6089" ry="149.626" transform="matrix(-0.265084 -0.964225 0.96755 -0.252681 87.0723 400.641)" stroke="url(#paint2_linear_1282_1309)" stroke-width="2" shape-rendering="crispEdges"/>
</g>
</g>
<defs>
<filter id="filter0_f_1282_1309" x="-345" y="-195" width="1160" height="1160" filterUnits="userSpaceOnUse" color-interpolation-filters="sRGB">
<feFlood flood-opacity="0" result="BackgroundImageFix"/>
<feBlend mode="normal" in="SourceGraphic" in2="BackgroundImageFix" result="shape"/>
<feGaussianBlur stdDeviation="200" result="effect1_foregroundBlur_1282_1309"/>
</filter>
<filter id="filter1_d_1282_1309" x="67.7178" y="156.609" width="283.564" height="276.781" filterUnits="userSpaceOnUse" color-interpolation-filters="sRGB">
<feFlood flood-opacity="0" result="BackgroundImageFix"/>
<feColorMatrix in="SourceAlpha" type="matrix" values="0 0 0 0 0 0 0 0 0 0 0 0 0 0 0 0 0 0 127 0" result="hardAlpha"/>
<feOffset/>
<feGaussianBlur stdDeviation="4"/>
<feComposite in2="hardAlpha" operator="out"/>
<feColorMatrix type="matrix" values="0 0 0 0 0.0941176 0 0 0 0 0.878431 0 0 0 0 0.878431 0 0 0 0.2 0"/>
<feBlend mode="normal" in2="BackgroundImageFix" result="effect1_dropShadow_1282_1309"/>
<feBlend mode="normal" in="SourceGraphic" in2="effect1_dropShadow_1282_1309" result="shape"/>
</filter>
<filter id="filter2_d_1282_1309" x="61.6885" y="229.324" width="309.236" height="153.994" filterUnits="userSpaceOnUse" color-interpolation-filters="sRGB">
<feFlood flood-opacity="0" result="BackgroundImageFix"/>
<feColorMatrix in="SourceAlpha" type="matrix" values="0 0 0 0 0 0 0 0 0 0 0 0 0 0 0 0 0 0 127 0" result="hardAlpha"/>
<feOffset/>
<feGaussianBlur stdDeviation="4"/>
<feComposite in2="hardAlpha" operator="out"/>
<feColorMatrix type="matrix" values="0 0 0 0 0.0941176 0 0 0 0 0.878431 0 0 0 0 0.878431 0 0 0 0.2 0"/>
<feBlend mode="normal" in2="BackgroundImageFix" result="effect1_dropShadow_1282_1309"/>
<feBlend mode="normal" in="SourceGraphic" in2="effect1_dropShadow_1282_1309" result="shape"/>
</filter>
<linearGradient id="paint0_linear_1282_1309" x1="210" y1="176" x2="210" y2="415" gradientUnits="userSpaceOnUse">
<stop stop-color="#18E0E0" stop-opacity="0.8"/>
<stop offset="1" stop-color="#18E0E0" stop-opacity="0"/>
</linearGradient>
<linearGradient id="paint1_linear_1282_1309" x1="126.048" y1="42.4206" x2="34.0679" y2="84.5376" gradientUnits="userSpaceOnUse">
<stop stop-color="#ABABBA"/>
<stop offset="1" stop-color="#18E0E0" stop-opacity="0"/>
</linearGradient>
<linearGradient id="paint2_linear_1282_1309" x1="113.814" y1="86.3238" x2="21.4428" y2="78.5378" gradientUnits="userSpaceOnUse">
<stop stop-color="#B4B4B4" stop-opacity="0.7"/>
<stop offset="0.395" stop-color="#18E0E0" stop-opacity="0.1"/>
<stop offset="1" stop-color="#18E0E0" stop-opacity="0.1"/>
</linearGradient>
<clipPath id="clip0_1282_1309">
<path d="M0 24C0 10.7452 10.7452 0 24 0H342.667C355.922 0 366.667 10.7452 366.667 24V321C366.667 334.255 355.921 345 342.667 345H24C10.7451 345 0 334.255 0 321V24Z" fill="white"/>
</clipPath>
</defs>
</svg>
