<svg width="20" height="20" viewBox="0 0 20 20" fill="none" xmlns="http://www.w3.org/2000/svg">
<path d="M9.99805 16.5C13.5879 16.5 16.498 13.5899 16.498 10C16.498 6.41015 13.5879 3.5 9.99805 3.5C6.4082 3.5 3.49805 6.41015 3.49805 10C3.49805 13.5899 6.4082 16.5 9.99805 16.5Z" fill="url(#paint0_linear_1745_2535)" fill-opacity="0.24" stroke="white" stroke-width="0.5" stroke-linecap="round" stroke-linejoin="round"/>
<path opacity="0.4" d="M9.99805 9C10.2632 9 10.5176 9.10535 10.7051 9.2929C10.8927 9.48045 10.998 9.7348 10.998 10C10.998 10.2652 10.8927 10.5196 10.7051 10.7071C10.5176 10.8947 10.2632 11 9.99805 11C9.73285 11 9.4785 10.8947 9.29095 10.7071C9.1034 10.5196 8.99805 10.2652 8.99805 10C8.99805 9.7348 9.1034 9.48045 9.29095 9.2929C9.4785 9.10535 9.73285 9 9.99805 9Z" fill="#030014" stroke="white" stroke-width="0.5" stroke-linecap="round" stroke-linejoin="round"/>
<path d="M10 2.5C10.2652 2.5 10.5196 2.60536 10.7071 2.7929C10.8947 2.98043 11 3.23479 11 3.5C11 3.76522 10.8947 4.01957 10.7071 4.20711C10.5196 4.39465 10.2652 4.5 10 4.5C9.7348 4.5 9.48045 4.39465 9.2929 4.20711C9.10535 4.01957 9 3.76522 9 3.5C9 3.23479 9.10535 2.98043 9.2929 2.7929C9.48045 2.60536 9.7348 2.5 10 2.5ZM10 15.5C10.2652 15.5 10.5196 15.6054 10.7071 15.7929C10.8947 15.9805 11 16.2348 11 16.5C11 16.7652 10.8947 17.0196 10.7071 17.2071C10.5196 17.3947 10.2652 17.5 10 17.5C9.7348 17.5 9.48045 17.3947 9.2929 17.2071C9.10535 17.0196 9 16.7652 9 16.5C9 16.2348 9.10535 15.9805 9.2929 15.7929C9.48045 15.6054 9.7348 15.5 10 15.5ZM16.5 9C16.7652 9 17.0196 9.10535 17.2071 9.2929C17.3947 9.48045 17.5 9.7348 17.5 10C17.5 10.2652 17.3947 10.5196 17.2071 10.7071C17.0196 10.8947 16.7652 11 16.5 11C16.2348 11 15.9805 10.8947 15.7929 10.7071C15.6054 10.5196 15.5 10.2652 15.5 10C15.5 9.7348 15.6054 9.48045 15.7929 9.2929C15.9805 9.10535 16.2348 9 16.5 9ZM3.5 9C3.76522 9 4.01957 9.10535 4.20711 9.2929C4.39465 9.48045 4.5 9.7348 4.5 10C4.5 10.2652 4.39465 10.5196 4.20711 10.7071C4.01957 10.8947 3.76522 11 3.5 11C3.23479 11 2.98043 10.8947 2.7929 10.7071C2.60536 10.5196 2.5 10.2652 2.5 10C2.5 9.7348 2.60536 9.48045 2.7929 9.2929C2.98043 9.10535 3.23479 9 3.5 9Z" fill="#030014" stroke="white" stroke-width="0.5" stroke-linecap="round" stroke-linejoin="round"/>
<defs>
<linearGradient id="paint0_linear_1745_2535" x1="9.99805" y1="3.5" x2="9.99805" y2="16.5" gradientUnits="userSpaceOnUse">
<stop stop-color="white" stop-opacity="0"/>
<stop offset="1" stop-color="white"/>
</linearGradient>
</defs>
</svg>
