<svg width="36" height="36" viewBox="0 0 36 36" fill="none" xmlns="http://www.w3.org/2000/svg">
<path d="M28.4997 6.75069C27.903 6.75069 27.3307 6.98774 26.9087 7.4097C26.4868 7.83166 26.2497 8.40395 26.2497 9.00069C26.2497 9.59743 26.4868 10.1697 26.9087 10.5917C27.3307 11.0136 27.903 11.2507 28.4997 11.2507C29.0964 11.2507 29.6687 11.0136 30.0907 10.5917C30.5127 10.1697 30.7497 9.59743 30.7497 9.00069C30.7497 8.40395 30.5127 7.83166 30.0907 7.4097C29.6687 6.98774 29.0964 6.75069 28.4997 6.75069ZM23.9997 9.00069C24 8.08024 24.2825 7.182 24.8092 6.42711C25.3358 5.67223 26.0813 5.097 26.9451 4.77902C27.8089 4.46103 28.7494 4.41557 29.6398 4.64878C30.5302 4.88198 31.3277 5.38263 31.9248 6.08321C32.5218 6.78379 32.8896 7.65059 32.9786 8.56673C33.0676 9.48287 32.8736 10.4043 32.4226 11.2067C31.9716 12.0091 31.2855 12.6539 30.4566 13.0542C29.6277 13.4545 28.6961 13.5909 27.7872 13.4452L24.7302 18.4822C25.3779 19.4318 25.6378 20.5932 25.4563 21.7282C25.2749 22.8633 24.6661 23.8859 23.7546 24.5862C22.8432 25.2866 21.6983 25.6116 20.5548 25.4947C19.4113 25.3777 18.356 24.8276 17.6052 23.9572L11.9937 26.7622C12.0516 27.8547 11.7094 28.931 11.0312 29.7895C10.353 30.648 9.38526 31.2301 8.30899 31.4268C7.23273 31.6235 6.12167 31.4213 5.18366 30.8582C4.24565 30.295 3.54494 29.4094 3.21262 28.367C2.88029 27.3246 2.93911 26.1968 3.37807 25.1946C3.81704 24.1925 4.60607 23.3846 5.59758 22.922C6.58909 22.4595 7.71515 22.374 8.76511 22.6816C9.81507 22.9892 10.717 23.6688 11.3022 24.5932L16.5987 21.9442C16.4205 21.115 16.4802 20.2524 16.771 19.4558C17.0618 18.6591 17.5717 17.9608 18.2421 17.4414C18.9125 16.922 19.7161 16.6026 20.5601 16.52C21.4042 16.4374 22.2544 16.595 23.0127 16.9747L25.7097 12.5317C25.1762 12.1108 24.7451 11.5743 24.4489 10.9627C24.1527 10.3511 23.9991 9.68025 23.9997 9.00069ZM20.9997 18.7507C20.403 18.7507 19.8307 18.9877 19.4087 19.4097C18.9868 19.8317 18.7497 20.404 18.7497 21.0007C18.7497 21.5974 18.9868 22.1697 19.4087 22.5917C19.8307 23.0136 20.403 23.2507 20.9997 23.2507C21.5964 23.2507 22.1687 23.0136 22.5907 22.5917C23.0127 22.1697 23.2497 21.5974 23.2497 21.0007C23.2497 20.404 23.0127 19.8317 22.5907 19.4097C22.1687 18.9877 21.5964 18.7507 20.9997 18.7507ZM7.49971 24.7507C6.90297 24.7507 6.33067 24.9877 5.90872 25.4097C5.48676 25.8317 5.24971 26.404 5.24971 27.0007C5.24971 27.5974 5.48676 28.1697 5.90872 28.5917C6.33067 29.0136 6.90297 29.2507 7.49971 29.2507C8.09645 29.2507 8.66874 29.0136 9.0907 28.5917C9.51266 28.1697 9.74971 27.5974 9.74971 27.0007C9.74971 26.404 9.51266 25.8317 9.0907 25.4097C8.66874 24.9877 8.09645 24.7507 7.49971 24.7507Z" fill="url(#paint0_linear_882_10951)"/>
<defs>
<linearGradient id="paint0_linear_882_10951" x1="17.9999" y1="-11.6969" x2="17.9999" y2="47.699" gradientUnits="userSpaceOnUse">
<stop offset="0.283874" stop-color="#D5DBE6"/>
<stop offset="1" stop-color="#04070D"/>
</linearGradient>
</defs>
</svg>
