<svg width="26" height="26" viewBox="0 0 26 26" fill="none" xmlns="http://www.w3.org/2000/svg">
<path fill-rule="evenodd" clip-rule="evenodd" d="M8.95131 6.49918C9.48352 6.4893 10.015 6.54387 10.5341 6.66168C10.9711 6.7571 11.3861 6.93467 11.7569 7.18493C12.0993 7.4338 12.3703 7.76837 12.5426 8.15506C12.7405 8.63056 12.8361 9.14247 12.8229 9.65737C12.8454 10.2227 12.701 10.7822 12.4077 11.2661C12.0992 11.7231 11.6727 12.0881 11.1735 12.3224C11.8509 12.505 12.441 12.9233 12.8375 13.5021C13.2182 14.1154 13.4095 14.8273 13.3876 15.5488C13.4001 16.1241 13.2812 16.6946 13.0398 17.2169C12.8167 17.6725 12.49 18.0696 12.0859 18.3763C11.6699 18.6797 11.2017 18.9041 10.7047 19.0385C10.1892 19.1811 9.65675 19.2527 9.12194 19.2514H3.25V6.49918H8.95131ZM8.6125 11.6569C9.03066 11.6742 9.44229 11.549 9.78006 11.3019C9.94183 11.1579 10.0677 10.978 10.1475 10.7767C10.2274 10.5754 10.259 10.3582 10.2399 10.1424C10.2508 9.89047 10.2006 9.63961 10.0937 9.41118C10.003 9.22931 9.862 9.07731 9.68744 8.97325C9.51063 8.8587 9.31199 8.78206 9.10406 8.74818C8.87846 8.70448 8.64889 8.6846 8.41913 8.68887H5.91013V11.6683H8.6125V11.6569ZM8.75875 17.0861C9.01164 17.0895 9.264 17.0622 9.51031 17.0048C9.7354 16.9551 9.94888 16.8627 10.1392 16.7326C10.3256 16.6026 10.4762 16.4277 10.5771 16.224C10.6941 15.9643 10.7478 15.6806 10.7339 15.3961C10.7593 15.1368 10.725 14.8752 10.6336 14.6313C10.5422 14.3873 10.3961 14.1676 10.2066 13.9888C9.80501 13.693 9.31283 13.5465 8.81481 13.5744H5.91013V17.0861H8.75875Z" fill="white"/>
<path fill-rule="evenodd" clip-rule="evenodd" d="M17.1763 17.0389C17.385 17.2325 17.631 17.3815 17.8992 17.4771C18.1673 17.5726 18.4521 17.6126 18.7363 17.5947C19.1867 17.6061 19.6283 17.469 19.9932 17.2047C20.29 17.0117 20.5148 16.7261 20.6326 16.3922H22.7541C22.528 17.3427 21.976 18.1839 21.1941 18.7696C20.4439 19.2675 19.5574 19.5196 18.6574 19.4911C18.0152 19.4995 17.3777 19.3787 16.783 19.136C16.245 18.9116 15.7625 18.5725 15.3693 18.1423C14.9774 17.6915 14.6764 17.1693 14.4828 16.6042C14.2655 15.9727 14.1591 15.3083 14.1684 14.6404C14.1644 13.9838 14.2744 13.3314 14.4934 12.7124C14.7876 11.8415 15.3501 11.0861 16.1003 10.5548C16.8504 10.0235 17.7496 9.74343 18.6688 9.75487C19.3475 9.74069 20.0185 9.89951 20.6188 10.2164C21.1614 10.5139 21.6295 10.9306 21.9879 11.4351C22.3545 11.9645 22.6172 12.5587 22.7622 13.1861C22.9212 13.8598 22.9779 14.5535 22.9304 15.2441H16.6116C16.5604 15.8929 16.7628 16.5363 17.1763 17.0389ZM19.9485 12.1891C19.7717 12.0123 19.559 11.8753 19.3248 11.7876C19.0906 11.6999 18.8403 11.6633 18.5908 11.6805C18.2598 11.6679 17.9312 11.7412 17.6369 11.8934C17.4037 12.0218 17.1978 12.1946 17.0308 12.402C16.8829 12.5965 16.7726 12.8169 16.7058 13.052C16.6456 13.248 16.608 13.4503 16.5937 13.6549H20.5075C20.4734 13.1216 20.2791 12.611 19.9501 12.1899L19.9485 12.1891Z" fill="white"/>
<path d="M16.0891 7.35068H20.9934V8.60437H16.0891V7.35068Z" fill="white"/>
</svg>
