<svg width="24" height="24" viewBox="0 0 24 24" fill="none" xmlns="http://www.w3.org/2000/svg">
<path d="M6 8C5.73478 8 5.48043 8.10536 5.29289 8.29289C5.10536 8.48043 5 8.73478 5 9C5 9.26522 5.10536 9.51957 5.29289 9.70711C5.48043 9.89464 5.73478 10 6 10H10C10.2652 10 10.5196 9.89464 10.7071 9.70711C10.8946 9.51957 11 9.26522 11 9C11 8.73478 10.8946 8.48043 10.7071 8.29289C10.5196 8.10536 10.2652 8 10 8H6ZM11 12C11 11.7348 11.1054 11.4804 11.2929 11.2929C11.4804 11.1054 11.7348 11 12 11H16C16.2652 11 16.5196 11.1054 16.7071 11.2929C16.8946 11.4804 17 11.7348 17 12C17 12.2652 16.8946 12.5196 16.7071 12.7071C16.5196 12.8946 16.2652 13 16 13H12C11.7348 13 11.4804 12.8946 11.2929 12.7071C11.1054 12.5196 11 12.2652 11 12ZM15 14C14.7348 14 14.4804 14.1054 14.2929 14.2929C14.1054 14.4804 14 14.7348 14 15C14 15.2652 14.1054 15.5196 14.2929 15.7071C14.4804 15.8946 14.7348 16 15 16H18C18.2652 16 18.5196 15.8946 18.7071 15.7071C18.8946 15.5196 19 15.2652 19 15C19 14.7348 18.8946 14.4804 18.7071 14.2929C18.5196 14.1054 18.2652 14 18 14H15ZM5.25 4C4.38805 4 3.5614 4.34241 2.9519 4.9519C2.34241 5.5614 2 6.38805 2 7.25V16.75C2 17.612 2.34241 18.4386 2.9519 19.0481C3.5614 19.6576 4.38805 20 5.25 20H18.75C19.1768 20 19.5994 19.9159 19.9937 19.7526C20.388 19.5893 20.7463 19.3499 21.0481 19.0481C21.3499 18.7463 21.5893 18.388 21.7526 17.9937C21.9159 17.5994 22 17.1768 22 16.75V7.25C22 6.8232 21.9159 6.40059 21.7526 6.00628C21.5893 5.61197 21.3499 5.25369 21.0481 4.9519C20.7463 4.65011 20.388 4.41072 19.9937 4.24739C19.5994 4.08406 19.1768 4 18.75 4H5.25ZM8 5.5V7H9.5V5.5H14.5V10H16V5.5H18.75C19.716 5.5 20.5 6.284 20.5 7.25V16.75C20.5 17.2141 20.3156 17.6592 19.9874 17.9874C19.6592 18.3156 19.2141 18.5 18.75 18.5H16V17H15C14.827 17 14.66 16.978 14.5 16.937V18.5H9.5V11H8V18.5H5.25C4.78587 18.5 4.34075 18.3156 4.01256 17.9874C3.68437 17.6592 3.5 17.2141 3.5 16.75V7.25C3.5 6.284 4.284 5.5 5.25 5.5H8Z" fill="url(#paint0_linear_894_13176)"/>
<defs>
<linearGradient id="paint0_linear_894_13176" x1="12" y1="-5.6" x2="12" y2="29.6" gradientUnits="userSpaceOnUse">
<stop offset="0.283874" stop-color="#D5DBE6"/>
<stop offset="1" stop-color="#04070D"/>
</linearGradient>
</defs>
</svg>
