<svg width="24" height="24" viewBox="0 0 24 24" fill="none" xmlns="http://www.w3.org/2000/svg">
<path d="M8.66249 15.7329C8.90749 15.9059 9.19949 15.9979 9.49849 15.9969V15.9929C9.78075 15.9934 10.0569 15.911 10.2928 15.756C10.5287 15.601 10.7139 15.3802 10.8255 15.1209L11.4385 13.2569C11.5801 12.8347 11.818 12.4512 12.1334 12.1367C12.4487 11.8222 12.8329 11.5854 13.2555 11.4449L15.0335 10.8669C15.3199 10.7663 15.5673 10.5779 15.7404 10.3286C15.9136 10.0792 16.0037 9.78165 15.9979 9.47814C15.9921 9.17463 15.8908 8.88067 15.7083 8.63808C15.5258 8.39549 15.2715 8.21662 14.9815 8.12694L13.2265 7.55694C12.8019 7.41574 12.4161 7.17744 12.0998 6.86097C11.7835 6.54449 11.5454 6.15859 11.4045 5.73394L10.8265 3.95694C10.7257 3.67391 10.5392 3.42931 10.293 3.25713C10.0468 3.08494 9.75309 2.99372 9.45266 2.99614C9.15223 2.99856 8.86001 3.0945 8.61661 3.27063C8.37321 3.44676 8.19072 3.69432 8.09449 3.97894L7.51149 5.77094C7.3709 6.1832 7.13855 6.55816 6.83194 6.86754C6.52533 7.17693 6.15247 7.41265 5.74149 7.55694L3.96449 8.12794C3.67964 8.22684 3.4329 8.41244 3.25888 8.65869C3.08486 8.90495 2.99229 9.1995 2.99417 9.50102C2.99604 9.80255 3.09226 10.0959 3.26933 10.34C3.4464 10.5841 3.69543 10.7666 3.98149 10.8619L5.73549 11.4309C6.15997 11.5732 6.54555 11.8122 6.86177 12.1291C7.17798 12.446 7.41616 12.8321 7.55749 13.2569L8.13549 15.0319C8.23449 15.3149 8.41849 15.5609 8.66249 15.7329ZM8.28849 11.4829C8.17698 11.3372 8.0557 11.1992 7.92549 11.0699H7.92849C7.44559 10.5867 6.85666 10.2227 6.20849 10.0069L4.60849 9.49894L6.21949 8.97494C6.85702 8.7542 7.43526 8.38981 7.90949 7.90994C8.38166 7.42702 8.73766 6.84292 8.95049 6.20194L9.46549 4.61994L9.98149 6.20694C10.1968 6.85394 10.5604 7.44163 11.0433 7.9231C11.5261 8.40457 12.1149 8.76648 12.7625 8.97994L14.3825 9.50194L12.7925 10.0169C12.1461 10.2319 11.5588 10.5946 11.0773 11.0764C10.5957 11.5581 10.2332 12.1455 10.0185 12.7919L9.50349 14.3739L8.98849 12.7889C8.83124 12.3169 8.5945 11.8752 8.28849 11.4829ZM16.3295 20.7799C16.139 20.6441 15.9956 20.4522 15.9195 20.2309L15.5915 19.2239C15.5284 19.0322 15.4213 18.8579 15.2787 18.715C15.1361 18.5721 14.9621 18.4645 14.7705 18.4009L13.7795 18.0779C13.5526 18.0014 13.3554 17.8559 13.2153 17.6617C13.0753 17.4675 12.9995 17.2344 12.9985 16.9949C12.9986 16.7571 13.073 16.5252 13.2112 16.3316C13.3494 16.138 13.5446 15.9924 13.7695 15.9149L14.7755 15.5889C14.9625 15.5225 15.1318 15.4142 15.2705 15.2722C15.4092 15.1303 15.5135 14.9585 15.5755 14.7699L15.8995 13.7779C15.9757 13.5537 16.1197 13.3587 16.3116 13.2198C16.5035 13.081 16.7337 13.0052 16.9705 13.0029C17.2074 13.0006 17.4391 13.0719 17.6336 13.207C17.8281 13.342 17.9759 13.5342 18.0565 13.7569L18.3855 14.7709C18.4499 14.961 18.5575 15.1336 18.6997 15.2752C18.842 15.4167 19.0151 15.5235 19.2055 15.5869L20.1975 15.9099C20.4262 15.9815 20.6265 16.1231 20.7702 16.3149C20.9138 16.5067 20.9934 16.7388 20.9977 16.9784C21.002 17.2179 20.9308 17.4528 20.7942 17.6496C20.6576 17.8464 20.4624 17.9952 20.2365 18.0749L19.2225 18.4039C19.0318 18.4683 18.8587 18.576 18.7168 18.7187C18.5748 18.8613 18.4679 19.035 18.4045 19.2259L18.0825 20.2149C18.0045 20.4449 17.8565 20.6449 17.6575 20.7849C17.4634 20.9229 17.2309 20.9967 16.9927 20.9958C16.7545 20.9949 16.5226 20.9194 16.3295 20.7799ZM15.2995 16.9969C15.6924 17.1366 16.0491 17.3627 16.3431 17.6585C16.6371 17.9542 16.8611 18.3122 16.9985 18.7059C17.1374 18.3139 17.3622 17.9578 17.6563 17.6637C17.9504 17.3696 18.3065 17.1449 18.6985 17.0059C18.303 16.8672 17.9434 16.6419 17.6462 16.3464C17.349 16.0508 17.1215 15.6926 16.9805 15.2979C16.8427 15.6877 16.6204 16.0422 16.3297 16.3361C16.0389 16.63 15.6868 16.856 15.2985 16.9979L15.2995 16.9969Z" fill="url(#paint0_linear_894_13180)"/>
<defs>
<linearGradient id="paint0_linear_894_13180" x1="11.996" y1="-7.80372" x2="11.996" y2="31.7956" gradientUnits="userSpaceOnUse">
<stop offset="0.283874" stop-color="#D5DBE6"/>
<stop offset="1" stop-color="#04070D"/>
</linearGradient>
</defs>
</svg>
