<svg width="36" height="36" viewBox="0 0 36 36" fill="none" xmlns="http://www.w3.org/2000/svg">
<path d="M22.125 22.5C23.574 22.5 24.75 23.676 24.75 25.125L24.7485 26.568C24.924 29.853 22.482 31.5135 18.1005 31.5135C13.7355 31.5135 11.25 29.8785 11.25 26.625V25.125C11.25 23.676 12.426 22.5 13.875 22.5H22.125ZM22.125 24.75H13.875C13.7755 24.75 13.6802 24.7895 13.6098 24.8598C13.5395 24.9302 13.5 25.0255 13.5 25.125V26.625C13.5 28.389 14.8305 29.2635 18.1005 29.2635C21.3525 29.2635 22.593 28.4175 22.5 26.628V25.125C22.5 25.0255 22.4605 24.9302 22.3902 24.8598C22.3198 24.7895 22.2245 24.75 22.125 24.75ZM5.625 15H12.189C12 15.7343 11.9517 16.4977 12.0465 17.25H5.625C5.52554 17.25 5.43016 17.2895 5.35984 17.3598C5.28951 17.4302 5.25 17.5255 5.25 17.625V19.125C5.25 20.889 6.5805 21.7635 9.8505 21.7635C10.5435 21.7635 11.145 21.7245 11.661 21.648C10.8027 22.1917 10.176 23.0338 9.9015 24.012L9.8505 24.0135C5.4855 24.0135 3 22.3785 3 19.125V17.625C3 16.176 4.176 15 5.625 15ZM30.375 15C31.824 15 33 16.176 33 17.625L32.9985 19.068C33.174 22.353 30.732 24.0135 26.3505 24.0135L26.097 24.0105C25.8142 23.0055 25.1614 22.1449 24.27 21.6015C24.8505 21.7095 25.5405 21.7635 26.3505 21.7635C29.6025 21.7635 30.843 20.9175 30.75 19.128V17.625C30.75 17.5255 30.7105 17.4302 30.6402 17.3598C30.5698 17.2895 30.4745 17.25 30.375 17.25H23.955C24.0478 16.4976 23.999 15.7344 23.811 15H30.375ZM18 12C18.5909 12 19.1761 12.1164 19.7221 12.3425C20.268 12.5687 20.7641 12.9002 21.182 13.318C21.5998 13.7359 21.9313 14.232 22.1575 14.7779C22.3836 15.3239 22.5 15.9091 22.5 16.5C22.5 17.0909 22.3836 17.6761 22.1575 18.2221C21.9313 18.768 21.5998 19.2641 21.182 19.682C20.7641 20.0998 20.268 20.4313 19.7221 20.6575C19.1761 20.8836 18.5909 21 18 21C16.8065 21 15.6619 20.5259 14.818 19.682C13.9741 18.8381 13.5 17.6935 13.5 16.5C13.5 15.3065 13.9741 14.1619 14.818 13.318C15.6619 12.4741 16.8065 12 18 12ZM18 14.25C17.7045 14.25 17.4119 14.3082 17.139 14.4213C16.866 14.5343 16.6179 14.7001 16.409 14.909C16.2001 15.1179 16.0343 15.366 15.9213 15.639C15.8082 15.9119 15.75 16.2045 15.75 16.5C15.75 16.7955 15.8082 17.0881 15.9213 17.361C16.0343 17.634 16.2001 17.8821 16.409 18.091C16.6179 18.2999 16.866 18.4657 17.139 18.5787C17.4119 18.6918 17.7045 18.75 18 18.75C18.5967 18.75 19.169 18.5129 19.591 18.091C20.0129 17.669 20.25 17.0967 20.25 16.5C20.25 15.9033 20.0129 15.331 19.591 14.909C19.169 14.4871 18.5967 14.25 18 14.25ZM9.75 4.5C10.9435 4.5 12.0881 4.97411 12.932 5.81802C13.7759 6.66193 14.25 7.80653 14.25 9C14.25 10.1935 13.7759 11.3381 12.932 12.182C12.0881 13.0259 10.9435 13.5 9.75 13.5C8.55653 13.5 7.41193 13.0259 6.56802 12.182C5.72411 11.3381 5.25 10.1935 5.25 9C5.25 7.80653 5.72411 6.66193 6.56802 5.81802C7.41193 4.97411 8.55653 4.5 9.75 4.5ZM26.25 4.5C27.4435 4.5 28.5881 4.97411 29.432 5.81802C30.2759 6.66193 30.75 7.80653 30.75 9C30.75 10.1935 30.2759 11.3381 29.432 12.182C28.5881 13.0259 27.4435 13.5 26.25 13.5C25.0565 13.5 23.9119 13.0259 23.068 12.182C22.2241 11.3381 21.75 10.1935 21.75 9C21.75 7.80653 22.2241 6.66193 23.068 5.81802C23.9119 4.97411 25.0565 4.5 26.25 4.5ZM9.75 6.75C9.15326 6.75 8.58097 6.98705 8.15901 7.40901C7.73705 7.83097 7.5 8.40326 7.5 9C7.5 9.59674 7.73705 10.169 8.15901 10.591C8.58097 11.0129 9.15326 11.25 9.75 11.25C10.3467 11.25 10.919 11.0129 11.341 10.591C11.7629 10.169 12 9.59674 12 9C12 8.40326 11.7629 7.83097 11.341 7.40901C10.919 6.98705 10.3467 6.75 9.75 6.75ZM26.25 6.75C25.6533 6.75 25.081 6.98705 24.659 7.40901C24.2371 7.83097 24 8.40326 24 9C24 9.59674 24.2371 10.169 24.659 10.591C25.081 11.0129 25.6533 11.25 26.25 11.25C26.8467 11.25 27.419 11.0129 27.841 10.591C28.2629 10.169 28.5 9.59674 28.5 9C28.5 8.40326 28.2629 7.83097 27.841 7.40901C27.419 6.98705 26.8467 6.75 26.25 6.75Z" fill="url(#paint0_linear_882_10945)"/>
<defs>
<linearGradient id="paint0_linear_882_10945" x1="18.0037" y1="-11.7081" x2="18.0037" y2="47.7216" gradientUnits="userSpaceOnUse">
<stop offset="0.283874" stop-color="#D5DBE6"/>
<stop offset="1" stop-color="#04070D"/>
</linearGradient>
</defs>
</svg>
