<svg width="26" height="26" viewBox="0 0 26 26" fill="none" xmlns="http://www.w3.org/2000/svg">
<path fill-rule="evenodd" clip-rule="evenodd" d="M13 3.25C7.61741 3.25 3.25 7.61741 3.25 13C3.25 18.3826 7.61741 22.75 13 22.75C18.372 22.75 22.75 18.3826 22.75 13C22.75 7.61741 18.372 3.25 13 3.25ZM19.4401 7.7443C20.6033 9.16133 21.3012 10.9696 21.3224 12.926C21.0475 12.8731 18.298 12.3126 15.5274 12.6616C15.4639 12.5241 15.4111 12.3761 15.3476 12.228C15.1784 11.8262 14.9881 11.4138 14.7977 11.0225C17.8644 9.77468 19.2603 7.97696 19.4401 7.7443ZM13 4.68818C15.115 4.68818 17.0502 5.48129 18.5201 6.782C18.372 6.99349 17.1136 8.6749 14.1527 9.78525C12.7885 7.27901 11.2763 5.22749 11.0437 4.91025C11.6676 4.7622 12.3232 4.68818 13 4.68818ZM9.45743 5.47072C9.6795 5.76681 11.16 7.82891 12.5453 10.2823C8.65374 11.3186 5.21693 11.2975 4.8468 11.2975C5.38611 8.7172 7.13097 6.5705 9.45743 5.47072ZM4.66703 13.0106C4.66703 12.926 4.66703 12.8414 4.66703 12.7568C5.02657 12.7673 9.06617 12.8202 13.2221 11.5724C13.4653 12.0377 13.6874 12.5136 13.8989 12.9894C13.7931 13.0212 13.6768 13.0529 13.571 13.0846C9.27766 14.4699 6.99349 18.2557 6.80315 18.5729C5.48129 17.103 4.66703 15.1467 4.66703 13.0106ZM13 21.333C11.0754 21.333 9.2988 20.6773 7.89235 19.5775C8.04041 19.2709 9.73238 16.0138 14.4276 14.3747C14.4488 14.3642 14.4593 14.3642 14.4805 14.3536C15.6543 17.3886 16.1302 19.9371 16.257 20.6668C15.2524 21.1003 14.1527 21.333 13 21.333ZM17.6424 19.9054C17.5578 19.3978 17.1136 16.9656 16.0244 13.9729C18.6364 13.5605 20.9205 14.2373 21.2061 14.3324C20.8465 16.6483 19.5141 18.647 17.6424 19.9054Z" fill="white"/>
</svg>
