<svg width="48" height="48" viewBox="0 0 48 48" fill="none" xmlns="http://www.w3.org/2000/svg">
<rect width="48" height="48" fill="#04070D"/>
<path d="M42.296 40.9961L24.0138 32.9893L5.73254 40.9961L24.0138 6L42.296 40.9961ZM14.463 33.3857L24.0148 24.9912L33.5656 33.3857L24.0148 15.1035L14.463 33.3857Z" fill="url(#paint0_linear_646_1470)"/>
<path d="M24.0138 24.9545L42.2954 40.9975L24.0138 33.1968L5.73222 40.9975L24.0138 24.9545Z" fill="url(#paint1_linear_646_1470)"/>
<path d="M24.0143 15.1047L14.4636 33.3859L24.0143 24.9914V32.9894L5.73309 40.9963L24.0143 6.00018V15.1047Z" fill="url(#paint2_linear_646_1470)"/>
<path d="M24.0149 24.9578V33.2H24.0139L5.73267 41.0008L24.0139 24.9578H24.0149Z" fill="#12120F"/>
<path d="M24.0138 28.7606L33.7143 33.4616L42.2954 40.9981L24.0138 33.1974L5.73222 40.9981L14.3134 33.4616L24.0138 28.7606Z" fill="url(#paint3_linear_646_1470)"/>
<path d="M24.0147 18.1647L18.7364 28.2624L15.9561 30.5388L24.0147 15.1061V18.1647Z" fill="url(#paint4_linear_646_1470)"/>
<path d="M24.0137 18.1649L29.292 28.2626L32.0723 30.5389L24.0137 15.1063V18.1649Z" fill="url(#paint5_linear_646_1470)"/>
<path d="M24.0332 15.1158C24.0203 15.109 24.0073 15.1023 23.9944 15.0955C23.7437 15.5701 23.4931 16.0447 23.2426 16.5193C20.9881 20.7913 18.7423 25.0678 16.5052 29.3489C15.8195 30.6612 15.1347 31.9738 14.4506 33.2869L14.4633 33.2708C11.947 35.4821 9.43396 37.6969 6.92399 39.9153C6.52184 40.2708 6.11977 40.6263 5.71779 40.9819C5.72741 40.9929 5.73704 41.0039 5.74666 41.0148C6.15186 40.6629 6.55697 40.3108 6.96201 39.9587C9.49 37.7608 12.0149 35.5594 14.5366 33.3545L14.5492 33.3384C15.2366 32.027 15.9231 30.7153 16.6087 29.403C18.8458 25.1219 21.0741 20.8363 23.2937 16.546C23.5403 16.0693 23.7868 15.5926 24.0332 15.1158Z" fill="url(#paint6_linear_646_1470)"/>
<defs>
<linearGradient id="paint0_linear_646_1470" x1="24.0143" y1="6" x2="41.363" y2="40.9962" gradientUnits="userSpaceOnUse">
<stop stop-color="#F2F2F2"/>
<stop offset="0.0896143" stop-color="#EAEAE9"/>
<stop offset="0.270135" stop-color="#DEDEDE"/>
<stop offset="0.618143" stop-color="#363636"/>
<stop offset="0.698935" stop-color="#080707"/>
</linearGradient>
<linearGradient id="paint1_linear_646_1470" x1="24.7227" y1="26.2976" x2="28.0059" y2="31.894" gradientUnits="userSpaceOnUse">
<stop stop-color="#E9E9E9"/>
<stop offset="1" stop-color="#DDDDDD"/>
</linearGradient>
<linearGradient id="paint2_linear_646_1470" x1="24.0143" y1="6.00018" x2="24.0143" y2="40.9963" gradientUnits="userSpaceOnUse">
<stop stop-color="#848484"/>
<stop offset="0.273092" stop-color="#6D6D6D"/>
<stop offset="0.676932" stop-color="#404040"/>
<stop offset="1" stop-color="#434343"/>
</linearGradient>
<linearGradient id="paint3_linear_646_1470" x1="41.0269" y1="40.3265" x2="6.40379" y2="40.5131" gradientUnits="userSpaceOnUse">
<stop stop-color="#016B72"/>
<stop offset="1" stop-color="#000409"/>
</linearGradient>
<linearGradient id="paint4_linear_646_1470" x1="19.9854" y1="15.1061" x2="19.9854" y2="30.5388" gradientUnits="userSpaceOnUse">
<stop stop-color="#4F4F4F"/>
<stop offset="1"/>
</linearGradient>
<linearGradient id="paint5_linear_646_1470" x1="24.3868" y1="15.554" x2="32.0719" y2="30.5517" gradientUnits="userSpaceOnUse">
<stop stop-color="#001A21"/>
<stop offset="0.498866" stop-color="#01474D"/>
<stop offset="1" stop-color="#009EAF"/>
</linearGradient>
<linearGradient id="paint6_linear_646_1470" x1="24.0138" y1="15.1057" x2="6.03069" y2="40.9984" gradientUnits="userSpaceOnUse">
<stop stop-color="#ECECEC"/>
<stop offset="0.618975" stop-color="#888888"/>
<stop offset="1" stop-color="#FEFDE6"/>
</linearGradient>
</defs>
</svg>
