<svg width="192" height="192" viewBox="0 0 192 192" fill="none" xmlns="http://www.w3.org/2000/svg">
<rect width="192" height="192" fill="white"/>
<path d="M163.758 160.982L96.3805 131.471L29.0016 160.982L96.3805 32L163.758 160.982ZM61.1794 132.932L96.3815 101.992L131.584 132.932L96.3815 65.5527L61.1794 132.932Z" fill="url(#paint0_linear_646_1476)"/>
<path d="M96.3786 101.859L163.757 160.987L96.3786 132.237L29 160.987L96.3786 101.859Z" fill="url(#paint1_linear_646_1476)"/>
<path d="M96.3811 65.5553L61.1819 132.931L96.3811 101.994V131.47L29.0032 160.982L96.3811 32.0006V65.5553Z" fill="url(#paint2_linear_646_1476)"/>
<path d="M96.3815 101.871V132.249H96.3805L29.0016 160.999L96.3805 101.871H96.3815Z" fill="#12120F"/>
<path d="M96.3786 115.887L132.131 133.213L163.757 160.989L96.3786 132.239L29 160.989L60.6267 133.213L96.3786 115.887Z" fill="url(#paint3_linear_646_1476)"/>
<path d="M96.3804 76.8386L76.9272 114.052L66.6812 122.439L96.3804 65.5623V76.8386Z" fill="url(#paint4_linear_646_1476)"/>
<path d="M96.3787 76.8361L115.833 114.052L126.079 122.44L96.3787 65.5616V76.8361Z" fill="url(#paint5_linear_646_1476)"/>
<path d="M96.4502 65.597C96.4025 65.572 96.3548 65.5471 96.3071 65.5222C95.383 67.2712 94.4594 69.0204 93.5361 70.7698C85.2269 86.5146 76.9498 102.276 68.7049 118.055C66.1778 122.891 63.6536 127.729 61.1325 132.568L61.1791 132.509C51.9053 140.659 42.6431 148.822 33.3923 156.998C31.9102 158.308 30.4283 159.618 28.9468 160.929C28.9822 160.97 29.0177 161.01 29.0532 161.05C30.5466 159.753 32.0397 158.456 33.5325 157.158C42.8496 149.058 52.1553 140.944 61.4494 132.817L61.4959 132.758C64.0292 127.925 66.5593 123.09 69.0865 118.254C77.3314 102.476 85.5441 86.6804 93.7245 70.8683C94.6335 69.1114 95.542 67.3543 96.4502 65.597Z" fill="url(#paint6_linear_646_1476)"/>
<defs>
<linearGradient id="paint0_linear_646_1476" x1="96.38" y1="32" x2="160.321" y2="160.982" gradientUnits="userSpaceOnUse">
<stop stop-color="#F2F2F2"/>
<stop offset="0.0896143" stop-color="#EAEAE9"/>
<stop offset="0.270135" stop-color="#DEDEDE"/>
<stop offset="0.618143" stop-color="#363636"/>
<stop offset="0.698935" stop-color="#080707"/>
</linearGradient>
<linearGradient id="paint1_linear_646_1476" x1="98.9913" y1="106.809" x2="111.092" y2="127.435" gradientUnits="userSpaceOnUse">
<stop stop-color="#E9E9E9"/>
<stop offset="1" stop-color="#DDDDDD"/>
</linearGradient>
<linearGradient id="paint2_linear_646_1476" x1="96.3811" y1="32.0006" x2="96.3811" y2="160.982" gradientUnits="userSpaceOnUse">
<stop stop-color="#848484"/>
<stop offset="0.273092" stop-color="#6D6D6D"/>
<stop offset="0.676932" stop-color="#404040"/>
<stop offset="1" stop-color="#434343"/>
</linearGradient>
<linearGradient id="paint3_linear_646_1476" x1="159.082" y1="158.514" x2="31.4751" y2="159.202" gradientUnits="userSpaceOnUse">
<stop stop-color="#016B72"/>
<stop offset="1" stop-color="#000409"/>
</linearGradient>
<linearGradient id="paint4_linear_646_1476" x1="81.5308" y1="65.5623" x2="81.5308" y2="122.439" gradientUnits="userSpaceOnUse">
<stop stop-color="#4F4F4F"/>
<stop offset="1"/>
</linearGradient>
<linearGradient id="paint5_linear_646_1476" x1="97.7537" y1="67.2116" x2="126.078" y2="122.486" gradientUnits="userSpaceOnUse">
<stop stop-color="#001A21"/>
<stop offset="0.498866" stop-color="#01474D"/>
<stop offset="1" stop-color="#009EAF"/>
</linearGradient>
<linearGradient id="paint6_linear_646_1476" x1="96.3786" y1="65.5596" x2="30.1" y2="160.99" gradientUnits="userSpaceOnUse">
<stop stop-color="#ECECEC"/>
<stop offset="0.618975" stop-color="#888888"/>
<stop offset="1" stop-color="#FEFDE6"/>
</linearGradient>
</defs>
</svg>
