<svg width="514" height="514" viewBox="0 0 514 514" fill="none" xmlns="http://www.w3.org/2000/svg">
<rect width="514" height="514" fill="white"/>
<path d="M456.056 447.949L256.53 360.56L57.0048 447.949L256.53 66L456.056 447.949ZM152.293 364.886L256.535 273.267L360.777 364.886L256.535 165.359L152.293 364.886Z" fill="url(#paint0_linear_646_1480)"/>
<path d="M256.526 272.869L456.051 447.963L256.526 362.826L56.9999 447.963L256.526 272.869Z" fill="url(#paint1_linear_646_1480)"/>
<path d="M256.534 165.37L152.297 364.886L256.534 273.271L256.533 360.56L57.0094 447.949L256.533 66.002L256.534 165.37ZM456.061 447.949L456.059 447.948V447.945L456.061 447.949Z" fill="url(#paint2_linear_646_1480)"/>
<path d="M256.534 272.909V362.865L256.53 362.864L57.0047 448L256.53 272.906L256.534 272.909Z" fill="#12120F"/>
<path d="M256.526 314.41L362.396 365.717L456.051 447.97L256.526 362.833L56.9999 447.97L150.655 365.717L256.526 314.41Z" fill="url(#paint3_linear_646_1480)"/>
<path d="M256.531 198.776L198.925 308.976L168.584 333.815L256.531 165.386V198.776Z" fill="url(#paint4_linear_646_1480)"/>
<path d="M256.526 198.772L314.134 308.976L344.475 333.815L256.526 165.384V198.772Z" fill="url(#paint5_linear_646_1480)"/>
<path d="M256.737 165.489C256.596 165.415 256.455 165.342 256.314 165.268C253.577 170.447 250.842 175.627 248.108 180.807C223.502 227.432 198.992 274.106 174.577 320.83C167.093 335.152 159.618 349.478 152.153 363.809L152.291 363.633C124.829 387.767 97.4007 411.94 70.0069 436.152C65.6179 440.031 61.2297 443.911 56.8424 447.792C56.9474 447.912 57.0525 448.032 57.1575 448.152C61.5798 444.311 66.0013 440.468 70.4219 436.625C98.0124 412.638 125.569 388.612 153.091 364.546L153.229 364.371C160.73 350.059 168.223 335.742 175.707 321.421C200.122 274.697 224.442 227.923 248.666 181.099C251.358 175.896 254.048 170.693 256.737 165.489Z" fill="url(#paint6_linear_646_1480)"/>
<defs>
<linearGradient id="paint0_linear_646_1480" x1="256.53" y1="66" x2="445.876" y2="447.949" gradientUnits="userSpaceOnUse">
<stop stop-color="#F2F2F2"/>
<stop offset="0.0896143" stop-color="#EAEAE9"/>
<stop offset="0.270135" stop-color="#DEDEDE"/>
<stop offset="0.618143" stop-color="#363636"/>
<stop offset="0.698935" stop-color="#080707"/>
</linearGradient>
<linearGradient id="paint1_linear_646_1480" x1="264.262" y1="287.528" x2="300.095" y2="348.608" gradientUnits="userSpaceOnUse">
<stop stop-color="#E9E9E9"/>
<stop offset="1" stop-color="#DDDDDD"/>
</linearGradient>
<linearGradient id="paint2_linear_646_1480" x1="456.061" y1="66.002" x2="456.061" y2="447.949" gradientUnits="userSpaceOnUse">
<stop stop-color="#848484"/>
<stop offset="0.273092" stop-color="#6D6D6D"/>
<stop offset="0.676932" stop-color="#404040"/>
<stop offset="1" stop-color="#434343"/>
</linearGradient>
<linearGradient id="paint3_linear_646_1480" x1="442.207" y1="440.641" x2="64.3295" y2="442.677" gradientUnits="userSpaceOnUse">
<stop stop-color="#016B72"/>
<stop offset="1" stop-color="#000409"/>
</linearGradient>
<linearGradient id="paint4_linear_646_1480" x1="212.557" y1="165.386" x2="212.557" y2="333.815" gradientUnits="userSpaceOnUse">
<stop stop-color="#4F4F4F"/>
<stop offset="1"/>
</linearGradient>
<linearGradient id="paint5_linear_646_1480" x1="260.597" y1="170.27" x2="344.474" y2="333.953" gradientUnits="userSpaceOnUse">
<stop stop-color="#001A21"/>
<stop offset="0.498866" stop-color="#01474D"/>
<stop offset="1" stop-color="#009EAF"/>
</linearGradient>
<linearGradient id="paint6_linear_646_1480" x1="256.526" y1="165.379" x2="60.2575" y2="447.972" gradientUnits="userSpaceOnUse">
<stop stop-color="#ECECEC"/>
<stop offset="0.618975" stop-color="#888888"/>
<stop offset="1" stop-color="#FEFDE6"/>
</linearGradient>
</defs>
</svg>
