<svg width="26" height="26" viewBox="0 0 26 26" fill="none" xmlns="http://www.w3.org/2000/svg">
<path fill-rule="evenodd" clip-rule="evenodd" d="M5.87109 6.58275C5.87109 4.46382 7.58883 2.74609 9.70776 2.74609H16.2911C18.41 2.74609 20.1278 4.46382 20.1278 6.58275C20.1278 7.92449 19.439 9.10537 18.3958 9.79112C19.439 10.4769 20.1278 11.6577 20.1278 12.9995C20.1278 15.1184 18.41 16.8361 16.2911 16.8361H16.2078C15.2144 16.8361 14.3091 16.4586 13.6278 15.8392V19.3744C13.6278 21.5216 11.8651 23.2527 9.72846 23.2527C7.61479 23.2527 5.87109 21.5403 5.87109 19.4161C5.87109 18.0744 6.55979 16.8935 7.60297 16.2078C6.55979 15.522 5.87109 14.3412 5.87109 12.9995C5.87109 11.6577 6.55984 10.4769 7.60306 9.79112C6.55984 9.10537 5.87109 7.92449 5.87109 6.58275ZM12.3711 10.4195H9.70776C8.28286 10.4195 7.12776 11.5746 7.12776 12.9995C7.12776 14.4194 8.27477 15.5714 9.69277 15.5794L9.70776 15.5794H12.3711V10.4195ZM13.6278 13.0011C13.6287 14.4253 14.7834 15.5795 16.2078 15.5795H16.2911C17.716 15.5795 18.8711 14.4244 18.8711 12.9995C18.8711 11.5746 17.716 10.4195 16.2911 10.4195H16.2078C14.7834 10.4195 13.6287 11.5737 13.6278 12.9978V13.0011ZM9.70776 16.8361L9.69277 16.8361C8.27477 16.8442 7.12776 17.9962 7.12776 19.4161C7.12776 20.8357 8.29829 21.9961 9.72846 21.9961C11.1816 21.9961 12.3711 20.8171 12.3711 19.3744V16.8361H9.70776ZM9.70776 4.00276H12.3711V9.16275H9.70776C8.28286 9.16275 7.12776 8.00765 7.12776 6.58275C7.12776 5.15786 8.28286 4.00276 9.70776 4.00276ZM13.6278 9.16275V4.00276H16.2911C17.716 4.00276 18.8711 5.15786 18.8711 6.58275C18.8711 8.00765 17.716 9.16275 16.2911 9.16275H13.6278Z" fill="white"/>
</svg>
