<svg width="26" height="26" viewBox="0 0 26 26" fill="none" xmlns="http://www.w3.org/2000/svg">
<path fill-rule="evenodd" clip-rule="evenodd" d="M9.45633 9.45634C10.3962 8.5165 11.6709 7.9885 13 7.9885C14.3291 7.9885 15.6038 8.5165 16.5437 9.45634C17.4835 10.3962 18.0115 11.6709 18.0115 13C18.0115 14.3291 17.4835 15.6038 16.5437 16.5437C15.6038 17.4835 14.3291 18.0115 13 18.0115C11.6709 18.0115 10.3962 17.4835 9.45633 16.5437C8.5165 15.6038 7.9885 14.3291 7.9885 13C7.9885 11.6709 8.5165 10.3962 9.45633 9.45634ZM11.755 16.0056C12.1497 16.1691 12.5728 16.2533 13 16.2533C13.8628 16.2533 14.6903 15.9105 15.3004 15.3004C15.9105 14.6903 16.2532 13.8628 16.2532 13C16.2532 12.1372 15.9105 11.3097 15.3004 10.6996C14.6903 10.0895 13.8628 9.74675 13 9.74675C12.5728 9.74675 12.1497 9.8309 11.755 9.99439C11.3603 10.1579 11.0017 10.3975 10.6996 10.6996C10.3975 11.0017 10.1579 11.3603 9.99439 11.755C9.8309 12.1497 9.74675 12.5728 9.74675 13C9.74675 13.4272 9.8309 13.8503 9.99439 14.245C10.1579 14.6397 10.3975 14.9983 10.6996 15.3004C11.0017 15.6025 11.3603 15.8421 11.755 16.0056Z" fill="white"/>
<path d="M19.1225 8.73516C19.3446 8.513 19.4694 8.21169 19.4694 7.8975C19.4694 7.58332 19.3446 7.28201 19.1225 7.05985C18.9003 6.83769 18.599 6.71288 18.2848 6.71288C17.9706 6.71288 17.6693 6.83769 17.4472 7.05985C17.225 7.28201 17.1002 7.58332 17.1002 7.8975C17.1002 8.21169 17.225 8.513 17.4472 8.73516C17.6693 8.95732 17.9706 9.08213 18.2848 9.08213C18.599 9.08213 18.9003 8.95732 19.1225 8.73516Z" fill="white"/>
<path fill-rule="evenodd" clip-rule="evenodd" d="M8.9804 3.3085C10.0204 3.26105 10.3519 3.25 13 3.25C15.6488 3.25 15.9796 3.2617 17.019 3.3085C18.057 3.35595 18.7668 3.5217 19.3869 3.76155C20.0372 4.00651 20.6264 4.39024 21.1133 4.88605C21.6093 5.37311 21.993 5.96249 22.2378 6.6131C22.479 7.2332 22.6441 7.94235 22.6915 8.9804C22.739 10.0204 22.75 10.3519 22.75 13C22.75 15.6481 22.739 15.9796 22.6915 17.0196C22.6441 18.0577 22.479 18.7668 22.2385 19.3869C21.9935 20.0372 21.6098 20.6264 21.114 21.1133C20.6265 21.6099 20.0369 21.9934 19.3869 22.2378C18.7668 22.479 18.0577 22.6441 17.0196 22.6915C15.9796 22.739 15.6481 22.75 13 22.75C10.3519 22.75 10.0204 22.739 8.9804 22.6915C7.94235 22.6441 7.2332 22.479 6.6131 22.2385C5.96278 21.9935 5.37365 21.6097 4.8867 21.114C4.3901 20.6265 4.0066 20.0369 3.7622 19.3869C3.52105 18.7668 3.35595 18.0577 3.3085 17.0196C3.26105 15.9796 3.25 15.6488 3.25 13C3.25 10.3513 3.2617 10.0204 3.3085 8.98105C3.35595 7.943 3.5217 7.2332 3.76155 6.6131C4.00651 5.96277 4.39024 5.37364 4.88605 4.8867C5.37355 4.3901 5.9631 4.0066 6.6131 3.7622C7.2332 3.52105 7.94235 3.35595 8.9804 3.3085ZM16.9403 5.0635C15.912 5.0167 15.6033 5.00695 13 5.00695C10.3968 5.00695 10.088 5.0167 9.0597 5.0635C8.1094 5.10705 7.5933 5.26565 7.24945 5.39955C6.82592 5.55553 6.44276 5.80453 6.1282 6.1282C5.7876 6.46945 5.5757 6.79445 5.39955 7.24945C5.265 7.5933 5.10705 8.1094 5.0635 9.0597C5.0167 10.088 5.00695 10.3968 5.00695 13C5.00695 15.6033 5.0167 15.912 5.0635 16.9403C5.10705 17.8906 5.26565 18.4067 5.39955 18.7506C5.55563 19.174 5.80461 19.5572 6.1282 19.8718C6.4428 20.1954 6.82595 20.4444 7.24945 20.6005C7.5933 20.735 8.1094 20.893 9.0597 20.9365C10.088 20.9833 10.3961 20.9931 13 20.9931C15.6039 20.9931 15.912 20.9833 16.9403 20.9365C17.8906 20.893 18.4067 20.7344 18.7506 20.6005C19.1741 20.4445 19.5573 20.1955 19.8718 19.8718C20.1954 19.5572 20.4444 19.1741 20.6005 18.7506C20.735 18.4067 20.893 17.8906 20.9365 16.9403C20.9833 15.912 20.9931 15.6033 20.9931 13C20.9931 10.3968 20.9833 10.088 20.9365 9.0597C20.893 8.1094 20.7344 7.5933 20.6005 7.24945C20.4243 6.79445 20.2131 6.46945 19.8718 6.1282C19.5306 5.7876 19.2056 5.5757 18.7506 5.39955C18.4067 5.265 17.8906 5.10705 16.9403 5.0635Z" fill="white"/>
</svg>
