<svg width="36" height="36" viewBox="0 0 36 36" fill="none" xmlns="http://www.w3.org/2000/svg">
<path d="M26.6265 4.5L26.904 4.5075C28.0992 4.57555 29.2275 5.08098 30.074 5.92747C30.9205 6.77396 31.426 7.90232 31.494 9.0975L31.5015 9.375V18.033C30.8003 17.5834 30.044 17.2259 29.2515 16.9695L29.25 12H6.7515L6.75 26.625C6.75002 27.2838 6.99776 27.9185 7.44402 28.4031C7.89028 28.8877 8.50245 29.1868 9.159 29.241L9.375 29.25H16.971C17.229 30.051 17.589 30.8055 18.033 31.5H9.375C8.12979 31.5001 6.93176 31.0237 6.02665 30.1685C5.12155 29.3133 4.578 28.1442 4.5075 26.901L4.5 26.625V9.375C4.49992 8.12979 4.97633 6.93176 5.83151 6.02665C6.68668 5.12155 7.85579 4.578 9.099 4.5075L9.375 4.5H26.6265ZM26.6265 6.75H9.3765C8.68031 6.75 8.01263 7.02656 7.52034 7.51884C7.02806 8.01113 6.7515 8.67881 6.7515 9.375V9.75H29.2515V9.375C29.2515 8.67881 28.9749 8.01113 28.4827 7.51884C27.9904 7.02656 27.3227 6.75 26.6265 6.75ZM15.375 14.25C15.6469 14.25 15.9095 14.3485 16.1144 14.5272C16.3193 14.7058 16.4525 14.9527 16.4895 15.222L16.5 15.375V25.875C16.5 26.1469 16.4015 26.4095 16.2228 26.6144C16.0442 26.8193 15.7973 26.9525 15.528 26.9895L15.375 27H10.125C9.85314 27 9.59049 26.9015 9.3856 26.7228C9.18072 26.5442 9.04747 26.2973 9.0105 26.028L9 25.875V15.375C9.00001 15.1031 9.09846 14.8405 9.27715 14.6356C9.45584 14.4307 9.70267 14.2975 9.972 14.2605L10.125 14.25H15.375ZM14.25 16.5H11.25V24.75H14.25V16.5ZM27 15.375C27 15.0766 26.8815 14.7905 26.6705 14.5795C26.4595 14.3685 26.1734 14.25 25.875 14.25H19.131L18.9795 14.2605C18.6973 14.2993 18.4402 14.4438 18.2604 14.6648C18.0805 14.8857 17.9912 15.1667 18.0104 15.4509C18.0296 15.7352 18.156 16.0016 18.364 16.1963C18.572 16.391 18.8461 16.4995 19.131 16.5H25.875L26.028 16.4895C26.2973 16.4525 26.5442 16.3193 26.7228 16.1144C26.9015 15.9095 27 15.6469 27 15.375ZM21.42 20.9625C21.5321 21.3505 21.5648 21.7572 21.516 22.1581C21.4671 22.559 21.3378 22.946 21.1359 23.2957C20.9339 23.6455 20.6634 23.9509 20.3405 24.1935C20.0177 24.4362 19.6491 24.6112 19.257 24.708L18.381 24.924C18.2406 25.8223 18.2436 26.7372 18.39 27.6345L19.2 27.8295C19.5954 27.9247 19.9672 28.0994 20.293 28.3428C20.6188 28.5862 20.8917 28.8933 21.0952 29.2454C21.2986 29.5976 21.4283 29.9874 21.4764 30.3912C21.5245 30.795 21.49 31.2044 21.375 31.5945L21.0945 32.5425C21.7545 33.1215 22.5045 33.591 23.3205 33.924L24.0615 33.147C24.3417 32.8522 24.679 32.6175 25.0528 32.4571C25.4265 32.2967 25.829 32.214 26.2357 32.214C26.6425 32.214 27.045 32.2967 27.4187 32.4571C27.7925 32.6175 28.1298 32.8522 28.41 33.147L29.157 33.9345C29.9692 33.6043 30.7209 33.1415 31.3815 32.565L31.0845 31.536C30.9726 31.1481 30.9401 30.7416 30.9891 30.3408C31.038 29.9401 31.1673 29.5533 31.3693 29.2037C31.5713 28.8541 31.8417 28.5489 32.1644 28.3063C32.4872 28.0638 32.8556 27.8888 33.2475 27.792L34.122 27.576C34.2626 26.6772 34.2595 25.7618 34.113 24.864L33.303 24.669C32.9076 24.5738 32.5358 24.3991 32.21 24.1557C31.8842 23.9123 31.6113 23.6052 31.4078 23.2531C31.2044 22.9009 31.0747 22.5111 31.0266 22.1073C30.9785 21.7035 31.013 21.2941 31.128 20.904L31.4085 19.959C30.7486 19.3771 29.9963 18.9091 29.1825 18.5745L28.443 19.353C28.1627 19.648 27.8254 19.8829 27.4515 20.0434C27.0776 20.204 26.6749 20.2868 26.268 20.2868C25.8611 20.2868 25.4584 20.204 25.0845 20.0434C24.7106 19.8829 24.3733 19.648 24.093 19.353L23.346 18.5655C22.53 18.8955 21.78 19.3605 21.1215 19.9335L21.42 20.9625ZM26.25 28.5C25.05 28.5 24.075 27.492 24.075 26.25C24.075 25.0065 25.05 24 26.25 24C27.45 24 28.425 25.0065 28.425 26.25C28.425 27.492 27.45 28.5 26.25 28.5Z" fill="url(#paint0_linear_882_10949)"/>
<defs>
<linearGradient id="paint0_linear_882_10949" x1="19.3626" y1="-13.1607" x2="19.3626" y2="51.5952" gradientUnits="userSpaceOnUse">
<stop offset="0.283874" stop-color="#D5DBE6"/>
<stop offset="1" stop-color="#04070D"/>
</linearGradient>
</defs>
</svg>
