<svg width="26" height="26" viewBox="0 0 26 26" fill="none" xmlns="http://www.w3.org/2000/svg">
<path d="M13 22.75C7.61508 22.75 3.25 18.3849 3.25 13C3.25 7.61508 7.61508 3.25 13 3.25C18.3849 3.25 22.75 7.61508 22.75 13C22.75 18.3849 18.3849 22.75 13 22.75ZM19.5033 13C19.4932 12.7256 19.404 12.4599 19.2464 12.235C19.0888 12.0101 18.8695 11.8356 18.6149 11.7325C18.3603 11.6295 18.0814 11.6023 17.8117 11.6542C17.542 11.706 17.2931 11.8348 17.095 12.025C15.9859 11.271 14.6821 10.8545 13.3413 10.8258L13.975 7.78375L16.0615 8.2225C16.0863 8.45307 16.1925 8.66725 16.361 8.82659C16.5295 8.98594 16.7492 9.08001 16.9808 9.09193C17.2124 9.10384 17.4407 9.03282 17.6246 8.89161C17.8086 8.7504 17.9362 8.54824 17.9845 8.32144C18.0328 8.09463 17.9987 7.85802 17.8883 7.65408C17.778 7.45014 17.5985 7.29223 17.3822 7.20868C17.1658 7.12514 16.9268 7.12144 16.708 7.19824C16.4892 7.27505 16.3049 7.42733 16.1883 7.62775L13.7995 7.15C13.7604 7.14143 13.7201 7.1407 13.6807 7.14785C13.6413 7.155 13.6038 7.16989 13.5703 7.19165C13.5367 7.21342 13.5078 7.24163 13.4852 7.27465C13.4626 7.30766 13.4469 7.34483 13.4388 7.384L12.7172 10.7673C11.3599 10.7877 10.0382 11.2046 8.91475 11.9665C8.76445 11.8251 8.58519 11.718 8.3894 11.6528C8.19361 11.5875 7.98597 11.5656 7.78088 11.5886C7.57578 11.6115 7.37813 11.6788 7.20163 11.7858C7.02512 11.8927 6.87398 12.0368 6.75868 12.2079C6.64337 12.3791 6.56667 12.5733 6.53387 12.777C6.50108 12.9808 6.51298 13.1892 6.56876 13.3879C6.62453 13.5866 6.72284 13.7708 6.85688 13.9278C6.99091 14.0847 7.15747 14.2106 7.345 14.2968C7.33402 14.4395 7.33402 14.583 7.345 14.7258C7.345 16.9098 9.88975 18.6842 13.0293 18.6842C16.1687 18.6842 18.7135 16.9098 18.7135 14.7258C18.7245 14.583 18.7245 14.4395 18.7135 14.2968C18.9541 14.1772 19.1559 13.9919 19.2957 13.7625C19.4354 13.533 19.5074 13.2686 19.5033 13ZM9.75325 13.975C9.75325 13.7164 9.85597 13.4684 10.0388 13.2856C10.2217 13.1027 10.4697 13 10.7283 13C10.9868 13 11.2348 13.1027 11.4177 13.2856C11.6005 13.4684 11.7032 13.7164 11.7032 13.975C11.7032 14.2336 11.6005 14.4816 11.4177 14.6644C11.2348 14.8473 10.9868 14.95 10.7283 14.95C10.4697 14.95 10.2217 14.8473 10.0388 14.6644C9.85597 14.4816 9.75325 14.2336 9.75325 13.975ZM15.418 16.6562C14.7263 17.1775 13.8752 17.4429 13.0098 17.407C12.1443 17.4429 11.2932 17.1775 10.6015 16.6562C10.56 16.6057 10.5389 16.5416 10.5421 16.4763C10.5453 16.4111 10.5726 16.3493 10.6188 16.3031C10.6651 16.2569 10.7268 16.2295 10.7921 16.2263C10.8574 16.2231 10.9215 16.2443 10.972 16.2858C11.5582 16.7157 12.2737 16.9325 13 16.9C13.7272 16.9395 14.446 16.7297 15.0378 16.3053C15.0627 16.2773 15.0931 16.2548 15.1271 16.2391C15.1611 16.2235 15.198 16.215 15.2354 16.2141C15.2728 16.2133 15.31 16.2202 15.3447 16.2344C15.3794 16.2485 15.4107 16.2697 15.4369 16.2965C15.463 16.3233 15.4833 16.3552 15.4966 16.3902C15.5099 16.4252 15.5159 16.4626 15.5141 16.5C15.5123 16.5374 15.5029 16.574 15.4863 16.6076C15.4698 16.6412 15.4466 16.671 15.418 16.6953V16.6562ZM15.2425 14.989C15.0497 14.989 14.8612 14.9318 14.7008 14.8247C14.5405 14.7175 14.4155 14.5653 14.3417 14.3871C14.2679 14.209 14.2486 14.0129 14.2862 13.8238C14.3239 13.6347 14.4167 13.4609 14.5531 13.3246C14.6894 13.1882 14.8632 13.0954 15.0523 13.0577C15.2414 13.0201 15.4375 13.0394 15.6156 13.1132C15.7938 13.187 15.946 13.312 16.0532 13.4723C16.1603 13.6327 16.2175 13.8212 16.2175 14.014C16.2228 14.1461 16.2012 14.2779 16.1539 14.4014C16.1067 14.5249 16.0348 14.6375 15.9427 14.7323C15.8506 14.8272 15.7402 14.9023 15.6181 14.9531C15.4961 15.004 15.365 15.0294 15.2327 15.028L15.2425 14.989Z" fill="white"/>
</svg>
