<svg width="24" height="24" viewBox="0 0 24 24" fill="none" xmlns="http://www.w3.org/2000/svg">
<path d="M17.9981 8.00205C18.1297 8.00205 18.26 7.97613 18.3815 7.92577C18.5031 7.87542 18.6136 7.80161 18.7066 7.70857C18.7997 7.61552 18.8735 7.50506 18.9238 7.3835C18.9742 7.26193 19.0001 7.13163 19.0001 7.00005C19.0001 6.86846 18.9742 6.73817 18.9238 6.6166C18.8735 6.49503 18.7997 6.38457 18.7066 6.29153C18.6136 6.19848 18.5031 6.12467 18.3815 6.07432C18.26 6.02396 18.1297 5.99805 17.9981 5.99805C17.7323 5.99805 17.4775 6.10361 17.2896 6.29153C17.1017 6.47944 16.9961 6.7343 16.9961 7.00005C16.9961 7.26579 17.1017 7.52066 17.2896 7.70857C17.4775 7.89648 17.7323 8.00205 17.9981 8.00205Z" fill="url(#paint0_linear_894_13173)"/>
<path d="M4.25 3C3.65326 3 3.08097 3.23705 2.65901 3.65901C2.23705 4.08097 2 4.65326 2 5.25V10.25C2 10.664 2.336 11 2.75 11H11.25V13.001H10.25C10.0511 13.001 9.86032 13.08 9.71967 13.2207C9.57902 13.3613 9.5 13.5521 9.5 13.751V16.005H7.752C7.55309 16.005 7.36232 16.084 7.22167 16.2247C7.08102 16.3653 7.002 16.5561 7.002 16.755V17.5H2.75C2.55109 17.5 2.36032 17.579 2.21967 17.7197C2.07902 17.8603 2 18.0511 2 18.25C2 18.4489 2.07902 18.6397 2.21967 18.7803C2.36032 18.921 2.55109 19 2.75 19H7.001V20.253C7.001 20.668 7.337 21.003 7.751 21.003H16.249C16.4479 21.003 16.6387 20.924 16.7793 20.7833C16.92 20.6427 16.999 20.4519 16.999 20.253V19H21.25C21.4489 19 21.6397 18.921 21.7803 18.7803C21.921 18.6397 22 18.4489 22 18.25C22 18.0511 21.921 17.8603 21.7803 17.7197C21.6397 17.579 21.4489 17.5 21.25 17.5H17V16.755C17 16.5561 16.921 16.3653 16.7803 16.2247C16.6397 16.084 16.4489 16.005 16.25 16.005H14.5V13.75C14.5 13.5511 14.421 13.3603 14.2803 13.2197C14.1397 13.079 13.9489 13 13.75 13H12.75V11H21.25C21.4489 11 21.6397 10.921 21.7803 10.7803C21.921 10.6397 22 10.4489 22 10.25V5.25C22 4.65326 21.7629 4.08097 21.341 3.65901C20.919 3.23705 20.3467 3 19.75 3H4.25ZM3.5 5.25C3.5 5.05109 3.57902 4.86032 3.71967 4.71967C3.86032 4.57902 4.05109 4.5 4.25 4.5H19.75C19.9489 4.5 20.1397 4.57902 20.2803 4.71967C20.421 4.86032 20.5 5.05109 20.5 5.25V9.5H3.5V5.25ZM11 14.501H13V16.755C13 17.169 13.335 17.505 13.75 17.505H15.5V19.503H8.5V17.505H10.25C10.4489 17.505 10.6397 17.426 10.7803 17.2853C10.921 17.1447 11 16.9539 11 16.755V14.5V14.501Z" fill="url(#paint1_linear_894_13173)"/>
<defs>
<linearGradient id="paint0_linear_894_13173" x1="17.9981" y1="4.79565" x2="17.9981" y2="9.20445" gradientUnits="userSpaceOnUse">
<stop offset="0.283874" stop-color="#D5DBE6"/>
<stop offset="1" stop-color="#04070D"/>
</linearGradient>
<linearGradient id="paint1_linear_894_13173" x1="12" y1="-7.8018" x2="12" y2="31.8048" gradientUnits="userSpaceOnUse">
<stop offset="0.283874" stop-color="#D5DBE6"/>
<stop offset="1" stop-color="#04070D"/>
</linearGradient>
</defs>
</svg>
