<svg width="20" height="20" viewBox="0 0 20 20" fill="none" xmlns="http://www.w3.org/2000/svg">
<path d="M4.93934 4.93934C5.22065 4.65804 5.6022 4.5 6 4.5H6.5C6.77615 4.5 7 4.72386 7 5V7C7 7.27615 7.22385 7.5 7.5 7.5H10.5C10.7762 7.5 11 7.27615 11 7V5C11 4.72386 11.2239 4.5 11.5 4.5H12.5L14.9142 6.9142C15.2893 7.2893 15.5 7.798 15.5 8.32845V14C15.5 14.3978 15.342 14.7794 15.0607 15.0607C14.7794 15.342 14.3978 15.5 14 15.5H6C5.17155 15.5 4.5 14.8285 4.5 14V6C4.5 5.6022 4.65804 5.22065 4.93934 4.93934Z" fill="url(#paint0_linear_1745_2545)" fill-opacity="0.24"/>
<path d="M4.5 9V6C4.5 5.6022 4.65804 5.22065 4.93934 4.93934C5.22065 4.65804 5.6022 4.5 6 4.5H6.5C6.77615 4.5 7 4.72386 7 5V7C7 7.27615 7.22385 7.5 7.5 7.5H10.5C10.7762 7.5 11 7.27615 11 7V5C11 4.72386 11.2239 4.5 11.5 4.5H12.0858C12.351 4.5 12.6054 4.60535 12.7929 4.79289L14.9142 6.9142C15.2893 7.2893 15.5 7.798 15.5 8.32845V10.5V14C15.5 14.3978 15.342 14.7794 15.0607 15.0607C14.7794 15.342 14.3978 15.5 14 15.5H11.5" stroke="white" stroke-width="0.5" stroke-linecap="round" stroke-linejoin="round"/>
<path d="M4.5 14.625C6.625 14.625 6.625 12 6.625 12C6.625 12 6.625 14.625 8.75 14.625C6.625 14.625 6.625 17.25 6.625 17.25C6.625 17.25 6.625 14.625 4.5 14.625Z" fill="white"/>
<path d="M2.5 12.125C3.625 12.125 3.625 11 3.625 11C3.625 11 3.625 12.125 4.75 12.125C3.625 12.125 3.625 13.25 3.625 13.25C3.625 13.25 3.625 12.125 2.5 12.125Z" fill="white"/>
<path d="M3.5 16.25H3.505M8.75 11H8.755M8.75 17.25H8.755M6.625 12C6.625 12 6.625 14.625 4.5 14.625C6.625 14.625 6.625 17.25 6.625 17.25C6.625 17.25 6.625 14.625 8.75 14.625C6.625 14.625 6.625 12 6.625 12ZM3.625 11C3.625 11 3.625 12.125 2.5 12.125C3.625 12.125 3.625 13.25 3.625 13.25C3.625 13.25 3.625 12.125 4.75 12.125C3.625 12.125 3.625 11 3.625 11Z" stroke="white" stroke-width="0.75" stroke-linecap="round" stroke-linejoin="round"/>
<path opacity="0.32" d="M9.75 4.5H9.25C9.11193 4.5 9 4.61193 9 4.75V6.25C9 6.38807 9.11193 6.5 9.25 6.5H9.75C9.88807 6.5 10 6.38807 10 6.25V4.75C10 4.61193 9.88807 4.5 9.75 4.5Z" fill="white"/>
<defs>
<linearGradient id="paint0_linear_1745_2545" x1="10" y1="4.5" x2="10" y2="15.5" gradientUnits="userSpaceOnUse">
<stop stop-color="white" stop-opacity="0"/>
<stop offset="1" stop-color="white"/>
</linearGradient>
</defs>
</svg>
