<svg width="24" height="24" viewBox="0 0 24 24" fill="none" xmlns="http://www.w3.org/2000/svg">
<path d="M12 2.04743C12 1.83905 11.9172 1.6392 11.7699 1.49185C11.6225 1.3445 11.4227 1.26172 11.2143 1.26172C11.0059 1.26172 10.8061 1.3445 10.6587 1.49185C10.5114 1.6392 10.4286 1.83905 10.4286 2.04743V2.30934H4.40476C3.50176 2.30934 2.63575 2.66805 1.99723 3.30657C1.35871 3.94509 1 4.8111 1 5.7141V15.6665C1 16.5695 1.35871 17.4355 1.99723 18.074C2.63575 18.7125 3.50176 19.0712 4.40476 19.0712H6.91695L5.37171 20.9255C5.23835 21.0857 5.17408 21.2923 5.19303 21.4999C5.21199 21.7074 5.31263 21.899 5.47281 22.0323C5.63299 22.1657 5.83958 22.23 6.04715 22.211C6.25472 22.1921 6.44625 22.0914 6.57962 21.9312L8.96191 19.0712H11.5055C11.4852 18.8974 11.475 18.7225 11.4751 18.5474V18.0236C11.4751 17.8445 11.493 17.6695 11.5275 17.4998H4.40371C3.91748 17.4998 3.45117 17.3067 3.10735 16.9628C2.76354 16.619 2.57038 16.1527 2.57038 15.6665V5.7141C2.57038 4.7021 3.39171 3.88077 4.40371 3.88077H18.5466C19.5586 3.88077 20.3799 4.7021 20.3799 5.7141V9.59553C20.8257 9.99286 21.1748 10.4868 21.4005 11.0397C21.6262 11.5926 21.7225 12.1897 21.6821 12.7855H21.9524V5.7141C21.9524 5.26698 21.8643 4.82424 21.6932 4.41115C21.5221 3.99807 21.2713 3.62273 20.9552 3.30657C20.639 2.99041 20.2637 2.73962 19.8506 2.56851C19.4375 2.3974 18.9947 2.30934 18.5476 2.30934H12V2.04743ZM20.6313 12.7855C20.6777 12.2842 20.5913 11.7794 20.381 11.322C20.0894 10.6864 19.5767 10.1786 18.9384 9.89318C18.3 9.60775 17.5797 9.56422 16.9116 9.77069C16.2436 9.97717 15.6734 10.4196 15.3075 11.0154C14.9415 11.6112 14.8047 12.3198 14.9227 13.009C15.0406 13.6982 15.4051 14.321 15.9483 14.7613C16.4915 15.2016 17.1763 15.4293 17.875 15.4019C18.5737 15.3746 19.2386 15.094 19.7458 14.6127C20.2529 14.1313 20.5677 13.4819 20.6313 12.7855ZM21.4286 16.4522C21.8453 16.4522 22.245 16.6178 22.5397 16.9125C22.8344 17.2072 23 17.6069 23 18.0236V18.5474C23 20.6123 21.0514 22.7379 17.7619 22.7379C14.75 22.7379 12.8632 20.957 12.5657 19.0712C12.5381 18.898 12.5241 18.7229 12.5238 18.5474V18.0236C12.5234 17.8171 12.5638 17.6126 12.6426 17.4218C12.7214 17.2309 12.8371 17.0575 12.9831 16.9115C13.1292 16.7655 13.3025 16.6498 13.4934 16.571C13.6842 16.4921 13.8888 16.4518 14.0952 16.4522H21.4286ZM5.19048 7.28553C5.19048 7.07714 5.27326 6.87729 5.42061 6.72994C5.56796 6.58259 5.76781 6.49981 5.97619 6.49981H10.1667C10.3751 6.49981 10.5749 6.58259 10.7223 6.72994C10.8696 6.87729 10.9524 7.07714 10.9524 7.28553C10.9524 7.49391 10.8696 7.69376 10.7223 7.84111C10.5749 7.98846 10.3751 8.07124 10.1667 8.07124H5.97619C5.76781 8.07124 5.56796 7.98846 5.42061 7.84111C5.27326 7.69376 5.19048 7.49391 5.19048 7.28553ZM5.97619 9.64267C5.76781 9.64267 5.56796 9.72545 5.42061 9.8728C5.27326 10.0202 5.19048 10.22 5.19048 10.4284C5.19048 10.6368 5.27326 10.8366 5.42061 10.984C5.56796 11.1313 5.76781 11.2141 5.97619 11.2141H12.7857C12.9941 11.2141 13.1939 11.1313 13.3413 10.984C13.4886 10.8366 13.5714 10.6368 13.5714 10.4284C13.5714 10.22 13.4886 10.0202 13.3413 9.8728C13.1939 9.72545 12.9941 9.64267 12.7857 9.64267H5.97619ZM5.19048 13.5712C5.19048 13.3629 5.27326 13.163 5.42061 13.0157C5.56796 12.8683 5.76781 12.7855 5.97619 12.7855H11.7381C11.9465 12.7855 12.1463 12.8683 12.2937 13.0157C12.441 13.163 12.5238 13.3629 12.5238 13.5712C12.5238 13.7796 12.441 13.9795 12.2937 14.1268C12.1463 14.2742 11.9465 14.357 11.7381 14.357H5.97619C5.76781 14.357 5.56796 14.2742 5.42061 14.1268C5.27326 13.9795 5.19048 13.7796 5.19048 13.5712Z" fill="url(#paint0_linear_894_13182)"/>
<defs>
<linearGradient id="paint0_linear_894_13182" x1="12" y1="-11.624" x2="12" y2="35.6236" gradientUnits="userSpaceOnUse">
<stop offset="0.283874" stop-color="#D5DBE6"/>
<stop offset="1" stop-color="#04070D"/>
</linearGradient>
</defs>
</svg>
