<svg width="20" height="20" viewBox="0 0 20 20" fill="none" xmlns="http://www.w3.org/2000/svg">
<path d="M9.00195 8.5V17.5L11.502 14H16.002L9.00195 8.5Z" fill="white" stroke="white" stroke-width="0.5" stroke-linejoin="round"/>
<path d="M10 14.5C12.4853 14.5 14.5 12.4853 14.5 10C14.5 7.5147 12.4853 5.5 10 5.5C7.5147 5.5 5.5 7.5147 5.5 10C5.5 12.4853 7.5147 14.5 10 14.5Z" fill="white" fill-opacity="0.12"/>
<path opacity="0.4" d="M10 2.5V3.5" stroke="white" stroke-width="0.5" stroke-linecap="round" stroke-linejoin="round"/>
<path d="M13.75 3.50488L13.25 4.37088M16.495 6.24988L15.629 6.74988M17.5 9.99988H16.5M4.371 13.2499L3.505 13.7499M3.5 9.99988H2.5" stroke="white" stroke-width="0.5" stroke-linecap="round" stroke-linejoin="round"/>
<path opacity="0.4" d="M4.37186 6.74988L3.50586 6.24988M6.75087 4.37088L6.25087 3.50488" stroke="white" stroke-width="0.5" stroke-linecap="round" stroke-linejoin="round"/>
</svg>
