<svg width="26" height="26" viewBox="0 0 26 26" fill="none" xmlns="http://www.w3.org/2000/svg">
<path d="M10.8225 18.6978C12.2687 18.6978 13.4411 17.6624 13.4411 16.0792V4.33398H16.5817C16.4055 6.47598 18.5349 8.5451 20.8832 8.49777V11.4509C18.8749 11.4509 17.1671 10.6017 16.5727 10.1305V16.0792C16.5727 18.6978 14.5127 21.6673 10.8225 21.6673C7.13229 21.6673 5.11719 18.6978 5.11719 16.0792C5.11719 12.3832 9.02849 10.2396 11.619 10.7635V13.7715C11.4887 13.7254 11.1526 13.6572 10.8664 13.6572C9.40812 13.6035 8.20382 14.7862 8.20382 16.0792C8.20382 17.5254 9.37623 18.6978 10.8225 18.6978Z" fill="white"/>
</svg>
