<svg width="36" height="36" viewBox="0 0 36 36" fill="none" xmlns="http://www.w3.org/2000/svg">
<path d="M8.628 33.0075C7.73289 33.0075 6.87445 32.6519 6.24151 32.019C5.60858 31.3861 5.253 30.5276 5.253 29.6325L5.25 8.625C5.25 7.72989 5.60558 6.87145 6.23851 6.23851C6.87145 5.60558 7.72989 5.25 8.625 5.25L9.7455 5.2485V4.125C9.74561 3.85269 9.84448 3.58967 10.0238 3.38472C10.2031 3.17977 10.4506 3.04681 10.7205 3.0105L10.8705 3C11.1424 3.00001 11.405 3.09846 11.6099 3.27715C11.8148 3.45584 11.948 3.70267 11.985 3.972L11.9955 4.125V5.2485H16.5V4.125C16.5001 3.85292 16.5987 3.59008 16.7777 3.38516C16.9567 3.18025 17.2039 3.04714 17.4735 3.0105L17.625 3C17.8969 3.00001 18.1595 3.09846 18.3644 3.27715C18.5693 3.45584 18.7025 3.70267 18.7395 3.972L18.75 4.125V5.2485H23.247V4.125C23.247 3.85314 23.3455 3.59049 23.5242 3.3856C23.7028 3.18072 23.9497 3.04747 24.219 3.0105L24.375 3C24.6469 3.00001 24.9095 3.09846 25.1144 3.27715C25.3193 3.45584 25.4525 3.70267 25.4895 3.972L25.5 4.125V5.2485H26.6235C27.5186 5.2485 28.3771 5.60408 29.01 6.23701C29.6429 6.86995 29.9985 7.72839 29.9985 8.6235V15.1155C29.3162 14.6843 28.5486 14.4059 27.7485 14.2995V8.625C27.7485 8.32663 27.63 8.04048 27.419 7.8295C27.208 7.61853 26.9219 7.5 26.6235 7.5H8.61C8.31424 7.50394 8.03193 7.62421 7.82418 7.83476C7.61644 8.04531 7.49997 8.32921 7.5 8.625L7.5015 29.631C7.5015 30.2535 8.007 30.756 8.6265 30.756H18.4035C18.7035 31.5675 19.161 32.3295 19.758 33.006L8.628 33.0075ZM27.747 15.8175C28.6275 15.9795 29.409 16.4175 29.997 17.043C30.7221 17.8075 31.1259 18.8213 31.125 19.875C31.1267 20.9283 30.724 21.942 30 22.707C29.6146 23.1157 29.1496 23.4413 28.6337 23.6636C28.1177 23.886 27.5618 24.0005 27 24C26.427 23.9995 25.8604 23.8796 25.3363 23.6479C24.8122 23.4163 24.3421 23.078 23.956 22.6547C23.5699 22.2313 23.2762 21.7321 23.0937 21.189C22.9112 20.6458 22.8438 20.0706 22.8959 19.5C22.948 18.9294 23.1184 18.3758 23.3963 17.8747C23.6741 17.3736 24.0533 16.9359 24.5097 16.5894C24.9661 16.243 25.4897 15.9954 26.0471 15.8625C26.6044 15.7296 27.1834 15.7143 27.747 15.8175ZM21.726 25.5H32.25C32.8467 25.5 33.419 25.7371 33.841 26.159C34.2629 26.581 34.5 27.1533 34.5 27.75V28.5C34.5 31.4565 31.71 34.5 27 34.5C24.9315 34.5 23.235 33.915 21.981 33.0075C21.1614 32.4255 20.4958 31.6527 20.0415 30.756C19.6896 30.0558 19.5042 29.2837 19.5 28.5V27.75C19.5 27.1569 19.7341 26.5877 20.1516 26.1664C20.569 25.745 21.1359 25.5055 21.729 25.5H21.726ZM10.872 18H21.693C21.4384 18.7212 21.3337 19.4869 21.3855 20.25H10.872C10.587 20.2499 10.3126 20.1416 10.1043 19.947C9.89604 19.7524 9.76939 19.4861 9.74996 19.2017C9.73053 18.9173 9.81977 18.6362 9.99965 18.4151C10.1795 18.1939 10.4366 18.0494 10.719 18.0105L10.872 18ZM10.872 24H16.8705C17.1555 24.0001 17.4299 24.1084 17.6382 24.303C17.8465 24.4976 17.9731 24.7639 17.9925 25.0483C18.012 25.3327 17.9227 25.6138 17.7429 25.8349C17.563 26.0561 17.3059 26.2006 17.0235 26.2395L16.8705 26.25H10.872C10.587 26.2499 10.3126 26.1416 10.1043 25.947C9.89604 25.7524 9.76939 25.4861 9.74996 25.2017C9.73053 24.9173 9.81977 24.6362 9.99965 24.4151C10.1795 24.1939 10.4366 24.0494 10.719 24.0105L10.872 24ZM10.872 12H24.372C24.6569 12.0005 24.931 12.109 25.139 12.3037C25.347 12.4984 25.4734 12.7648 25.4926 13.0491C25.5118 13.3333 25.4225 13.6143 25.2426 13.8352C25.0628 14.0562 24.8058 14.2007 24.5235 14.2395L24.372 14.25H10.872C10.587 14.2499 10.3126 14.1416 10.1043 13.947C9.89604 13.7524 9.76939 13.4861 9.74996 13.2017C9.73053 12.9173 9.81977 12.6362 9.99965 12.4151C10.1795 12.1939 10.4366 12.0494 10.719 12.0105L10.872 12Z" fill="url(#paint0_linear_882_10947)"/>
<defs>
<linearGradient id="paint0_linear_882_10947" x1="19.875" y1="-15.9" x2="19.875" y2="53.4" gradientUnits="userSpaceOnUse">
<stop offset="0.283874" stop-color="#D5DBE6"/>
<stop offset="1" stop-color="#04070D"/>
</linearGradient>
</defs>
</svg>
