<svg width="24" height="24" viewBox="0 0 24 24" fill="none" xmlns="http://www.w3.org/2000/svg">
<path d="M5.75176 22.005C5.15502 22.005 4.58272 21.7679 4.16077 21.346C3.73881 20.924 3.50176 20.3517 3.50176 19.755L3.49976 5.75C3.49976 5.15326 3.73681 4.58097 4.15877 4.15901C4.58072 3.73705 5.15302 3.5 5.74976 3.5L6.49676 3.499V2.75C6.49683 2.56846 6.56275 2.39311 6.68228 2.25648C6.80181 2.11985 6.96684 2.03121 7.14676 2.007L7.24676 2C7.42799 2.00001 7.6031 2.06564 7.73969 2.18477C7.87628 2.30389 7.96511 2.46845 7.98976 2.648L7.99676 2.75V3.499H10.9998V2.75C10.9998 2.56861 11.0656 2.39339 11.1849 2.25677C11.3042 2.12016 11.469 2.03143 11.6488 2.007L11.7498 2C11.931 2.00001 12.1061 2.06564 12.2427 2.18477C12.3793 2.30389 12.4681 2.46845 12.4928 2.648L12.4998 2.75V3.499H15.4978V2.75C15.4978 2.56876 15.5634 2.39366 15.6825 2.25707C15.8016 2.12048 15.9662 2.03165 16.1458 2.007L16.2498 2C16.431 2.00001 16.6061 2.06564 16.7427 2.18477C16.8793 2.30389 16.9681 2.46845 16.9928 2.648L16.9998 2.75V3.499H17.7488C18.3455 3.499 18.9178 3.73605 19.3397 4.15801C19.7617 4.57997 19.9988 5.15226 19.9988 5.749V10.077C19.5439 9.78951 19.0322 9.60392 18.4988 9.533V5.75C18.4988 5.55109 18.4197 5.36032 18.2791 5.21967C18.1384 5.07902 17.9477 5 17.7488 5H5.73976C5.54258 5.00263 5.35438 5.08281 5.21588 5.22317C5.07738 5.36354 4.99974 5.55281 4.99976 5.75L5.00076 19.754C5.00076 20.169 5.33776 20.504 5.75076 20.504H12.2688C12.4688 21.045 12.7738 21.553 13.1718 22.004L5.75176 22.005ZM18.4978 10.545C19.0848 10.653 19.6058 10.945 19.9978 11.362C20.4812 11.8717 20.7504 12.5475 20.7498 13.25C20.7509 13.9522 20.4824 14.628 19.9998 15.138C19.7428 15.4105 19.4328 15.6275 19.0889 15.7758C18.7449 15.924 18.3743 16.0003 17.9998 16C17.6178 15.9996 17.24 15.9197 16.8906 15.7653C16.5412 15.6109 16.2278 15.3853 15.9704 15.1031C15.713 14.8209 15.5172 14.4881 15.3956 14.126C15.2739 13.7639 15.229 13.3804 15.2637 13C15.2984 12.6196 15.412 12.2506 15.5973 11.9165C15.7825 11.5824 16.0353 11.2906 16.3396 11.0596C16.6438 10.8286 16.9929 10.6636 17.3645 10.575C17.736 10.4864 18.122 10.4762 18.4978 10.545ZM14.4838 17H21.4998C21.8976 17 22.2791 17.158 22.5604 17.4393C22.8417 17.7206 22.9998 18.1022 22.9998 18.5V19C22.9998 20.971 21.1398 23 17.9998 23C16.6208 23 15.4898 22.61 14.6538 22.005C14.1074 21.617 13.6636 21.1018 13.3608 20.504C13.1261 20.0372 13.0026 19.5225 12.9998 19V18.5C12.9997 18.1046 13.1559 17.7252 13.4341 17.4443C13.7124 17.1634 14.0904 17.0037 14.4858 17H14.4838ZM7.24776 12H14.4618C14.292 12.4808 14.2222 12.9913 14.2568 13.5H7.24776C7.05773 13.4999 6.87482 13.4278 6.73596 13.298C6.59711 13.1683 6.51268 12.9907 6.49973 12.8011C6.48678 12.6115 6.54627 12.4241 6.66619 12.2767C6.78611 12.1293 6.95751 12.0329 7.14576 12.007L7.24776 12ZM7.24776 16H11.2468C11.4368 16.0001 11.6197 16.0722 11.7585 16.202C11.8974 16.3317 11.9818 16.5093 11.9948 16.6989C12.0077 16.8885 11.9482 17.0759 11.8283 17.2233C11.7084 17.3707 11.537 17.4671 11.3488 17.493L11.2468 17.5H7.24776C7.05773 17.4999 6.87482 17.4278 6.73596 17.298C6.59711 17.1683 6.51268 16.9907 6.49973 16.8011C6.48678 16.6115 6.54627 16.4241 6.66619 16.2767C6.78611 16.1293 6.95751 16.0329 7.14576 16.007L7.24776 16ZM7.24776 8H16.2478C16.4377 8.00031 16.6204 8.07267 16.7591 8.20248C16.8978 8.33229 16.982 8.50987 16.9948 8.69938C17.0076 8.88888 16.9481 9.07619 16.8282 9.22349C16.7083 9.37079 16.5369 9.46711 16.3488 9.493L16.2478 9.5H7.24776C7.05773 9.49994 6.87482 9.42776 6.73596 9.29803C6.59711 9.1683 6.51268 8.9907 6.49973 8.80112C6.48678 8.61154 6.54627 8.42411 6.66619 8.2767C6.78611 8.12929 6.95751 8.0329 7.14576 8.007L7.24776 8Z" fill="#D5DBE6"/>
</svg>
