<svg width="24" height="24" viewBox="0 0 24 24" fill="none" xmlns="http://www.w3.org/2000/svg">
<path d="M20.2501 3C20.449 3 20.6398 3.07902 20.7804 3.21967C20.9211 3.36032 21.0001 3.55109 21.0001 3.75V8.75C21.0001 8.94891 20.9211 9.13968 20.7804 9.28033C20.6398 9.42098 20.449 9.5 20.2501 9.5C20.0512 9.5 19.8604 9.42098 19.7198 9.28033C19.5791 9.13968 19.5001 8.94891 19.5001 8.75V5.56L13.5301 11.53C13.3895 11.6705 13.1988 11.7493 13.0001 11.7493C12.8013 11.7493 12.6107 11.6705 12.4701 11.53L10.2501 9.31L4.28009 15.28C4.13792 15.4125 3.94987 15.4846 3.75557 15.4812C3.56127 15.4777 3.37588 15.399 3.23847 15.2616C3.10106 15.1242 3.02234 14.9388 3.01892 14.7445C3.01549 14.5502 3.08761 14.3622 3.22009 14.22L9.72009 7.72C9.86072 7.57955 10.0513 7.50066 10.2501 7.50066C10.4488 7.50066 10.6395 7.57955 10.7801 7.72L13.0001 9.94L18.4401 4.5H15.2501C15.0512 4.5 14.8604 4.42098 14.7198 4.28033C14.5791 4.13968 14.5001 3.94891 14.5001 3.75C14.5001 3.55109 14.5791 3.36032 14.7198 3.21967C14.8604 3.07902 15.0512 3 15.2501 3H20.2501ZM14.2781 13.975C14.3529 14.2335 14.3747 14.5045 14.3423 14.7717C14.3099 15.0389 14.2239 15.2968 14.0894 15.5299C13.9549 15.7631 13.7748 15.9667 13.5598 16.1285C13.3448 16.2904 13.0993 16.4072 12.8381 16.472L12.2531 16.616C12.1595 17.2149 12.1615 17.8248 12.2591 18.423L12.7991 18.553C13.0627 18.6165 13.3106 18.7329 13.5278 18.8952C13.745 19.0574 13.9269 19.2622 14.0625 19.4969C14.1982 19.7317 14.2846 19.9916 14.3167 20.2608C14.3488 20.53 14.3258 20.8029 14.2491 21.063L14.0621 21.695C14.5021 22.081 15.0021 22.394 15.5471 22.616L16.0401 22.098C16.2269 21.9015 16.4518 21.745 16.7009 21.6381C16.9501 21.5312 17.2184 21.476 17.4896 21.476C17.7607 21.476 18.0291 21.5312 18.2782 21.6381C18.5274 21.745 18.7523 21.9015 18.9391 22.098L19.4381 22.623C19.9795 22.4028 20.4807 22.0943 20.9211 21.71L20.7221 21.024C20.6475 20.7654 20.6258 20.4944 20.6585 20.2272C20.6911 19.96 20.7773 19.7022 20.912 19.4692C21.0466 19.2361 21.2269 19.0326 21.4421 18.8709C21.6572 18.7092 21.9028 18.5925 22.1641 18.528L22.7471 18.384C22.8408 17.7848 22.8388 17.1746 22.7411 16.576L22.2021 16.446C21.9385 16.3825 21.6906 16.2661 21.4734 16.1038C21.2562 15.9415 21.0743 15.7368 20.9387 15.5021C20.803 15.2673 20.7166 15.0074 20.6845 14.7382C20.6524 14.469 20.6754 14.1961 20.7521 13.936L20.9381 13.306C20.4982 12.918 19.9966 12.6061 19.4541 12.383L18.9611 12.902C18.7743 13.0987 18.5494 13.2553 18.3001 13.3623C18.0508 13.4693 17.7824 13.5245 17.5111 13.5245C17.2398 13.5245 16.9714 13.4693 16.7221 13.3623C16.4728 13.2553 16.2479 13.0987 16.0611 12.902L15.5631 12.377C15.0201 12.597 14.5201 12.907 14.0801 13.289L14.2781 13.975ZM17.5001 19C16.7001 19 16.0501 18.328 16.0501 17.5C16.0501 16.671 16.7001 16 17.5001 16C18.3001 16 18.9501 16.671 18.9501 17.5C18.9501 18.328 18.3001 19 17.5001 19Z" fill="white"/>
</svg>
