<svg width="24" height="24" viewBox="0 0 24 24" fill="none" xmlns="http://www.w3.org/2000/svg">
<path d="M8.5 5.247C8.50053 4.6507 8.73785 4.07902 9.15978 3.65766C9.58171 3.23629 10.1537 2.99973 10.75 3H13.25C13.8463 2.99973 14.4183 3.23629 14.8402 3.65766C15.2622 4.07902 15.4995 4.6507 15.5 5.247V7.016H18.75C19.3463 7.01573 19.9183 7.25229 20.3402 7.67366C20.7622 8.09502 20.9995 8.6667 21 9.263V20.251C20.9997 20.4497 20.9206 20.6402 20.78 20.7807C20.6394 20.9211 20.4487 21 20.25 21H3.75C3.55109 21 3.36032 20.921 3.21967 20.7803C3.07902 20.6397 3 20.4489 3 20.25V12.26C3.00013 11.9647 3.05843 11.6722 3.17158 11.3994C3.28472 11.1266 3.45049 10.8788 3.65942 10.67C3.86836 10.4613 4.11636 10.2957 4.38927 10.1828C4.66218 10.0699 4.95466 10.0119 5.25 10.012H8.5V5.247ZM10 19.503H14V5.247C13.9997 5.04826 13.9206 4.85775 13.78 4.71732C13.6394 4.57688 13.4487 4.498 13.25 4.498H10.75C10.5511 4.498 10.3603 4.57702 10.2197 4.71767C10.079 4.85832 10 5.04909 10 5.248V19.503ZM8.5 11.51H5.25C5.05126 11.51 4.86065 11.5889 4.72002 11.7293C4.5794 11.8698 4.50026 12.0603 4.5 12.259V19.501H8.5V11.51ZM15.5 19.5H19.5V9.264C19.5 9.06509 19.421 8.87432 19.2803 8.73367C19.1397 8.59302 18.9489 8.514 18.75 8.514H15.5V19.503V19.5Z" fill="#D5DBE6"/>
</svg>
